<svg version="1.2" xmlns="http://www.w3.org/2000/svg" viewBox="0 0 3042 30" width="3042" height="30">
	<title>Path 6349</title>
	<style>
		.s0 { fill: #7bb1e2 } 
	</style>
	<path id="Path 6349" fill-rule="evenodd" class="s0" d="m3014.2 22.1c-3.4 0.4-5.9 0.8-10.2 1.1-17.1 1.1-34.7 2.2-52.1 3.2-4.1-0.8 3.5-1.9 22.3-3.2 10.3-0.8 8.5-1.4 2.4-1.4-15.2 0-9.5-1.3-14.3-1.9q0 0 0 0c-5.1 0.3-7.9 0.2-8.2 0-7.2 1.2 1.3 1.6-1 2.6-1 0.4 0.3 0.7-9.3 1.1-6.1 0.3-8.8 0.2-9.7-0.1-4-1.1-7.8-2.2-11.6-3.3 12.3-0.3 22.7-0.7 22.7-1.7 0 0-0.5 0-0.4 0-4.8 0.7-13.2 1.2-22.2 1.6-31.9 0.4 4.7-1.9 10.7-3.1-14.5 0.9-35.9 3.9-34.9 1.3q-4.1 0-8.2 0.1c-16.4-0.3 6.2-2.1 5.4-3.1-19.2 1.7-26.7 1.5-32.6 0.9-5.1-0.6 0.4-1.5 1.9-2.4 12.7-1.6 21.5-3-8.8-2.9 3 1.2 5.1 2.1 7.3 3-25.1 1.5-15.1-0.7-31.5 0-33.9 1.5-26.5 0.1-18-1.1 10.4-1.4-0.1-1.3-10.6-1.2-44.8 0.4-58.3 1.1-92.4 5.1-6.3 0.7-11.9 1.4-17.4 2.1-25.3 3.4-52.2 4.8-84 4.5 1.9-0.5 3.8-1 5.5-1.4-10.5 0.6-7.9 1-6.8 1.4-4.7 0.7-3.3 1.6-17.2 1.9-13.3 0.2-23.4-0.1-20-1.2 2.6-0.9 20.1-2.4 2.2-2.4-17.8 1.3-3.6 1.8-16.4 3.1-14-0.1-28.4-0.2-22.5-1.5 12.7-2.8 10.4-4.8-19.3-5.1-22.1-0.2-28.7-1.2-28.1-2.8 0.4-1-10-1.5-26.3-1.2-19.9 0.3-17 1.8-33.1 2.7-13.5-0.5-21.6-1.3-3.8-3.4 2.8-0.3 9.8-0.9-0.3-0.5-39.1 1.9-37.6 0-49.3-0.6-6-0.3-7.1-1.1-25.1-0.3-18.7 0.9-24.5 1.8-26.9 2.8-1.1 0.4-6.1 1-9 1.6-32.2 5.7-105.5 10.3-177.6 11.1-5.3 0.1-12.2 0.4-18.4 0.5q-0.1-0.1 0-0.3c-9-0.7 31.8-2.9 17.9-3.5-16.1 0.8-11.9 2.4-33.4 2.4-16.3 0.1 1.1-1.4 8.3-2.3 1.3-0.2 4.1-0.3 6.2-0.5-15.1-0.5-27.4 1.2-50.8 2.9 11.9-1.9-0.8-2.2 15.9-3.7q-14.4 0.6-28.8 1.2c-5.3 0.1-14.9 0.5-9.5-0.2 4.2-0.5 7.8-0.3 11.3-0.3q2-1 3.9-2l-2.1-0.1-3.4 0.1q0 0-0.1 0 3.4-0.1 5.2 0c-9.2 1-28.1 2.4-32.7 2-10.6-0.9-39.4-1.1 3.5-4.8-30.9 1.4-47.9 1.8-40 0q11.5-0.4 22.9-0.9l1.9-0.1c-0.5 0-1.6 0-1.6 0-7.1-0.2-0.8-1 4.7-1.7v-0.1c-16 0.9-15 1.9-28.1 2.7-5.7 0-13 0.1-16.8 0-21-0.9-40.3-2-62-2.8-11.3-0.5-25.6-0.7-51.7 0.7-21.1 1.2-42.6 2.7-45.5 3.9-3.3 1.4-11 2.4-31.3 4.2-27.6 2.5-27.8 1.9-41.4 1.4-4.2-0.1-37.6 2.9-47.1 1.5-2.5-0.3-8-0.4 2.9-1.4 16.2-1.4 7.9-1.3-7.6-1-27.7 0.6-45.5 0.3-43.8-1.6 1.1-1.1-11.6-1.5-6.9-2.8-48.9 2.1-29.2-1.3-48.9-1.5q-0.1-0.1 0-0.3c-19.2-0.7-26.2-2.2-40.1-3.2-21.4-1.7-51.2-2.5-80.4-3.5-15.9-0.5-73.1 2.4-77.8 4-7.3 2.5-24.3 4.8-59.3 7.6-8.1 0.6-9.5 2.1-24 2.2-17.8 0.1-46.8 1.6-54.8 0.5-16.5-2.3-35.1-4.5-52.6-6.7-2.9-0.4-9.5-0.6 5.4-1.8 22.5 0.2 20.8 2.1 42.4 2.3 6 0.3-2.5 1.5 10.1 1.5 8.3-1.2-6-1.1-8.7-1.6q-21.8-2.8-43.6-5.5-3.1-0.9-6.2-1.8-2.2-0.6-4.4-1.2c-2.7-1.7-13.5-2.9-23.3-4.2-10.3-1.4-27.7-1.6-66.3 0.7q-3.8 0.2-7.7 0.4 3.8-0.1 7.6-0.3c46.6-1.3 69.8-0.6 76.6 1.6 2.2 0.7 7.7 1.2 11.8 1.8q2.2 0.6 4.4 1.3 3 0.9 6 1.8c-4.5 1.1 5.7 1.6-7.8 3-10.9 0.5-12.1 0.2-12.7-0.2-5.2-2.9-26.8-4.8-42.2-7.2-6.7-1-26.2-0.6-46.6 0.1-18.6 0.6-30.8 1.9-43.4 3.2-38.2 3.8-67.1 7.6-92.9 11.3-13.6 2-56.4 4.8-69.7 4.7-14.1-0.2-28.4-0.5-36-1.2-27.1-2.4-51.4-4.9-76.9-7.4-3.3-0.4-4.7-0.8 1.8-1.5 6.9-0.5 19.9-0.4 20.2-1.4-5.9 0.3 3.7-1.2-9.3 0-4 0.4-3.7 0.8-11.2 1.3-27.4 0.4-28.3-1.2-34.6-2.2-13.7-2.4-28.8-4.6-52.4-6.4-13.6-0.9-31.3-0.2-56.3 1.9-16.2 1.5-27.9 2.8-32.2 4.1-7.5 2.2-17.7 4.6-26.2 6.9-3.8 1-6.7 2-29.2 2.9l-0.4 0.1c-18.4 1.3-33.2 1.9-43.4 1.3-3.2-0.2-15 0-3.7-0.8 26.9-2 12.8-2.2 5.9-2.7-15.4-1.3-31.2-2.5-46.8-3.7q-1.9-0.3-3.7-0.6-1.1 0-2.1 0h0.9q1.9 0.4 3.9 0.7c-6.1 0.8 4.8 1.5-13.9 2.3-13.9 0.7-13.3-0.4-17.7-0.8-24.3-2.5-50-5-75.8-7.4-14.6-1.3-29.4-2.7-45.6-4-5.8-0.4-16-0.6-33 0.2-16.7 0.8-13.5 1.5-19.4 2.3-12.8 1.6-19.7 3.2-28.4 4.7-11.2 2.1-10.9 3.8-56.5 6.4-25.3 1.4-30.1 1.3-37.4 0.7-56.5-4.6-81-11.2-122.5-16.7-2.6-0.4-12.3-0.6 3.5-1.6 13.2-0.8 16.8-0.1 19.5 0.3 9.8 1.3 17.2 2.8 27.3 4.2 28.2 3.8 36.4 8.8 86.1 11.2-60.1-5.4-75.5-13.5-127.4-19.5 20.3-1.1 24.2-0.4 32.9-0.3 2.9-0.9-14.6-0.7 5.8-2.9 61.8 4.3 59.7 12.3 118 16.8 14.7-2.3 24.9-4 38.6-5.9 28.6-3.8 92-7.2 127.6-6.7 31.8 0.4 61.5 0.9 67.9 3.4 4.1 1.5 9.6 3 24.2 3.9 24.5 1.6 44.8 3.5 60.1 5.7 9.7 1.4 25.7 2.4 41.9 3.9 6.8-1.1 10.4-1.7 12.8-2.2 12.2-2.5 33.2-5.2 54.6-7.9 36.7-4.6 103.4-7.9 139.3-7.2 40.4 0.8 61.5 3 69.8 5.9 16.2 5.6 67.2 9.1 111.8 13.3 30.7-4.1 48.2-7.6 87-11.3 31.4-3.1 67.7-5.9 112.5-7.3 37.5-1.3 67.9-1.4 81.5 0 31.4 3.2 32.2 8.1 64.9 11.2 23.3 2.2 23.1 2.4 69.7-2.1 49.9-4.8 170.3-10.2 205.9-9.1 38.1 1.3 71.6 3 88.6 5.7 13.9 2.3 26.7 4.7 50.5 6.3 47.7 3.3 32.3 3.1 125.2-3.1 61.1-4.2 146.9-7.1 173.8-5.3 28.4 1.9 65.8 3.1 85.2 5.6 16.5 2.2 42.8 3.8 69.3 5.3 24.6 1.4 27.3 1.2 55.1-2.5 51-6.6 117.3-10.8 201.3-12.5 2.4 0 4.9 0 7.5-0.1 20.8-0.9 43.1-1.7 56.1-1.5 17.2 0.2-12.8 2.4-10.8 3.4 0.2 0.1 0.5 0.2 1 0.4 4.8-0.6 10.1-1.1 11.5-1.4 2.2-0.6 1-1.1 15.2-1.7 10.9-0.5 17.5-0.4 18.4 0.1 3.5 1.8 21.9 2.7 31.1 4.1 7.2 1.2-0.7 3.6 12.2 3.8 25.7 0.3 28.1 1.9 32.8 3.4 2.4 0.8 37.9 0.5 47.3-0.4 60.4-6.1 127.8-9.4 201.4-10.6q0.2 0.3 0.4 0.5h0.8q-0.1-0.3-0.3-0.5c34.5-0.7 74.6-1.9 58.3 1.7-3.4 0.7 12.9 1 17.3 0.6 34-2.9 27.2-0.5 33.5-0.3 8.5 0.3 22.5 0.8-10.3 2.7-21.3 0.8-15.8 1.2-11.5 1.6 0 0 0.4 0 0.4 0q5.8-0.8 11.7-1.6c23.9-0.5 57.3 1.8 48.4 3.5-2.1 0.3-9 0.9-13.6 1.3q-5.8 0.3-11.6 0.5 0.7 0.2 1.4 0.3 5.2-0.4 10.3-0.7c30.6-2.1 40.7-1.8 46.1-0.6 7.9 1.7 14.4 3.6 34.2 4.5 7.4 0.3 15.2 0.7 9.8 1.5-9.3 1.3-26.5 1.7-41.3 2-1 0.7-5.5 1.7 14.3 1 4-0.6 7-1.3 19.7-1.6 6.5-0.1 10.4 0.1 7.6 0.5-5.8 1-15.8 1.3-26 1.5zm-2594.5-4.9l-1.5 0.1h1.8zm262.9-8.8c12.5 0.4 34.8-0.7 43.1-0.2-7.5-0.6-19.8-0.6-43.1 0.2zm75.7 4.8l-0.4 0.1q5.9 0.3 11.7 0.6h0.3q-5.8-0.3-11.6-0.7zm22.5 3.2c-1.9 0.1-3.8 0.2-5.7 0.3q1 0.1 2 0.1 2.7-0.2 5.4-0.3c-0.6 0-1.1-0.1-1.7-0.1zm49.5 4.8q-9.4-0.9-18.9-1.8l-0.5 0.1c-5.7 1.3 4 1.7 18 1.8 1.8 0.6-4.3 1.6 8.4 1.6 4.7-1-5.8-1.1-7-1.7zm70.9 5.3c-23.8-0.3-33.5-1.7-48.5-2.7h-0.5c-0.1 2.5 36.9 2.5 46.9 4.4l0.4-0.1c5.1-0.7 10.5-1.4 1.7-1.6zm546.8-16.3q23.9-0.4 47.8-0.8c-4.8-1.3-27.8 0-47.8 0.8zm166.4 8.4l-1.6 0.1h1.9zm71.1 4.5c-0.4 0-2.2 0.1-3.4 0.1q-0.2 0.2-0.5 0.4 3.1-0.2 6.2-0.3c-0.8-0.1-1.3-0.2-2.3-0.2zm196.7-10.1c24.5-0.5 45.2-1.2 56.3-0.9-8.7-0.6-15.3-1.4-56.3 0.9zm88.9 1.1c-5.1-0.1 0-1-13.1-0.4-1.5 0.1-4.1 0.4-4.7 0.5-4.9 1.2 15.7-0.5 17.1 0l0.8 0.1zm-6.4 1.8h-0.4c1.1 0.5 0.1 1.1 12.8 0.8 7.5-1.1-11.5-0.4-12.4-0.8zm49.2 2c0.1 0.1 0.4 0.1 0.4 0.1 0 0 0.9-0.1 0.9-0.1zm0.4 0.1q0 0 0 0 0 0 0 0zm217.9-2.8c-0.4 0-1.6 0.2-2.4 0.2 1.5 0 3.1 0 4.8 0q1.2-0.1 2.4-0.2c-1.6 0-3.1 0-4.8 0zm85.3-7h-0.1c0 0 2.9-0.1 2.9-0.1zm-155.2 16.7c1.1 0.1 2.2 0.1 3.7 0.1-0.5 0-0.6-0.1-1.2-0.1-0.4 0-1.6 0-2.5 0zm137.8-13.5c-1.8 0.1-3.5 0.1-5.3 0.1-0.1 0-1.1 0.2-1.7 0.3 1.7-0.1 3.4-0.1 5.2-0.1 0.2 0 1.2-0.2 1.8-0.3zm-90.1 12.3l-2.1 0.1h1.9zm209.5-14.6c-0.9 0-2.2 0.1-3.4 0.1q-0.1 0.2-0.3 0.3c2.3-0.1 4-0.3 5.7-0.4-0.6 0-1.1 0-2 0zm294.7-1.1c11.7 0.3 23-0.4 35-1.5-10.3 0.5-20.7 0.9-35 1.5zm28.9 1c-7.7 0.2-7.5 0.7-6.5 1 0.5 0.2 3.8 0.2 8.5 0.3 4.9-0.9 6.3-1.5-2-1.3zm40.7 0.2q1.8 0.1 3.6 0.3l0.7 0.1-0.1-0.2q-2.1-0.1-4.2-0.2zm54.2-4.5c-1.9 0.1-4 0.2-6 0.2q-0.1 0.1-0.3 0.2 3-0.1 6.1-0.2c0.1-0.1 0.4-0.2 0.2-0.2zm-10 3.7q-7.3 0.4-14.6 0.8c-0.1 0 0.2 0.1 0.4 0.1q7.2-0.4 14.3-0.9 3.9-0.2 7.7-0.4-3.9 0.2-7.8 0.4zm63.4 4.8c-2.3 0.1-5.7 0.2-6.5 0.3-4.5 0.4-5.9 0.8-0.5 1 2.7-0.5 4.9-0.9 7-1.3zm6.5 5h-1.8q1.1 0 2.2 0.1zm67.3 1q-1.9 0.2-3.8 0.4h0.8q1.5-0.2 3-0.4zm30.9-1.7l0.6 0.1h0.4c0 0-1-0.1-1-0.1z"/>
</svg>