<svg xmlns="http://www.w3.org/2000/svg" width="184" height="94.762"><g data-name="Group"><path d="M36.143 12.777v2.848h-7.479l1.458 1.572h7.592v-2.571c0-5.149-1.247-8.26-3.086-10.082.437.934.771 1.998 1.007 3.186.335 1.473.508 3.151.508 5.047" fill="#272726" fill-rule="evenodd" data-name="Path 5531"/><path d="M26.844 6.806c-1.361.137-2.627 1.77-2.627 14.186 0 8.7.567 12.14 1.483 13.48.29.165.59.181.883.183-.52-2.079-.794-5.661-.794-11.814 0-10.527.908-13.526 2.225-14.26-.178-.618-.422-1.141-.757-1.482a1.33 1.33 0 0 0-.413-.293" fill="#272726" fill-rule="evenodd" data-name="Path 5532"/><path d="M36.422 22.02v19.202H32.47l.005.003h-.154l-.76-1.983c-1.216 1.48-3.158 2.856-5.483 2.856-1.698 0-3.174-.35-4.447-1.06 1.551 1.725 3.613 2.632 6.295 2.632 1.897 0 3.569-.988 4.757-2.192l.053-.055 1.815 1.37h3.444V23.5l-1.572-1.479Z" fill="#272726" fill-rule="evenodd" data-name="Path 5533"/><path d="M66.53 22.897c0-10.16-1.755-15.824-4.734-18.56 2.135 3.414 3.164 8.928 3.164 16.711 0 14.298-3.463 20.956-10.897 20.956-.606 0-1.184-.048-1.737-.138a9.625 9.625 0 0 1-2.381-.49c1.64 1.551 3.658 2.2 5.967 2.2 6.427 0 10.619-4.974 10.619-20.679" fill="#272726" fill-rule="evenodd" data-name="Path 5534"/><path d="M53.721 34.59c-.32-1.57-.491-3.948-.491-7.501v-8.383c0-6.67.604-9.21 1.656-10.016-.285-1.174-.658-1.686-1.063-1.881-1.088.133-2.165 1.4-2.165 10.048v8.383c0 5.712.47 8.201 1.103 9.274.182.104.37.141.563.141.134 0 .267-.018.397-.064" fill="#272726" fill-rule="evenodd" data-name="Path 5535"/><path d="M72.519 42.793H90.17v-6.517L88.6 34.427v6.795H71.04l1.479 1.571Z" fill="#272726" fill-rule="evenodd" data-name="Path 5536"/><path d="M80.893 2.631 79.323.782v33.09h1.57V2.633Z" fill="#272726" fill-rule="evenodd" data-name="Path 5537"/><path d="M102.137 7.617a11.243 11.243 0 0 0-.628-.034v26.192c.193-.006.374-.017.55-.031.395-.08.733-.205 1.021-.403V9.149c.33.004.633.017.919.04-.388-.97-.975-1.391-1.862-1.572" fill="#272726" fill-rule="evenodd" data-name="Path 5538"/><path d="M101.455 41.222h-8.229l1.11 1.571h8.968c11.234 0 12.184-8.383 12.184-19.896 0-7.692-.482-13.656-3.98-16.973 2.133 3.59 2.408 8.874 2.408 15.125 0 11.43-.917 20.173-12.46 20.173" fill="#272726" fill-rule="evenodd" data-name="Path 5539"/><path d="M128 16.085h1.57V9.148h9.167V2.631l-1.572-1.479v6.425H128v8.508Z" fill="#272726" fill-rule="evenodd" data-name="Path 5540"/><path d="M137.556 41.222h-17.839l1.479 1.571h17.932v-6.517l-1.572-1.849v6.795Z" fill="#272726" fill-rule="evenodd" data-name="Path 5541"/><path d="M128 24.14v9.64h1.57v-8.346h6.763V18.58l-1.571-1.48V24.133l-.462.008H128Z" fill="#272726" fill-rule="evenodd" data-name="Path 5542"/><path d="M149.907 41.222h-7.164l1.479 1.571h7.257v-16.82l-1.572-4.872v20.121Z" fill="#272726" fill-rule="evenodd" data-name="Path 5543"/><path d="M158.62 42.793h6.384V2.631L163.432.782v40.44h-6.429l1.616 1.571Z" fill="#272726" fill-rule="evenodd" data-name="Path 5544"/><path d="m156.049 15.608-4.432-14.002-1.132-.623 5.564 17.577v-2.952Z" fill="#272726" fill-rule="evenodd" data-name="Path 5545"/><path d="M7.968 53.128v10.24h.338c.442 0 .854-.025 1.234-.086v-8.583H10.469c.326 0 .65.004.964.024-.378-.893-.934-1.314-1.596-1.511-.503-.082-1.04-.084-1.587-.084h-.282Z" fill="#272726" fill-rule="evenodd" data-name="Path 5546"/><path d="M10.468 54.7h-.37c.463 0 .917.009 1.351.06l-.016-.037c-.315-.02-.638-.023-.965-.023" fill="#272726" fill-rule="evenodd" data-name="Path 5547"/><path d="M19.24 51.32c1.053 1.861 1.561 4.274 1.561 7.287 0 8.006-3.42 12.238-9.89 12.238H8.282v15.928H0l1.849 1.571h8.005V72.416h2.906c6.818 0 9.613-4.806 9.613-11.96 0-4.271-1.061-7.233-3.133-9.135" fill="#272726" fill-rule="evenodd" data-name="Path 5548"/><path d="M43.905 49.888c2.134 3.414 3.163 8.928 3.163 16.711 0 14.298-3.462 20.956-10.896 20.956a10.8 10.8 0 0 1-1.737-.138 9.624 9.624 0 0 1-2.382-.49c1.641 1.551 3.659 2.2 5.968 2.2 6.427 0 10.619-4.974 10.619-20.679 0-10.159-1.757-15.824-4.735-18.56" fill="#272726" fill-rule="evenodd" data-name="Path 5549"/><path d="M34.598 64.257c0-7.967.863-10.042 2.32-10.307-.208-.737-.456-1.168-.725-1.411-.248-.155-.506-.193-.76-.193s-.51.037-.758.19c-.774.694-1.37 2.935-1.37 9.502v8.383c0 7.712.822 9.46 1.789 9.74-.322-1.572-.496-3.954-.496-7.521v-8.383Z" fill="#272726" fill-rule="evenodd" data-name="Path 5550"/><path d="M60.334 53.128v10.24h.338c.442 0 .854-.025 1.234-.086v-8.583H62.835c.326 0 .65.004.964.024-.377-.893-.934-1.314-1.596-1.511-.502-.082-1.04-.084-1.587-.084h-.282Z" fill="#272726" fill-rule="evenodd" data-name="Path 5551"/><path d="M62.834 54.7h-.37c.462 0 .916.009 1.351.06l-.016-.037c-.315-.02-.638-.023-.965-.023" fill="#272726" fill-rule="evenodd" data-name="Path 5552"/><path d="M71.606 51.32c1.053 1.861 1.561 4.274 1.561 7.287 0 8.006-3.42 12.238-9.89 12.238h-2.629v15.928h-8.282l1.479 1.571h8.375V72.416h2.906c6.818 0 9.613-4.806 9.613-11.96 0-4.271-1.061-7.233-3.133-9.135" fill="#272726" fill-rule="evenodd" data-name="Path 5553"/><path d="M88.482 87.556c-.637 0-1.242-.05-1.818-.149a9.346 9.346 0 0 1-2.188-.461c1.494 1.43 3.418 2.18 5.855 2.18 8.494 0 9.5-8.752 9.5-15.682l-1.597-1.552c-.21 8.618-1.786 15.664-9.752 15.664" fill="#272726" fill-rule="evenodd" data-name="Path 5554"/><path d="M88.482 52.367c-1.238.193-2.461 2.001-2.461 14.232 0 8.674.355 12.118 1.174 13.45.25.132.526.157.827.157.052 0 .103-.003.153-.008-.41-2.07-.583-5.635-.583-11.75 0-10.337.882-13.358 1.971-14.21-.26-1.018-.619-1.636-1.08-1.871" fill="#272726" fill-rule="evenodd" data-name="Path 5555"/><path d="m90.999 61.337 1.498 1.634 7.223-.223c0-5.056-.49-10.325-3.611-13.065 1.694 2.936 2.04 7.1 2.04 11.216v.268l-7.15.17Z" fill="#272726" fill-rule="evenodd" data-name="Path 5556"/><path d="M114.183 80.142c-.32-1.571-.491-3.948-.491-7.502v-8.383c0-6.67.604-9.21 1.656-10.016-.286-1.174-.658-1.686-1.063-1.881-1.088.133-2.165 1.4-2.165 10.048v8.383c0 5.712.47 8.202 1.103 9.274.181.104.37.141.563.141.134 0 .267-.018.397-.064" fill="#272726" fill-rule="evenodd" data-name="Path 5557"/><path d="M122.258 49.888c2.135 3.414 3.164 8.928 3.164 16.712 0 14.296-3.463 20.956-10.897 20.956-.606 0-1.184-.049-1.737-.139a9.624 9.624 0 0 1-2.381-.49c1.64 1.551 3.658 2.2 5.967 2.2 6.427 0 10.619-4.974 10.619-20.679 0-10.159-1.756-15.823-4.735-18.56" fill="#272726" fill-rule="evenodd" data-name="Path 5558"/><path d="M141.914 54.364c.123 0 .237.012.355.018-.439-.985-1.115-1.412-1.883-1.581a7.105 7.105 0 0 0-.32-.008h-.84v9.864h.436c.436 0 .81-.087 1.135-.237v-8.056h1.117Z" fill="#272726" fill-rule="evenodd" data-name="Path 5559"/><path d="M153.204 59.841c0-4.15-1.125-6.955-3.1-8.733 1.02 1.78 1.528 4.069 1.528 6.885 0 1.709-.307 7.41-4.21 9.858l4.337 18.922h-7.983l1.793 1.572h7.69l-4.303-18.779c3.242-1.9 4.248-6.371 4.248-9.725" fill="#272726" fill-rule="evenodd" data-name="Path 5560"/><path d="M139.226 69.671v17.102h-7.913l1.11 1.571h8.374v-12.19l-1.292-6.483h-.28Z" fill="#272726" fill-rule="evenodd" data-name="Path 5561"/><path d="m26.945 28.572 1.863 1.702h.139c.06-.553.097-1.126.114-1.702h-2.116Z" fill="#272726" fill-rule="evenodd" data-name="Path 5562"/><path d="M29.367 28.572h-.306a21.735 21.735 0 0 1-.114 1.702h.42v-1.702Z" fill="#272726" fill-rule="evenodd" data-name="Path 5563"/><path d="m26.657 35.21.088.025-.009-.03c-.024 0-.046.005-.07.005h-.009" fill="#bd9746" fill-rule="evenodd" data-name="Path 5564"/><path d="M26.945 22.02v5.813h2.683a24.55 24.55 0 0 1-.095 2.142c-.207 2.288-.853 5.16-2.797 5.23l.009.03-.088-.026c-2.23-.003-3.457-1.525-3.457-14.586 0-12.799 1.342-14.475 3.13-14.475.698 0 1.217.348 1.604.908.254.368.45.828.602 1.342.654 2.211.477 5.417.477 6.58h6.483v-2.57C35.496 2.235 30.634 0 25.939 0c-5.757 0-10.34 5.477-10.34 20.679 0 13.078 2.572 20.678 10.34 20.678 2.515 0 4.639-1.732 5.757-3.409l1.006 2.627h3.073V22.02h-8.83Z" fill="#bd9746" fill-rule="evenodd" data-name="Path 5565"/><path d="M53.324 0c-6.427 0-10.619 4.974-10.619 20.679 0 15.704 4.192 20.678 10.62 20.678 6.426 0 10.618-4.974 10.618-20.678C63.943 4.974 59.751 0 53.324 0m2.683 24.87c0 7.669-.8 9.879-2.16 10.27a1.768 1.768 0 0 1-.523.07c-1.677 0-2.683-1.733-2.683-10.34v-8.383c0-8.607 1.006-10.34 2.683-10.34.578 0 1.077.207 1.482.83.224.346.42.822.585 1.46.399 1.547.616 4.058.616 8.05v8.383Z" fill="#bd9746" fill-rule="evenodd" data-name="Path 5566"/><path d="M78.305 34.427V.782H71.04v39.793h16.543v-6.148h-9.278Z" fill="#bd9746" fill-rule="evenodd" data-name="Path 5567"/><path d="M99.542.782h-6.316v39.793h7.49c11.233 0 12.183-8.383 12.183-19.896 0-12.072-1.174-19.897-13.357-19.897m3.538 33.207c-.653.317-1.495.425-2.588.438V6.93c1.798.022 2.922.288 3.628 1.324.19.278.35.61.483 1.009.638 1.908.696 5.32.696 11.36 0 9.194-.132 12.356-2.219 13.366" fill="#bd9746" fill-rule="evenodd" data-name="Path 5568"/><path d="M126.983 34.427V23.585h6.762v-6.483h-6.762V6.93h9.166V.782h-16.432v39.793h16.823v-6.148h-9.557Z" fill="#bd9746" fill-rule="evenodd" data-name="Path 5569"/><path d="M156.603.782v21.014h-.112L149.841.782h-7.098v39.793h6.148V16.487h.111l.905 2.807 1.572 4.872 5.292 16.409h5.645V.782h-5.813Z" fill="#bd9746" fill-rule="evenodd" data-name="Path 5570"/><path d="M12.401 62.53" fill="#272726" fill-rule="evenodd" data-name="Path 5571"/><path d="M7.266 46.333H0v39.793h7.266V70.198h2.906c6.818 0 9.612-4.806 9.612-11.96 0-8.607-4.303-11.905-12.518-11.905m.055 18.052V52.481h.56c1.736 0 3.385.09 4.166 2.312.3.852.472 2.017.472 3.612 0 3.6-.91 5.162-2.61 5.72-.57.186-1.229.26-1.973.26h-.615Zm4.843-1.397" fill="#faf3d5" fill-rule="evenodd" data-name="Path 5572"/><path d="M35.432 45.551c-6.427 0-10.618 4.974-10.618 20.679 0 15.705 4.191 20.679 10.618 20.679 6.428 0 10.62-4.974 10.62-20.68 0-15.704-4.192-20.678-10.62-20.678m0 35.21c-.067 0-.134-.004-.2-.01l.025.095a1.257 1.257 0 0 1-.856-.413c-1.049-.811-1.651-3.354-1.651-10.011v-8.384c0-8.607 1.006-10.34 2.682-10.34.9 0 1.605.5 2.067 2.29.4 1.547.616 4.058.616 8.05v8.384c0 7.668-.799 9.878-2.159 10.269a1.89 1.89 0 0 1-.524.07" fill="#faf3d5" fill-rule="evenodd" data-name="Path 5573"/><path d="M34.4 80.433c.273.29.565.388.857.412l-.025-.094a1.55 1.55 0 0 1-.831-.318" fill="#272726" fill-rule="evenodd" data-name="Path 5574"/><path d="M64.767 62.53" fill="#272726" fill-rule="evenodd" data-name="Path 5575"/><path d="M59.632 46.333h-7.266v39.793h7.266V70.198h2.906c6.818 0 9.612-4.806 9.612-11.96 0-8.607-4.303-11.905-12.518-11.905m.055 18.052V52.481h.56c1.736 0 3.385.09 4.166 2.312.3.852.472 2.017.472 3.612 0 3.6-.91 5.162-2.61 5.72-.57.186-1.23.26-1.973.26h-.615Zm4.843-1.397" fill="#faf3d5" fill-rule="evenodd" data-name="Path 5576"/><path d="M91.096 71.316c-.107 5.53-.628 9.149-2.8 9.426-.08.01-.16.016-.245.017l-.029.002c-2.235 0-3.018-1.454-3.018-14.531 0-13.525 1.51-14.531 3.018-14.531.583 0 1.064.263 1.448.842.237.356.437.832.6 1.442.39 1.446.579 3.642.579 6.77l6.483-.224c0-7.266-1.006-14.978-9.39-14.978-5.756 0-10.339 5.477-10.339 20.679 0 13.077 2.571 20.679 10.34 20.679 8.494 0 9.5-8.384 9.5-15.314l-6.147-.28Z" fill="#faf3d5" fill-rule="evenodd" data-name="Path 5577"/><path d="M113.786 45.551c-6.428 0-10.619 4.974-10.619 20.679 0 15.705 4.191 20.679 10.619 20.679 6.427 0 10.619-4.974 10.619-20.68 0-15.704-4.192-20.678-10.62-20.678m.166 35.204c-.054.004-.11.006-.165.006-1.677 0-2.683-1.733-2.683-10.34v-8.383c0-8.606 1.006-10.34 2.683-10.34.578 0 1.077.207 1.482.831.33.199.643.601.907 1.398-.111.01-.218.03-.322.06.399 1.548.616 4.06.616 8.051v8.384c0 7.668-.8 9.878-2.16 10.269l.04.155a1.359 1.359 0 0 1-.398-.091" fill="#faf3d5" fill-rule="evenodd" data-name="Path 5578"/><path d="M113.95 80.755c.133.053.266.08.4.09-.014-.049-.027-.103-.04-.154a1.801 1.801 0 0 1-.36.064" fill="#272726" fill-rule="evenodd" data-name="Path 5579"/><path d="M116.174 53.927c-.263-.797-.576-1.2-.906-1.398.224.346.42.82.584 1.459.104-.03.212-.05.322-.06" fill="#272726" fill-rule="evenodd" data-name="Path 5580"/><path d="M139.662 63.212h-.437v.092h1.176c.138 0 .268-.01.396-.025v-.262c-.341.122-.715.195-1.135.195" fill="#272726" fill-rule="evenodd" data-name="Path 5581"/><path d="M146.368 67.348c3.242-1.9 4.248-6.372 4.248-9.725 0-8.383-4.583-11.29-11.513-11.29h-8.16v39.793h7.266V69.024h1.732l.129.647.727 3.646 2.553 12.81h7.322l-4.304-18.78Zm-5.571-4.33v.261a3.413 3.413 0 0 1-.396.025h-1.176v-.092h-1.016V52.146h1.117c1.294 0 2.337.347 3.038 1.296.208.283.389.614.534 1.012.293.805.452 1.86.452 3.225 0 2.404-.72 4.681-2.553 5.338" fill="#faf3d5" fill-rule="evenodd" data-name="Path 5582"/><path d="m182.624 53.395-6.329 39.567-6.348-1.015.252 1.631 7.4 1.184 6.4-40.024-1.375-1.343Z" fill="#272726" fill-rule="evenodd" data-name="Path 5583"/><path d="m166.624 74.23-.23-1.488-.276-1.785-3.178 19.869-6.71-1.073.848 1.727 7.166 1.146 2.656-16.61-.276-1.786Z" fill="#272726" fill-rule="evenodd" data-name="Path 5584"/><path d="m166.785 73.224-.23-1.488-.161 1.006.23 1.488.16-1.006Z" fill="#272726" fill-rule="evenodd" data-name="Path 5585"/><path d="m166.118 70.957.276 1.785.16-1.006.23 1.488-.16 1.006.276 1.786.286-1.784-.783-5.059-.285 1.784Z" fill="#272726" fill-rule="evenodd" data-name="Path 5586"/><path d="m173.23 65.37-2.144-14.195-.96-.154 2.62 17.38.272 1.808.486-3.034-.273-1.805Z" fill="#272726" fill-rule="evenodd" data-name="Path 5587"/><path d="m175.938 51.951-2.146 13.421-.289 1.803-.485 3.033-.289 1.806-.11.687-.11-.017-3.248-21.8-7.009-1.122-6.285 39.293 6.071.971 3.804-23.785.11.017.175 1.13.276 1.785.782 5.06.277 1.785 2.357 15.253 5.574.891 6.285-39.293-5.74-.918Z" fill="#faf3d5" fill-rule="evenodd" data-name="Path 5588"/></g></svg>