<svg width="2052" height="106" viewBox="0 0 2052 106" fill="none" xmlns="http://www.w3.org/2000/svg">
<g clip-path="url(#clip0_12_28)">
<path fill-rule="evenodd" clip-rule="evenodd" d="M609.966 3.71353L602.799 10.2876C610.967 9.01804 617.885 8.99134 617.732 5.95313C626.153 10.7293 611.289 18.0754 627.996 24.6048C632.31 23.1367 638.412 23.4569 644.442 23.7743C653.632 24.2595 662.656 24.746 664.929 18.9087C634.114 21.8588 661.784 11.6466 646.562 8.42245C650.64 8.57765 655.216 8.26021 660.329 7.46326C661.556 6.37968 659.169 5.45961 656.935 4.90314C658.596 4.46131 660.27 4.06522 661.953 3.7149L676.267 3.7149C679.175 4.92152 680.821 7.0395 683.146 9.15772C686.742 12.435 691.963 15.7097 705.973 15.6174C701.658 10.166 713.849 5.27936 719.392 6.44263C705.7 6.55448 712.84 15.5335 725.402 19.7112C738.384 17.1805 744.301 18.7857 749.376 20.3936C752.817 21.48 755.875 22.5706 760.484 22.372L747.462 24.3713C751.876 29.8158 762.766 29.1028 777.952 30.8198C778.335 29.5628 777.279 28.7952 775.743 28.2876C783.07 29.711 791.094 27.341 799.665 24.9711C809.518 22.2461 820.101 19.5211 831.187 22.5663C842.077 18.8765 832.24 12.3275 841.805 9.82336C855.363 13.4586 862.523 11.3755 870.053 9.29223C877.156 7.32501 884.588 5.35893 898.035 8.19582C890.054 15.5194 888.657 13.7298 908.156 20.8647L862.63 15.7154L891.848 26.3665C885.704 26.4127 879.256 25.4984 873.269 24.584C865.868 23.4515 859.173 22.3201 854.622 23.0066C868.543 28.9838 867.113 27.1621 860.537 33.2413C870.566 27.3774 880.503 29.5936 890.894 31.8097C899.977 33.7461 909.406 35.6825 919.543 32.222L918.881 14.0878C936.428 9.74514 951.874 12.751 968.985 15.7571C983.732 18.3479 999.719 20.9388 1019.36 18.8261L1005.72 21.9846C1009.11 26.27 1017.74 25.8128 1027.07 25.3514C1033.42 25.0382 1040.09 24.7266 1045.66 25.9108C1044.38 19.847 1052.97 17.6462 1058.83 13.8697C1058.12 18.3662 1089.89 13.4587 1093.74 25.564L1112.68 17.5819C1130.25 15.9041 1140.09 20.4929 1149.94 25.0831C1159.29 29.4398 1168.67 33.7949 1184.71 32.7924C1174.79 26.2015 1189.76 21.9063 1167.69 17.1931C1178.69 17.1316 1188.58 16.0242 1188.75 20.2257C1191.77 18.4388 1198.71 20.1417 1206.25 21.8447C1214.74 23.7602 1224 25.6788 1229.35 22.6336C1233.98 25.2985 1235.5 31.6447 1247.84 31.1413C1248.63 30.4199 1248.48 29.5137 1248.21 28.8901C1250.96 31.3719 1266.19 32.8038 1256.33 38.9333C1273.86 29.142 1298.6 29.8537 1322.48 30.5696C1344.74 31.2337 1366.26 31.8975 1380.48 24.058L1375.3 23.5996L1383.5 22.3274C1382.63 22.9845 1381.49 23.4806 1380.48 24.058C1404.48 26.0965 1433.39 28.0486 1455.17 28.4904C1453.77 26.6742 1455.1 25.4688 1450.98 26.0966C1465.83 23.3114 1470.52 27.5313 1475.59 31.7524C1480.77 36.0727 1486.36 40.3901 1503.65 37.2051C1521.12 27.4081 1485.49 31.9062 1496.38 28.1983C1499.01 17.1471 1511.39 19.1715 1525.82 21.1989C1537.45 22.8319 1550.4 24.4638 1560.66 19.2696L1555.09 18.0977C1565.16 14.2164 1577.77 17.2588 1592.1 20.2971C1602.8 22.5677 1614.46 24.8369 1626.74 24.2287C1626.74 24.2287 1625.35 22.4599 1626.57 21.2184C1646.23 31.3928 1683.43 34.7556 1711.08 37.5813C1702.48 29.7781 1698.52 33.4511 1703.77 25.5207C1716.16 26.6421 1700.14 38.2581 1724.88 40.4756C1732.92 36.2014 1750.76 32.4696 1753.13 24.0051L1729.8 23.5494C1737.3 16.6761 1747.27 18.5759 1756.7 20.4732C1762.3 21.6001 1767.71 22.727 1772.29 22.0195L1770.72 17.2379C1806.48 18.7899 1806.98 30.8503 1845.41 29.9863L1841.44 33.6162C1852.49 39.9009 1856.79 37.7057 1861.43 35.5134C1865.61 33.542 1870.07 31.5678 1880 35.7762L1886.33 23.6515C1900.19 26.5765 1934.88 35.3706 1959.73 37.6468C1945.65 28.6608 1916.57 24.0581 1898.58 18.7269C1912.31 18.6388 1945.26 19.622 1952.42 25.6034C1946.88 24.4331 1939.91 21.4645 1934.44 23.3283C1951.29 32.8582 1973.47 37.5435 2000.84 37.3379C1999.25 29.6494 2006.33 26.3625 2017.27 24.7742C2022.74 23.9773 2029.18 23.6093 2035.98 23.3283L2067.13 22.4264C2067.32 48.2408 2067.63 73.2122 2068.22 95.752L2068.25 96.7505L2068.28 97.4284L2068.33 98.7733L2068.46 101.425C2068.54 103.172 2068.63 104.879 2068.72 106.542C2068.9 109.872 2069.11 113.029 2069.34 115.983C2069.79 121.898 2070.34 127.012 2071 131.122C2069.88 166.878 2069.6 202.462 2069.73 238.534L2047.51 238.534C2047.12 262.565 2047.09 288.034 2048 315.772C2046.93 317.073 2045.61 311.602 2044.22 306.131C2042.7 300.109 2041.1 294.086 2039.71 297.097L2039.71 336.094C2040.73 334.903 2041.65 331.269 2042.09 322.755C2041.72 330.374 2040.8 344.971 2041.47 356.699L2044.47 326.342C2045.78 359.07 2041.97 343.456 2042.25 369.625C2043.42 369.386 2043.9 373.526 2044.27 377.665C2044.69 382.46 2044.99 387.256 2046.07 385.241C2046.31 378.558 2045.02 362.409 2046.01 352.39C2046.47 381.895 2047.97 417.564 2049.89 429.357C2048.45 426.785 2046.48 429.358 2046.15 450.966C2045.96 506.826 2049.2 470.085 2050.5 502.665C2048.74 516.19 2050.56 551.827 2046.77 552.764C2046.79 569.11 2048.56 572.134 2049.58 578.445C2047.91 607.351 2049.11 713.473 2045.08 680.893L2044.81 673.483C2044.73 674.866 2044.73 676.503 2044.64 678.203C2040.88 772.957 2046.79 875.037 2045.17 969.05L2046.44 968.902C2045.72 996.949 2045.5 1028.16 2045.13 1057.36C2045.02 1064.67 2044.91 1071.84 2044.81 1078.81L2044.36 1102.36C2044.02 1117.97 2043.54 1131.43 2042.86 1141.34L2042.82 1141.33C2038.85 1141.34 2034.61 1142.72 2031.49 1144.55C2028.42 1146.39 2026.5 1148.67 2028.73 1150.48L2020.62 1149.59L2018.88 1149.36C2018.44 1149.29 2018.02 1149.22 2017.6 1149.14C2016.77 1148.99 2015.96 1148.85 2015.18 1148.71C2012.07 1148.15 2009.32 1147.66 2006.33 1147.41C2000.35 1146.9 1993.37 1147.3 1980.42 1149.79C1998.45 1155.09 1974.2 1154.49 1998.9 1153.67C1975.59 1156.29 1970.31 1161.15 1945.29 1152.85C1953.81 1160.62 1927.75 1162.64 1916.67 1160.31L1933 1154.76C1920.54 1153.63 1909.65 1154.32 1898.58 1154.98L1904.57 1165.19C1882.71 1170.89 1862.83 1166.92 1844.2 1162.96C1822.18 1158.27 1801.93 1153.58 1782.26 1164.85C1769.64 1157.7 1808.16 1159.82 1796.88 1151.46C1774.94 1152.84 1752.09 1167.5 1745.22 1167.53C1729.66 1170.46 1722.7 1166.36 1715.24 1162.26C1708.28 1158.43 1700.9 1154.61 1685.74 1156.47C1689.75 1152.84 1693.55 1143.11 1670.05 1139.68C1648.1 1141.02 1643.07 1154.96 1656.93 1157.88C1662.19 1158.19 1664.73 1157.04 1664.51 1155.8C1671.6 1157.12 1680.91 1158.69 1672.22 1162.64L1669.37 1158.99C1658.48 1162.71 1628.28 1162.32 1635.37 1168.3C1621.23 1165.34 1626.04 1163.08 1635.38 1161.31C1622.5 1163.26 1612.11 1163.07 1601.36 1162.88C1591.23 1162.7 1580.77 1162.52 1567.59 1164.13C1572.2 1162.13 1576.44 1157.85 1571.86 1157.88C1529.35 1162.4 1553.14 1150.97 1524.33 1149.38C1507.97 1154.93 1530.2 1162.64 1501.21 1157.98C1483.5 1161.75 1497.46 1167.65 1504.49 1170.62C1478.08 1163.6 1455.13 1175.24 1440.05 1176.53L1442.63 1177.07L1432.66 1177.07L1439.83 1170.5C1431.66 1171.77 1424.74 1171.8 1424.9 1174.83C1416.48 1170.06 1431.34 1162.71 1414.63 1156.18C1410.32 1157.65 1404.22 1157.33 1398.19 1157.01C1389 1156.53 1379.97 1156.04 1377.7 1161.88C1408.52 1158.93 1380.85 1169.14 1396.07 1172.37C1391.99 1172.21 1387.42 1172.53 1382.3 1173.33C1381.07 1174.41 1383.46 1175.33 1385.7 1175.89C1384.04 1176.33 1382.36 1176.72 1380.68 1177.07L1366.36 1177.07C1363.45 1175.87 1361.81 1173.75 1359.48 1171.63C1355.89 1168.35 1350.67 1165.08 1336.66 1165.17C1340.97 1170.62 1328.78 1175.51 1323.24 1174.34C1336.93 1174.23 1329.79 1165.25 1317.23 1161.08C1304.25 1163.61 1298.33 1162 1293.25 1160.4C1289.81 1159.31 1286.76 1158.22 1282.15 1158.42L1295.17 1156.42C1290.76 1150.97 1279.87 1151.69 1264.68 1149.97C1264.29 1151.23 1265.35 1151.99 1266.89 1152.5C1259.56 1151.08 1251.54 1153.45 1242.97 1155.82C1233.11 1158.54 1222.53 1161.27 1211.44 1158.22C1200.55 1161.91 1210.39 1168.46 1200.83 1170.96C1187.27 1167.33 1180.11 1169.41 1172.58 1171.5C1165.47 1173.46 1158.04 1175.43 1144.6 1172.59C1152.58 1165.27 1153.97 1167.06 1134.47 1159.92L1180 1165.07L1150.78 1154.42C1156.93 1154.38 1163.37 1155.29 1169.36 1156.21C1176.76 1157.34 1183.46 1158.47 1188.01 1157.78C1174.09 1151.8 1175.52 1153.63 1182.09 1147.55C1172.06 1153.41 1162.13 1151.2 1151.74 1148.98C1142.65 1147.04 1133.23 1145.1 1123.09 1148.56L1123.75 1166.7C1106.2 1171.05 1090.76 1168.04 1073.64 1165.03C1058.9 1162.44 1042.91 1159.85 1023.27 1161.96L1036.91 1158.81C1033.52 1154.52 1024.89 1154.98 1015.56 1155.44C1009.21 1155.75 1002.54 1156.06 996.973 1154.88C998.25 1160.94 989.663 1163.14 983.799 1166.92C984.511 1162.42 952.746 1167.33 948.891 1155.22L929.952 1163.21C912.377 1164.88 902.544 1160.3 892.691 1155.71C883.337 1151.35 873.961 1146.99 857.924 1148C867.844 1154.58 852.875 1158.88 874.935 1163.6C863.94 1163.66 854.055 1164.76 853.879 1160.56C850.858 1162.35 843.924 1160.65 836.377 1158.94C827.894 1157.03 818.634 1155.11 813.282 1158.15C808.647 1155.49 807.131 1149.14 794.788 1149.65C793.996 1150.37 794.152 1151.28 794.418 1151.9C791.672 1149.42 776.444 1147.99 786.297 1141.85C768.77 1151.64 744.029 1150.93 720.147 1150.22C697.886 1149.56 676.373 1148.89 662.148 1156.73L667.329 1157.19L659.131 1158.46C659.998 1157.8 661.143 1157.31 662.148 1156.73C638.15 1154.69 609.24 1152.74 587.458 1152.3C588.857 1154.12 587.528 1155.32 591.647 1154.69C576.794 1157.48 572.112 1153.26 567.044 1149.04C561.859 1144.72 556.274 1140.4 538.98 1143.58C521.512 1153.38 557.138 1148.88 546.247 1152.59C543.622 1163.64 531.242 1161.62 516.809 1159.59C505.185 1157.96 492.232 1156.33 481.969 1161.52L487.54 1162.69C477.47 1166.57 464.863 1163.53 450.53 1160.49C439.832 1158.22 428.174 1155.95 415.888 1156.56C415.888 1156.56 417.286 1158.33 416.056 1159.57C396.403 1149.4 359.198 1146.03 331.55 1143.21C340.152 1151.01 344.112 1147.34 338.86 1155.27C326.468 1154.15 342.491 1142.53 317.756 1140.31C309.713 1144.59 291.868 1148.32 289.501 1156.78L312.833 1157.24C305.335 1164.11 295.358 1162.21 285.927 1160.31C280.329 1159.19 274.921 1158.06 270.337 1158.77L271.909 1163.55C236.148 1162 235.654 1149.94 197.22 1150.8L201.192 1147.17C190.141 1140.89 185.846 1143.08 181.2 1145.27C177.022 1147.25 172.558 1149.22 162.634 1145.01L156.294 1157.14C142.436 1154.21 107.753 1145.42 82.8976 1143.14C96.9786 1152.13 126.058 1156.73 144.056 1162.06C130.317 1162.15 97.3715 1161.17 90.2129 1155.18C95.7511 1156.36 102.727 1159.32 108.193 1157.46C91.3398 1147.93 69.1676 1143.25 41.7901 1143.45C43.3785 1151.14 36.2982 1154.43 25.3576 1156.02C19.8866 1156.81 13.4507 1157.18 6.65284 1157.46C-3.48667 1157.75 -14.1687 1158.06 -24.4984 1158.36C-24.6927 1132.55 -24.9988 1107.58 -25.5888 1085.04L-25.6168 1084.04L-25.6448 1083.36L-25.7035 1082.01C-25.7426 1081.12 -25.7847 1080.24 -25.8238 1079.36C-25.9133 1077.62 -26.0028 1075.91 -26.0866 1074.25C-26.2726 1070.92 -26.4782 1067.76 -26.7047 1064.8C-27.1605 1058.89 -27.7099 1053.78 -28.3684 1049.67C-24.7373 933.842 -29.9218 819.889 -29.3402 684.943C-24.8605 712.982 -25.5553 694.652 -25.3205 676.322C-25.1527 663.363 -24.5235 650.403 -21.2714 653.834C-20.7736 622.627 -20.898 610.596 -21.3972 607.681L-21.0713 614.29C-21.2209 611.467 -21.309 609.882 -21.4376 607.477L-21.4166 607.477L-26.0977 512.359C-27.412 499.37 -27.7868 511.23 -28.2048 523.09C-28.5096 531.84 -28.841 540.59 -29.589 539.365C-30.1916 470.557 -32.9138 510.478 -34.9999 464.978L-34.9999 464.955C-32.1952 474.278 -30.9801 441.016 -32.0525 401.796L-28.4313 457.037C-24.255 360.865 -35.0195 373.907 -30.8851 276.972L-33.3529 307.633C-32.8076 289.004 -32.676 258.596 -32.3978 225.284L-2.72036 225.284C-2.67605 220.768 -2.61545 216.252 -2.53859 211.737L-3.80807 211.886C-3.08661 183.839 -2.87131 152.631 -2.4966 123.424C-2.38614 116.122 -2.28131 108.945 -2.17504 101.974L-1.73334 78.4273C-1.38239 62.821 -0.909744 49.3537 -0.228835 39.4463L-0.189751 39.4575C3.77825 39.4533 8.01753 38.0678 11.1396 36.2349C14.21 34.4005 16.1354 32.1158 13.9039 30.308C16.9057 30.6394 19.5748 30.9301 22.016 31.1986C22.6075 31.2741 23.1862 31.3522 23.7539 31.4249C24.1901 31.499 24.6152 31.5747 25.0332 31.6488C25.8665 31.7998 26.6706 31.9422 27.4479 32.0793C30.5658 32.6413 33.3062 33.125 36.2983 33.3795C42.281 33.8898 49.2607 33.4917 62.2133 30.9917C44.1826 25.7011 68.4351 26.3006 43.7337 27.1157C67.0384 24.5011 72.315 19.6425 97.338 27.9322C88.8204 20.1682 114.882 18.1493 125.964 20.4744L109.632 26.0282C122.09 27.1621 132.979 26.4713 144.045 25.8128L138.061 15.5979C159.919 9.90038 179.806 13.864 198.433 17.832C220.448 22.5187 240.706 27.2067 260.37 15.9403C272.987 23.0863 234.47 20.9709 245.752 29.3263C267.688 27.9463 290.546 13.2867 297.414 13.2573C312.969 10.3267 319.933 14.4303 327.394 18.5325C334.347 22.3565 341.731 26.1805 356.898 24.3139C352.877 27.9464 349.078 37.6775 372.578 41.1128C394.534 39.7621 399.56 25.8267 385.704 22.9045C380.437 22.5969 377.898 23.7504 378.119 24.9864C371.029 23.6679 361.722 22.1021 370.414 18.1495L373.263 21.7958C384.152 18.0767 414.356 18.4653 407.261 12.4937C421.4 15.448 416.587 17.7049 407.251 19.475C420.131 17.5245 430.52 17.716 441.273 17.9048C451.406 18.0865 461.862 18.2627 475.039 16.6534C470.43 18.6584 466.187 22.9409 470.773 22.9045C513.283 18.3912 489.49 29.8156 518.295 31.4109C534.659 25.8574 512.431 18.1496 541.427 22.8069C559.13 19.0444 545.175 13.1371 538.138 10.1674C564.556 17.1932 587.495 5.54774 602.584 4.26003L600.006 3.7149L609.966 3.71353ZM656.935 4.90314C656.592 5.00101 656.473 5.00117 656.152 5.07108C653.838 4.58033 653.334 4.3761 653.757 4.3761C654.18 4.3761 655.537 4.58016 656.935 4.90314ZM646.562 8.42245C644.101 8.33017 641.822 8.0688 639.716 7.63257C642.633 7.79056 644.862 8.06032 646.562 8.42245ZM1058.83 13.8697C1058.97 12.9833 1059.91 11.8984 1062.97 10.0934C1062.14 11.6132 1060.52 12.7666 1058.83 13.8697ZM242.478 13.6304L227.201 11.8967L221.783 10.7811L242.478 13.6304ZM1354.42 14.6962L1350.67 24.3714C1343.28 22.8376 1341.04 14.1982 1350.15 14.1968C1351.37 14.1968 1352.78 14.3508 1354.42 14.6962ZM480.714 15.9584C478.647 16.2814 476.908 16.4256 475.037 16.6507C476.476 16.0299 477.921 15.5921 479.12 15.5921C479.724 15.5921 480.266 15.7025 480.714 15.9584ZM1868.47 21.3529C1859.06 21.9247 1849.67 24.795 1843.68 24.795C1842.71 24.795 1841.83 24.7182 1841.05 24.5435C1844.49 21.4018 1851.48 18.9883 1858.27 18.9883C1861.92 18.9883 1865.52 19.689 1868.47 21.3529ZM23.4576 19.6217L24.3608 19.7405L25.0599 19.8634C25.9141 20.0326 26.458 20.2187 26.7656 20.4242C27.3822 20.8409 27.0551 21.3329 26.391 21.9439C25.724 22.5549 24.7159 23.2806 23.9692 24.1559C23.8742 24.2691 23.7861 24.3824 23.6994 24.4887C23.5834 24.6145 23.4729 24.732 23.3709 24.8355C23.1625 25.0746 22.9934 25.3221 22.8745 25.5779C22.701 25.9491 22.6509 26.3659 22.7319 26.7675C21.9798 24.2898 21.1596 21.8335 20.2724 19.4009C21.4805 19.4862 22.5348 19.5574 23.4576 19.6217ZM1231.04 21.5778C1230.52 22.0196 1230.01 22.3274 1229.35 22.6336C1227.87 21.7709 1226.04 21.2508 1223.34 21.5696C1224.49 21.3039 1225.57 21.0941 1226.95 21.0941C1228.06 21.0941 1229.36 21.2282 1231.04 21.5778ZM760.484 22.372L767.969 21.2183C765.523 21.8745 763.014 22.2616 760.484 22.372ZM1220.03 22.2741C1221.27 21.9064 1222.36 21.6842 1223.34 21.5696C1222.36 21.7933 1221.33 22.0616 1220.03 22.2741ZM384.426 27.1622C380.131 26.9231 378.336 25.9092 378.119 24.9864C382.104 25.6547 385.38 26.2785 384.426 27.1622ZM773.739 27.7869C770.258 27.1241 766.41 27.1244 769.581 26.0282C770.896 26.7699 772.291 27.3597 773.739 27.7869ZM22.8815 27.2516C22.8102 27.088 22.7626 26.9272 22.7319 26.772C22.7808 26.9328 22.834 27.0908 22.8815 27.2516ZM775.743 28.2876C775.069 28.1562 774.402 27.9854 773.739 27.7869C774.417 27.9103 775.086 28.0787 775.743 28.2876ZM1248.21 28.8861C1247.95 28.6512 1247.8 28.4105 1247.79 28.1491C1247.79 28.1491 1248.03 28.4498 1248.21 28.8861ZM2042.17 320.865L2042.19 320.347C2042.19 320.521 2042.18 320.691 2042.17 320.864L2042.17 320.865ZM2051.07 432.875L2051.07 433.481C2050.66 433.236 2050.26 431.67 2049.89 429.357C2050.36 430.031 2050.78 431.372 2051.07 432.875ZM-21.4376 607.481C-21.9647 605.179 -22.8889 613.011 -23.9431 620.839C-25.7104 633.922 -27.8496 647.004 -29.1625 612.822C-27.6553 633.312 -26.6514 619.058 -25.6434 604.81C-25.0002 595.68 -24.3528 586.553 -23.5712 586.553C-22.963 586.553 -22.2723 592.09 -21.4376 607.481ZM2044.84 679.61C2044.78 679.299 2044.72 678.902 2044.65 678.206C2044.72 678.606 2044.79 679.091 2044.84 679.61ZM2045.08 680.896L2045.16 683.35C2045.06 681.974 2044.96 680.689 2044.84 679.61C2044.92 680.029 2045 680.291 2045.08 680.896ZM2045.67 697.378L2045.16 683.35C2045.44 687.174 2045.59 691.982 2045.67 697.378ZM2047 733.414C2045.62 735.935 2045.97 714.946 2045.67 697.378L2047 733.414ZM794.837 1152.64C794.837 1152.64 794.602 1152.34 794.419 1151.9C794.676 1152.14 794.833 1152.38 794.837 1152.64ZM1268.89 1153C1268.19 1152.87 1267.5 1152.7 1266.89 1152.5C1267.56 1152.63 1268.23 1152.8 1268.89 1153ZM1273.05 1154.76C1271.69 1153.99 1270.3 1153.42 1268.89 1153C1272.37 1153.66 1276.22 1153.67 1273.05 1154.76ZM2019.9 1154.02C2019.85 1153.86 2019.79 1153.7 2019.75 1153.54C2019.82 1153.69 2019.87 1153.85 2019.9 1154.02ZM1664.51 1155.8C1660.52 1155.13 1657.25 1154.51 1658.21 1153.63C1662.5 1153.87 1664.29 1154.88 1664.51 1155.8ZM2022.36 1161.39L2019.17 1161.17C2018.85 1161.12 2018.55 1161.09 2018.27 1161.05C2018.02 1161 2017.78 1160.96 2017.57 1160.92C2016.72 1160.76 2016.17 1160.57 2015.86 1160.37C2015.25 1159.95 2015.58 1159.46 2016.24 1158.84C2016.91 1158.23 2017.91 1157.51 2018.66 1156.63C2018.75 1156.52 2018.84 1156.41 2018.93 1156.3C2019.05 1156.17 2019.16 1156.06 2019.26 1155.95C2019.47 1155.71 2019.64 1155.47 2019.76 1155.21C2019.93 1154.84 2019.98 1154.42 2019.9 1154.02C2020.65 1156.5 2021.47 1158.95 2022.36 1161.39ZM201.584 1156.24C196.285 1161.08 182.595 1164.19 174.162 1159.44C183.571 1158.86 192.961 1156 198.948 1156C199.923 1156 200.805 1156.07 201.584 1156.24ZM688.209 1166.09L691.959 1156.42C700.342 1158.15 702.102 1169.03 688.209 1166.09ZM819.288 1159.22C817.216 1159.7 815.368 1159.99 811.593 1159.21C812.11 1158.77 812.622 1158.46 813.285 1158.15C814.756 1159.02 816.594 1159.54 819.288 1159.22ZM1274.66 1159.57C1277.11 1158.91 1279.62 1158.53 1282.15 1158.42L1274.66 1159.57ZM819.288 1159.22C820.268 1158.99 821.298 1158.73 822.603 1158.52C821.52 1158.84 820.411 1159.08 819.288 1159.22L819.288 1159.22ZM1561.92 1164.83C1563.98 1164.51 1565.72 1164.36 1567.59 1164.14C1565.43 1165.08 1563.25 1165.59 1561.92 1164.83ZM979.659 1170.7C980.489 1169.18 982.11 1168.02 983.799 1166.92C983.661 1167.8 982.721 1168.89 979.659 1170.7ZM1815.43 1168.89L1820.85 1170.01L1800.15 1167.16L1815.43 1168.89L1815.43 1168.89ZM1402.92 1173.15C1400 1173 1397.77 1172.73 1396.07 1172.36C1398.53 1172.46 1400.81 1172.72 1402.92 1173.15ZM1385.7 1175.89C1386.04 1175.79 1386.16 1175.79 1386.48 1175.72C1391.11 1176.7 1388.49 1176.53 1385.7 1175.89Z" fill="#2C2C2B"/>
<path d="M609.966 3.71353L602.799 10.2876C610.967 9.01804 617.885 8.99134 617.732 5.95313C626.153 10.7293 611.289 18.0754 627.996 24.6048C632.31 23.1367 638.412 23.4569 644.442 23.7743C653.632 24.2595 662.656 24.746 664.929 18.9087C634.114 21.8588 661.784 11.6466 646.562 8.42245C650.64 8.57765 655.216 8.26021 660.329 7.46326C661.556 6.37968 659.169 5.45961 656.935 4.90314C658.596 4.46131 660.27 4.06522 661.953 3.7149L676.267 3.7149C679.175 4.92152 680.821 7.0395 683.146 9.15772C686.742 12.435 691.963 15.7097 705.973 15.6174C701.658 10.166 713.849 5.27936 719.392 6.44263C705.7 6.55448 712.84 15.5335 725.402 19.7112C738.384 17.1805 744.301 18.7857 749.376 20.3936C752.817 21.48 755.875 22.5706 760.484 22.372L747.462 24.3713C751.876 29.8158 762.766 29.1028 777.952 30.8198C778.335 29.5628 777.279 28.7952 775.743 28.2876C783.07 29.711 791.094 27.341 799.665 24.9711C809.518 22.2461 820.101 19.5211 831.187 22.5663C842.077 18.8765 832.24 12.3275 841.805 9.82336C855.363 13.4586 862.523 11.3755 870.053 9.29223C877.156 7.32501 884.588 5.35893 898.035 8.19582C890.054 15.5194 888.657 13.7298 908.156 20.8647L862.63 15.7154L891.848 26.3665C885.704 26.4127 879.256 25.4984 873.269 24.584C865.868 23.4515 859.173 22.3201 854.622 23.0066C868.543 28.9838 867.113 27.1621 860.537 33.2413C870.566 27.3774 880.503 29.5936 890.894 31.8097C899.977 33.7461 909.406 35.6825 919.543 32.222L918.881 14.0878C936.428 9.74514 951.874 12.751 968.985 15.7571C983.732 18.3479 999.719 20.9388 1019.36 18.8261L1005.72 21.9846C1009.11 26.27 1017.74 25.8128 1027.07 25.3514C1033.42 25.0382 1040.09 24.7266 1045.66 25.9108C1044.38 19.847 1052.97 17.6462 1058.83 13.8697C1058.12 18.3662 1089.89 13.4587 1093.74 25.564L1112.68 17.5819C1130.25 15.9041 1140.09 20.4929 1149.94 25.0831C1159.29 29.4398 1168.67 33.7949 1184.71 32.7924C1174.79 26.2015 1189.76 21.9063 1167.69 17.1931C1178.69 17.1316 1188.58 16.0242 1188.75 20.2257C1191.77 18.4388 1198.71 20.1417 1206.25 21.8447C1214.74 23.7602 1224 25.6788 1229.35 22.6336C1233.98 25.2985 1235.5 31.6447 1247.84 31.1413C1248.63 30.4199 1248.48 29.5137 1248.21 28.8901C1250.96 31.3719 1266.19 32.8038 1256.33 38.9333C1273.86 29.142 1298.6 29.8537 1322.48 30.5696C1344.74 31.2337 1366.26 31.8975 1380.48 24.058L1375.3 23.5996L1383.5 22.3274C1382.63 22.9845 1381.49 23.4806 1380.48 24.058C1404.48 26.0965 1433.39 28.0486 1455.17 28.4904C1453.77 26.6742 1455.1 25.4688 1450.98 26.0966C1465.83 23.3114 1470.52 27.5313 1475.59 31.7524C1480.77 36.0727 1486.36 40.3901 1503.65 37.2051C1521.12 27.4081 1485.49 31.9062 1496.38 28.1983C1499.01 17.1471 1511.39 19.1715 1525.82 21.1989C1537.45 22.8319 1550.4 24.4638 1560.66 19.2696L1555.09 18.0977C1565.16 14.2164 1577.77 17.2588 1592.1 20.2971C1602.8 22.5677 1614.46 24.8369 1626.74 24.2287C1626.74 24.2287 1625.35 22.4599 1626.57 21.2184C1646.23 31.3928 1683.43 34.7556 1711.08 37.5813C1702.48 29.7781 1698.52 33.4511 1703.77 25.5207C1716.16 26.6421 1700.14 38.2581 1724.88 40.4756C1732.92 36.2014 1750.76 32.4696 1753.13 24.0051L1729.8 23.5494C1737.3 16.6761 1747.27 18.5759 1756.7 20.4732C1762.3 21.6001 1767.71 22.727 1772.29 22.0195L1770.72 17.2379C1806.48 18.7899 1806.98 30.8503 1845.41 29.9863L1841.44 33.6162C1852.49 39.9009 1856.79 37.7057 1861.43 35.5134C1865.61 33.542 1870.07 31.5678 1880 35.7762L1886.33 23.6515C1900.19 26.5765 1934.88 35.3706 1959.73 37.6468C1945.65 28.6608 1916.57 24.0581 1898.58 18.7269C1912.31 18.6388 1945.26 19.622 1952.42 25.6034C1946.88 24.4331 1939.91 21.4645 1934.44 23.3283C1951.29 32.8582 1973.47 37.5435 2000.84 37.3379C1999.25 29.6494 2006.33 26.3625 2017.27 24.7742C2022.74 23.9773 2029.18 23.6093 2035.98 23.3283L2067.13 22.4264C2067.32 48.2408 2067.63 73.2122 2068.22 95.752L2068.25 96.7505L2068.28 97.4284L2068.33 98.7733L2068.46 101.425C2068.54 103.172 2068.63 104.879 2068.72 106.542C2068.9 109.872 2069.11 113.029 2069.34 115.983C2069.79 121.898 2070.34 127.012 2071 131.122C2069.88 166.878 2069.6 202.462 2069.73 238.534L2047.51 238.534C2047.12 262.565 2047.09 288.034 2048 315.772C2046.93 317.073 2045.61 311.602 2044.22 306.131C2042.7 300.109 2041.1 294.086 2039.71 297.097L2039.71 336.094C2040.73 334.903 2041.65 331.269 2042.09 322.755C2041.72 330.374 2040.8 344.971 2041.47 356.699L2044.47 326.342C2045.78 359.07 2041.97 343.456 2042.25 369.625C2043.42 369.386 2043.9 373.526 2044.27 377.665C2044.69 382.46 2044.99 387.256 2046.07 385.241C2046.31 378.558 2045.02 362.409 2046.01 352.39C2046.47 381.895 2047.97 417.564 2049.89 429.357C2048.45 426.785 2046.48 429.358 2046.15 450.966C2045.96 506.826 2049.2 470.085 2050.5 502.665C2048.74 516.19 2050.56 551.827 2046.77 552.764C2046.79 569.11 2048.56 572.134 2049.58 578.445C2047.91 607.351 2049.11 713.473 2045.08 680.893L2044.81 673.483C2044.73 674.866 2044.73 676.503 2044.64 678.203C2040.88 772.957 2046.79 875.037 2045.17 969.05L2046.44 968.902C2045.72 996.949 2045.5 1028.16 2045.13 1057.36C2045.02 1064.67 2044.91 1071.84 2044.81 1078.81L2044.36 1102.36C2044.02 1117.97 2043.54 1131.43 2042.86 1141.34L2042.82 1141.33C2038.85 1141.34 2034.61 1142.72 2031.49 1144.55C2028.42 1146.39 2026.5 1148.67 2028.73 1150.48L2020.62 1149.59L2018.88 1149.36C2018.44 1149.29 2018.02 1149.22 2017.6 1149.14C2016.77 1148.99 2015.96 1148.85 2015.18 1148.71C2012.07 1148.15 2009.32 1147.66 2006.33 1147.41C2000.35 1146.9 1993.37 1147.3 1980.42 1149.79C1998.45 1155.09 1974.2 1154.49 1998.9 1153.67C1975.59 1156.29 1970.31 1161.15 1945.29 1152.85C1953.81 1160.62 1927.75 1162.64 1916.67 1160.31L1933 1154.76C1920.54 1153.63 1909.65 1154.32 1898.58 1154.98L1904.57 1165.19C1882.71 1170.89 1862.83 1166.92 1844.2 1162.96C1822.18 1158.27 1801.93 1153.58 1782.26 1164.85C1769.64 1157.7 1808.16 1159.82 1796.88 1151.46C1774.94 1152.84 1752.09 1167.5 1745.22 1167.53C1729.66 1170.46 1722.7 1166.36 1715.24 1162.26C1708.28 1158.43 1700.9 1154.61 1685.74 1156.47C1689.75 1152.84 1693.55 1143.11 1670.05 1139.68C1648.1 1141.02 1643.07 1154.96 1656.93 1157.88C1662.19 1158.19 1664.73 1157.04 1664.51 1155.8C1671.6 1157.12 1680.91 1158.69 1672.22 1162.64L1669.37 1158.99C1658.48 1162.71 1628.28 1162.32 1635.37 1168.3C1621.23 1165.34 1626.04 1163.08 1635.38 1161.31C1622.5 1163.26 1612.11 1163.07 1601.36 1162.88C1591.23 1162.7 1580.77 1162.52 1567.59 1164.13C1572.2 1162.13 1576.44 1157.85 1571.86 1157.88C1529.35 1162.4 1553.14 1150.97 1524.33 1149.38C1507.97 1154.93 1530.2 1162.64 1501.21 1157.98C1483.5 1161.75 1497.46 1167.65 1504.49 1170.62C1478.08 1163.6 1455.13 1175.24 1440.05 1176.53L1442.63 1177.07L1432.66 1177.07L1439.83 1170.5C1431.66 1171.77 1424.74 1171.8 1424.9 1174.83C1416.48 1170.06 1431.34 1162.71 1414.63 1156.18C1410.32 1157.65 1404.22 1157.33 1398.19 1157.01C1389 1156.53 1379.97 1156.04 1377.7 1161.88C1408.52 1158.93 1380.85 1169.14 1396.07 1172.37C1391.99 1172.21 1387.42 1172.53 1382.3 1173.33C1381.07 1174.41 1383.46 1175.33 1385.7 1175.89C1384.04 1176.33 1382.36 1176.72 1380.68 1177.07L1366.36 1177.07C1363.45 1175.87 1361.81 1173.75 1359.48 1171.63C1355.89 1168.35 1350.67 1165.08 1336.66 1165.17C1340.97 1170.62 1328.78 1175.51 1323.24 1174.34C1336.93 1174.23 1329.79 1165.25 1317.23 1161.08C1304.25 1163.61 1298.33 1162 1293.25 1160.4C1289.81 1159.31 1286.76 1158.22 1282.15 1158.42L1295.17 1156.42C1290.76 1150.97 1279.87 1151.69 1264.68 1149.97C1264.29 1151.23 1265.35 1151.99 1266.89 1152.5C1259.56 1151.08 1251.54 1153.45 1242.97 1155.82C1233.11 1158.54 1222.53 1161.27 1211.44 1158.22C1200.55 1161.91 1210.39 1168.46 1200.83 1170.96C1187.27 1167.33 1180.11 1169.41 1172.58 1171.5C1165.47 1173.46 1158.04 1175.43 1144.6 1172.59C1152.58 1165.27 1153.97 1167.06 1134.47 1159.92L1180 1165.07L1150.78 1154.42C1156.93 1154.38 1163.37 1155.29 1169.36 1156.21C1176.76 1157.34 1183.46 1158.47 1188.01 1157.78C1174.09 1151.8 1175.52 1153.63 1182.09 1147.55C1172.06 1153.41 1162.13 1151.2 1151.74 1148.98C1142.65 1147.04 1133.23 1145.1 1123.09 1148.56L1123.75 1166.7C1106.2 1171.05 1090.76 1168.04 1073.64 1165.03C1058.9 1162.44 1042.91 1159.85 1023.27 1161.96L1036.91 1158.81C1033.52 1154.52 1024.89 1154.98 1015.56 1155.44C1009.21 1155.75 1002.54 1156.06 996.973 1154.88C998.25 1160.94 989.663 1163.14 983.799 1166.92C984.511 1162.42 952.746 1167.33 948.891 1155.22L929.952 1163.21C912.377 1164.88 902.544 1160.3 892.691 1155.71C883.337 1151.35 873.961 1146.99 857.924 1148C867.844 1154.58 852.875 1158.88 874.935 1163.6C863.94 1163.66 854.055 1164.76 853.879 1160.56C850.858 1162.35 843.924 1160.65 836.377 1158.94C827.894 1157.03 818.634 1155.11 813.282 1158.15C808.647 1155.49 807.131 1149.14 794.788 1149.65C793.996 1150.37 794.152 1151.28 794.418 1151.9C791.672 1149.42 776.444 1147.99 786.297 1141.85C768.77 1151.64 744.029 1150.93 720.147 1150.22C697.886 1149.56 676.373 1148.89 662.148 1156.73L667.329 1157.19L659.131 1158.46C659.998 1157.8 661.143 1157.31 662.148 1156.73C638.15 1154.69 609.24 1152.74 587.458 1152.3C588.857 1154.12 587.528 1155.32 591.647 1154.69C576.794 1157.48 572.112 1153.26 567.044 1149.04C561.859 1144.72 556.274 1140.4 538.98 1143.58C521.512 1153.38 557.138 1148.88 546.247 1152.59C543.622 1163.64 531.242 1161.62 516.809 1159.59C505.185 1157.96 492.232 1156.33 481.969 1161.52L487.54 1162.69C477.47 1166.57 464.863 1163.53 450.53 1160.49C439.832 1158.22 428.174 1155.95 415.888 1156.56C415.888 1156.56 417.286 1158.33 416.056 1159.57C396.403 1149.4 359.198 1146.03 331.55 1143.21C340.152 1151.01 344.112 1147.34 338.86 1155.27C326.468 1154.15 342.491 1142.53 317.756 1140.31C309.713 1144.59 291.868 1148.32 289.501 1156.78L312.833 1157.24C305.335 1164.11 295.358 1162.21 285.927 1160.31C280.329 1159.19 274.921 1158.06 270.337 1158.77L271.909 1163.55C236.148 1162 235.654 1149.94 197.22 1150.8L201.192 1147.17C190.141 1140.89 185.846 1143.08 181.2 1145.27C177.022 1147.25 172.558 1149.22 162.634 1145.01L156.294 1157.14C142.436 1154.21 107.753 1145.42 82.8976 1143.14C96.9786 1152.13 126.058 1156.73 144.056 1162.06C130.317 1162.15 97.3715 1161.17 90.2129 1155.18C95.7511 1156.36 102.727 1159.32 108.193 1157.46C91.3398 1147.93 69.1676 1143.25 41.7901 1143.45C43.3785 1151.14 36.2982 1154.43 25.3576 1156.02C19.8866 1156.81 13.4507 1157.18 6.65284 1157.46C-3.48667 1157.75 -14.1687 1158.06 -24.4984 1158.36C-24.6927 1132.55 -24.9988 1107.58 -25.5888 1085.04L-25.6168 1084.04L-25.6448 1083.36L-25.7035 1082.01C-25.7426 1081.12 -25.7847 1080.24 -25.8238 1079.36C-25.9133 1077.62 -26.0028 1075.91 -26.0866 1074.25C-26.2726 1070.92 -26.4782 1067.76 -26.7047 1064.8C-27.1605 1058.89 -27.7099 1053.78 -28.3684 1049.67C-24.7373 933.842 -29.9218 819.889 -29.3402 684.943C-24.8605 712.982 -25.5553 694.652 -25.3205 676.322C-25.1527 663.363 -24.5235 650.403 -21.2714 653.834C-20.7736 622.627 -20.898 610.596 -21.3972 607.681L-21.0713 614.29C-21.2209 611.467 -21.309 609.882 -21.4376 607.477L-21.4166 607.477L-26.0977 512.359C-27.412 499.37 -27.7868 511.23 -28.2048 523.09C-28.5096 531.84 -28.841 540.59 -29.589 539.365C-30.1916 470.557 -32.9138 510.478 -34.9999 464.978L-34.9999 464.955C-32.1952 474.278 -30.9801 441.016 -32.0525 401.796L-28.4313 457.037C-24.255 360.865 -35.0195 373.907 -30.8851 276.972L-33.3529 307.633C-32.8076 289.004 -32.676 258.596 -32.3978 225.284L-2.72036 225.284C-2.67605 220.768 -2.61545 216.252 -2.53859 211.737L-3.80807 211.886C-3.08661 183.839 -2.87131 152.631 -2.4966 123.424C-2.38614 116.122 -2.28131 108.945 -2.17504 101.974L-1.73334 78.4273C-1.38239 62.821 -0.909744 49.3537 -0.228835 39.4463L-0.189751 39.4575C3.77825 39.4533 8.01753 38.0678 11.1396 36.2349C14.21 34.4005 16.1354 32.1158 13.9039 30.308C16.9057 30.6394 19.5748 30.9301 22.016 31.1986C22.6075 31.2741 23.1862 31.3522 23.7539 31.4249C24.1901 31.499 24.6152 31.5747 25.0332 31.6488C25.8665 31.7998 26.6706 31.9422 27.4479 32.0793C30.5658 32.6413 33.3062 33.125 36.2983 33.3795C42.281 33.8898 49.2607 33.4917 62.2133 30.9917C44.1826 25.7011 68.4351 26.3006 43.7337 27.1157C67.0384 24.5011 72.315 19.6425 97.338 27.9322C88.8204 20.1682 114.882 18.1493 125.964 20.4744L109.632 26.0282C122.09 27.1621 132.979 26.4713 144.045 25.8128L138.061 15.5979C159.919 9.90038 179.806 13.864 198.433 17.832C220.448 22.5187 240.706 27.2067 260.37 15.9403C272.987 23.0863 234.47 20.9709 245.752 29.3263C267.688 27.9463 290.546 13.2867 297.414 13.2573C312.969 10.3267 319.933 14.4303 327.394 18.5325C334.347 22.3565 341.731 26.1805 356.898 24.3139C352.877 27.9464 349.078 37.6775 372.578 41.1128C394.534 39.7621 399.56 25.8267 385.704 22.9045C380.437 22.5969 377.898 23.7504 378.119 24.9864C371.029 23.6679 361.722 22.1021 370.414 18.1495L373.263 21.7958C384.152 18.0767 414.356 18.4653 407.261 12.4937C421.4 15.448 416.587 17.7049 407.251 19.475C420.131 17.5245 430.52 17.716 441.273 17.9048C451.406 18.0865 461.862 18.2627 475.039 16.6534C470.43 18.6584 466.187 22.9409 470.773 22.9045C513.283 18.3912 489.49 29.8156 518.295 31.4109C534.659 25.8574 512.431 18.1496 541.427 22.8069C559.13 19.0444 545.175 13.1371 538.138 10.1674C564.556 17.1932 587.495 5.54774 602.584 4.26003L600.006 3.7149L609.966 3.71353ZM656.935 4.90314C656.592 5.00101 656.473 5.00117 656.152 5.07108C653.838 4.58033 653.334 4.3761 653.757 4.3761C654.18 4.3761 655.537 4.58016 656.935 4.90314ZM646.562 8.42245C644.101 8.33017 641.822 8.0688 639.716 7.63257C642.633 7.79056 644.862 8.06032 646.562 8.42245ZM1058.83 13.8697C1058.97 12.9833 1059.91 11.8984 1062.97 10.0934C1062.14 11.6132 1060.52 12.7666 1058.83 13.8697ZM242.478 13.6304L227.201 11.8967L221.783 10.7811L242.478 13.6304ZM1354.42 14.6962L1350.67 24.3714C1343.28 22.8376 1341.04 14.1982 1350.15 14.1968C1351.37 14.1968 1352.78 14.3508 1354.42 14.6962ZM480.714 15.9584C478.647 16.2814 476.908 16.4256 475.037 16.6507C476.476 16.0299 477.921 15.5921 479.12 15.5921C479.724 15.5921 480.266 15.7025 480.714 15.9584ZM1868.47 21.3529C1859.06 21.9247 1849.67 24.795 1843.68 24.795C1842.71 24.795 1841.83 24.7182 1841.05 24.5435C1844.49 21.4018 1851.48 18.9883 1858.27 18.9883C1861.92 18.9883 1865.52 19.689 1868.47 21.3529ZM23.4576 19.6217L24.3608 19.7405L25.0599 19.8634C25.9141 20.0326 26.458 20.2187 26.7656 20.4242C27.3822 20.8409 27.0551 21.3329 26.391 21.9439C25.724 22.5549 24.7159 23.2806 23.9692 24.1559C23.8742 24.2691 23.7861 24.3824 23.6994 24.4887C23.5834 24.6145 23.4729 24.732 23.3709 24.8355C23.1625 25.0746 22.9934 25.3221 22.8745 25.5779C22.701 25.9491 22.6509 26.3659 22.7319 26.7675C21.9798 24.2898 21.1596 21.8335 20.2724 19.4009C21.4805 19.4862 22.5348 19.5574 23.4576 19.6217ZM1231.04 21.5778C1230.52 22.0196 1230.01 22.3274 1229.35 22.6336C1227.87 21.7709 1226.04 21.2508 1223.34 21.5696C1224.49 21.3039 1225.57 21.0941 1226.95 21.0941C1228.06 21.0941 1229.36 21.2282 1231.04 21.5778ZM760.484 22.372L767.969 21.2183C765.523 21.8745 763.014 22.2616 760.484 22.372ZM1220.03 22.2741C1221.27 21.9064 1222.36 21.6842 1223.34 21.5696C1222.36 21.7933 1221.33 22.0616 1220.03 22.2741ZM384.426 27.1622C380.131 26.9231 378.336 25.9092 378.119 24.9864C382.104 25.6547 385.38 26.2785 384.426 27.1622ZM773.739 27.7869C770.258 27.1241 766.41 27.1244 769.581 26.0282C770.896 26.7699 772.291 27.3597 773.739 27.7869ZM22.8815 27.2516C22.8102 27.088 22.7626 26.9272 22.7319 26.772C22.7808 26.9328 22.834 27.0908 22.8815 27.2516ZM775.743 28.2876C775.069 28.1562 774.402 27.9854 773.739 27.7869C774.417 27.9103 775.086 28.0787 775.743 28.2876ZM1248.21 28.8861C1247.95 28.6512 1247.8 28.4105 1247.79 28.1491C1247.79 28.1491 1248.03 28.4498 1248.21 28.8861ZM2042.17 320.865L2042.19 320.347C2042.19 320.521 2042.18 320.691 2042.17 320.864L2042.17 320.865ZM2051.07 432.875L2051.07 433.481C2050.66 433.236 2050.26 431.67 2049.89 429.357C2050.36 430.031 2050.78 431.372 2051.07 432.875ZM-21.4376 607.481C-21.9647 605.179 -22.8889 613.011 -23.9431 620.839C-25.7104 633.922 -27.8496 647.004 -29.1625 612.822C-27.6553 633.312 -26.6514 619.058 -25.6434 604.81C-25.0002 595.68 -24.3528 586.553 -23.5712 586.553C-22.963 586.553 -22.2723 592.09 -21.4376 607.481ZM2044.84 679.61C2044.78 679.299 2044.72 678.902 2044.65 678.206C2044.72 678.606 2044.79 679.091 2044.84 679.61ZM2045.08 680.896L2045.16 683.35C2045.06 681.974 2044.96 680.689 2044.84 679.61C2044.92 680.029 2045 680.291 2045.08 680.896ZM2045.67 697.378L2045.16 683.35C2045.44 687.174 2045.59 691.982 2045.67 697.378ZM2047 733.414C2045.62 735.935 2045.97 714.946 2045.67 697.378L2047 733.414ZM794.837 1152.64C794.837 1152.64 794.602 1152.34 794.419 1151.9C794.676 1152.14 794.833 1152.38 794.837 1152.64ZM1268.89 1153C1268.19 1152.87 1267.5 1152.7 1266.89 1152.5C1267.56 1152.63 1268.23 1152.8 1268.89 1153ZM1273.05 1154.76C1271.69 1153.99 1270.3 1153.42 1268.89 1153C1272.37 1153.66 1276.22 1153.67 1273.05 1154.76ZM2019.9 1154.02C2019.85 1153.86 2019.79 1153.7 2019.75 1153.54C2019.82 1153.69 2019.87 1153.85 2019.9 1154.02ZM1664.51 1155.8C1660.52 1155.13 1657.25 1154.51 1658.21 1153.63C1662.5 1153.87 1664.29 1154.88 1664.51 1155.8ZM2022.36 1161.39L2019.17 1161.17C2018.85 1161.12 2018.55 1161.09 2018.27 1161.05C2018.02 1161 2017.78 1160.96 2017.57 1160.92C2016.72 1160.76 2016.17 1160.57 2015.86 1160.37C2015.25 1159.95 2015.58 1159.46 2016.24 1158.84C2016.91 1158.23 2017.91 1157.51 2018.66 1156.63C2018.75 1156.52 2018.84 1156.41 2018.93 1156.3C2019.05 1156.17 2019.16 1156.06 2019.26 1155.95C2019.47 1155.71 2019.64 1155.47 2019.76 1155.21C2019.93 1154.84 2019.98 1154.42 2019.9 1154.02C2020.65 1156.5 2021.47 1158.95 2022.36 1161.39ZM201.584 1156.24C196.285 1161.08 182.595 1164.19 174.162 1159.44C183.571 1158.86 192.961 1156 198.948 1156C199.923 1156 200.805 1156.07 201.584 1156.24ZM688.209 1166.09L691.959 1156.42C700.342 1158.15 702.102 1169.03 688.209 1166.09ZM819.288 1159.22C817.216 1159.7 815.368 1159.99 811.593 1159.21C812.11 1158.77 812.622 1158.46 813.285 1158.15C814.756 1159.02 816.594 1159.54 819.288 1159.22ZM1274.66 1159.57C1277.11 1158.91 1279.62 1158.53 1282.15 1158.42L1274.66 1159.57ZM819.288 1159.22C820.268 1158.99 821.298 1158.73 822.603 1158.52C821.52 1158.84 820.411 1159.08 819.288 1159.22L819.288 1159.22ZM1561.92 1164.83C1563.98 1164.51 1565.72 1164.36 1567.59 1164.14C1565.43 1165.08 1563.25 1165.59 1561.92 1164.83ZM979.659 1170.7C980.489 1169.18 982.11 1168.02 983.799 1166.92C983.661 1167.8 982.721 1168.89 979.659 1170.7ZM1815.43 1168.89L1820.85 1170.01L1800.15 1167.16L1815.43 1168.89L1815.43 1168.89ZM1402.92 1173.15C1400 1173 1397.77 1172.73 1396.07 1172.36C1398.53 1172.46 1400.81 1172.72 1402.92 1173.15ZM1385.7 1175.89C1386.04 1175.79 1386.16 1175.79 1386.48 1175.72C1391.11 1176.7 1388.49 1176.53 1385.7 1175.89Z" fill="#2C2C2B"/>
</g>
<defs>
<clipPath id="clip0_12_28">
<rect width="2052" height="106" fill="white" transform="translate(2052 106) rotate(-180)"/>
</clipPath>
</defs>
</svg>
