<svg xmlns="http://www.w3.org/2000/svg" width="214.538" height="78.608" viewBox="46.513 222.472 214.538 78.608"><g data-name="Group 2977"><g data-name="Group 2969" transform="rotate(-177 132.697 147.168)" clip-path="url(#a)"><path d="M211.163 37.002c-.077.133-.158.116-.21.078-.053-.038-.097-.102-.12-.106.127-.094.225-.114.285-.073.062.039.07.124.045.1" fill="#fff" fill-rule="evenodd" data-name="Path 6132"/><path d="M202.543 35.002c.067.067.137.135.219.202-.371-.19-.618-.374-.876-.537a14.952 14.952 0 0 0-.78-.473c.239.122.472.248.702.381.233.132.455.273.735.427" fill="#fff" fill-rule="evenodd" data-name="Path 6133"/><path d="M191.029 32.573c.124.099.24.22.413.419.175.205.38.426.638.624.51.402 1.26.661 2.068.637a5.102 5.102 0 0 0 1.102-.183c.33-.091.634-.188.917-.274a8.47 8.47 0 0 1 1.485-.32l.298-.095c.135.06.265.14.39.207.133.076.27.159.403.242a8.826 8.826 0 0 0-.436-.083c-.133-.013-.268-.046-.403-.049a4.182 4.182 0 0 0-.836.023c-.289.044-.59.114-.912.209-.322.093-.675.214-1.07.313a3.54 3.54 0 0 1-.305.068 2.772 2.772 0 0 1-.32.052 3.42 3.42 0 0 1-1.964-.316 2.921 2.921 0 0 1-.93-.742 2.915 2.915 0 0 1-.173-.216l-.08-.108-.064-.091-.221-.317" fill="#fff" fill-rule="evenodd" data-name="Path 6134"/><path d="M186.367 31.291c.171-.087-.133-.117-.166-.12l.252.012c.11.001.254.01.445.024.098.005.204.014.32.03.117.012.248.025.382.051-.113.006-.143.007-.213.018-.207-.016-.488-.042-1.02-.015" fill="#fff" fill-rule="evenodd" data-name="Path 6135"/><path d="M187.387 31.306c.485.063.318.08.121.07-.2-.007-.46-.019-.12-.07" fill="#fff" fill-rule="evenodd" data-name="Path 6136"/><path d="m182.01 31.678.786-.046.822-.038c-.08.035-.234.076-.409.117l-.27.061-.25.06c-.315.076-.525.132-.266.129-1.569.19-1.275.052-.413-.283" fill="#fff" fill-rule="evenodd" data-name="Path 6137"/><path d="M180.496 31.672c.27-.038.536-.083.807-.114-.134.064-.335.131-.807.114" fill="#fff" fill-rule="evenodd" data-name="Path 6138"/><path d="M183.04 31.403a31.55 31.55 0 0 0-1.737.156c.21-.11.21-.256.79-.098-.16-.103.192-.037.947-.058" fill="#fff" fill-rule="evenodd" data-name="Path 6139"/><path d="M184.048 31.203c.447-.103.953-.195 1.147-.259.191-.059.086-.111-.73-.094 1.547-.15 2.136-.025 2.035.044-.108.078-.903.139-2.452.31" fill="#fff" fill-rule="evenodd" data-name="Path 6140"/><path d="M191.087 31.846c.262.293.482.63.8.995.206.361.506.687.885.903-.138-.086-.376-.2-.601-.4a2.918 2.918 0 0 1-.332-.334 4.558 4.558 0 0 1-.284-.372c-.16-.23-.287-.43-.375-.566-.086-.14-.132-.219-.093-.226" fill="#fff" fill-rule="evenodd" data-name="Path 6141"/><path d="M170.49 33.229c-.064-.067.213-.048.521-.025.313.019.669.02.785-.012.163.047.338.085.507.118.117.027.233.054.35.074.232.046.467.088.709.116l-.308.005-.343-.014a6.678 6.678 0 0 1-.36-.02l-.232-.023a6.747 6.747 0 0 1-.265-.033c-.339-.058-.66-.096-.899-.14-.239-.045-.41-.065-.465-.046" fill="#fff" fill-rule="evenodd" data-name="Path 6142"/><path d="M171.796 33.192c-1.003-.251-1.894-.64-2.679-1.055 1.13.506 1.886.714 2.293.844.414.12.485.182.386.211" fill="#fff" fill-rule="evenodd" data-name="Path 6143"/><path d="M180.107 31.28a25.8 25.8 0 0 1 2.92-.222c-1.174.05-2.318.148-3.463.363.18-.054.362-.093.543-.141" fill="#fff" fill-rule="evenodd" data-name="Path 6144"/><path d="m164.804 28.186-4.241.788.223.15-.24-.15 4.003-.765 1.667-.323.751-.146.657-.138-.607.134-.694.143-1.52.307Z" fill="#fff" fill-rule="evenodd" data-name="Path 6145"/><path d="M171.306 24.745c-.239.212-.185-.008-.137-.211.044-.206.087-.394-.113-.159.056-.085.106-.17.157-.252.026-.042.052-.083.074-.124l.036-.061.018-.03.052-.1c.03-.056.058-.114.092-.163.032-.05.075-.115.079-.118l.076-.103.142-.205a6.75 6.75 0 0 0 .468-.805c.006-.005.01 0 .018-.015l.025-.054.048-.13-.034.133-.016.056c-.005.015-.006.011-.01.017a10.608 10.608 0 0 1-.472 1.19l-.031.066-.088.158-.085.19-.03.08a9.783 9.783 0 0 1-.27.64" fill="#fff" fill-rule="evenodd" data-name="Path 6146"/><path d="M172.573 20.967a4.51 4.51 0 0 1-.232 1.249c.093-.38.16-.811.232-1.249" fill="#fff" fill-rule="evenodd" data-name="Path 6147"/><path d="m164.503 30.062-.328-.084-.238-.066-.14-.042-.077-.023-.032-.01a2.298 2.298 0 0 1-.13-.052l-.078-.034c-.03-.014-.063-.028-.097-.045l-.254-.125-.426-.216.725.217.492.139a.394.394 0 0 1 .057.107c.003.002-.002.003.006.007l.034.015.068.03.138.06.28.122" fill="#fff" fill-rule="evenodd" data-name="Path 6148"/><path d="m163.947 29.73-.027-.01a1.399 1.399 0 0 0-.257-.246c-.064-.05-.163-.118-.244-.177l-.366-.233 1.47-.357-1.462.358.377.237.131.092c.043.031.092.064.117.087.06.049.128.101.162.138.047.043.072.076.1.11" fill="#fff" fill-rule="evenodd" data-name="Path 6149"/><path d="m164.782 30.185-.28-.124c.158.042.24.07.28.124" fill="#fff" fill-rule="evenodd" data-name="Path 6150"/><path d="M175.41 32.895c-.633.04-1.596-.015-2.047-.151-.231-.054-.346-.112-.257-.15.045-.02.14-.04.298-.055.158-.017.377-.024.673-.058.422.085.3.161.288.242-.005.04.019.083.162.117.143.03.407.077.883.055" fill="#fff" fill-rule="evenodd" data-name="Path 6151"/><path d="m166.688 30.699 1.36.593 1.262.562c-.107.025-.678-.129-.038.243-.445-.23-.849-.47-1.28-.702l-1.304-.696Z" fill="#fff" fill-rule="evenodd" data-name="Path 6152"/><path d="m165.526 30.072 1.162.627-1.05-.46a3.678 3.678 0 0 1-.112-.167" fill="#fff" fill-rule="evenodd" data-name="Path 6153"/><path d="M172.4 23.457c.183-.26.332-.577.432-.901l.01-.033c.005-.013.01-.038.015-.057.01-.038.018-.087.027-.132a6.198 6.198 0 0 0 .084-.94 5.977 5.977 0 0 1-.016.936l-.018.142-.015.105c-.1.471-.289.952-.533 1.373-.036.023-.068.03-.14.099-.062.05-.108.097-.126.079-.007-.009-.008-.034.005-.079a.99.99 0 0 1 .057-.13l.011-.031c.036-.089.105-.223.207-.43" fill="#fff" fill-rule="evenodd" data-name="Path 6154"/><path d="m170.445 26.488.12-.099c-.053.084-.102.141-.12.099" fill="#fff" fill-rule="evenodd" data-name="Path 6155"/><path d="m168.09 14.754.158.031c.004.019.005.036.012.056l-.17-.087Z" fill="#fff" fill-rule="evenodd" data-name="Path 6156"/><path d="m172.316 24.161-.139.318c-.032.073-.07.142-.105.207a3.085 3.085 0 0 1-.669.846c.172-.21.335-.437.484-.679.078-.12.145-.247.217-.374l.114-.23c.03-.064.062-.126.099-.183l.07-.116c.029-.015.05-.022.05-.003 0 .01-.007.027-.02.053l-.028.046-.073.115" fill="#fff" fill-rule="evenodd" data-name="Path 6157"/><path d="M172.173 18.692c.177.313.356.686.493 1.1-.078-.162-.199-.406-.306-.625-.105-.216-.2-.402-.187-.475" fill="#fff" fill-rule="evenodd" data-name="Path 6158"/><path d="M170.677 26.168c-.027.023-.053.043-.08.07.117-.206.115-.169.08-.07" fill="#fff" fill-rule="evenodd" data-name="Path 6159"/><path d="M170.677 26.168c.273-.243.506-.432.726-.636a5.86 5.86 0 0 1-.838.857c.047-.074.088-.158.112-.221" fill="#fff" fill-rule="evenodd" data-name="Path 6160"/><path d="M165.966 12.016c.028.138.544.453 1.267.824.724.371 1.648.81 2.537 1.19.764.568.738.872.368.943-.375.077-1.106-.027-1.89-.188 0-.058.015-.113-.172-.266-.188-.153-.567-.423-1.398-.856.327.068 1.305.423 2.008.711.702.287 1.168.456.536-.037-1.06-.67-1.561-.841-1.9-.946-.345-.096-.553-.098-1.142-.268.536.06-.158-.353-.938-.764-.776-.414-1.636-.825-1.305-.951.705.273 1.4.568 2.084.884.066-.05-.667-.437-.055-.276" fill="#fff" fill-rule="evenodd" data-name="Path 6161"/><path d="M171.029 16.636c.08.083.166.161.24.245l.221.252c-.555-.521-1.057-.825-2.04-1.264-.941-.736-1.161-.912-1.19-1.027.544.278 1.066.584 1.558.913.49.33.957.681 1.36 1.066l-.15-.185Z" fill="#fff" fill-rule="evenodd" data-name="Path 6162"/><path d="M172.796 19.662c.074-.288-.01-.84-.057-1.211-.05-.328-.038-.533.305-.134.092.252.173.463.217.648l.065.253.038.213c.046.258.038.422.034.557-.023.272-.062.438-.08 1.056-.03-.833-.142-1.181-.167-1.28-.032-.1-.028.051-.024.23.007.177-.01.385-.044.4-.042.018-.089-.158-.252-.715.106.622.142 1.187.138 1.715a6.362 6.362 0 0 0-.303-1.603c.014.026.02.046.03.067l.002.015c.002 0 .002-.004.004-.004.058.126.086.167.038.02.001-.011-.005-.049-.007-.066.032-.029.047-.092.061-.16-.296-.877-.094-.124-.061.16-.01.013-.018.04-.03.046a.078.078 0 0 1-.006-.01 7.71 7.71 0 0 0-.174-.769 6.056 6.056 0 0 0-.246-.71 5.1 5.1 0 0 0-.787-1.247c.124.115.23.249.361.391.104.152.243.31.343.504.055.095.12.193.163.302.047.113.104.207.152.36.05.143.11.291.152.455l.073.25.062.267" fill="#fff" fill-rule="evenodd" data-name="Path 6163"/><path d="M172.036 31.717c-.128-.002-.13.016-.147.032-.24-.09-.32-.124.147-.032" fill="#fff" fill-rule="evenodd" data-name="Path 6164"/><path d="M170.347 31.38c.122.068.222.14.417.236.194.094.491.21.998.319.453.054.453.022.363-.029-.093-.051-.276-.122-.236-.157.264.094.767.226.948.295.095.038.12.069.01.087a1.434 1.434 0 0 1-.273.01c-.032 0-.067-.002-.106-.004l-.139-.01a4.01 4.01 0 0 1-.337-.04l-.298-.098a17.03 17.03 0 0 1-1.405-.33 30.241 30.241 0 0 1-1.355-.44c-.839-.287-1.528-.51-1.385-.423.453.083.839.154 1.272.25.432.092.906.214 1.526.334" fill="#fff" fill-rule="evenodd" data-name="Path 6165"/><path d="M171.253 26.725a9.192 9.192 0 0 0 1.36-1.715c.062-.105.126-.209.182-.317l.104-.197.116-.18-.035.087c-.017.038-.036.075-.051.114l-.045.124-.027.09c-.036.122-.081.24-.124.36a8.326 8.326 0 0 1-.301.71l-.07-.139c-.222.36-.407.594-.545.748a1.354 1.354 0 0 1-.299.272c-.133.076-.156.003-.265.043" fill="#fff" fill-rule="evenodd" data-name="Path 6166"/><path d="M167.73 14.718c.076.14.151.279.222.419-.436-.369-.894-.73-1.373-1.076.392.212.779.428 1.152.657" fill="#fff" fill-rule="evenodd" data-name="Path 6167"/><path d="m164.146 13.224.061.272c-.31-.156-.623-.308-.94-.455.295.057.588.118.88.183" fill="#fff" fill-rule="evenodd" data-name="Path 6168"/><path d="M44.48 34.72c.235.236.497.44.747.66-.366-.299-.597-.495-.748-.66" fill="#fff" fill-rule="evenodd" data-name="Path 6169"/><path d="M40.028 29.836c.014-.051.027-.104.037-.16.03.171.022.24-.037.16" fill="#fff" fill-rule="evenodd" data-name="Path 6170"/><path d="M69.522 8.84c-.643.412-1.425.793-2.031 1.003-.61.213-1.023.259-.938.118.155-.107.308-.204.453-.326a7.122 7.122 0 0 0 2.516-.795" fill="#fff" fill-rule="evenodd" data-name="Path 6171"/><path d="M4.069 12.721c.098-.087.194-.195.306-.276l.25-.056c.082-.01.164-.022.243-.033.154-.025.308-.024.446-.033a4.271 4.271 0 0 0-1.245.398" fill="#fff" fill-rule="evenodd" data-name="Path 6172"/><path d="M2.573 12.581a8.852 8.852 0 0 0-1.12 1.679c.187-.409.504-.975 1.12-1.679" fill="#fff" fill-rule="evenodd" data-name="Path 6173"/><path d="M74.27 50.148c.326.242.65.506 1 .73l-.304-.122-.241-.115a7.268 7.268 0 0 1-.339-.173c-.168-.093-.23-.145-.239-.179-.02-.066.161-.049.123-.14" fill="#fff" fill-rule="evenodd" data-name="Path 6174"/><path d="M126.38 4.097c-1.152.196-2.07.315-2.875.398 1.377-.27 2.488-.585 2.874-.398" fill="#fff" fill-rule="evenodd" data-name="Path 6175"/><path d="M44.415 30.896c.329.418.46.61.409.64-.364-.413-.531-.68-.409-.64" fill="#fff" fill-rule="evenodd" data-name="Path 6176"/><path d="M120.213 4.825c.194-.05.386-.087.587-.13.83-.05 1.677-.092 2.705-.2-1.017.202-2.178.375-3.292.33" fill="#fff" fill-rule="evenodd" data-name="Path 6177"/><path d="M183.759 59.239c-.008-.044-.008-.091-.02-.136.032.022.032.07.02.136" fill="#fff" fill-rule="evenodd" data-name="Path 6178"/><path d="m202.983 41.618-.111.028-.062.014-.036.008-.068.015a1.91 1.91 0 0 1-.618.02 22.803 22.803 0 0 1-1.716-.371l1.194.261c.25.048.528.125.788.12l.199-.012c.065-.01.133-.018.201-.032l.12-.025.11-.026" fill="#fff" fill-rule="evenodd" data-name="Path 6179"/><path d="M150.472 5.049c.64.45.088.092 0 0" fill="#fff" fill-rule="evenodd" data-name="Path 6180"/><path d="M154.122 6.805c-.095-.153-.164-.274-.134-.332.002.094.054.204.134.332" fill="#fff" fill-rule="evenodd" data-name="Path 6181"/><path d="M111.418 4.006 111.343 4c.26-.033.215-.026.075.005" fill="#fff" fill-rule="evenodd" data-name="Path 6182"/><path d="m151.505 5.631-.864-.519c.073.037.176.093.32.174.14.085.32.194.544.345" fill="#fff" fill-rule="evenodd" data-name="Path 6183"/><path d="M151.304 5.634c.22.155.394.276.552.402.046.099-.029.055-.552-.402" fill="#fff" fill-rule="evenodd" data-name="Path 6184"/><path d="M149.541 4.48a44.6 44.6 0 0 1 1.1.632c-.136-.072-.2-.093-.17-.064-.195-.121-.463-.311-.93-.568" fill="#fff" fill-rule="evenodd" data-name="Path 6185"/><path d="M129.598 55.573c.049-.035.108-.07.16-.11.432-.159.548-.213.486-.173-.063.04-.315.156-.646.283" fill="#fff" fill-rule="evenodd" data-name="Path 6186"/><path d="M46.4 7.498c.025-.008.044-.011.07-.02l-.079.048.009-.028Z" fill="#fff" fill-rule="evenodd" data-name="Path 6187"/><path d="M44.117 7.475c.488.261.914.331 1.297.323.19-.011.382-.031.543-.08.164-.046.289-.105.434-.191a2.321 2.321 0 0 1-.204.478 2.69 2.69 0 0 1-.349.46 4.86 4.86 0 0 1-1.72-.99" fill="#fff" fill-rule="evenodd" data-name="Path 6188"/><path d="M60.58 39.47c-.772.165-1.555.298-2.349.385 1.444.178 2.704.071 3.31.03.304-.023.45-.02.382.031-.069.048-.346.166-.904.319-.114-.192-.75-.205-1.65-.21-.899-.002-2.066-.004-3.227-.117-.29-.033-.58-.056-.864-.1l-.834-.132a12.447 12.447 0 0 1-1.476-.365c-.854-.27-1.404-.572-1.42-.787-.253-.053-.505-.113-.759-.17-.252-.06-.502-.13-.755-.197.42.15.465.232.885.367-.747-.16-1.235-.353-1.6-.553-.37-.191-.609-.413-.87-.636-.512-.475-1.11-.971-2.716-2.01a28.684 28.684 0 0 0-.759-.495c-.226-.135-.397-.265-.526-.335-.253-.145-.294-.109.03.224l-.545-.521c-.184-.171-.348-.364-.522-.545a17.28 17.28 0 0 1-.99-1.126c-.593-.634-.564-.38.04.25a22.862 22.862 0 0 1-2.114-2.688c-.034-.049-.041-.062-.052-.08l-.035-.055-.067-.107-.12-.204-.008.033a5.964 5.964 0 0 0-.131-.521l-.103-.349-.056-.184c-.024.002-.052.03-.078.045a3.335 3.335 0 0 1-.29.196c-.235.293-.165.252-.065.189.102-.068.225-.18.171-.058a3.632 3.632 0 0 1-.499.316c-.047.027-.099.048-.15.072l-.08.037-.042.019-.074.04c-.1.052-.199.107-.3.156l-.313.127c-.447.333-.154.316.486.073l.243-.121.065-.034.033-.017.015-.006.06-.027c.077-.03.154-.068.227-.116.146-.092.282-.212.402-.359-.182.462-.246.62-.329.719a.29.29 0 0 1-.134.09l-.052.024-.152.08c-.103.05-.205.112-.325.153l-.783.299-.48.145c-.172.05-.351.117-.552.157l-.64.156c-.231.042-.479.085-.745.132-.266.05-.553.065-.861.105-.31.033-.638.032-.995.053.88.092 1.783.073 2.685-.068-.82.395-1.83.56-2.983.5-1.155-.065-2.452-.334-3.95-.92.19.045.657.22 1.225.337.28.073.588.115.888.154.3.049.6.057.866.063.133.003.258.005.372.001.115-.009.22-.02.31-.032.18-.025.302-.057.345-.095.043-.038.006-.082-.132-.134a2.749 2.749 0 0 0-.287-.085 6.996 6.996 0 0 1-.45-.119c-.208-.03-.435-.05-.674-.108-.238-.062-.499-.125-.773-.221-.543-.208-1.17-.487-1.812-.981-.041.06-.154.052-.33-.013-.17-.072-.397-.215-.67-.401-.136-.093-.271-.219-.421-.345a4.385 4.385 0 0 1-.457-.434c-.15-.167-.318-.33-.47-.525a7.75 7.75 0 0 1-.448-.615c-.08.11-.16.224-.235.338a6.7 6.7 0 0 1-.32-.567l-.03-.064c-.011-.019.004.004 0-.004l-.001-.007-.003-.026-.004-.053c-.002-.07 0-.139.007-.209l.025-.217.012-.123.005-.067.002-.036c.002-.014.002-.025-.004-.024-.018-.023-.057-.036-.12-.044l-.515.193c-.405.087-.729.154-.993.199-.029.013-.057.026-.08.039a.392.392 0 0 0-.036.044.285.285 0 0 0-.046.102.685.685 0 0 0-.02.108l-.002.026v.013l-.019.018-.075.074c-.817.27-1.097.321-1.111.28-.013-.04.236-.177.462-.317.226-.138.43-.276.335-.31-.095-.037-.483.044-1.46.292-1.353.431-2.551.68-3.836.812-1.286.123-2.66.155-4.37-.006-1.005.03-.924.08-.677.154.247.07.66.143.293.18a24.658 24.658 0 0 1-1.764-.45c-.434-.046-.307.065-.241.12-.732-.157-.74-.26-.862-.373-.12-.12-.347-.23-1.471-.515-.262-.276-1.445-.36-2.907-.728-.73-.188-1.529-.451-2.283-.847-.751-.393-1.46-.924-1.948-1.562-.16-.114-.233-.148-.257-.132-.025.016-.002.087.035.166.074.159.202.374.061.344-.39-.41-.689-.81-.922-1.176a6.746 6.746 0 0 1-.53-1.003A6.03 6.03 0 0 1 .05 20.35c-.036-.22-.035-.433-.05-.657a8.312 8.312 0 0 1 .032-.716 7.58 7.58 0 0 1 .49-1.945 9.3 9.3 0 0 1 .35-1.42c.165-.458.347-.917.582-1.354a2.57 2.57 0 0 0-.205.565c-.028.128-.023.197.01.219.066.042.234-.111.476-.37.489-.51 1.338-1.42 2.334-1.952-.49.525-.78 1.041-.98 1.376.189-.21.398-.399.607-.582l.325-.26c.113-.071.214-.156.334-.214.46-.257.975-.413 1.519-.503.378-.14.026-.224-.56-.215a5.41 5.41 0 0 1 .63-.07c.584-.196.726-.298.593-.381-.133-.078-.535-.128-1.017-.114-.414.182-.81.412-1.145.687-.45.102-.887.312-1.187.432-.311.118-.51.173-.525.02a4.44 4.44 0 0 0 .182-.145l.242-.183a6.1 6.1 0 0 1 .642-.454c-.262.095-.433.174-.356.06.087-.124.523-.342 1.174-.508.115-.13.234-.245.36-.362.125-.121.251-.226.382-.336.087.036.174.069.255.11.822-.234 1.615-.367 2.39-.487.774-.117 1.533-.216 2.287-.319l1.218.076c.412.028.806.062 1.186.082.752.036 1.49.03 2.078-.3.145-.084.295-.185.415-.323.136-.128.23-.297.301-.48.036-.096.063-.177.098-.306.034-.12.07-.251.12-.388.097-.27.245-.524.428-.75a3.88 3.88 0 0 1 .604-.604c.218-.19.465-.349.72-.504a8.215 8.215 0 0 1 1.717-.725c-.662.068-.784.003-.757-.162.026-.162.212-.386.11-.547-.33.235-.746.457-1.215.747-.467.29-.997.65-1.48 1.185-.227.253-.491.611-.646 1.014-.08.2-.139.428-.177.592l-.029.12-.02.08c-.015.044-.028.088-.044.131a1.24 1.24 0 0 1-.307.457c-.134.132-.271.23-.481.34.104-.054.186-.112.237-.158.051-.042.085-.092.113-.124.047-.077.057-.125.043-.155-.026-.056-.125-.036-.204-.01a.954.954 0 0 0 .376-.398c.02-.043.036-.089.054-.135l.011-.035.018-.072.04-.164.051-.191c.022-.072.042-.144.068-.214.048-.142.108-.28.175-.412.132-.263.316-.518.475-.704.169-.196.347-.38.54-.538.377-.33.787-.586 1.2-.795-.065-.05-.042-.126.053-.22.047-.048.113-.1.193-.158.08-.055.176-.112.284-.174.433-.244 1.064-.492 1.718-.729-.42.437.55.222 1.856.082.665-.073 1.377-.122 2.062-.18a19.991 19.991 0 0 1 1.837-.085c.053-.106-.043-.202-.452-.238-.412-.04-1.133-.007-2.322.143 1.29-.364 2.168-.275 3.037-.15.87.124 1.719.262 3.026.051-.592.003-.91.047-1.147-.048.694.06 1.884.054 2.807.051.922-.005 1.58-.027 1.185-.145a17.976 17.976 0 0 0-.596-.038c.993.029 2.25.123 3.573.355a20.91 20.91 0 0 1 3.944 1.07 16.96 16.96 0 0 1 1.714.778c.259.136.505.27.73.41.228.135.44.27.616.39.71.485 1.18.78 1.266.949.029-.026-.028-.209-.1-.415-.073-.203-.163-.427-.235-.517.8.702 1.7 1.284 2.795 1.557.545.123 1.128.208 1.73.107.301-.05.597-.144.876-.218a8.19 8.19 0 0 1 .831-.18c-.355-.08-.137-.589-.16-.954-.016-.181-.104-.329-.403-.35-.15-.01-.353.013-.62.092-.262.072-.606.23-.885.339.275-.174.807-.552 1.471-.838.669-.29 1.461-.545 2.501-.708-.324.105-.69.37-.852.582-.162.213-.134.362.297.258.553-.282.946-.442 1.253-.555a7.78 7.78 0 0 1 .778-.244c.488-.118 1.058-.258 2.561-.504-.487.06-.45.256-.108.428.344.174.974.328 1.732.33-.236-.108.143-.682-.422-.758 1.288.227 2.575.569 3.77 1.056-.453-.157-.475-.298-.261-.416.212-.115.661-.188 1.112-.172-.219.012.627.22 1.553.49.466.133.944.262 1.358.352.413.092.766.148.98.19a10.036 10.036 0 0 1-1.419-.116c.948.22 1.614.333 2.205.438.297.054.555.083.81.136.252.044.492.066.738.105.487.036.997.066 1.616-.06.62-.118 1.35-.38 2.248-.887-.252.062-.623.012-.705-.182-.078-.194.109-.51.994-1.064l1.198-.202c.533-.092 1.19-.207 1.918-.31.727-.11 1.523-.174 2.368-.276.842-.1 1.722-.22 2.609-.385.206-.124.414-.24.623-.36.913-.162 1.84-.25 2.757-.364a37.026 37.026 0 0 0-1.864-.113 37.139 37.139 0 0 0-2.563.053c-.914.053-1.86.146-2.748.275-.894.131-1.768.344-2.44.57.705-.437.802-.526.989-.652.094-.062.214-.13.466-.233a19.5 19.5 0 0 1 .482-.191c.19-.069.423-.15.71-.245.376-.222.041-.188-.474-.061-.25.059-.571.163-.869.264-.3.095-.558.214-.735.285.445-.216.928-.411 1.383-.589a45.252 45.252 0 0 1 4.036-1.308c-.035.112.215.13.606.099.195-.016.426-.043.675-.077l.785-.086c1.072-.121 2.138-.25 2.063-.063-.997.133-2 .253-3.002.401-.498.088-1 .167-1.498.263-.5.096-.998.2-1.495.312-.06.232.863.236 2.265.125.351-.026.732-.068 1.135-.113a30.001 30.001 0 0 0 2.642-.336c.467-.073.944-.144 1.423-.228.476-.152.269-.303-.055-.434-.323-.129-.763-.234-.734-.307.264.028 1.196-.056 2.107-.133.91-.082 1.8-.161 1.976-.228-.56-.017-1.121-.03-1.683-.033C86.816.45 87.724.5 88.676.53c.955.034 1.953.052 3.262-.175.9-.057 2.72-.533 2.875-.283-1.505.436-1.76 1.875-.81 2.224a71.173 71.173 0 0 1 2.561-.178c1.251-.072 2.598-.093 3.116-.15.748-.086.233-.377-.327-.644-.557-.274-1.156-.523-.507-.623.045.115.851.333 1.186.421.478.012.391-.085.44-.147.05-.061.237-.094 1.263.088.281.425 4.16.76.91.506a28.05 28.05 0 0 0 2.088.44c.286.055.586.106.957.193.185.044.388.094.617.155.217.06.523.162.671.197-.068.027-.101.048-.104.095-.003.044.026.107.094.16.037.029.07.057.14.09.065.033.139.068.22.107l.558.25c.414.183.89.402 1.4.59a8.37 8.37 0 0 0 1.557.414c-.106-.115.356-.204.574-.255 1.016.058 1.919.03 2.75-.044.83-.076 1.59-.214 2.342-.355 1.502-.285 2.982-.591 4.883-.776.34-.138 2.161-.422 1.365-.528.553.024 1.067.118 2.237.031 2.237-.542-2.614.163-.923-.406.17.223 3.054.078 4.732.094-.484.409-3.842.377-5.525.376.037.504 2.984.786 6.96.713 3.151-.107 1.339-.427 1.89-.396 2.952-.25 4.225-.086 5.364.046 1.139.141 2.148.232 4.577.027 1.93-.321.089-.647.516-.88-2.573-.114-3.938.286-5.676.351.712-.086 1.423-.169 2.136-.244-.82-.082-2.541-.083-3.47.066.809-.188 3.312-.354 6.188-.396 1.439-.015 2.97-.005 4.429.103.729.057 1.44.137 2.11.278.668.13 1.294.363 1.818.609.698.463 1.798 1.343 1.173 1.085-.399-.267-.799-.534-1.22-.764-.646-.191-.081.198.406.558.484.373.906.708.12.29.758.566 1.499 1.23 2.242 2.005.743.774 1.505 1.639 2.266 2.661.19.066.381.138.572.216-.062.002-.326-.335-.645-.736-.315-.399-.695-.856-.9-1.166.235.357.725.84 1.205 1.441.24.298.48.624.692.959.246.394.462.82.632 1.215.477.1.913.198 1.231.362-.449-.023-.952-.03-1.447-.066a51.997 51.997 0 0 0-.561-.92c.142.34.283.71.43 1.1.282.08.597.137.915.212.311.07.69.154.91.216l1.398.386.718.194.714.187c.476.125.966.252 1.459.363-.562.033-.687-.007-.888-.062-.1-.026-.22-.057-.419-.076-.1-.01-.219-.016-.362-.017-.077-.001-.138.004-.234.005a9.078 9.078 0 0 0-.3.01c.527-.076-.007-.25-.838-.42a30.941 30.941 0 0 0-1.38-.24l-1.07-.158c-.354-.053-.686-.094-.953-.148-.208-.478-.344-.815-.341-.907 0-.095.14.058.442.497a16.516 16.516 0 0 1-.54-.785l-.27-.407-.035-.053-.022-.029-.043-.056-.085-.11c-.227-.3-.43-.582-.662-.88-.445-.57-.993-1.188-1.877-1.75.065-.023.236.064.223.002-.015-.058-.2-.286-.92-.852a2.226 2.226 0 0 0-.248-.335l-.103-.07.089.051c-.052-.063-.055-.07.033.02.38.226.69.416.845.463-.252-.413-.97-1.102-1.797-1.674-.41-.296-.84-.554-1.222-.78-.382-.224-.673-.364-.895-.471-.516-.124-.418-.055-.267.032.155.087.342.208.061.185a9.05 9.05 0 0 0-1.394-.504c-.093.12-.854.143-1.27.217-.204.03-.322.074-.218.122.053.023.158.054.333.089l.745.131a30.207 30.207 0 0 0-2.42-.148c-1.46.106-3.49.2-4.757.132-1.187.096-3.03-.167-1.978-.007-1.328.007-2.658.029-3.99.06l-.032.07c-1.967.147-3.994.194-6.104.31-2.101.119-4.29.283-6.468.765-.653.037-1.292.086-2.073.184-.778.093-1.646.243-2.79.445-.14.097-.28.196-.426.291-.455.036-1.038.097-1.662.139-.627.043-1.276.063-1.906.06-1.26.006-2.455-.183-2.815-.385-.265.03-.596.017-.953-.014l-1.087-.108c-.092-.007-.186-.018-.282-.021l-.315-.028c-.115 0-.22-.05-.33-.076l-.43-.124a54.13 54.13 0 0 0-1.818-.488c-2.032-.511-4.286-.895-5.737-.958l-.083-.314c-2.002-.147-3.93-.309-6.448-.36l.148-.274c-1.092-.081-2.494.035-4.038.254-1.544.22-3.229.531-4.915.834.245.046 1.097-.117 1.697-.272-.495.152-.999.282-1.506.407-.506.134-1.019.249-1.536.35-.518.103-1.043.182-1.56.292-.519.1-1.04.195-1.554.306-1.029.215-2.042.46-2.997.77a8.964 8.964 0 0 0-2.487 1.26c-.85.355-1.428.74-2.01 1.13.08-.044.155-.079.22-.105a8.563 8.563 0 0 1-.355.197c-.37.248-.763.507-1.229.754l1.03-.653c-.685.351-1.834.861-3.074 1.062-.152.128-.31.257-.473.386-.102.017-.185.031-.293.036a4.024 4.024 0 0 1-.67.094c-.143-.006-.21-.031-.218-.068-.015-.076.204-.19.514-.34-.311.019-.606-.009-.878-.027a4.862 4.862 0 0 1-.725-.103c-.484.217-1.3.092-2.088-.13-.793-.22-1.55-.498-2.17-.414-.153-.107-.54-.265-1.035-.419a14.5 14.5 0 0 0-1.728-.412c-.62-.112-1.25-.191-1.762-.27-.513-.075-.918-.162-1.063-.289-.035.067-.351.102.228.1-1.202.063-2.336.186-3.38.22-.141.147-.277.3-.41.45a13.4 13.4 0 0 0-2.52.237c-.329.194-.583.382-.776.542-.191.16-.335.297-.392.382-.062.088-.016.122.139.099.158-.023.406-.1.74-.19-.197.068-.379.142-.573.227-.193.084-.404.18-.623.26a4.687 4.687 0 0 1-1.156.264 7.958 7.958 0 0 1-1.464.01 6.336 6.336 0 0 1-1.28-.256c-.484-.155-1.076-.401-1.814-.867l.055.288a7.533 7.533 0 0 1-.907-.512l-.449-.298-.433-.276a8.306 8.306 0 0 0-.83-.451c-.26-.111-.487-.193-.663-.209-.627-.126-1.669-.443-3.027-.713a29.706 29.706 0 0 0-4.85-.575c-1.821-.074-3.782.01-5.7.211a54.22 54.22 0 0 0-1.43.169l-.706.091-.348.046-.328.05c-.866.14-1.674.35-2.36.63.22-.255.18-.31-.031-.26-.205.056-.57.227-.924.453a6.884 6.884 0 0 0-.93.717 2.365 2.365 0 0 1-.307.256c-.088.059-.165.087-.234.064-.005.041-.014.086-.024.132a.648.648 0 0 0-.02.127.521.521 0 0 0 .011.186c.034.093.084.078.265-.077a.884.884 0 0 0-.138.217.86.86 0 0 0-.04.123 3.91 3.91 0 0 0-.046.228l-.038.203c-.016.073-.03.145-.05.216a3.1 3.1 0 0 1-.308.792l-.225.34a3.88 3.88 0 0 1-1.117 1.05 4.856 4.856 0 0 1-1.144.517 7.537 7.537 0 0 1-1.92.308 12.107 12.107 0 0 1-1.716-.067c-.382.197.755.185.412.31-.28-.013-1.105-.06-1.45.066-.34.125.508.101 1.059.132-1.761.116-2.69.06-3.235-.065-.544-.128-.719-.347-.878-.565-.408.123-.74.247-1.031.355-.281.118-.526.216-.737.326-.112.047-.205.11-.313.157-.048.03-.097.059-.148.087-.05.025-.102.054-.158.093-.109.072-.226.138-.345.212-.115.078-.238.156-.37.237l-.194.418c-.055.131-.085.243-.075.285.028.096.189-.125.87-.785-.18.194-.551.594-.906 1.169-.36.57-.7 1.3-.914 2.026a7.506 7.506 0 0 0-.298 1.955c-.015.52.025.86-.062.91.045.072.08.196.143.337l.086.228c.035.078.07.16.103.241.145.32.312.633.383.756.356.477.709.797 1.024 1.051.319.253.6.443.89.622.588.348 1.19.683 2.39 1.145-.23-.062-.46-.128-.687-.199.382.409.894.622 1.554.795.662.17 1.471.3 2.513.518l-.051-.058c.604.069 1.098.107 1.497.14.395.034.701.052.949.07.494.04.752.059 1.007.095.256.02.51.051 1 .034.488-.015 1.215-.069 2.39-.284l-.23.314c.251.287 1.326.092 2.642-.307.658-.202 1.376-.45 2.097-.694.36-.126.723-.243 1.08-.356l.534-.159c.234-.056.458-.167.695-.111-.225-.01-.424.124-.624.207l-.471.234c.12-.017.244-.048.372-.086l.1-.032.121-.04.249-.09c.021-.007.042-.02.064-.022l.068-.003.137-.007c.095-.005.184-.012.27-.02.142-.013.286-.047.43-.085.153-.043.253-.078.497-.16.215-.072.439-.176.677-.3.474-.242 1-.537 1.52-.84.028.001.038.04.053.067l.044.088.09.18.187.377.38.786c.121.266.261.506.404.734l.058.089.033.04.06.075.11.142c.097.094.053-.003-.026-.169-.02-.04-.04-.087-.063-.135-.052-.094-.1-.211-.15-.32a5.17 5.17 0 0 1-.231-.682c.041.103.078.207.12.303l.127.274.135.245c.024.044.042.07.073.122l.035.049c.089.122.169.224.24.31l.303.376c.136.169.109.231.055.284-.054.054-.137.096-.103.243.009.037.024.08.05.133.03.05.072.105.127.17.055.067.124.142.207.23.085.087.202.167.33.27.253.056.198-.143.265-.23.067-.092.223-.05.969.304.103.023.236.097.417.163.179.073.387.183.639.27.125.045.253.113.396.15l.445.14c.312.073.65.16 1.004.192.707.086 1.48.045 2.17-.16.167-.06.339-.11.498-.179l.45-.233c.076-.035.136-.093.201-.138l.108-.08c.06-.043.123-.081.183-.128a3.7 3.7 0 0 0 .663-.669c-.347.504-.706.818-.733.916-.015.05.052.057.227-.02.177-.083.452-.243.838-.636.418-.44.894-1.01 1.366-1.64.053.016.106.032.155.038.025-.01.048.042.073.083l.073.124.306.51.667 1.081.357.554c.125.178.25.37.377.543l.191.262.094.127.066.082.26.326c.695.862 1.365 1.64 1.758 2.326.212.158.316.192.35.172.514.593 1.444 1.473 2.403 2.208.244.179.473.37.71.53l.655.466c.414.276.744.522.936.68.444-.06 1.201.196 2.136.52.934.32 2.054.708 3.156.962 2.224.526 4.38.504 4.32.043a18.988 18.988 0 0 0 3.586-.518l.367-.093c.152-.04.303-.089.454-.133.302-.087.604-.188.906-.292l-.175-.039 1.506-.541c.335.9.618 1.703.879 2.35l.19.468.04.095.028.07.054.136.194.502c.24.626.399 1.101.57 1.574.433.593.227.092.238.015a26.79 26.79 0 0 0 1.656 2.225c.473.571.866 1.024 1.25 1.452.381.434.752.844 1.2 1.317.446.474.978.998 1.724 1.615.166-.014.327-.023.493-.045.099.082.265.189.487.318.229.114.507.263.843.397.665.289 1.538.566 2.528.78.992.21 2.108.343 3.25.393 1.137.052 2.32.027 3.377-.066-.051-.025-.144-.061-.48-.06.332-.013.685-.075 1.046-.129.357-.073.722-.148 1.082-.26a12.3 12.3 0 0 0 2.129-.85c.687-.349 1.34-.759 1.943-1.197.152-.107.298-.22.443-.332l.167-.129.184-.148.368-.298.718-.626.353-.31c.116-.095.235-.23.345-.26.357.31.728.622 1.082.918l.266.205c.088.068.178.14.253.18.148.087.341.21.401.234.354.182.69.33 1 .443.619.232 1.13.366 1.492.584.487.011.984-.037 1.468-.164.12-.032.243-.063.36-.108.12-.04.24-.082.355-.136l.176-.075.172-.086.086-.044c.028-.014.055-.026.098-.057l.235-.155-.21.162c-.075.062-.106.076-.156.11-.092.058-.172.12-.254.165-.16.096-.295.176-.412.235-.227.131-.373.19-.438.246-.133.104.025.111.267.092.24-.022.555-.095.714-.114.159-.018.176.052-.216.294.277-.114.56-.28.83-.472.273-.202.532-.435.758-.695.451-.513.798-1.112.893-1.357.058-.078.066-.115.01-.123-.022-.03-.193.17-.573.605-.094.145-.189.28-.282.41-.132.001-.1-.136.074-.422.17-.283.485-.727.84-1.26a.73.73 0 0 0 .113-.017c.019-.003.038-.006.055-.012l.026-.008.014-.004c.004 0 .009.013.013.02l.222.382.49.838c.339.579.696 1.16 1.044 1.655l.132.182c.033.045.066.09.1.133.06.083.122.159.18.231.117.145.224.27.32.368.188.199.32.294.359.239a20.654 20.654 0 0 0 2.73 2.863c.203.178.407.35.61.52.41.337.823.665 1.248.968 1.693 1.228 3.547 2.172 5.48 2.764.97.285 1.954.49 2.944.61.248.027.497.041.745.062l.37.03.373.005.743.01c.247-.005.493-.025.74-.036.492-.01.979-.096 1.466-.146l.723-.129.36-.066.356-.086c.954-.213 1.88-.524 2.779-.887l-.337.373-.356.356c.439-.146.862-.334 1.289-.509.418-.196.839-.387 1.245-.61.303-.206.467-.41.353-.424-.059-.01-.184.033-.41.12-.224.088-.536.245-.978.445.417-.314 1.153-.644 1.806-.91.646-.273 1.204-.486 1.255-.462.77-.586 1.026-.883 1.039-.96.009-.08-.237.044-.55.21-.621.338-1.53.81-1.048.492a17.58 17.58 0 0 0 1.29-.887c-.082.085-.162.174-.247.256.56-.312.885-.47 1.292-.738.4-.275.896-.655 1.667-1.547.226-.297.35-.496.422-.632a1 1 0 0 0 .069-.161c.02-.052.037-.1.044-.131.029-.138-.038-.121.236-.52-.012-.01.027-.083.157-.271.125-.195.34-.508.67-.992l.406-.647.2-.322.05-.08.025-.04.027-.017.106-.074c.541.505 1.16 1.06 1.743 1.536.149.098.298.223.447.292l.218.117.124.055c.166.072.335.139.508.194a5.39 5.39 0 0 1-.618-.061c-.077.002-.277-.078-.431-.128-.08-.034-.16-.073-.239-.109l-.117-.053-.115-.065c.236.218.48.38.713.513.152.085.304.163.453.225.298.128.57.207.761.266.194.055.286.085.245.12a.485.485 0 0 1-.18.047 3.254 3.254 0 0 1-.453.01c.128.003.273.013.446.021.166 0 .346.019.545.02a7.98 7.98 0 0 0 1.357-.099l.383-.075.395-.103.405-.13.203-.077.135-.05c.054-.021.108-.047.162-.073.432-.183.868-.455 1.325-.76.455-.303.923-.627 1.36-.947l.06.04c.013.034.022.08.033.12l.063.246.133.503c.09.337.187.675.284 1.01l.15.495.167.47.19.45c.017.04.03.069.053.115l.034.07.068.141c.185.372.387.724.598 1.055.217.326.432.636.662.91.108.14.227.267.337.394.108.125.232.253.34.366.22.228.426.425.615.59.378.332.686.537.857.63a6.703 6.703 0 0 0 2.706 1.526 7.903 7.903 0 0 0 3.473.184c-.306.078-.551.221-.44.31.056.046.204.072.48.07.139-.006.308-.027.514-.057.204-.041.445-.09.72-.177-.133-.071-.163-.15-.117-.232.014-.021.023-.04.054-.064.036-.025.072-.05.116-.077.087-.054.199-.12.333-.188.069-.033.141-.07.22-.107l.249-.135c.176-.091.373-.198.587-.315.425-.23.917-.498 1.415-.784.015.015.038.009.044.041l.022.09.043.183.093.376.201.776c.141.525.288 1.05.486 1.525.022.06.049.119.073.178l.039.087.032.072c.035.074.073.145.11.215.074.141.153.272.23.396a3.6 3.6 0 0 0 .479.61c-.259-.309-.232-.112-.04.323.097.22.235.486.41.79.177.308.372.626.576.929.406.608.85 1.144 1.063 1.44.216.29.172.381-.369.012.335.334.533.477.644.534.112.056.14.025.16-.018.043-.09.049-.207.631.159l.3.27.319.258.335.243a9.955 9.955 0 0 0 1.913 1.038c1.1.444 2.31.703 3.53.7a8.688 8.688 0 0 0 3.585-.826 9.088 9.088 0 0 0 3.009-2.24c.066.004-.003.197.002.293.006.095.119.12.532-.28a7.51 7.51 0 0 0 .775-2.633c.04-.116.084-.214.129-.302a2.19 2.19 0 0 1 .064-.125l.033-.06.046-.109c.057-.133.1-.259.15-.38l.074-.18c.02-.064.037-.13.055-.196.035-.135.076-.273.088-.454.018-.176.029-.377.026-.626-.005-.494-.054-1.17-.208-2.205.064.324.14.717.197.871.056.157.1.075.087-.48l-.031-.34.037-.017.074.04.15.082.3.166.303.168.324.17c.43.231.877.448 1.327.673.44.177.89.394 1.332.488l.217.053c.072.015.145.026.217.038.144.022.287.06.432.069 1.156.151 2.332.017 3.347-.427a4.753 4.753 0 0 0 1.373-.901c.408-.384.773-.84 1.07-1.332a5.405 5.405 0 0 0 .636-1.557c.037-.133.048-.264.07-.395.016-.05.004-.176.002-.273l-.005-.153-.002-.077c-.007-.028.013-.043-.029-.09l-.348-.473-.173-.236-.521-.448-1.04-.893-2.107-1.663.69.077.44.025.214.011c.058.001.093-.002.14-.003l.267-.009c.247-.032.41-.08.447-.146.054-.063.051-.134.006-.207a.83.83 0 0 0-.204-.221 3.433 3.433 0 0 0-.309-.22l-.085-.056-.044-.027c-.01-.008-.046-.024.006-.01.065.015.131.029.182.045.056.017.108.033.154.051.377.14.662.295 1.033.447.363.152.786.307 1.314.454.266.079.54.136.851.223.306.069.662.237 1.006.38l.065.027.057.017.114.034.23.066.229.067c.077.025.138.012.207.02l.407.017a.41.41 0 0 0 .08 0l.063-.007.126-.01a5.783 5.783 0 0 0 1-.176c.65-.182 1.265-.471 1.762-.862.492-.396.857-.883 1.053-1.42.093-.27.146-.551.16-.84a3.31 3.31 0 0 0-.007-.438l-.012-.112c-.007-.091-.01-.152-.029-.231-.035-.15-.063-.3-.104-.454l-.177-.479-.215-.504a46.287 46.287 0 0 0-.982-2.1l-.254-.505c-.029-.106-.048-.212-.094-.364l.261.065a3.427 3.427 0 0 0-.242-.048l.08.25c.026.074.02.1.08.2l.22.388c.117.199.173.28.183.264.01-.017-.023-.121-.09-.289l-.054-.133c-.015-.044-.056-.117-.038-.13a.893.893 0 0 0 .012-.22c.467.142 1.076.312 1.693.466-.802-.176-.67-.075-.395.081.282.158.686.347.643.416.329.054.668.103.994.14.326.03.652.085.926.034a1.58 1.58 0 0 0 .206-.042c.035-.008.066-.016.103-.028l.058-.021a3.985 3.985 0 0 0 .45-.207l.235-.132a3.61 3.61 0 0 0 1.344-1.336c.178-.077.414-.325.62-.745.108-.211.201-.457.335-.783.036-.083.07-.166.12-.267.04-.089.108-.206.175-.315.089-.123.173-.245.327-.375a2.01 2.01 0 0 1 .109-.09c.043-.03.088-.057.133-.083.09-.052.184-.1.28-.126a1.491 1.491 0 0 1 1.19.09c.302.168.402.28.504.352.096.074.158.118.23.162.071.04.14.077.21.104.27.117.548.154.647.246a1.954 1.954 0 0 1-.553-.08 1.514 1.514 0 0 1-.452-.225c.111.139.19.224.21.297.022.069-.012.124-.098.157a.784.784 0 0 1-.395.011c-.172-.026-.375-.12-.62-.207a.64.64 0 0 0-.38-.023.543.543 0 0 0-.27.188c-.111.167-.126.379-.135.568-.007.386.037.688.198.666-.256.392-.497.893-.841 1.394a5.797 5.797 0 0 1-.271.379 3.106 3.106 0 0 1-.148.19c-.049.058-.096.118-.152.182a5.901 5.901 0 0 1-1.172 1.042c-.15.101-.322.201-.463.281a5.34 5.34 0 0 1-.773.368l-.14.05-.072.024-.035.014c-.38.146-.742.18-1.124.086l-.09-.025-.046-.013c-.006-.001-.019-.008-.019-.005l.009.02c.024.055.046.11.065.164.04.109.066.22.084.333.034.229.029.473-.04.769l.013.047c.004.017.008.014.012.042.008.04.017.07.024.092.014.045.028.057.04.044.024-.014.043-.178.066-.215.038-.138.071-.273.153-.144-.026.056-.045.13-.07.19-.01.067-.018.153-.027.23l-.038.244c-.05.331-.122.69-.24 1.083-.106.397-.292.816-.537 1.268a6.074 6.074 0 0 1-1.067 1.345c.09-.042.169-.1.254-.152a6.506 6.506 0 0 1-1.74 1.154c-.59.27-1.174.453-1.749.564-.142.035-.287.05-.429.073a4.327 4.327 0 0 1-.425.05l-.212.018-.106.01-.059.001-.224.007a2.999 2.999 0 0 1-.773-.099 3.298 3.298 0 0 1-.654-.27 502.67 502.67 0 0 0-.293-.16c-.096-.052-.192-.107-.302-.12-.026-.008.002.01.016.02l.045.034.09.068.177.141c.116.097.228.197.332.305.207.216.39.464.488.745.039.094.061.196.084.3l.02.162c.004.066.001.17.002.256 0 .027.001.038-.002.077l-.013.119-.027.241c-.014.166-.053.321-.083.486-.029.165-.078.322-.122.485-.042.165-.1.322-.159.483l-.027-.33c-.014-.11-.032-.22-.048-.328-.234.824-.458 1.28-.615 1.647l-.236.49c-.082.15-.164.303-.267.474-.391.315-.396.232-.219-.037.093-.132.21-.327.356-.543.067-.111.139-.23.212-.354.074-.123.138-.257.209-.387.27-.53.466-1.11.522-1.457.05-.354.005-.442-.213-.051-.002.56-.282 1.56-.977 2.564a7.136 7.136 0 0 1-1.335 1.465 6.98 6.98 0 0 1-1.879 1.081c-.17.06-.338.131-.511.177l-.515.14c-.344.067-.684.135-1.018.163l-.248.027-.245.01c-.162.005-.322.018-.477.016-.31-.01-.61-.008-.89-.039-.14-.012-.278-.02-.41-.034l-.378-.05c-.122-.018-.242-.025-.352-.048l-.162-.027-.04-.006h-.019l-.036-.001c-.18.004-.29.02-.343.092-.404-.162-.39-.261-.357-.32.036-.071.09-.11-.443-.397a.326.326 0 0 0-.075.06l-.01.012.018.056.031.093a.335.335 0 0 0-.192-.005c.015.436.027.784.07.996a.73.73 0 0 0 .079.24c.005.018.02.008.024.034.005.024.01.045.017.064.012.036.027.06.043.073l.03-.133.015-.06c.012-.044.029-.089.042-.133.03-.088.058-.169.07-.232.016.106.02.205.016.302a1.774 1.774 0 0 1-.015.144 4.098 4.098 0 0 1-.04.182 9.092 9.092 0 0 1-.878 2.239c-.672 1.23-1.548 2.08-1.783 2.376a9.899 9.899 0 0 0 1.417-2.059 10.422 10.422 0 0 1-1.69 2.109 11.198 11.198 0 0 1-2.225 1.654c-.813.452-1.684.834-2.602 1.07-.232.056-.46.134-.696.171l-.708.124c-.476.05-.954.102-1.431.09-1.915.006-3.761-.504-5.349-1.3a13.01 13.01 0 0 1-1.69-1.002 11.349 11.349 0 0 1-2.316-2.124c.143.088.286.175.433.256-.81-.907-1.28-1.605-1.652-2.15l-.486-.73c-.146-.224-.285-.434-.42-.65a11.876 11.876 0 0 1-.825-1.556l-.11-.26-.08-.201a5.997 5.997 0 0 1-.285-.99l-.025-.128-.012-.067c-.007-.016 0-.064-.025-.04.016-.01.013.02.013.044v.07l-.003-.068a.958.958 0 0 1-.002-.036l-.023.006-.85.239-.665.17-.494.11-.505.094c.34-.02.358.016.219.08-.14.07-.44.15-.733.225-.584.13-1.144.243-.21.267-1.391.041-2.248-.147-2.797-.288a5.065 5.065 0 0 1-.637-.195 2.61 2.61 0 0 1-.375-.16 7.48 7.48 0 0 1-.624-.375l-.242-.15-.305-.204c-.116-.073-.241-.165-.383-.265-.143-.098-.296-.22-.467-.351a9.488 9.488 0 0 1-.793-.237c-.43-.423-.629-.68-.96-1.05-.164-.183-.357-.4-.616-.693a28.543 28.543 0 0 1-.683-.807l-.277-.36c.29.443.373.588.325.606-.044.014-.216-.101-.37-.225-.158-.12-.313-.237-.345-.194-.017.022-.003.083.058.204.061.122.166.305.35.556a9.448 9.448 0 0 1-2.074-2.877l-.025-.053-.017-.04-.033-.08c-.022-.052-.04-.106-.06-.16a5.4 5.4 0 0 1-.173-.658c-.009-.057-.02-.113-.03-.169-.013-.045-.003-.154-.054-.096-.172.097-.356.18-.545.258-.095.04-.192.075-.287.114l-.143.054-.07.028-.09.033c-.737.27-1.428.492-2.163.734-.358-.045-.538-.123-.588-.173-.05-.052.03-.092.196-.122.164-.034.413-.076.707-.12l.466-.089c.161-.038.33-.078.5-.12.168-.044.335-.098.502-.147l.43-.15c.176-.07.333-.14.454-.2.238-.123.343-.192.156-.126.168-.144.197-.223.106-.226-.092-.006-.308.057-.62.141-.182.05-.384.104-.595.16-.248.058-.504.123-.765.164-.258.054-.523.075-.77.11-.252.012-.49.046-.705.043l-1.042.014-.545-.011a7.099 7.099 0 0 1-1.228-.15c-.114-.028-.232-.054-.353-.09l-.175-.05-.113-.026c-.285-.067-.543-.158-.775-.325-.062-.095-.094.057-.137.124a4.493 4.493 0 0 1-.447.709c.122-.168.159-.14.27-.302a1.81 1.81 0 0 1-.216.366l-.108.133c-.264.32-.548.627-.851.932-.603.614-1.259 1.227-1.95 1.983-.554.227-1.065.63-1.523.943-.453.317-.85.538-1.11.426a20.426 20.426 0 0 0 3.212-2.352c-.869.735-1.83 1.294-2.944 1.885a114.396 114.396 0 0 1-4.031 2.027c.148-.011.49-.081.882-.195.389-.12.834-.265 1.184-.413a4.146 4.146 0 0 1-.7.394c-.242.108-.48.216-.732.3-.25.087-.498.178-.749.276-.254.09-.508.191-.763.318.112.086.461.04.957-.1.243-.079.524-.179.83-.295.301-.126.627-.27.965-.427a29.955 29.955 0 0 0 2.052-1.108c.67-.396 1.304-.792 1.849-1.102-.408.454-1.42 1.063-2.185 1.456-.765.394-1.263.65-.595.577-.944.143-1.896.633-3.048 1.105-1.142.471-2.506.91-4.026.878l.239.25c-.12.008-.273.018-.447.025l-.582.002c-.21.001-.43.008-.653.016-.224-.003-.45-.002-.668.008.266.049.535.11.806.148l.817.102c-.313-.008-.62 0-.923.015-.304-.003-.605.005-.905.02-.149.006-.298.02-.447.024l-.446.008-.89.027c-1.182-.005-2.377-.084-3.52-.458 1.217.3 1.915.358 2.286.388.375.006.429-.041.396-.1-.07-.122-.476-.302.559-.305-1.488-.215-2.415-.464-3.118-.57-.693-.146-1.161-.171-1.648-.237a7.72 7.72 0 0 1-1.786-.389 16.3 16.3 0 0 1-.634-.24c-.228-.096-.472-.215-.741-.346-.534-.27-1.147-.63-1.847-1.12.183.142.471.31.77.485.304.17.633.323.894.44.537.215.817.262.213-.13l-.911-.469c-.307-.174-.629-.338-.923-.514-.298-.171-.584-.333-.835-.483-.255-.145-.477-.273-.655-.366-.869-.708-1.222-1.07-1.327-1.203-.106-.136.042-.06.249.063.423.25 1.101.68.445.014a3.776 3.776 0 0 1-.823-.557 4.407 4.407 0 0 1-.6-.665c-.364-.485-.715-1.049-1.297-1.813l-.229.179c-.835-.914-1.233-1.51-1.45-1.889-.017-.03-.015-.03-.02-.043l-.01-.031-.017-.059a.718.718 0 0 1-.017-.106c-.006-.065 0-.123.004-.18.01-.116.022-.228-.058-.434a3.141 3.141 0 0 0-.194-.396c-.046-.08-.097-.172-.158-.27-.03-.047-.06-.099-.093-.153l-.013-.02c-.005.002-.01.013-.015.02l-.03.049-.067.1a3.034 3.034 0 0 1-.094.136l.086-.037.06-.026.027-.011c.008.013.015.05.022.075l.078.31c.047.197.088.377.12.538l-.162-.346-.081-.183c-.008-.014-.014-.037-.022-.042l-.024.03-.053.06c-.061.068-.13.135-.204.2a.822.822 0 0 1 .123.296c-.127.074-.281.163-.433.245l-.122.066-.266.155c-.214.13-.435.235-.65.348-.88.404-1.806.77-3.297.83.174-.054.232-.115.187-.173-.045-.063-.194-.103-.435-.177-.484-.122-1.348-.292-2.457-.76-.391-.119-.538-.164-.595-.153-.056.009-.017.06-.023.081-.002.01-.016.014-.058 0a1.02 1.02 0 0 1-.176-.076L93.563 48a2.914 2.914 0 0 1-.49-.37l.022.04c.126.217.23.41.358.537.037.035.104.08.16.116l.023.014.048.025.097.049.206.096c.143.061.3.113.464.165.167.045.346.084.535.116.062.069.242.17.428.272.189.091.385.18.46.244-.638-.052-1.362-.257-2.036-.581l-.252-.125-.062-.032-.032-.017-.053-.03-.052-.031a.626.626 0 0 1-.04-.025l-.053-.037a1.567 1.567 0 0 1-.197-.171c-.008-.005-.016-.027-.025-.016l-.025.017-.05.034a25.6 25.6 0 0 1-.097.063c-.063.04-.121.078-.17.112.1-.084.216-.197.278-.3l-.338.136c-.035.015-.056.021-.106.045l-.256.147c-.17.099-.345.188-.517.282-.696.363-1.412.68-2.142.947-.619.406-.057.248.509.07-.22.096-.424.178-.629.256l-.631.208-.716.214-.888.256c.209.065.308.152.602.165.147.004.345-.004.622-.068.14-.03.3-.07.487-.124.184-.057.393-.13.632-.218-.717.274-1.452.495-2.192.68a18.82 18.82 0 0 1-2.247.395c-.066.04-.257.102-.48.164-.224.062-.486.126-.72.18-.467.108-.827.188-.528.216-1.268.144-2.834-.01-4.452-.39a24.396 24.396 0 0 1-2.441-.73c-.814-.282-1.604-.622-2.383-.947a3.04 3.04 0 0 0-.34-.25l-.296-.19-.392-.258c-.346-.184-.669-.395-.999-.59-.318-.212-.642-.413-.946-.638a17.136 17.136 0 0 1-1.775-1.43 15.018 15.018 0 0 1-3.04-3.882c-.497-.489-.98-1-1.44-1.533-.326-.637-.364-.823-.29-.8.075.022.271.246.445.412.17.168.32.277.286.09-.026-.192-.25-.671-.713-1.738-.104-.289-.189-.493-.249-.588-.061-.098-.103-.1-.14-.06-.07.087-.129.301-.2.344a.59.59 0 0 1-.09.087 1.033 1.033 0 0 0-.336-.087l-.065-.007-.034-.004c-.014 0-.01-.005-.058.003-.146.021-.294.046-.447.064-.305.043-.621.084-.949.123-.655.077-1.35.16-2.074.228l-2.25.224c1.025.085 1.827-.023 2.778-.1m-28.082-8.592c.174.058.399.103.644.156a122 122 0 0 0 .38.079c.131.017.265.031.398.044.529.069 1.046.013 1.308-.082-.439-.145-.801-.146-1.219-.163-.417.005-.89.025-1.511-.034M8.702 11.072c-.481-.055-1.217.049-2.046.28a27.828 27.828 0 0 0 2.046-.28m133.5-7.9a.823.823 0 0 1-.066-.013c-1.391.127-.897.074.067.014m2.866-.066c.282.057.26.096.137.13-.19-.086-.826-.126-1.561-.117.204-.07.58-.12 1.424-.013m-9.526 44.759c-.145.268-.298.513-.445.759.298-.368.487-.624.605-.8.119-.17.17-.256.175-.282.012-.052-.157.131-.335.323" fill="#fff" fill-rule="evenodd" data-name="Path 6189"/><path d="M2.766 12.567c-.115.176-.108.259-.103.33-.224.169-.281.134.103-.33" fill="#fff" fill-rule="evenodd" data-name="Path 6190"/><path d="m74.095 50.003.1.048a.27.27 0 0 1 .075.097l-.175-.145Z" fill="#fff" fill-rule="evenodd" data-name="Path 6191"/><path d="M100.05.68c-.622-.03-.97-.01-1.204.021-.027-.074.26-.11 1.204-.02" fill="#fff" fill-rule="evenodd" data-name="Path 6192"/><path d="M156.45 11.784c-.23-.038-.462-.07-.687-.113l-.535-1.21c-.089-.2-.182-.39-.283-.588l-.148-.296.115.209.155.285c.12.222.219.42.31.596.182.352.33.618.475.883.115.016.242.019.369.03-.103.055-.8.06.23.204" fill="#fff" fill-rule="evenodd" data-name="Path 6193"/><path d="M172.35 15.986c.08.113.186.215.279.327.093.112.185.224.258.34l-.154.026-.258-.32-.24-.272c-.139-.17-.262-.292-.32-.375-.127-.156-.017-.135.434.274" fill="#fff" fill-rule="evenodd" data-name="Path 6194"/><path d="M158.92 11.181c.093-.108.423-.091.89-.008.233.042.498.102.785.172.29.069.58.15.895.238-.075-.02-.146-.038-.221-.053.146.212-.116.203-.553.11-.465-.098-1.125-.286-1.797-.459" fill="#fff" fill-rule="evenodd" data-name="Path 6195"/><path d="M161.779 11.664c.384.109.775.224 1.153.32.108.175-.472-.11-1.153-.32" fill="#fff" fill-rule="evenodd" data-name="Path 6196"/><path d="M148.38 3.748c.488.102.17.391.457.402.092.13-.04.08-.237-.02-.196-.1-.493-.246-.77-.364-.27-.12-.494-.22-.457-.25.02-.016.104-.014.27.018.17.029.417.093.737.214" fill="#fff" fill-rule="evenodd" data-name="Path 6197"/><path d="m160.107 10.58-.52.209-.683-.368c.401.048.803.101 1.203.16" fill="#fff" fill-rule="evenodd" data-name="Path 6198"/><path d="M152.358 4.65c.566.402 1.106.842 1.616 1.317-.057.013.109.221.312.475a15.592 15.592 0 0 0-1.323-1.24c-.386-.323-.652-.53-.605-.552" fill="#fff" fill-rule="evenodd" data-name="Path 6199"/><path d="M154.286 6.442c.455.486.842.991 1.013 1.32-.2-.296-.675-.905-1.013-1.32" fill="#fff" fill-rule="evenodd" data-name="Path 6200"/><path d="m157.31 10.024-.167-.006-.084-.003-.043-.001c-.014 0-.03.001-.033-.014l-.143-.236c-.217-.436-.458-.87-.721-1.292.329.5.623 1.01.877 1.51.003.015.018.015.032.015l.04.004.081.008.161.015Z" fill="#fff" fill-rule="evenodd" data-name="Path 6201"/><path d="m130.483 2.618-2.3.093c-.242-.084.378-.198 1.236-.224.555.028 1.409.004 1.064.13" fill="#fff" fill-rule="evenodd" data-name="Path 6202"/><path d="M137.385 1.357c-.621.092-.66.162-1.005.28l-.09-.37 1.095.09Z" fill="#fff" fill-rule="evenodd" data-name="Path 6203"/><path d="M130.663 1.688c-.236-.088-3.361-.038-.443-.241.241.083 2.552.001.443.241" fill="#fff" fill-rule="evenodd" data-name="Path 6204"/><path d="m96.37 1.399.587.037-.12.607-.466-.644Z" fill="#fff" fill-rule="evenodd" data-name="Path 6205"/><path d="M66.632 6.486c.27-.061.475-.135.639-.178.165-.039.286-.084.38-.1.187-.039.261-.011.33.008.067.02.129.042.295-.003.165-.043.435-.161.921-.46.298-.078-.103.187-.5.405-.398.22-.8.409-.505.358-.357.096-.663.179-.92.22a2.994 2.994 0 0 1-.598.076c-.283.007-.308-.069-.042-.326" fill="#fff" fill-rule="evenodd" data-name="Path 6206"/><path d="M68.192 6.516c.228-.067.473-.135.739-.222-.416.161-.614.193-.739.222" fill="#fff" fill-rule="evenodd" data-name="Path 6207"/><path d="M207.746 36.854c.278.023.563.12.738.211.104.05.164.088.237.132l.16.105c.17.115.24.158.297.182.096.039.19.053.288.051a.836.836 0 0 1-.213.036c-.08-.002-.136.006-.279-.06-.063-.063-.146-.152-.321-.283a2.022 2.022 0 0 0-.907-.374" fill="#fff" fill-rule="evenodd" data-name="Path 6208"/><path d="M210.412 38.024c.054-.153.091-.31.112-.462.242.018.502-.005.763-.078a3.84 3.84 0 0 1-.447.29c-.17.095-.338.178-.428.25" fill="#fff" fill-rule="evenodd" data-name="Path 6209"/><path d="m26.965 28.946-.055-.193c.08.046.16.106.254.174.097.065.202.142.322.235.121.09.253.207.414.322l.559.384c-.252-.136-.51-.264-.76-.418-.243-.164-.495-.32-.734-.504" fill="#fff" fill-rule="evenodd" data-name="Path 6210"/><path d="m46.192 36.428-.376-.241c.298.054.586.116.886.151-.17.032-.342.067-.51.09" fill="#fff" fill-rule="evenodd" data-name="Path 6211"/><path d="M63.8 39.652c-.009-.004-.001-.025.002-.06-.005-.015-.024-.025-.044-.012.02.013.038-.018.08-.065.033-.025.087-.04.103-.024.016.02-.015.053-.14.16" fill="#fff" fill-rule="evenodd" data-name="Path 6212"/></g></g><defs><clipPath id="a"><path d="M0 0h211.288v67.643H0V0z" data-name="Rectangle 2996"/></clipPath></defs></svg>