<svg xmlns="http://www.w3.org/2000/svg" width="370.533" height="93.11" viewBox="1124 338.445 370.533 93.11"><g data-name="Group 3021"><g data-name="Group 2970"><g data-name="Group 2969" transform="translate(1124 338.445)" clip-path="url(#a)"><path d="M290.666 42.177c-.106-.184-.218-.16-.29-.108-.072.053-.132.14-.166.147.176.128.312.156.393.1.086-.054.096-.17.063-.139" fill="#fff" fill-rule="evenodd" data-name="Path 6132"/><path d="M278.8 44.93c.092-.092.19-.186.302-.278-.511.262-.85.515-1.207.74a20.61 20.61 0 0 1-1.073.65c.33-.167.65-.342.967-.524.32-.182.626-.376 1.011-.588" fill="#fff" fill-rule="evenodd" data-name="Path 6133"/><path d="M262.95 48.274c.173-.136.333-.303.57-.577.241-.283.523-.587.878-.86.702-.552 1.734-.91 2.846-.876a7.023 7.023 0 0 1 1.518.251c.455.127.872.26 1.262.378.769.23 1.433.372 2.044.441l.41.13c.186-.083.365-.194.537-.285.183-.105.372-.218.555-.333-.198.041-.406.084-.6.115-.183.017-.37.063-.556.066a5.756 5.756 0 0 1-1.15-.031 9.535 9.535 0 0 1-1.256-.287c-.442-.129-.93-.295-1.472-.432a4.86 4.86 0 0 0-.42-.093 3.816 3.816 0 0 0-.441-.071 5.128 5.128 0 0 0-.952-.034 4.708 4.708 0 0 0-1.752.468 4.021 4.021 0 0 0-1.28 1.021 4.017 4.017 0 0 0-.237.298c-.037.05-.075.1-.11.15l-.088.124-.305.437" fill="#fff" fill-rule="evenodd" data-name="Path 6134"/><path d="M256.534 50.038c.236.12-.183.16-.228.165l.347-.016c.15-.002.349-.014.612-.034.135-.006.28-.019.44-.04.162-.017.343-.035.527-.071-.156-.008-.197-.01-.293-.025-.286.022-.673.059-1.405.02" fill="#fff" fill-rule="evenodd" data-name="Path 6135"/><path d="M257.939 50.017c.667-.086.437-.11.166-.097-.275.01-.632.027-.166.097" fill="#fff" fill-rule="evenodd" data-name="Path 6136"/><path d="m250.537 49.505 1.081.064 1.132.052a3.955 3.955 0 0 0-.562-.161l-.373-.084-.345-.083c-.432-.104-.721-.182-.365-.177-2.16-.262-1.754-.072-.568.389" fill="#fff" fill-rule="evenodd" data-name="Path 6137"/><path d="M248.452 49.514c.372.051.739.113 1.111.156-.184-.088-.46-.18-1.11-.156" fill="#fff" fill-rule="evenodd" data-name="Path 6138"/><path d="M251.955 49.883c-.816-.055-1.599-.116-2.392-.213.289.15.29.352 1.087.134-.219.142.266.051 1.305.08" fill="#fff" fill-rule="evenodd" data-name="Path 6139"/><path d="M253.342 50.159c.615.143 1.312.269 1.58.356.262.082.117.153-1.005.13 2.128.206 2.94.034 2.8-.06-.149-.107-1.243-.191-3.375-.426" fill="#fff" fill-rule="evenodd" data-name="Path 6140"/><path d="M263.03 49.273c.362-.402.665-.865 1.102-1.368a3.317 3.317 0 0 1 1.22-1.244c-.191.119-.519.275-.829.55a4.01 4.01 0 0 0-.456.46 6.277 6.277 0 0 0-.391.513c-.221.316-.396.592-.517.779-.118.193-.18.301-.128.31" fill="#fff" fill-rule="evenodd" data-name="Path 6141"/><path d="M234.68 47.37c-.088.093.292.067.717.035.43-.026.92-.027 1.08.016a8.45 8.45 0 0 1 .698-.162c.16-.037.321-.075.481-.103.32-.063.644-.12.976-.16l-.423-.005-.472.018c-.163.007-.329.014-.495.03l-.32.03a9.273 9.273 0 0 0-.365.045c-.466.08-.909.133-1.237.194-.329.06-.565.089-.64.063" fill="#fff" fill-rule="evenodd" data-name="Path 6142"/><path d="M236.477 47.421c-1.38.346-2.607.882-3.687 1.453 1.555-.697 2.596-.983 3.156-1.162.57-.167.668-.25.53-.291" fill="#fff" fill-rule="evenodd" data-name="Path 6143"/><path d="M247.917 50.053c1.334.19 2.66.268 4.02.305-1.617-.068-3.192-.202-4.768-.5.248.075.499.13.748.195" fill="#fff" fill-rule="evenodd" data-name="Path 6144"/><path d="m226.852 54.312-5.837-1.084.307-.207-.331.208 5.51 1.052 2.296.444 1.034.202.904.19-.836-.186-.956-.196-2.09-.423Z" fill="#fff" fill-rule="evenodd" data-name="Path 6145"/><path d="M235.803 59.05c-.329-.293-.255.01-.19.29.061.283.12.542-.155.217.078.118.147.234.217.348.036.057.07.114.102.17l.049.084.025.041.071.138c.041.078.08.158.127.225.045.069.104.158.109.162l.104.142.197.282c.251.369.473.763.643 1.109.009.007.014 0 .025.02l.034.075.067.177-.047-.181-.023-.078c-.007-.02-.007-.015-.012-.024a14.598 14.598 0 0 0-.65-1.637l-.044-.09-.12-.219c-.04-.086-.079-.173-.118-.261l-.041-.11c-.104-.277-.228-.57-.37-.88" fill="#fff" fill-rule="evenodd" data-name="Path 6146"/><path d="M237.546 64.249a6.214 6.214 0 0 0-.319-1.72c.128.523.221 1.117.32 1.72" fill="#fff" fill-rule="evenodd" data-name="Path 6147"/><path d="M226.438 51.73c-.113.03-.254.064-.451.115l-.327.09c-.06.02-.125.038-.194.059-.034.01-.07.02-.105.032l-.044.015c-.055.02-.108.04-.18.07l-.107.046-.134.062c-.105.052-.22.11-.349.172l-.586.299.997-.3.679-.19a.546.546 0 0 0 .078-.148c.003-.003-.003-.004.007-.01l.047-.02.094-.041.19-.083.385-.168" fill="#fff" fill-rule="evenodd" data-name="Path 6148"/><path d="m225.674 52.188-.038.012c-.059.085-.181.2-.354.34-.087.069-.225.162-.336.242l-.504.321 2.025.492-2.013-.492.518-.327.18-.127c.06-.043.128-.088.162-.119.083-.068.176-.14.222-.19.066-.06.1-.105.138-.152" fill="#fff" fill-rule="evenodd" data-name="Path 6149"/><path d="m226.822 51.56-.384.17c.216-.057.329-.095.384-.17" fill="#fff" fill-rule="evenodd" data-name="Path 6150"/><path d="M241.452 47.83c-.872-.054-2.197.021-2.818.208-.318.074-.476.154-.354.207.062.028.194.054.411.076.218.023.518.032.926.08.581-.119.412-.223.397-.334-.007-.054.025-.114.222-.16.198-.044.56-.107 1.216-.076" fill="#fff" fill-rule="evenodd" data-name="Path 6151"/><path d="m229.446 50.854 1.872-.818 1.737-.772c-.147-.035-.933.176-.052-.336-.612.316-1.169.648-1.762.966l-1.795.96Z" fill="#fff" fill-rule="evenodd" data-name="Path 6152"/><path d="m227.847 51.716 1.6-.862-1.447.632a4.996 4.996 0 0 0-.153.23" fill="#fff" fill-rule="evenodd" data-name="Path 6153"/><path d="M237.308 60.821c.252.36.457.795.595 1.241l.015.046c.006.017.013.052.02.078.013.053.024.12.037.181.023.128.044.263.06.405.034.28.05.58.056.89a8.233 8.233 0 0 0-.023-1.29l-.024-.195-.02-.144a6.604 6.604 0 0 0-.735-1.89c-.05-.031-.093-.04-.191-.136-.086-.07-.15-.134-.174-.109-.01.012-.012.047.006.108a1.38 1.38 0 0 0 .078.18l.016.043c.05.121.145.306.284.592" fill="#fff" fill-rule="evenodd" data-name="Path 6154"/><path d="m234.617 56.65.165.136c-.072-.116-.14-.195-.165-.136" fill="#fff" fill-rule="evenodd" data-name="Path 6155"/><path d="m231.377 72.801.217-.043c.005-.026.006-.048.016-.077l-.233.12Z" fill="#fff" fill-rule="evenodd" data-name="Path 6156"/><path d="m237.194 59.853-.192-.438c-.045-.101-.097-.195-.145-.285a4.257 4.257 0 0 0-.92-1.165c.236.29.46.601.665.935.108.165.2.34.299.515l.158.317c.04.087.084.173.135.252l.096.159c.04.02.07.03.07.003a.205.205 0 0 0-.029-.072l-.038-.064c-.028-.045-.06-.097-.1-.157" fill="#fff" fill-rule="evenodd" data-name="Path 6157"/><path d="M236.995 67.38c.245-.43.492-.943.68-1.513l-.42.86c-.145.297-.276.553-.26.653" fill="#fff" fill-rule="evenodd" data-name="Path 6158"/><path d="M234.937 57.09c-.038-.031-.073-.06-.111-.095.161.282.16.231.11.095" fill="#fff" fill-rule="evenodd" data-name="Path 6159"/><path d="M234.937 57.09c.376.335.696.595.999.875a8.068 8.068 0 0 0-1.154-1.18c.066.103.121.218.155.305" fill="#fff" fill-rule="evenodd" data-name="Path 6160"/><path d="M228.452 76.57c.039-.19.749-.624 1.744-1.134a57.279 57.279 0 0 1 3.493-1.638c1.051-.782 1.015-1.201.506-1.298-.516-.106-1.523.038-2.601.258-.001.08.02.156-.238.367-.259.21-.78.582-1.923 1.178.45-.093 1.796-.582 2.764-.979.965-.394 1.607-.627.736.052-1.46.92-2.148 1.157-2.614 1.301-.475.132-.762.135-1.573.37.739-.082-.217.485-1.29 1.052-1.069.569-2.253 1.135-1.796 1.309a49.3 49.3 0 0 0 2.868-1.218c.09.068-.919.601-.076.38" fill="#fff" fill-rule="evenodd" data-name="Path 6161"/><path d="M235.421 70.21c.11-.113.228-.221.33-.337l.306-.347c-.765.718-1.455 1.136-2.808 1.74-1.297 1.013-1.6 1.256-1.64 1.414.75-.383 1.468-.803 2.145-1.257.674-.454 1.318-.937 1.872-1.468l-.205.255Z" fill="#fff" fill-rule="evenodd" data-name="Path 6162"/><path d="M237.853 66.046c.102.396-.014 1.154-.077 1.667-.07.451-.053.733.42.183.125-.346.237-.637.298-.892.031-.127.062-.242.09-.348l.05-.293c.065-.354.054-.581.048-.767-.031-.373-.085-.602-.109-1.453-.042 1.146-.197 1.626-.23 1.763-.045.137-.04-.072-.034-.317.01-.245-.014-.53-.06-.552-.059-.025-.122.218-.348.985a13.21 13.21 0 0 0 .19-2.36 8.76 8.76 0 0 1-.417 2.205c.02-.036.029-.062.043-.092l.002-.02c.003 0 .003.005.006.005.078-.173.118-.229.052-.027.001.015-.007.067-.01.09.044.04.065.128.084.222-.408 1.206-.129.17-.084-.221-.014-.019-.025-.056-.042-.064a.105.105 0 0 0-.008.015c-.062.356-.14.708-.24 1.057-.1.346-.218.711-.337.978-.247.582-.62 1.161-1.083 1.717.17-.159.316-.343.496-.54.143-.208.335-.427.473-.692.075-.13.165-.266.223-.416.065-.156.143-.286.21-.496.068-.196.15-.4.209-.626l.1-.343.085-.368" fill="#fff" fill-rule="evenodd" data-name="Path 6163"/><path d="M236.808 49.451c-.176.004-.18-.021-.203-.043-.33.124-.44.17.203.043" fill="#fff" fill-rule="evenodd" data-name="Path 6164"/><path d="M234.482 49.915c.168-.094.307-.193.575-.324.267-.13.676-.29 1.374-.44.623-.074.623-.03.499.04-.127.071-.38.17-.325.217.364-.13 1.056-.311 1.305-.406.13-.052.165-.095.015-.12a1.971 1.971 0 0 0-.376-.015l-.146.006-.192.014c-.137.01-.29.029-.464.055l-.41.135c-.612.119-1.28.269-1.934.455-.65.19-1.29.407-1.865.605-1.155.395-2.104.702-1.907.583.624-.115 1.155-.213 1.75-.343.595-.128 1.248-.296 2.101-.462" fill="#fff" fill-rule="evenodd" data-name="Path 6165"/><path d="M235.73 56.323c.475.47.917.983 1.314 1.525.198.27.385.55.558.836.085.144.173.288.25.436l.144.271.16.25-.049-.121c-.024-.053-.05-.104-.07-.158l-.062-.17-.038-.124c-.049-.167-.111-.33-.17-.496-.122-.328-.26-.655-.414-.977l-.096.191a7.232 7.232 0 0 0-.75-1.03c-.191-.214-.321-.32-.412-.373-.184-.105-.216-.005-.365-.06" fill="#fff" fill-rule="evenodd" data-name="Path 6166"/><path d="M230.881 72.85c.104-.193.207-.383.305-.576a31.34 31.34 0 0 1-1.89 1.48 32.202 32.202 0 0 0 1.585-.904" fill="#fff" fill-rule="evenodd" data-name="Path 6167"/><path d="m225.947 74.907.084-.374c-.426.214-.858.424-1.293.626a44.23 44.23 0 0 0 1.21-.252" fill="#fff" fill-rule="evenodd" data-name="Path 6168"/><path d="M61.225 45.318c.325-.325.685-.605 1.03-.908-.504.41-.822.68-1.03.908" fill="#fff" fill-rule="evenodd" data-name="Path 6169"/><path d="M55.099 52.041c.019.07.036.144.051.22.042-.236.03-.33-.051-.22" fill="#fff" fill-rule="evenodd" data-name="Path 6170"/><path d="M95.698 80.942c-.886-.568-1.962-1.092-2.797-1.381-.84-.293-1.408-.356-1.29-.162.213.148.423.281.623.448 1.523.2 2.633.646 3.464 1.095" fill="#fff" fill-rule="evenodd" data-name="Path 6171"/><path d="M5.601 75.6c.134.12.267.268.42.38l.345.076.334.046c.213.034.425.034.615.046a5.88 5.88 0 0 1-1.714-.549" fill="#fff" fill-rule="evenodd" data-name="Path 6172"/><path d="M3.541 75.792a12.186 12.186 0 0 1-1.54-2.31c.256.562.693 1.34 1.54 2.31" fill="#fff" fill-rule="evenodd" data-name="Path 6173"/><path d="M102.232 24.081c.45-.333.896-.696 1.376-1.005l-.417.169-.333.157c-.198.096-.35.175-.465.239-.232.127-.316.2-.33.246-.027.09.222.068.17.194" fill="#fff" fill-rule="evenodd" data-name="Path 6174"/><path d="M173.961 87.471a59.35 59.35 0 0 0-3.957-.548c1.896.372 3.426.805 3.957.548" fill="#fff" fill-rule="evenodd" data-name="Path 6175"/><path d="M61.137 50.581c.453-.575.634-.838.563-.88-.501.569-.731.936-.563.88" fill="#fff" fill-rule="evenodd" data-name="Path 6176"/><path d="M165.473 86.468c.267.069.532.12.808.18 1.143.067 2.31.127 3.723.275-1.399-.279-2.997-.517-4.53-.455" fill="#fff" fill-rule="evenodd" data-name="Path 6177"/><path d="M252.944 11.568c-.01.06-.011.125-.026.187.043-.03.043-.098.026-.187" fill="#fff" fill-rule="evenodd" data-name="Path 6178"/><path d="m279.407 35.823-.154-.038-.085-.02-.05-.011c-.035-.008-.06-.015-.093-.02a2.628 2.628 0 0 0-.85-.028c-.664.106-1.51.301-2.363.511l1.644-.36c.342-.066.726-.172 1.085-.165l.273.016c.09.015.183.025.277.044l.164.036.152.035" fill="#fff" fill-rule="evenodd" data-name="Path 6179"/><path d="M207.124 86.16c.88-.619.121-.127 0 0" fill="#fff" fill-rule="evenodd" data-name="Path 6180"/><path d="M212.149 83.743c-.13.211-.226.378-.184.457.002-.13.074-.281.184-.457" fill="#fff" fill-rule="evenodd" data-name="Path 6181"/><path d="m153.367 87.596-.103.006c.358.046.296.037.103-.006" fill="#fff" fill-rule="evenodd" data-name="Path 6182"/><path d="m208.547 85.359-1.19.714c.1-.05.243-.127.44-.239.193-.117.442-.267.75-.475" fill="#fff" fill-rule="evenodd" data-name="Path 6183"/><path d="M208.27 85.356c.303-.214.543-.382.76-.554.063-.136-.04-.076-.76.554" fill="#fff" fill-rule="evenodd" data-name="Path 6184"/><path d="M205.843 86.943a61.432 61.432 0 0 0 1.515-.87c-.188.1-.276.128-.234.088-.27.167-.638.429-1.28.782" fill="#fff" fill-rule="evenodd" data-name="Path 6185"/><path d="M178.391 16.614c.068.048.15.097.222.152.593.218.754.293.668.237a7.853 7.853 0 0 0-.89-.389" fill="#fff" fill-rule="evenodd" data-name="Path 6186"/><path d="M63.87 82.789c.034.011.06.016.095.028l-.107-.066.012.038Z" fill="#fff" fill-rule="evenodd" data-name="Path 6187"/><path d="M60.728 82.82c.67-.359 1.257-.455 1.784-.444.262.015.527.043.748.11.225.064.397.145.598.264a3.195 3.195 0 0 0-.282-.659 3.702 3.702 0 0 0-.48-.633 6.69 6.69 0 0 0-2.368 1.362" fill="#fff" fill-rule="evenodd" data-name="Path 6188"/><path d="M83.388 38.781a32.015 32.015 0 0 0-3.233-.532c1.988-.245 3.722-.097 4.557-.04.418.03.619.027.525-.044-.094-.065-.476-.227-1.244-.438-.157.264-1.034.282-2.272.289-1.237.002-2.843.006-4.442.161-.398.046-.798.078-1.189.137l-1.147.182c-.75.143-1.448.313-2.033.503-1.174.372-1.932.787-1.953 1.083-.35.073-.696.155-1.046.233-.347.085-.691.18-1.04.272.578-.207.64-.32 1.22-.505-1.029.22-1.701.486-2.204.761-.51.263-.837.57-1.197.875-.705.655-1.528 1.337-3.738 2.767-.382.257-.738.49-1.045.681-.311.187-.547.365-.725.461-.347.2-.404.15.043-.308l-.751.718c-.253.235-.48.5-.719.75-.475.5-.935 1.013-1.363 1.55-.815.872-.776.523.055-.343a31.47 31.47 0 0 0-2.91 3.7c-.045.066-.056.084-.072.109l-.047.075-.093.148-.166.281-.01-.046c-.03.167-.093.416-.18.717l-.142.48-.076.254c-.034-.003-.072-.042-.109-.062a4.586 4.586 0 0 0-.399-.27c-.322-.404-.226-.347-.09-.26.142.094.311.247.237.08a4.998 4.998 0 0 0-.687-.435c-.065-.037-.136-.067-.208-.099l-.11-.05-.056-.027-.102-.054c-.138-.073-.274-.148-.413-.216l-.431-.175c-.616-.458-.213-.434.668-.1l.335.166.09.046.045.024.021.009.081.036c.108.043.213.095.313.16.202.128.389.293.555.495-.252-.636-.34-.853-.453-.99a.4.4 0 0 0-.185-.125l-.072-.032-.208-.11c-.143-.07-.284-.154-.448-.21l-1.078-.412-.662-.2c-.236-.069-.483-.162-.759-.216l-.88-.215-1.026-.182c-.367-.068-.76-.089-1.186-.144-.425-.046-.878-.044-1.37-.072 1.213-.127 2.455-.1 3.697.092-1.129-.543-2.519-.77-4.105-.687-1.592.089-3.377.46-5.44 1.267.262-.063.906-.305 1.688-.465.385-.1.809-.159 1.223-.213a8.705 8.705 0 0 1 1.19-.086c.184-.004.356-.006.513-.002.159.013.302.028.426.045.248.035.416.079.476.13.06.053.008.113-.182.185a3.783 3.783 0 0 1-.394.117 9.63 9.63 0 0 0-.621.163c-.285.041-.598.07-.927.15-.328.086-.687.172-1.064.304-.748.287-1.61.67-2.495 1.35-.056-.083-.211-.071-.453.018-.235.1-.547.297-.922.552-.188.128-.374.301-.58.474a6.035 6.035 0 0 0-.629.599c-.208.229-.438.454-.647.722-.213.263-.42.547-.616.847-.11-.153-.22-.309-.325-.466a9.22 9.22 0 0 0-.439.78l-.043.088c-.014.027.006-.005 0 .007v.009l-.005.036-.005.073c-.004.097 0 .19.01.287l.033.3.018.168.006.093.004.049c.002.019.002.035-.007.034-.024.03-.078.049-.165.06l-.708-.265a33.248 33.248 0 0 0-1.368-.274c-.039-.018-.078-.036-.108-.054a.537.537 0 0 1-.05-.06.392.392 0 0 1-.064-.142.943.943 0 0 1-.028-.148l-.002-.036-.002-.018-.025-.025-.104-.102c-1.124-.371-1.51-.441-1.528-.385-.019.056.325.243.635.437.312.19.592.38.462.426-.132.05-.665-.06-2.01-.401-1.863-.594-3.512-.938-5.28-1.118-1.77-.17-3.661-.214-6.017.007-1.382-.04-1.271-.11-.93-.21.34-.099.907-.198.403-.25-.82.18-1.632.383-2.428.62-.598.064-.423-.089-.333-.166-1.007.217-1.017.359-1.186.515-.164.164-.477.316-2.025.709-.36.38-1.988.494-4.001 1.002-1.004.259-2.104.62-3.142 1.165-1.035.542-2.01 1.273-2.682 2.151-.22.157-.32.204-.354.182-.034-.023-.003-.12.05-.229.1-.219.276-.515.083-.473a10.549 10.549 0 0 0-1.27 1.619c-.326.5-.548.969-.73 1.38a8.3 8.3 0 0 0-.574 2.088c-.05.302-.048.596-.068.904-.002.307.016.629.044.986.082.71.244 1.573.673 2.678.1.664.282 1.309.485 1.953.226.632.476 1.264.799 1.864-.165-.34-.243-.6-.282-.777-.039-.177-.031-.272.014-.301.09-.059.322.152.655.508.673.704 1.841 1.954 3.213 2.687-.674-.722-1.074-1.432-1.348-1.894.26.29.547.55.835.802l.447.359c.155.097.294.213.46.293.632.354 1.341.568 2.09.693.521.193.037.308-.769.296.321.05.625.09.867.097.803.269.998.41.815.524-.183.107-.737.175-1.4.156a6.834 6.834 0 0 1-1.576-.945c-.618-.141-1.22-.43-1.634-.595-.428-.163-.7-.238-.723-.027.072.052.155.12.251.198l.334.253c.226.182.543.42.883.624-.36-.13-.597-.24-.49-.082.12.17.72.47 1.616.7.158.177.323.336.495.497.172.168.346.312.527.464.119-.05.238-.096.351-.153 1.131.323 2.222.506 3.288.671 1.066.162 2.112.297 3.15.44l1.676-.106c.567-.037 1.11-.084 1.632-.112 1.035-.05 2.052-.041 2.86.412.2.116.407.256.572.446.187.175.318.408.415.66.05.132.086.244.134.42.047.168.098.348.165.536.134.37.338.72.59 1.03.245.301.517.587.83.833.3.262.641.48.991.694.714.408 1.504.74 2.365.999-.912-.095-1.08-.006-1.042.222.035.223.29.531.151.752-.454-.322-1.027-.628-1.673-1.028-.642-.399-1.372-.895-2.036-1.63-.313-.35-.677-.842-.89-1.397a5.876 5.876 0 0 1-.244-.814l-.04-.166c-.013-.059-.02-.074-.028-.108-.02-.062-.038-.123-.06-.182a1.706 1.706 0 0 0-.422-.629 2.661 2.661 0 0 0-.663-.469c.144.075.256.155.327.219.07.058.116.126.155.17.066.107.079.173.06.214-.036.077-.173.05-.281.013.205.127.407.308.517.548.029.06.05.122.074.185l.016.05.025.098.055.226.07.263c.03.099.057.198.093.295.066.195.149.384.24.566.183.363.437.713.656.97.232.269.477.524.743.74a7.836 7.836 0 0 0 1.652 1.095c-.09.068-.059.173.072.302.065.066.155.139.265.218.112.075.243.154.392.24.596.336 1.464.677 2.365 1.002-.58-.6.756-.305 2.554-.112.915.1 1.895.168 2.84.248.94.08 1.845.127 2.527.117.073.145-.058.278-.622.328-.567.054-1.559.009-3.196-.198 1.776.502 2.984.38 4.18.208 1.198-.172 2.366-.362 4.166-.071-.815-.004-1.252-.064-1.58.066.957-.082 2.594-.075 3.865-.07 1.27.006 2.175.037 1.631.2-.273.021-.547.039-.82.052 1.366-.04 3.096-.17 4.918-.489a28.785 28.785 0 0 0 5.429-1.474 23.35 23.35 0 0 0 2.358-1.07c.357-.187.696-.372 1.006-.564.313-.186.604-.372.848-.538.978-.667 1.624-1.072 1.742-1.305.04.035-.038.287-.137.571-.101.28-.224.587-.323.712 1.1-.967 2.339-1.768 3.846-2.143.75-.17 1.553-.287 2.382-.148.415.07.821.199 1.206.3.387.104.764.187 1.144.248-.489.11-.189.81-.221 1.313-.022.25-.143.453-.555.483-.205.013-.486-.019-.853-.127-.36-.1-.834-.317-1.219-.467.38.24 1.112.76 2.026 1.153.92.4 2.01.75 3.442.975-.445-.145-.948-.51-1.172-.801-.223-.294-.184-.498.408-.355.762.387 1.302.608 1.725.764.424.157.735.246 1.071.335.672.163 1.456.355 3.526.694-.671-.082-.621-.352-.15-.589.474-.24 1.34-.452 2.385-.454-.325.149.197.94-.581 1.043 1.773-.312 3.545-.783 5.188-1.454-.622.217-.652.411-.358.573.292.159.91.258 1.53.236-.3-.016.864-.301 2.139-.675.64-.182 1.3-.359 1.869-.483.568-.127 1.054-.204 1.349-.26-.638.003-1.282.058-1.953.158 1.304-.302 2.22-.459 3.035-.603.408-.075.764-.114 1.114-.187.348-.06.677-.09 1.017-.145.67-.049 1.372-.091 2.224.084.854.162 1.858.522 3.095 1.22-.348-.085-.859-.016-.971.25-.108.268.15.703 1.368 1.465.35.06.916.155 1.65.278.733.127 1.637.285 2.64.426 1 .151 2.096.24 3.259.38 1.158.138 2.37.304 3.59.531.284.17.57.331.858.495 1.257.223 2.533.345 3.795.5-.615.06-1.506.113-2.565.156-1.05.008-2.27.006-3.528-.073a44.919 44.919 0 0 1-3.783-.378 20.108 20.108 0 0 1-3.359-.785c.971.602 1.105.724 1.361.898.13.085.296.18.643.32.172.072.387.158.662.264.263.095.584.206.978.336.518.306.057.26-.652.085-.345-.08-.787-.224-1.196-.363-.413-.13-.768-.295-1.012-.392.612.296 1.278.565 1.903.81a62.292 62.292 0 0 0 5.556 1.8c-.049-.154.295-.178.834-.135.269.021.587.059.929.106l1.081.117c1.475.168 2.943.345 2.84.087-1.372-.183-2.754-.348-4.132-.552-.686-.12-1.376-.229-2.063-.361a66.659 66.659 0 0 1-2.058-.43c-.081-.32 1.189-.325 3.119-.172.483.036 1.006.093 1.561.155a43.747 43.747 0 0 1 3.637.463c.643.1 1.3.198 1.959.314.656.209.37.417-.076.598-.444.176-1.05.322-1.01.422.364-.04 1.647.076 2.9.183 1.254.113 2.479.222 2.72.313-.77.024-1.543.041-2.316.045 1.487.288 2.736.222 4.047.178 1.314-.046 2.687-.07 4.489.242 1.24.078 3.744.734 3.958.388-2.071-.6-2.422-2.58-1.114-3.06.212.024 1.802.153 3.525.245 1.722.098 3.576.128 4.289.206 1.029.118.32.52-.45.887-.767.377-1.591.719-.698.858.062-.16 1.171-.459 1.632-.58.658-.017.538.116.606.202.068.084.326.129 1.738-.12.388-.586 5.725-1.048 1.252-.697 1.356-.327 2.08-.472 2.874-.606.395-.076.808-.146 1.318-.265.255-.061.535-.13.85-.214.298-.083.72-.224.923-.271-.093-.038-.139-.067-.144-.131-.003-.06.036-.147.13-.22.05-.04.096-.08.192-.126l.305-.146.767-.344c.57-.251 1.225-.553 1.928-.812a11.52 11.52 0 0 1 2.143-.57c-.147.159.489.28.79.351 1.398-.08 2.64-.04 3.784.061 1.144.104 2.189.295 3.224.489 2.068.392 4.105.813 6.722 1.067.467.19 2.975.581 1.88.727.76-.033 1.467-.162 3.079-.043 3.078.746-3.598-.224-1.27.56.232-.307 4.203-.107 6.512-.13-.666-.563-5.288-.518-7.605-.517.05-.694 4.107-1.083 9.58-.981 4.339.147 1.844.588 2.602.545 4.064.342 5.815.118 7.383-.064 1.569-.194 2.957-.319 6.301-.037 2.658.442.122.89.71 1.21-3.541.158-5.421-.392-7.812-.483.979.12 1.958.233 2.939.337-1.13.112-3.498.114-4.777-.091 1.114.259 4.56.487 8.519.545 1.98.021 4.088.008 6.096-.142 1.004-.078 1.984-.188 2.904-.383.92-.179 1.782-.5 2.503-.837.96-.637 2.475-1.849 1.615-1.494-.549.367-1.1.735-1.68 1.052-.889.263-.111-.273.56-.768.666-.514 1.246-.976.165-.4a25.056 25.056 0 0 0 3.085-2.759 38.165 38.165 0 0 0 3.12-3.664c.262-.09.525-.19.787-.297-.085-.003-.449.46-.888 1.013-.433.55-.956 1.178-1.24 1.606.325-.492 1-1.158 1.66-1.985.33-.41.66-.859.952-1.319.34-.543.637-1.129.871-1.672.656-.14 1.256-.273 1.695-.5-.619.032-1.312.042-1.993.092-.243.406-.5.832-.773 1.266.196-.469.39-.977.592-1.515.39-.109.823-.188 1.26-.291.429-.096.95-.212 1.254-.297l1.923-.532.989-.267.983-.257c.655-.172 1.33-.346 2.008-.5-.773-.045-.946.01-1.223.086a3.307 3.307 0 0 1-.576.104 5.405 5.405 0 0 1-.499.024c-.106.002-.189-.005-.321-.007a12.496 12.496 0 0 1-.413-.013c.725.104-.01.343-1.154.577-.574.117-1.251.23-1.9.331l-1.471.217c-.49.073-.945.13-1.313.203-.287.659-.473 1.122-.47 1.25 0 .13.194-.08.608-.685-.253.34-.5.708-.744 1.08-.124.189-.247.376-.37.56l-.048.074-.03.04-.06.076-.117.154c-.312.41-.59.8-.91 1.21-.614.785-1.368 1.634-2.585 2.408.09.032.325-.087.308-.003-.021.08-.276.394-1.267 1.174-.054.113-.227.327-.341.461l-.142.096.122-.07c-.071.087-.076.097.045-.027.524-.312.951-.573 1.163-.638-.346.568-1.334 1.517-2.473 2.304-.565.408-1.157.763-1.681 1.074-.527.308-.928.5-1.233.649-.71.17-.575.075-.367-.045.212-.119.47-.286.084-.255-.577.274-1.234.5-1.919.694-.128-.164-1.177-.197-1.747-.298-.282-.043-.445-.102-.301-.168.072-.033.217-.075.458-.123l1.025-.18a41.57 41.57 0 0 1-3.332.203c-2.01-.146-4.804-.274-6.547-.182-1.634-.132-4.17.231-2.723.01-1.827-.009-3.659-.039-5.492-.083l-.045-.096c-2.706-.202-5.496-.266-8.401-.426-2.892-.164-5.905-.39-8.903-1.054a39.67 39.67 0 0 1-2.854-.253c-1.07-.128-2.265-.334-3.84-.611-.194-.135-.386-.27-.586-.402-.627-.049-1.43-.133-2.289-.19a36.635 36.635 0 0 0-2.622-.085c-1.736-.007-3.38.253-3.876.531-.364-.04-.82-.023-1.312.02l-1.496.148c-.127.01-.256.025-.388.03l-.434.038c-.158 0-.302.068-.455.105-.194.056-.39.114-.59.17-.157.046-.314.094-.476.136a74.56 74.56 0 0 1-2.028.536c-2.796.704-5.899 1.231-7.895 1.318l-.115.433c-2.756.202-5.41.425-8.875.496l.202.377c-1.502.111-3.432-.048-5.557-.35-2.126-.303-4.445-.731-6.765-1.148.336-.063 1.51.161 2.335.375a38.168 38.168 0 0 0-2.074-.561 33.026 33.026 0 0 0-2.114-.482c-.712-.142-1.435-.25-2.146-.402-.715-.137-1.432-.268-2.14-.42-1.416-.297-2.81-.633-4.126-1.062a12.338 12.338 0 0 1-3.422-1.734c-1.17-.488-1.966-1.018-2.768-1.554.112.06.214.108.304.144-.12-.07-.297-.17-.489-.27a19.026 19.026 0 0 0-1.691-1.04l1.418.9c-.943-.484-2.526-1.186-4.232-1.462-.21-.177-.427-.354-.65-.532-.142-.023-.256-.042-.405-.05-.424-.085-.726-.126-.923-.128-.196.008-.288.043-.299.093-.02.105.281.262.707.47-.428-.028-.834.01-1.208.036a6.69 6.69 0 0 0-.999.14c-.666-.297-1.788-.125-2.874.181-1.09.301-2.134.684-2.985.57-.212.146-.745.363-1.427.575a19.96 19.96 0 0 1-2.377.568c-.854.154-1.721.263-2.426.372-.706.103-1.264.223-1.463.397-.049-.092-.484-.14.314-.138-1.655-.085-3.215-.255-4.653-.302a19.075 19.075 0 0 1-.563-.62c-1.147.001-2.323-.105-3.47-.325a8.186 8.186 0 0 1-1.069-.747c-.262-.22-.461-.408-.539-.526-.085-.12-.022-.167.191-.136.218.031.56.139 1.02.263a10.804 10.804 0 0 1-.79-.314c-.265-.115-.556-.247-.858-.357a6.45 6.45 0 0 0-1.59-.365 10.954 10.954 0 0 0-2.016-.013c-.561.06-1.09.144-1.762.352-.666.213-1.48.553-2.497 1.194l.076-.397c-.397.182-.827.433-1.249.706l-.617.409-.596.38c-.397.243-.79.459-1.143.621-.358.154-.67.266-.913.288-.863.173-2.297.609-4.167.982-1.865.388-4.17.697-6.676.791-2.506.102-5.205-.015-7.844-.29a74.622 74.622 0 0 1-1.97-.233l-.97-.126-.48-.063a330.75 330.75 0 0 1-.451-.069c-1.193-.193-2.306-.481-3.25-.867.304.35.248.427-.042.358-.283-.077-.785-.313-1.272-.623a9.476 9.476 0 0 1-1.28-.988 3.256 3.256 0 0 0-.423-.352c-.12-.08-.226-.12-.322-.088-.007-.057-.02-.119-.033-.182a.892.892 0 0 1-.028-.175.718.718 0 0 1 .016-.256c.046-.127.115-.108.365.107a1.217 1.217 0 0 1-.19-.3 1.183 1.183 0 0 1-.055-.168 5.384 5.384 0 0 1-.064-.315 74.313 74.313 0 0 0-.053-.279c-.02-.1-.042-.2-.067-.297a4.864 4.864 0 0 0-.179-.567 4.268 4.268 0 0 0-.245-.523l-.311-.469a5.34 5.34 0 0 0-1.537-1.444 6.684 6.684 0 0 0-1.575-.712c-.994-.3-1.85-.39-2.644-.424a16.666 16.666 0 0 0-2.362.092c-.525-.27 1.04-.255.568-.427-.385.018-1.52.083-1.996-.09-.467-.173.7-.14 1.458-.182-2.424-.16-3.702-.084-4.453.09-.75.175-.99.477-1.208.777-.562-.17-1.02-.34-1.42-.488-.387-.164-.724-.299-1.014-.45-.155-.064-.283-.152-.43-.216a4.773 4.773 0 0 0-.204-.119 1.683 1.683 0 0 1-.218-.128c-.15-.1-.311-.19-.475-.292a14.362 14.362 0 0 0-.508-.326l-.269-.576c-.075-.18-.117-.334-.103-.393.04-.13.26.173 1.198 1.082-.248-.268-.76-.819-1.248-1.61a11.646 11.646 0 0 1-1.258-2.79 10.332 10.332 0 0 1-.41-2.69c-.02-.716.035-1.183-.085-1.252.062-.099.11-.27.197-.464l.118-.314a7.68 7.68 0 0 0 .141-.332c.201-.441.43-.871.528-1.04a7.78 7.78 0 0 1 1.41-1.447c.438-.348.827-.61 1.226-.856.809-.479 1.636-.94 3.29-1.576a23.45 23.45 0 0 0-.947.273c.525-.562 1.23-.855 2.139-1.093.911-.234 2.025-.415 3.459-.714l-.07.08c.831-.095 1.512-.148 2.06-.194.544-.045.966-.07 1.307-.094.68-.056 1.035-.082 1.386-.131.352-.028.703-.071 1.377-.048.672.021 1.672.095 3.29.392l-.317-.432c.346-.396 1.825-.128 3.637.421.905.28 1.894.62 2.886.956.496.173.995.334 1.486.49l.736.219c.322.078.63.23.957.153-.31.014-.585-.17-.859-.286l-.649-.322c.165.024.336.066.513.12l.137.043.166.056.343.124c.03.01.058.027.089.03l.093.003.189.01c.13.007.253.017.371.028.195.017.394.064.591.116.211.06.349.108.685.22.296.1.604.243.932.413.653.333 1.377.74 2.093 1.158.038-.002.052-.055.073-.093l.06-.121.125-.249.257-.519.523-1.081c.166-.366.359-.696.555-1.01l.08-.123.046-.056.082-.102.152-.195c.133-.13.073.004-.036.231l-.088.187c-.07.13-.138.291-.205.442-.134.308-.24.645-.32.937.058-.142.11-.285.166-.417l.176-.376.185-.339c.033-.06.058-.096.101-.168l.048-.066c.122-.168.233-.308.33-.428l.418-.518c.187-.23.15-.317.076-.39-.075-.074-.189-.132-.142-.335a.874.874 0 0 1 .068-.183c.042-.067.1-.144.175-.234.076-.091.17-.195.286-.315.116-.12.277-.232.453-.372.348-.077.273.197.364.316.093.126.309.068 1.335-.419.142-.03.324-.132.574-.224.246-.1.532-.252.88-.372.172-.061.348-.155.545-.206l.612-.193c.43-.1.894-.22 1.382-.265.973-.117 2.037-.061 2.986.221.231.083.468.151.686.246l.62.322c.104.048.187.127.277.19l.148.109c.084.06.17.112.252.176.331.256.632.56.913.921-.477-.694-.971-1.125-1.01-1.26-.02-.07.072-.078.314.027.243.114.622.335 1.152.875.576.605 1.231 1.39 1.88 2.257.074-.021.147-.043.214-.052.034.015.067-.058.1-.114l.101-.17.421-.702.919-1.488.492-.763c.171-.245.343-.51.518-.747l.264-.361.128-.174.09-.113.36-.45c.956-1.186 1.878-2.258 2.419-3.2.293-.218.435-.266.483-.238.707-.816 1.986-2.027 3.307-3.04.336-.245.651-.51.976-.729l.903-.641c.57-.38 1.024-.718 1.289-.937.61.083 1.653-.269 2.939-.714 1.286-.441 2.828-.975 4.345-1.325 3.06-.725 6.027-.694 5.945-.06a26.137 26.137 0 0 1 4.937.714l.505.128c.209.054.417.122.625.183.415.12.832.26 1.247.401l-.24.054 2.073.746c.461-1.24.85-2.345 1.209-3.236l.263-.643.055-.132.038-.096.073-.187.268-.69c.33-.863.549-1.517.783-2.168.597-.816.314-.126.329-.02a36.874 36.874 0 0 1 2.28-3.063 64.93 64.93 0 0 1 1.72-2 65.495 65.495 0 0 1 1.651-1.812 25.11 25.11 0 0 1 2.374-2.222c.228.018.45.03.678.061.136-.113.366-.26.67-.437.316-.157.699-.362 1.162-.547.914-.397 2.117-.779 3.48-1.073 1.365-.289 2.901-.472 4.472-.541a35.677 35.677 0 0 1 4.649.09c-.07.035-.199.084-.662.084.458.017.944.103 1.442.176.49.101.993.204 1.488.357.995.29 1.986.688 2.931 1.17.946.481 1.845 1.046 2.674 1.648.21.149.41.304.61.458l.23.177.254.205.507.41.988.862.486.426c.16.13.323.318.474.357a110.59 110.59 0 0 1 1.49-1.262c.123-.096.244-.19.366-.283.121-.094.245-.193.348-.247.203-.12.47-.29.553-.323.486-.25.95-.454 1.376-.61.851-.32 1.555-.504 2.054-.803a7.25 7.25 0 0 1 2.02.225c.166.044.334.087.496.15a4.7 4.7 0 0 1 .488.185l.243.104.236.12.119.06c.039.019.075.035.135.077l.323.213-.288-.222c-.105-.085-.148-.104-.216-.152-.126-.08-.237-.166-.35-.226a8.547 8.547 0 0 0-.567-.323c-.313-.182-.513-.262-.602-.34-.184-.143.034-.152.367-.126.33.03.764.13.983.157.219.024.243-.072-.298-.406a5.9 5.9 0 0 1 1.142.65c.377.278.733.6 1.045.957.62.706 1.097 1.53 1.23 1.868.08.108.09.16.013.169-.03.041-.266-.233-.79-.833-.128-.2-.26-.384-.387-.565-.182 0-.138.19.101.583.233.388.668 1 1.156 1.734.055.003.105.013.156.023.026.005.052.009.076.017l.036.011.019.005c.006 0 .012-.018.018-.026l.306-.527.674-1.153c.466-.798.958-1.598 1.437-2.279l.181-.25.137-.184c.084-.113.169-.218.25-.318.16-.198.307-.372.439-.506.26-.274.44-.405.494-.328a28.432 28.432 0 0 1 3.758-3.942c.28-.245.561-.482.841-.716a31.716 31.716 0 0 1 1.717-1.332c2.331-1.69 4.882-2.99 7.543-3.804a25.177 25.177 0 0 1 4.053-.84c.34-.037.684-.057 1.025-.086l.51-.042.513-.006 1.023-.015c.34.008.679.036 1.018.051.678.014 1.348.132 2.018.2l.995.178.497.09.49.12c1.312.292 2.586.721 3.824 1.221l-.464-.513-.489-.49c.604.2 1.185.458 1.774.7.576.27 1.154.533 1.713.839.418.284.644.565.486.584-.08.014-.253-.045-.563-.165-.309-.121-.738-.338-1.348-.613.575.433 1.588.887 2.487 1.252.889.376 1.657.67 1.728.636 1.06.808 1.412 1.216 1.43 1.321.012.112-.326-.06-.756-.287-.857-.465-2.107-1.116-1.444-.677a24.2 24.2 0 0 1 1.777 1.22c-.114-.117-.225-.239-.342-.353.772.43 1.219.648 1.778 1.016.55.378 1.234.902 2.295 2.13.312.408.483.683.581.87.049.093.077.165.095.222.028.072.052.137.061.18.04.19-.052.167.325.715-.017.014.037.116.216.374.172.269.468.7.921 1.365l.56.89.276.443.069.112c.01.017.022.039.034.053l.037.025.146.102a50.725 50.725 0 0 1 2.399-2.115c.204-.135.41-.307.616-.402l.3-.16.17-.077c.228-.098.46-.19.7-.267-.283.011-.568.04-.852.085-.105-.003-.381.106-.593.175-.11.047-.22.102-.328.15l-.162.073-.157.09c.324-.3.659-.524.98-.707.21-.116.418-.223.624-.308.41-.178.784-.286 1.048-.367.267-.075.393-.118.336-.166-.03-.023-.108-.043-.248-.064a4.478 4.478 0 0 0-.622-.013c.175-.004.376-.019.614-.03.228 0 .476-.026.749-.028.545-.006 1.177.025 1.868.137l.527.104.545.141.556.179c.093.035.187.07.28.107l.186.07c.074.027.148.063.222.098.596.252 1.195.626 1.825 1.047.626.417 1.271.863 1.873 1.304l.082-.056c.017-.047.03-.11.045-.164l.086-.34.183-.692c.125-.463.258-.93.391-1.39l.206-.682.231-.648.262-.618c.023-.054.041-.095.072-.159l.047-.097.094-.193c.255-.512.533-.997.823-1.452.299-.448.595-.875.91-1.252.15-.194.314-.368.465-.542.15-.173.32-.35.467-.505.304-.314.588-.584.848-.812.52-.457.944-.738 1.179-.868a9.226 9.226 0 0 1 3.726-2.1c1.438-.409 3.048-.54 4.78-.254-.422-.106-.759-.303-.606-.426.078-.063.28-.1.662-.095.19.007.423.037.707.077.28.057.612.124.99.244-.183.098-.224.206-.16.319.019.03.032.055.074.089.05.033.1.069.16.105.119.075.273.166.458.259l.301.148.345.186c.242.125.513.272.807.433.586.317 1.263.686 1.949 1.08.02-.021.051-.013.06-.057l.03-.125.06-.251.127-.517c.092-.353.185-.71.277-1.07.194-.722.396-1.443.669-2.097.03-.084.067-.165.1-.247l.054-.119.044-.099a8.29 8.29 0 0 1 .468-.841c.217-.338.44-.625.659-.84-.356.425-.32.155-.055-.444.135-.302.324-.67.565-1.089.244-.423.512-.86.793-1.277.558-.838 1.17-1.575 1.462-1.983.299-.398.238-.525-.507-.016.46-.46.733-.656.887-.735.153-.077.192-.035.22.024.06.126.067.286.868-.218l.414-.373.438-.354c.153-.11.308-.222.462-.335a13.704 13.704 0 0 1 2.634-1.429c1.514-.61 3.18-.967 4.859-.962 1.681.03 3.348.387 4.933 1.137a12.51 12.51 0 0 1 4.142 3.082c.092-.005-.004-.27.003-.402.009-.131.164-.166.732.384.595 1.163.94 2.406 1.068 3.625.054.16.114.295.176.416.029.06.058.118.088.172l.047.082.063.15c.078.184.138.357.207.522l.1.25c.028.087.052.177.077.269.047.186.104.376.12.625.025.242.04.518.036.862-.007.68-.074 1.611-.286 3.035.088-.446.194-.987.272-1.2.076-.215.137-.103.119.66l-.043.469.052.025.102-.056.205-.113.413-.229.418-.23.446-.234c.593-.32 1.207-.618 1.827-.927.606-.244 1.224-.542 1.834-.672l.298-.073c.099-.02.199-.035.298-.053.198-.029.395-.082.595-.094 1.592-.209 3.21-.023 4.607.587.7.31 1.333.712 1.89 1.241a8.639 8.639 0 0 1 1.472 1.833 7.44 7.44 0 0 1 .876 2.143c.05.183.066.364.096.545.023.068.006.241.004.375l-.008.21-.003.106c-.008.039.019.06-.039.123l-.479.653-.238.325-.718.616-1.431 1.23-2.9 2.288.95-.105.604-.034.296-.016c.08-.002.128.003.194.004l.366.012c.34.045.563.111.616.201.074.087.07.184.007.285-.056.1-.154.202-.28.305-.124.101-.27.203-.425.303l-.118.076-.06.037c-.015.011-.063.034.008.014.09-.02.18-.04.25-.062.078-.022.15-.045.213-.07.519-.192.911-.405 1.422-.615.5-.21 1.082-.422 1.808-.625.366-.108.743-.187 1.172-.307.42-.094.91-.326 1.385-.523l.088-.038.08-.023.157-.046.315-.092.315-.092c.107-.034.19-.016.287-.027l.56-.023a.565.565 0 0 1 .109.001l.087.008.173.014a7.96 7.96 0 0 1 1.376.243c.894.25 1.742.648 2.427 1.185.676.546 1.179 1.217 1.45 1.954.126.374.2.76.22 1.158.012.198.003.401-.01.603l-.017.154c-.01.126-.015.21-.04.318-.048.208-.087.414-.143.625l-.244.66-.296.693a63.92 63.92 0 0 1-1.351 2.892l-.35.694c-.04.146-.067.292-.13.5l.36-.09a4.72 4.72 0 0 1-.333.068l.11-.345c.036-.101.027-.138.11-.275l.304-.535c.16-.273.237-.383.251-.362.014.022-.032.166-.123.397l-.075.184c-.02.06-.077.16-.053.178.014.072.023.165.017.303.643-.196 1.481-.43 2.33-.641-1.104.242-.923.103-.544-.112.389-.217.945-.477.885-.573.453-.074.92-.142 1.37-.191.448-.043.896-.118 1.273-.049.097.013.19.034.284.058.048.011.09.023.142.04l.08.029a5.467 5.467 0 0 1 .619.285l.324.181c.817.467 1.393 1.075 1.85 1.838.245.107.57.449.853 1.027.149.29.277.63.461 1.077.049.115.095.228.164.367.055.123.15.284.241.434.124.17.239.337.451.517.05.043.098.085.15.124.06.04.12.077.183.113.125.072.253.138.385.174a2.052 2.052 0 0 0 1.64-.125c.414-.23.552-.384.692-.483a3.27 3.27 0 0 1 .316-.223 2.49 2.49 0 0 1 .29-.144c.372-.16.754-.211.891-.338a2.69 2.69 0 0 0-.761.11c-.225.07-.437.172-.622.31.152-.191.26-.308.288-.41.03-.094-.017-.17-.134-.215-.117-.044-.308-.06-.544-.016-.236.037-.517.166-.855.286-.169.056-.361.081-.521.03a.748.748 0 0 1-.372-.257c-.153-.23-.173-.522-.186-.782-.01-.531.051-.948.273-.917-.353-.54-.685-1.229-1.158-1.92a7.921 7.921 0 0 0-.374-.52 4.255 4.255 0 0 0-.204-.261c-.066-.082-.131-.163-.208-.251a8.126 8.126 0 0 0-1.613-1.435 9.754 9.754 0 0 0-.638-.387 7.355 7.355 0 0 0-1.064-.506l-.194-.07-.098-.033-.048-.018c-.523-.202-1.022-.248-1.547-.119l-.124.034-.063.019c-.008.001-.026.01-.026.006l.011-.028c.033-.075.064-.15.09-.225.054-.15.091-.302.116-.459.046-.315.04-.65-.054-1.057l.017-.066c.005-.023.011-.02.017-.057.011-.055.022-.097.032-.128.02-.062.038-.077.055-.06.034.02.06.245.09.296.054.19.1.376.211.199-.036-.078-.06-.179-.094-.263-.014-.091-.027-.21-.04-.316l-.051-.336c-.069-.455-.168-.95-.33-1.49-.146-.546-.403-1.123-.739-1.745a8.36 8.36 0 0 0-1.47-1.852c.124.058.233.138.35.21a8.955 8.955 0 0 0-2.396-1.59 10.552 10.552 0 0 0-2.406-.776c-.196-.047-.395-.068-.59-.1a5.958 5.958 0 0 0-.586-.07l-.292-.024-.145-.012-.081-.003-.309-.01a4.128 4.128 0 0 0-1.064.136 4.542 4.542 0 0 0-.9.373l-.403.221c-.133.07-.265.147-.416.165-.036.01.003-.014.021-.028l.062-.047.124-.095.244-.194c.16-.132.314-.27.457-.42.286-.296.538-.637.672-1.024.053-.13.084-.27.116-.414l.027-.222c.006-.09.002-.235.003-.353-.001-.037.002-.053-.003-.105l-.017-.165-.037-.332c-.02-.227-.074-.442-.116-.668-.039-.228-.106-.444-.167-.668-.058-.227-.139-.443-.218-.665l-.038.454c-.02.152-.044.304-.067.452-.32-1.135-.63-1.761-.845-2.268l-.325-.675c-.113-.206-.226-.415-.369-.651-.537-.434-.544-.319-.3.05.127.182.29.45.49.748l.292.487c.1.17.19.354.286.534.373.728.643 1.527.72 2.006.069.486.006.607-.293.07-.004-.773-.39-2.149-1.346-3.53a9.823 9.823 0 0 0-1.837-2.016 9.61 9.61 0 0 0-2.587-1.49c-.235-.08-.465-.18-.703-.243l-.708-.192c-.475-.093-.943-.187-1.403-.224l-.341-.037-.337-.015c-.222-.007-.442-.025-.656-.021-.428.012-.84.01-1.226.053-.193.017-.382.028-.563.047l-.522.07c-.167.023-.332.034-.483.064l-.224.037-.054.009h-.026l-.05.002c-.248-.006-.399-.029-.472-.127-.557.223-.537.36-.492.442.05.097.125.15-.61.545a.452.452 0 0 1-.103-.082c-.005-.006-.01-.01-.013-.017l.025-.077.042-.128a.462.462 0 0 1-.265.006c.02-.6.038-1.078.096-1.37.026-.149.067-.256.109-.33.008-.026.027-.012.034-.047a.718.718 0 0 1 .023-.088c.017-.05.037-.084.06-.101.011.056.025.118.04.183.006.026.014.054.02.084.017.06.04.121.06.182.04.12.079.232.095.319.022-.145.027-.282.022-.416a2.445 2.445 0 0 0-.02-.197c.006.016-.03-.14-.054-.251a12.517 12.517 0 0 0-1.208-3.081c-.926-1.694-2.133-2.864-2.456-3.271.771.857 1.424 1.82 1.95 2.833a14.346 14.346 0 0 0-2.326-2.902 15.415 15.415 0 0 0-3.063-2.277c-1.118-.622-2.318-1.148-3.581-1.472-.32-.078-.633-.186-.958-.237l-.975-.17c-.655-.069-1.314-.141-1.97-.125-2.635-.008-5.177.694-7.363 1.789a17.914 17.914 0 0 0-2.327 1.38c-.248.17-.489.346-.72.531a15.623 15.623 0 0 0-2.468 2.393c.198-.122.394-.24.597-.352-1.114 1.248-1.762 2.209-2.275 2.96l-.667 1.003c-.202.31-.393.598-.578.897a16.351 16.351 0 0 0-1.136 2.141l-.152.358-.11.277a8.213 8.213 0 0 0-.393 1.362l-.034.177-.017.092c-.01.021.002.088-.034.054.022.015.019-.026.018-.06v-.097l-.004.095-.003.05-.032-.01-1.168-.328-.917-.234-.68-.152-.694-.13c.467.028.492-.021.3-.11-.19-.095-.605-.207-1.008-.309-.805-.178-1.575-.335-.29-.367-1.914-.057-3.094.202-3.85.396-.381.09-.658.188-.877.268-.22.08-.379.146-.516.221a10.3 10.3 0 0 0-.86.516l-.331.206-.42.28c-.16.1-.332.227-.527.366-.198.135-.408.301-.643.483-.364.094-.733.198-1.092.326-.592.582-.866.935-1.322 1.445l-.847.954a39.244 39.244 0 0 0-.94 1.111l-.382.494c.398-.609.514-.808.447-.832-.06-.02-.296.139-.51.31-.216.165-.43.325-.474.266-.023-.03-.004-.114.08-.281.084-.168.23-.42.483-.765a13.005 13.005 0 0 0-2.856 3.96l-.034.073-.024.055-.045.11c-.03.072-.056.147-.082.22a5.585 5.585 0 0 0-.134.446c-.04.151-.073.304-.104.46l-.041.232c-.02.062-.005.212-.075.133a6.863 6.863 0 0 0-.751-.355c-.13-.056-.264-.103-.395-.157l-.197-.075-.097-.038-.123-.045c-1.014-.373-1.966-.677-2.977-1.011-.493.062-.74.17-.809.238-.068.072.042.127.268.169.227.046.57.104.974.164l.642.123.687.164c.232.062.463.137.692.203l.592.208c.241.096.458.192.625.274.327.17.472.264.214.174.232.198.271.306.146.31-.126.01-.423-.078-.853-.194l-.818-.22c-.342-.079-.695-.168-1.055-.225-.355-.074-.718-.103-1.06-.151-.346-.018-.672-.064-.97-.06l-1.434-.02-.75.016a9.77 9.77 0 0 0-1.69.207c-.157.038-.32.073-.486.124l-.24.069-.157.035c-.392.093-.748.217-1.066.448-.086.13-.13-.08-.189-.171a6.185 6.185 0 0 0-.615-.975c.168.23.219.19.372.415a2.49 2.49 0 0 0-.297-.504l-.15-.183c-.362-.44-.754-.863-1.171-1.283-.83-.845-1.733-1.69-2.685-2.73-.762-.313-1.466-.866-2.095-1.298-.624-.436-1.171-.74-1.53-.586a28.115 28.115 0 0 1 4.423 3.237c-1.196-1.01-2.52-1.78-4.052-2.595a157.458 157.458 0 0 0-5.55-2.79c.205.016.677.112 1.215.269a18.7 18.7 0 0 1 1.63.568 5.707 5.707 0 0 0-.964-.542c-.333-.148-.662-.298-1.008-.412a31.486 31.486 0 0 1-1.03-.381c-.35-.124-.7-.263-1.05-.438.154-.118.634-.054 1.316.139.336.107.722.245 1.144.405.414.173.862.371 1.327.588.92.45 1.902.979 2.825 1.525.923.545 1.795 1.09 2.545 1.517-.562-.624-1.953-1.463-3.008-2.004-1.053-.543-1.738-.896-.82-.795-1.298-.196-2.608-.87-4.194-1.52-1.572-.65-3.45-1.253-5.543-1.21l.33-.343c-.166-.01-.375-.025-.615-.035l-.801-.002a33.7 33.7 0 0 1-.899-.023c-.308.005-.619.003-.92-.01.366-.068.737-.152 1.11-.204l1.124-.14c-.431.01-.853 0-1.27-.02-.42.002-.834-.009-1.245-.03-.206-.007-.412-.028-.616-.032l-.614-.01-1.226-.038c-1.627.007-3.272.116-4.845.631 1.675-.414 2.637-.493 3.147-.535.516-.008.59.057.545.139-.095.167-.655.415.77.42-2.048.295-3.324.638-4.292.783-.954.202-1.599.236-2.269.327-.677.07-1.385.178-2.459.535-.265.094-.555.202-.872.33-.314.132-.65.297-1.02.477-.735.371-1.58.867-2.542 1.541.251-.195.649-.427 1.06-.667.418-.233.87-.445 1.23-.606.739-.296 1.125-.361.294.18l-1.255.644c-.422.24-.865.466-1.27.708-.41.236-.804.46-1.15.665-.35.2-.656.376-.9.504-1.197.974-1.683 1.473-1.828 1.656-.145.188.058.083.343-.087.582-.344 1.516-.936.613-.02a5.197 5.197 0 0 0-1.133.768c-.315.281-.576.58-.825.915-.502.668-.986 1.443-1.786 2.495l-.316-.246c-1.148 1.258-1.697 2.078-1.995 2.6-.024.04-.02.042-.029.06l-.014.043c-.008.029-.015.056-.023.08a.99.99 0 0 0-.022.146c-.008.09-.002.17.005.249.013.16.03.313-.08.597a4.324 4.324 0 0 1-.267.544c-.064.112-.134.237-.218.372l-.128.211-.018.028c-.006-.003-.013-.02-.02-.029l-.042-.066-.091-.138a4.191 4.191 0 0 0-.13-.187l.118.05.083.036.038.016c.01-.02.02-.07.03-.103l.106-.427c.066-.272.122-.52.165-.741l-.222.476-.112.253c-.01.018-.019.05-.03.056l-.033-.041-.073-.082a3.408 3.408 0 0 0-.28-.275c.08-.116.134-.25.168-.408a18.865 18.865 0 0 0-.595-.337l-.168-.091-.366-.214c-.294-.18-.599-.323-.894-.478-1.211-.556-2.487-1.06-4.539-1.143.239.075.32.158.258.238-.063.087-.268.142-.6.244-.666.168-1.855.403-3.382 1.045-.538.165-.74.227-.819.211-.077-.012-.024-.081-.03-.11-.004-.015-.023-.02-.082 0a1.405 1.405 0 0 0-.241.104l-.168.09-.169.106a4.012 4.012 0 0 0-.507.404l.031-.054c.174-.3.317-.565.493-.74.05-.048.143-.11.22-.16l.033-.02.065-.033.134-.068.283-.132a7.11 7.11 0 0 1 .638-.227c.23-.062.477-.116.737-.16.086-.095.334-.235.59-.374.26-.126.529-.247.633-.336-.878.072-1.876.354-2.804.8l-.346.172-.086.044-.043.024-.073.041-.072.043a.856.856 0 0 0-.055.034l-.073.05c-.096.07-.187.15-.27.236-.012.006-.023.037-.035.022l-.035-.024-.067-.046-.135-.087c-.086-.056-.167-.108-.233-.155.137.116.297.271.381.414l-.464-.188c-.049-.02-.078-.029-.146-.061l-.353-.203c-.234-.136-.475-.259-.712-.388-.957-.5-1.943-.935-2.948-1.303-.852-.56-.078-.342.7-.098a18.945 18.945 0 0 0-.865-.35l-.87-.288-.984-.295-1.222-.351c.286-.09.424-.21.828-.228a3.28 3.28 0 0 1 .857.094c.191.042.412.098.669.17.253.08.541.18.87.3a26.038 26.038 0 0 0-3.017-.935 25.907 25.907 0 0 0-3.093-.545c-.09-.055-.354-.139-.662-.225a24.442 24.442 0 0 0-.99-.247c-.643-.15-1.138-.26-.726-.298-1.746-.198-3.902.013-6.128.536-1.114.266-2.245.61-3.36 1.005-1.122.39-2.21.857-3.28 1.304-.094.084-.24.194-.47.345l-.407.26-.539.356c-.477.254-.92.544-1.375.813-.437.292-.884.567-1.303.877a23.587 23.587 0 0 0-2.442 1.97 20.671 20.671 0 0 0-4.186 5.342 35.605 35.605 0 0 0-1.981 2.111c-.45.876-.501 1.132-.399 1.1.103-.03.373-.338.611-.566.235-.232.44-.382.395-.124-.036.264-.344.924-.982 2.392-.143.398-.26.679-.342.81-.084.135-.142.137-.193.082-.095-.12-.177-.415-.275-.473a.813.813 0 0 0-.125-.12c-.088.045-.23.091-.462.12l-.09.01-.046.004c-.02 0-.015.008-.08-.003-.201-.03-.405-.064-.616-.089a66.993 66.993 0 0 0-1.305-.17c-.902-.105-1.859-.218-2.856-.313l-3.095-.308c1.409-.117 2.513.032 3.822.139M44.733 50.606c.24-.079.55-.141.886-.214l.524-.109c.18-.024.365-.043.548-.06.727-.095 1.44-.018 1.8.113-.603.199-1.103.2-1.677.224-.575-.008-1.225-.034-2.08.046M11.978 77.87c-.663.075-1.676-.068-2.817-.385a38.3 38.3 0 0 1 2.817.385m183.763 10.873a1.128 1.128 0 0 0-.092.019c-1.915-.175-1.234-.102.092-.019m3.946.09c.387-.079.356-.132.189-.178-.264.117-1.139.172-2.15.16.28.098.8.167 1.96.018m-13.112-61.61c-.2-.37-.41-.706-.613-1.045.41.506.671.858.833 1.1.164.236.233.353.242.39.016.071-.217-.182-.462-.445" fill="#fff" fill-rule="evenodd" data-name="Path 6189"/><path d="M3.808 75.812c-.158-.243-.15-.357-.142-.454-.309-.233-.387-.185.142.454" fill="#fff" fill-rule="evenodd" data-name="Path 6190"/><path d="m101.992 24.281.137-.066a.372.372 0 0 0 .104-.134l-.241.2Z" fill="#fff" fill-rule="evenodd" data-name="Path 6191"/><path d="M137.718 92.173c-.855.043-1.335.015-1.656-.028-.037.102.356.151 1.656.028" fill="#fff" fill-rule="evenodd" data-name="Path 6192"/><path d="M215.354 76.889c-.316.053-.637.097-.946.156l-.736 1.665c-.123.277-.252.537-.39.81l-.204.408.159-.288.213-.393c.166-.306.3-.579.427-.82.25-.485.452-.85.654-1.216.158-.021.333-.026.507-.042-.142-.075-1.1-.08.316-.28" fill="#fff" fill-rule="evenodd" data-name="Path 6193"/><path d="M237.239 71.105c.112-.155.256-.295.385-.45.127-.154.254-.309.355-.467l-.211-.037-.356.442-.33.373c-.191.235-.36.403-.442.516-.174.216-.022.186.599-.377" fill="#fff" fill-rule="evenodd" data-name="Path 6194"/><path d="M218.752 77.719c.129.149.584.126 1.225.011.322-.058.687-.14 1.083-.236.398-.095.798-.206 1.231-.328-.103.027-.201.053-.305.073.202-.292-.159-.28-.76-.15-.64.134-1.549.393-2.474.63" fill="#fff" fill-rule="evenodd" data-name="Path 6195"/><path d="M222.689 77.055c.528-.15 1.066-.308 1.588-.442.147-.24-.65.153-1.588.442" fill="#fff" fill-rule="evenodd" data-name="Path 6196"/><path d="M204.246 87.951c.67-.14.234-.538.628-.554.126-.178-.056-.11-.327.027-.268.138-.677.34-1.058.503-.374.165-.682.303-.63.344.027.022.143.019.372-.025a5.81 5.81 0 0 0 1.015-.295" fill="#fff" fill-rule="evenodd" data-name="Path 6197"/><path d="m220.387 78.547-.715-.288-.94.506c.552-.066 1.104-.139 1.655-.218" fill="#fff" fill-rule="evenodd" data-name="Path 6198"/><path d="M209.72 86.71a21.64 21.64 0 0 0 2.225-1.814c-.078-.017.15-.304.43-.653-.601.645-1.291 1.26-1.82 1.706-.532.445-.9.731-.834.76" fill="#fff" fill-rule="evenodd" data-name="Path 6199"/><path d="M212.375 84.243c.626-.67 1.158-1.365 1.393-1.818-.275.408-.927 1.246-1.393 1.818" fill="#fff" fill-rule="evenodd" data-name="Path 6200"/><path d="m216.538 79.311-.23.009-.116.004-.059.002c-.02.001-.042-.002-.046.02l-.197.324c-.298.6-.63 1.197-.992 1.779.452-.69.858-1.392 1.207-2.079.004-.021.025-.02.044-.021l.056-.006.111-.01.222-.022Z" fill="#fff" fill-rule="evenodd" data-name="Path 6201"/><path d="m179.61 89.507-3.166-.13c-.333.117.52.274 1.702.31.763-.04 1.938-.006 1.464-.18" fill="#fff" fill-rule="evenodd" data-name="Path 6202"/><path d="M189.11 91.242c-.854-.127-.907-.223-1.383-.384l-.124.508 1.508-.124Z" fill="#fff" fill-rule="evenodd" data-name="Path 6203"/><path d="M179.858 90.786c-.325.122-4.627.053-.61.333.332-.115 3.512-.002.61-.333" fill="#fff" fill-rule="evenodd" data-name="Path 6204"/><path d="m132.655 91.185.806-.051-.166-.836-.64.887Z" fill="#fff" fill-rule="evenodd" data-name="Path 6205"/><path d="M91.72 84.183c.37.084.652.185.879.245.226.052.393.115.523.137.257.053.36.015.453-.012.093-.028.178-.058.406.005.228.06.6.222 1.269.634.41.106-.142-.259-.689-.558-.547-.303-1.1-.563-.694-.494-.492-.131-.913-.245-1.266-.303a4.123 4.123 0 0 0-.824-.104c-.39-.009-.424.095-.057.45" fill="#fff" fill-rule="evenodd" data-name="Path 6206"/><path d="M93.867 84.14c.313.093.65.186 1.016.306-.572-.222-.845-.265-1.016-.306" fill="#fff" fill-rule="evenodd" data-name="Path 6207"/><path d="M285.962 42.38a2.872 2.872 0 0 0 1.016-.29c.143-.07.227-.121.327-.181l.22-.144c.233-.16.33-.218.409-.251a.994.994 0 0 1 .396-.071 1.15 1.15 0 0 0-.293-.05c-.11.003-.187-.008-.384.082-.087.088-.2.21-.443.391a2.728 2.728 0 0 1-1.248.514" fill="#fff" fill-rule="evenodd" data-name="Path 6208"/><path d="M289.632 40.77c.074.211.125.426.155.636.333-.025.69.007 1.05.107a5.278 5.278 0 0 0-.616-.4c-.234-.13-.465-.244-.589-.343" fill="#fff" fill-rule="evenodd" data-name="Path 6209"/><path d="m37.117 53.266-.076.266c.11-.063.222-.146.35-.24.133-.089.278-.196.443-.323.168-.126.348-.286.57-.444.225-.153.479-.329.77-.529-.347.188-.703.364-1.045.576-.336.227-.683.44-1.012.694" fill="#fff" fill-rule="evenodd" data-name="Path 6210"/><path d="m63.583 42.967-.517.332c.41-.075.807-.16 1.219-.208-.233-.045-.47-.092-.702-.124" fill="#fff" fill-rule="evenodd" data-name="Path 6211"/><path d="M87.822 38.53c-.013.005-.003.034.002.083-.007.02-.033.034-.06.015.027-.017.051.025.109.09.045.034.12.056.142.032.022-.026-.021-.073-.193-.22" fill="#fff" fill-rule="evenodd" data-name="Path 6212"/></g></g><g data-name="Group 2978"><g data-name="Group 2969" transform="translate(1326.542 370.952)" clip-path="url(#b)"><path d="M.099 24.362c.061-.106.126-.092.167-.063.042.03.077.082.096.086-.102.074-.18.09-.227.057-.05-.03-.055-.099-.036-.08" fill="#fff" fill-rule="evenodd" data-name="Path 6132"/><path d="M6.953 25.952a2.445 2.445 0 0 0-.174-.16c.295.151.49.297.696.427.204.13.408.255.62.375-.19-.096-.375-.197-.558-.302-.185-.105-.362-.218-.584-.34" fill="#fff" fill-rule="evenodd" data-name="Path 6133"/><path d="M16.108 27.884a2.477 2.477 0 0 1-.33-.334 3.368 3.368 0 0 0-.506-.496c-.406-.32-1.002-.526-1.644-.506-.32.014-.607.073-.877.145-.263.073-.504.15-.729.218a6.733 6.733 0 0 1-1.18.255l-.238.075c-.107-.048-.21-.112-.31-.165a7.925 7.925 0 0 1-.32-.192c.114.024.234.048.347.066.105.01.213.036.32.039.216.02.436.006.665-.019.23-.035.468-.09.725-.165.256-.075.537-.171.85-.25a2.82 2.82 0 0 1 .243-.054c.083-.017.165-.033.255-.04a2.72 2.72 0 0 1 1.562.251c.301.148.547.362.739.589.05.056.094.114.137.172l.064.086.05.072.177.253" fill="#fff" fill-rule="evenodd" data-name="Path 6134"/><path d="M19.814 28.902c-.136.07.106.093.132.096l-.2-.01a6.264 6.264 0 0 1-.354-.019 2.94 2.94 0 0 1-.254-.023c-.094-.01-.198-.02-.305-.041.09-.005.114-.006.17-.015.164.013.388.034.811.012" fill="#fff" fill-rule="evenodd" data-name="Path 6135"/><path d="M19.003 28.89c-.386-.05-.253-.064-.096-.056.158.006.365.016.096.056" fill="#fff" fill-rule="evenodd" data-name="Path 6136"/><path d="m23.278 28.594-.625.037-.653.03c.064-.027.186-.06.324-.092l.216-.049.199-.048c.25-.06.417-.105.21-.102 1.248-.151 1.014-.042.329.224" fill="#fff" fill-rule="evenodd" data-name="Path 6137"/><path d="M24.482 28.6c-.215.03-.426.065-.642.09.107-.05.266-.104.642-.09" fill="#fff" fill-rule="evenodd" data-name="Path 6138"/><path d="M22.459 28.813c.471-.032.923-.067 1.381-.123-.166.086-.167.203-.628.077.127.082-.153.03-.753.046" fill="#fff" fill-rule="evenodd" data-name="Path 6139"/><path d="M21.658 28.972c-.356.083-.758.156-.913.206-.152.047-.068.089.58.076-1.229.118-1.697.019-1.617-.036.086-.062.718-.11 1.95-.246" fill="#fff" fill-rule="evenodd" data-name="Path 6140"/><path d="M16.061 28.46c-.208-.232-.383-.499-.636-.79a1.915 1.915 0 0 0-.704-.718c.11.069.3.158.478.318.09.077.181.166.264.265.082.096.166.21.226.297.127.182.228.341.299.45.068.11.104.174.073.179" fill="#fff" fill-rule="evenodd" data-name="Path 6141"/><path d="M32.437 27.362c.051.053-.169.038-.414.02-.249-.016-.532-.016-.624.009a4.88 4.88 0 0 0-.403-.093c-.093-.022-.185-.044-.278-.06a7.332 7.332 0 0 0-.564-.092l.245-.004.272.011c.094.004.19.008.286.017l.186.017c.072.008.142.017.21.027.27.046.525.076.715.112.19.035.326.051.37.036" fill="#fff" fill-rule="evenodd" data-name="Path 6142"/><path d="M31.4 27.39c.796.2 1.505.51 2.129.84-.898-.402-1.5-.568-1.823-.67-.329-.097-.386-.146-.307-.17" fill="#fff" fill-rule="evenodd" data-name="Path 6143"/><path d="M24.791 28.911c-.77.11-1.536.155-2.321.177.933-.04 1.843-.118 2.753-.29-.143.044-.288.075-.432.113" fill="#fff" fill-rule="evenodd" data-name="Path 6144"/><path d="m36.959 31.371 3.371-.626-.177-.12.191.12-3.183.608-1.326.257-.597.116-.522.11.483-.107.552-.113 1.208-.245Z" fill="#fff" fill-rule="evenodd" data-name="Path 6145"/><path d="M31.789 34.107c.19-.169.147.007.109.168-.035.164-.07.313.09.126-.045.068-.085.135-.126.201l-.059.098-.028.049-.014.023-.042.08c-.023.045-.045.091-.073.13-.025.04-.06.091-.062.093l-.06.082-.114.163c-.146.213-.274.44-.372.64-.005.005-.008.001-.014.012l-.02.044a8.89 8.89 0 0 1-.038.102l.027-.105.013-.044c.004-.012.004-.01.007-.014a8.468 8.468 0 0 1 .375-.946l.025-.052.07-.126.068-.151.024-.064c.06-.16.132-.329.214-.509" fill="#fff" fill-rule="evenodd" data-name="Path 6146"/><path d="M30.782 37.11c.012-.327.076-.675.184-.992-.074.302-.128.645-.184.993" fill="#fff" fill-rule="evenodd" data-name="Path 6147"/><path d="m37.198 29.88.26.066.19.053.111.033.06.019.027.008c.03.012.062.023.103.04l.062.028.077.035.202.1.338.172-.575-.173-.392-.11a.315.315 0 0 1-.045-.085c-.002-.002.001-.003-.005-.006l-.027-.012-.054-.023-.11-.048-.222-.097" fill="#fff" fill-rule="evenodd" data-name="Path 6148"/><path d="m37.64 30.144.021.007c.034.05.105.116.204.196.05.04.13.094.194.14l.292.186-1.17.284 1.163-.284-.3-.189-.104-.074c-.034-.024-.073-.05-.093-.068-.048-.04-.102-.081-.128-.11-.038-.035-.058-.06-.08-.088" fill="#fff" fill-rule="evenodd" data-name="Path 6149"/><path d="m36.976 29.782.222.098c-.125-.033-.19-.055-.222-.098" fill="#fff" fill-rule="evenodd" data-name="Path 6150"/><path d="M28.526 27.628c.503-.032 1.268.011 1.627.12.184.042.275.088.204.119a.918.918 0 0 1-.237.044c-.125.013-.299.018-.535.046-.335-.069-.238-.129-.229-.193.004-.031-.014-.066-.128-.093a2.597 2.597 0 0 0-.702-.043" fill="#fff" fill-rule="evenodd" data-name="Path 6151"/><path d="m35.46 29.374-1.08-.472-1.004-.447c.085-.02.539.102.03-.194.353.183.675.375 1.017.559l1.038.554Z" fill="#fff" fill-rule="evenodd" data-name="Path 6152"/><path d="m36.384 29.872-.924-.498.836.365c.032.046.061.09.088.133" fill="#fff" fill-rule="evenodd" data-name="Path 6153"/><path d="M30.919 35.131c-.146.208-.264.46-.344.717l-.008.026c-.004.01-.008.03-.011.045-.009.03-.015.07-.022.105a4.93 4.93 0 0 0-.067.748 4.75 4.75 0 0 1 .013-.745l.014-.113.012-.083c.08-.375.23-.757.424-1.092.029-.018.054-.023.11-.078.05-.041.087-.077.101-.063.006.007.007.027-.003.062a.798.798 0 0 1-.046.104l-.009.025c-.028.07-.084.177-.164.342" fill="#fff" fill-rule="evenodd" data-name="Path 6154"/><path d="m32.473 32.722-.095.078c.042-.067.08-.112.095-.078" fill="#fff" fill-rule="evenodd" data-name="Path 6155"/><path d="m34.345 42.051-.125-.025c-.003-.015-.004-.028-.01-.045l.135.07Z" fill="#fff" fill-rule="evenodd" data-name="Path 6156"/><path d="m30.985 34.571.11-.252c.027-.059.057-.113.084-.165a2.461 2.461 0 0 1 .532-.673 4.956 4.956 0 0 0-.384.54c-.063.095-.116.196-.173.298l-.09.183c-.025.05-.05.1-.08.145l-.054.092c-.024.012-.041.018-.04.002 0-.008.005-.021.016-.042l.022-.036.057-.092" fill="#fff" fill-rule="evenodd" data-name="Path 6157"/><path d="M31.1 38.92a4.903 4.903 0 0 1-.393-.874l.243.496c.084.172.159.32.15.378" fill="#fff" fill-rule="evenodd" data-name="Path 6158"/><path d="m32.289 32.976.064-.055c-.093.163-.092.133-.064.055" fill="#fff" fill-rule="evenodd" data-name="Path 6159"/><path d="M32.289 32.976c-.218.193-.402.343-.577.505.219-.273.453-.508.666-.681-.038.06-.07.126-.09.176" fill="#fff" fill-rule="evenodd" data-name="Path 6160"/><path d="M36.034 44.227c-.022-.11-.432-.36-1.007-.654a33.09 33.09 0 0 0-2.017-.946c-.608-.452-.587-.694-.293-.75.298-.061.88.022 1.503.15 0 .045-.012.089.137.211.15.121.45.336 1.111.68-.26-.054-1.038-.336-1.596-.565-.558-.228-.929-.363-.426.03.843.532 1.24.668 1.51.751.274.077.44.078.908.214-.426-.048.126.28.746.607.617.33 1.301.656 1.037.756a28.464 28.464 0 0 1-1.656-.703c-.052.04.53.347.043.22" fill="#fff" fill-rule="evenodd" data-name="Path 6161"/><path d="M32.009 40.554c-.063-.065-.132-.128-.19-.194l-.177-.201c.441.415.84.656 1.622 1.005.749.585.924.725.947.817a12.204 12.204 0 0 1-1.239-.726 8.118 8.118 0 0 1-1.081-.848l.118.147Z" fill="#fff" fill-rule="evenodd" data-name="Path 6162"/><path d="M30.604 38.149c-.059.229.009.667.045.963.04.26.03.423-.243.106-.072-.2-.137-.368-.172-.516l-.052-.2-.03-.17c-.036-.205-.03-.336-.027-.443.019-.216.05-.348.063-.84.025.663.114.94.133 1.019.026.079.023-.041.02-.183-.006-.142.008-.307.035-.32.033-.013.07.127.2.57a7.63 7.63 0 0 1-.11-1.363c.03.452.112.886.241 1.274l-.024-.053-.002-.012c-.001 0-.001.003-.003.003-.045-.1-.068-.132-.03-.016 0 .009.004.039.006.052-.026.023-.037.074-.049.128.236.697.075.098.049-.128.008-.01.014-.032.024-.036a.064.064 0 0 1 .005.009c.036.205.081.408.138.61.058.2.127.41.195.565.143.336.359.67.626.991-.099-.091-.183-.198-.287-.31-.082-.121-.193-.248-.273-.401-.043-.076-.095-.154-.129-.24-.037-.09-.083-.165-.12-.287-.04-.113-.088-.231-.122-.361l-.058-.199c-.015-.068-.031-.14-.049-.212" fill="#fff" fill-rule="evenodd" data-name="Path 6163"/><path d="M31.208 28.564c.102.002.104-.013.118-.025.19.071.254.098-.118.025" fill="#fff" fill-rule="evenodd" data-name="Path 6164"/><path d="M32.551 28.832c-.097-.055-.177-.112-.332-.188a3.402 3.402 0 0 0-.793-.253c-.36-.043-.36-.018-.288.022.073.041.22.098.187.126-.21-.075-.61-.18-.753-.235-.076-.03-.096-.055-.01-.07a1.14 1.14 0 0 1 .218-.008l.084.004.111.008c.08.005.168.016.268.032l.237.078c.354.068.739.155 1.117.262.376.11.745.236 1.077.35.667.228 1.216.405 1.102.336-.36-.066-.667-.123-1.011-.198-.344-.074-.721-.17-1.214-.266" fill="#fff" fill-rule="evenodd" data-name="Path 6165"/><path d="M31.83 32.533a7.315 7.315 0 0 0-1.08 1.364c-.05.083-.1.166-.145.251l-.083.157-.092.144.028-.07c.013-.03.028-.06.04-.09l.036-.1.022-.07c.028-.097.064-.191.098-.287.07-.19.15-.379.24-.564l.054.11c.177-.287.325-.472.434-.595.11-.124.185-.185.238-.216.106-.06.124-.003.21-.034" fill="#fff" fill-rule="evenodd" data-name="Path 6166"/><path d="M34.631 42.08c-.06-.113-.12-.222-.176-.334.347.294.711.58 1.092.856-.312-.169-.62-.34-.916-.523" fill="#fff" fill-rule="evenodd" data-name="Path 6167"/><path d="m37.481 43.267-.048-.216c.246.124.495.245.747.362a25.501 25.501 0 0 1-.699-.146" fill="#fff" fill-rule="evenodd" data-name="Path 6168"/><path d="M132.626 26.176c-.187-.187-.395-.35-.594-.524.29.237.474.393.594.524" fill="#fff" fill-rule="evenodd" data-name="Path 6169"/><path d="M136.165 30.06a1.85 1.85 0 0 0-.03.127c-.023-.137-.016-.191.03-.127" fill="#fff" fill-rule="evenodd" data-name="Path 6170"/><path d="M112.715 46.753a8.243 8.243 0 0 1 1.615-.798c.485-.169.814-.205.746-.093-.124.085-.245.162-.36.259-.88.115-1.521.373-2.001.632" fill="#fff" fill-rule="evenodd" data-name="Path 6171"/><path d="M164.756 43.667c-.078.07-.154.155-.243.22l-.199.044-.193.026c-.123.02-.245.02-.355.027.305-.049.649-.145.99-.317" fill="#fff" fill-rule="evenodd" data-name="Path 6172"/><path d="M165.946 43.778c.357-.415.645-.868.89-1.334-.149.325-.4.774-.89 1.334" fill="#fff" fill-rule="evenodd" data-name="Path 6173"/><path d="M108.94 13.91c-.26-.193-.517-.403-.794-.581l.24.097.193.091c.114.056.202.101.269.138.133.074.182.115.19.142.016.053-.128.04-.098.113" fill="#fff" fill-rule="evenodd" data-name="Path 6174"/><path d="M67.509 50.524c.916-.155 1.645-.25 2.286-.316-1.096.214-1.979.465-2.286.316" fill="#fff" fill-rule="evenodd" data-name="Path 6175"/><path d="M132.677 29.216c-.26-.332-.366-.484-.325-.508.29.328.423.54.325.508" fill="#fff" fill-rule="evenodd" data-name="Path 6176"/><path d="M72.412 49.945c-.154.04-.307.069-.467.104-.66.039-1.334.073-2.15.158.808-.16 1.73-.298 2.617-.262" fill="#fff" fill-rule="evenodd" data-name="Path 6177"/><path d="M21.888 6.682c.005.035.006.072.015.108-.025-.017-.025-.057-.015-.108" fill="#fff" fill-rule="evenodd" data-name="Path 6178"/><path d="m6.603 20.692.088-.022.05-.011.028-.007c.02-.005.035-.009.054-.012.142-.027.301-.04.491-.016.383.061.872.174 1.365.295l-.95-.207c-.198-.039-.42-.1-.626-.096l-.158.01c-.052.008-.106.014-.16.025l-.095.02-.087.021" fill="#fff" fill-rule="evenodd" data-name="Path 6179"/><path d="M48.354 49.767c-.509-.357-.07-.073 0 0" fill="#fff" fill-rule="evenodd" data-name="Path 6180"/><path d="M45.451 48.37c.076.123.13.22.107.265-.002-.075-.043-.163-.107-.264" fill="#fff" fill-rule="evenodd" data-name="Path 6181"/><path d="m79.405 50.597.06.003c-.208.026-.172.021-.06-.003" fill="#fff" fill-rule="evenodd" data-name="Path 6182"/><path d="m47.532 49.304.687.413a6.687 6.687 0 0 1-.254-.138c-.111-.068-.255-.155-.433-.275" fill="#fff" fill-rule="evenodd" data-name="Path 6183"/><path d="M47.692 49.302c-.175-.123-.314-.22-.44-.32-.036-.078.024-.043.44.32" fill="#fff" fill-rule="evenodd" data-name="Path 6184"/><path d="M49.094 50.22a35.5 35.5 0 0 1-.875-.503c.108.057.16.074.135.05.155.097.368.248.74.453" fill="#fff" fill-rule="evenodd" data-name="Path 6185"/><path d="M64.95 9.596c-.04.028-.086.057-.128.088-.342.126-.435.17-.386.137.05-.031.251-.123.514-.225" fill="#fff" fill-rule="evenodd" data-name="Path 6186"/><path d="M131.1 47.82c-.02.006-.036.009-.056.016l.062-.038-.007.022Z" fill="#fff" fill-rule="evenodd" data-name="Path 6187"/><path d="M132.914 47.838a2.025 2.025 0 0 0-1.03-.257c-.152.01-.305.025-.433.064-.13.037-.23.084-.345.152.042-.129.089-.255.163-.38.073-.125.168-.248.277-.366.54.179.993.453 1.368.787" fill="#fff" fill-rule="evenodd" data-name="Path 6188"/><path d="M119.825 22.4a18.492 18.492 0 0 1 1.867-.307c-1.148-.141-2.15-.056-2.632-.023-.241.018-.357.016-.303-.025.055-.038.275-.132.719-.254.09.153.597.163 1.312.167.714.002 1.642.004 2.566.093.23.027.46.045.687.08l.662.105c.433.082.836.18 1.174.29.679.215 1.116.455 1.128.626.202.042.402.09.605.135.2.048.399.104.6.156-.334-.12-.37-.184-.704-.291.594.127.982.28 1.273.44.294.152.483.328.691.505.407.378.882.772 2.16 1.598.22.148.426.283.603.394.18.107.316.21.418.266.201.116.234.087-.024-.178l.434.414c.146.136.276.29.415.433.274.29.54.586.787.896.471.504.448.302-.032-.198a17.427 17.427 0 0 1 1.681 2.137l.042.063.027.044.053.085.096.162.006-.026c.018.096.054.24.104.414l.082.277.044.147c.02-.002.042-.025.063-.036.085-.065.165-.116.23-.156.187-.233.131-.2.052-.15-.081.054-.179.143-.136.046.112-.086.244-.171.397-.252.037-.02.078-.038.12-.056l.063-.03.033-.015.059-.031c.08-.042.158-.086.238-.125l.25-.1c.355-.266.122-.252-.387-.06l-.194.097-.051.027-.026.014-.012.005-.047.02a.997.997 0 0 0-.181.093 1.35 1.35 0 0 0-.32.286c.145-.367.196-.493.261-.572a.23.23 0 0 1 .107-.072l.041-.019.12-.063c.083-.04.165-.09.26-.122l.622-.237.382-.116c.137-.04.28-.093.439-.125l.509-.124.592-.105c.212-.04.44-.051.685-.083.245-.027.507-.026.79-.042a8.28 8.28 0 0 0-2.134.053c.652-.314 1.455-.444 2.371-.397.92.052 1.95.266 3.142.732-.151-.036-.524-.176-.975-.268a5.862 5.862 0 0 0-.706-.123 5.029 5.029 0 0 0-.688-.05 6.5 6.5 0 0 0-.296 0 3.974 3.974 0 0 0-.246.025c-.143.02-.24.045-.275.075-.034.03-.005.065.105.107.055.02.13.043.228.067.098.021.217.054.358.095.165.023.346.04.536.086.19.05.396.1.614.176.432.165.93.387 1.441.78.033-.048.123-.042.262.01.136.058.316.171.533.319.108.074.216.174.335.274.119.101.244.21.363.345.12.133.253.263.374.418.123.152.242.316.356.489.063-.089.127-.178.187-.27.103.165.186.315.254.452l.025.05c.008.016-.004-.003 0 .004v.005l.002.021.003.042c.003.056 0 .11-.005.166l-.02.173-.01.097-.003.054-.002.028c-.001.011-.001.02.003.02.014.018.046.028.096.035l.409-.154c.322-.07.58-.122.79-.158.022-.01.045-.02.063-.031a.312.312 0 0 0 .029-.035.227.227 0 0 0 .036-.081.546.546 0 0 0 .016-.086l.002-.02v-.011l.015-.015.06-.058c.65-.215.872-.256.883-.223.01.032-.188.14-.367.252-.18.11-.342.22-.267.247.076.029.384-.035 1.162-.232a14.575 14.575 0 0 1 3.05-.646 17.803 17.803 0 0 1 3.474.004c.799-.023.735-.063.538-.122-.196-.056-.525-.113-.233-.143.474.104.942.22 1.402.358.346.036.244-.052.192-.096.582.125.588.207.686.297.095.095.275.183 1.17.41.207.22 1.148.285 2.31.579a8.46 8.46 0 0 1 1.815.673c.598.312 1.162.735 1.55 1.242.127.09.184.118.204.105.02-.013.002-.07-.029-.132-.058-.127-.16-.298-.048-.274.31.327.548.644.733.935.189.29.317.56.422.798.201.483.279.856.332 1.206.028.174.027.344.039.522.001.177-.009.363-.026.57-.047.41-.14.908-.388 1.546a7.391 7.391 0 0 1-.28 1.128c-.13.365-.275.73-.462 1.077.095-.196.14-.347.163-.449.022-.102.018-.157-.008-.174-.052-.034-.186.088-.378.294-.39.406-1.064 1.129-1.856 1.552.39-.417.62-.828.778-1.094-.15.167-.315.317-.482.463l-.258.207c-.09.056-.17.124-.266.17a3.7 3.7 0 0 1-1.207.4c-.301.111-.021.178.444.17-.185.03-.36.052-.5.057-.464.155-.577.236-.471.303.105.061.425.1.808.09.33-.145.645-.328.91-.546.358-.082.706-.248.944-.344.248-.094.405-.138.418-.015-.041.03-.09.069-.145.114l-.193.146a4.846 4.846 0 0 1-.51.36c.208-.074.345-.138.283-.047-.069.099-.415.272-.933.404a4.292 4.292 0 0 1-.286.288c-.1.096-.2.18-.304.267-.07-.028-.138-.055-.203-.088-.654.187-1.284.293-1.9.388-.615.093-1.22.172-1.819.254l-.968-.061c-.328-.022-.64-.049-.943-.065-.598-.029-1.185-.024-1.652.238a1.269 1.269 0 0 0-.33.258 1.013 1.013 0 0 0-.24.38c-.028.077-.05.142-.077.244a4.45 4.45 0 0 1-.096.309 2.063 2.063 0 0 1-.34.595c-.142.174-.3.34-.48.481-.173.151-.37.278-.572.401a6.531 6.531 0 0 1-1.366.577c.527-.055.624-.003.602.128-.02.13-.168.307-.088.435.263-.187.594-.363.967-.594.37-.23.792-.517 1.176-.942.18-.202.391-.486.514-.806.064-.16.11-.34.14-.47l.023-.097c.008-.034.012-.043.017-.062a.986.986 0 0 1 .278-.468c.107-.105.217-.183.383-.271a.933.933 0 0 0-.188.126c-.04.034-.068.073-.09.099-.038.061-.045.099-.034.123.02.044.1.029.162.008a.759.759 0 0 0-.299.316c-.017.034-.029.07-.043.107l-.009.029-.014.056-.032.13-.04.153c-.018.057-.034.114-.054.17a2.527 2.527 0 0 1-.14.327 2.94 2.94 0 0 1-.378.56 3.44 3.44 0 0 1-.429.428c-.3.263-.625.466-.954.632.052.04.034.1-.042.175-.037.038-.09.08-.153.126-.064.043-.14.089-.226.138-.345.194-.846.391-1.366.58.334-.348-.437-.177-1.475-.066-.53.058-1.095.098-1.64.144-.544.045-1.067.073-1.46.067-.043.084.033.16.359.19.327.03.9.005 1.846-.114-1.026.29-1.724.218-2.415.12-.691-.1-1.366-.21-2.406-.042.471-.002.723-.037.912.039-.552-.048-1.498-.044-2.232-.041-.733.004-1.256.021-.942.115.158.013.316.023.474.03a20.143 20.143 0 0 1-2.84-.282 16.626 16.626 0 0 1-3.137-.851 13.49 13.49 0 0 1-1.362-.618 9.199 9.199 0 0 1-.58-.326 9.31 9.31 0 0 1-.49-.31c-.566-.386-.939-.62-1.007-.755-.023.02.022.166.08.33.058.161.129.34.186.411-.636-.558-1.351-1.02-2.222-1.237-.433-.099-.897-.166-1.375-.086-.24.04-.475.115-.697.174-.224.06-.441.107-.66.143.281.063.108.468.127.758.013.145.082.262.32.28.119.007.28-.012.493-.075.208-.057.482-.182.704-.269-.22.138-.642.438-1.17.666a7.966 7.966 0 0 1-1.989.563c.258-.084.548-.294.678-.463.129-.17.106-.287-.236-.205-.44.224-.752.352-.996.442-.245.09-.425.142-.62.193-.387.094-.84.206-2.036.4.388-.046.36-.202.087-.339-.274-.138-.775-.261-1.377-.262.187.086-.114.542.335.602a14.72 14.72 0 0 1-2.997-.84c.36.126.377.238.207.331-.168.092-.526.15-.884.137.174-.01-.499-.175-1.235-.39a18.7 18.7 0 0 0-1.08-.28c-.328-.072-.609-.117-.779-.15.369.002.74.034 1.128.092-.753-.174-1.283-.265-1.753-.348-.236-.044-.441-.066-.644-.108-.2-.035-.39-.053-.587-.084-.386-.028-.792-.053-1.284.048-.494.094-1.074.302-1.788.705.201-.05.496-.01.56.144.063.155-.085.406-.79.846l-.952.161c-.424.074-.946.165-1.525.246-.578.088-1.21.14-1.883.22-.669.08-1.369.175-2.074.306-.164.099-.33.192-.495.286-.726.129-1.463.2-2.192.29.355.033.87.065 1.482.09.606.004 1.31.002 2.037-.043.727-.042 1.48-.116 2.185-.218.711-.105 1.406-.274 1.94-.454-.56.348-.637.419-.786.519-.075.049-.17.104-.37.185-.1.041-.224.091-.384.152a22.42 22.42 0 0 1-.564.195c-.3.176-.033.15.377.048.199-.046.454-.129.69-.21.239-.075.444-.17.585-.226-.354.172-.738.327-1.1.468a35.983 35.983 0 0 1-3.209 1.04c.028-.09-.17-.103-.481-.078-.156.012-.34.034-.537.061l-.625.068c-.851.097-1.7.199-1.64.05.793-.106 1.59-.2 2.387-.319.396-.07.795-.132 1.192-.208a38.52 38.52 0 0 0 1.188-.248c.047-.186-.686-.189-1.801-.1-.28.02-.582.054-.902.09a23.863 23.863 0 0 0-2.101.267c-.371.058-.75.114-1.131.181-.379.12-.214.241.044.345.256.102.606.186.583.244-.21-.022-.951.044-1.676.106-.723.065-1.43.128-1.57.181.445.014.891.024 1.338.026-.86.166-1.58.128-2.338.103-.759-.027-1.552-.041-2.593.14-.717.044-2.162.423-2.286.224 1.196-.347 1.399-1.49.643-1.768-.122.014-1.04.088-2.035.142-.995.056-2.066.074-2.478.118-.594.069-.185.3.26.513.443.218.92.415.403.495-.036-.091-.677-.265-.943-.335-.38-.01-.31.068-.35.117-.039.049-.188.075-1.003-.07-.224-.338-3.308-.605-.724-.402a22.293 22.293 0 0 0-1.66-.35c-.228-.044-.466-.084-.761-.153a18.079 18.079 0 0 1-.49-.124c-.173-.047-.417-.129-.534-.156.054-.022.08-.038.083-.076.002-.035-.021-.085-.075-.127-.03-.023-.056-.045-.111-.072l-.176-.085-.443-.199c-.33-.144-.708-.32-1.114-.469a6.655 6.655 0 0 0-1.237-.329c.084.092-.283.162-.457.203a14.815 14.815 0 0 0-2.186.035c-.66.06-1.264.17-1.862.283-1.194.226-2.37.47-3.883.616-.27.11-1.718.336-1.085.42-.44-.019-.848-.094-1.779-.025-1.778.431 2.078-.13.734.323-.134-.177-2.428-.061-3.762-.075.385-.324 3.055-.299 4.393-.298-.03-.401-2.372-.626-5.533-.567-2.507.085-1.066.34-1.504.315-2.347.198-3.359.068-4.264-.037-.906-.112-1.708-.184-3.64-.021-1.535.255-.07.514-.41.699 2.046.09 3.132-.227 4.513-.28-.566.07-1.132.135-1.698.195.652.065 2.02.066 2.76-.052-.644.15-2.635.281-4.921.314-1.144.013-2.362.005-3.522-.082a12.994 12.994 0 0 1-1.677-.22 6.306 6.306 0 0 1-1.446-.484c-.555-.368-1.43-1.068-.933-.863.318.212.636.425.971.608.513.151.064-.158-.323-.444-.385-.297-.72-.564-.096-.231a14.473 14.473 0 0 1-1.782-1.594 22.043 22.043 0 0 1-1.802-2.116 8.412 8.412 0 0 1-.455-.172c.05-.001.26.266.514.586.25.317.552.68.715.927-.187-.284-.577-.669-.958-1.147a8.375 8.375 0 0 1-.55-.761 7.294 7.294 0 0 1-.503-.966c-.38-.08-.726-.158-.98-.289.358.019.758.024 1.152.053.14.235.289.481.446.732a27.052 27.052 0 0 1-.342-.875c-.225-.064-.475-.11-.728-.169-.247-.055-.548-.122-.724-.171l-1.11-.307-.572-.155-.568-.148c-.378-.1-.767-.2-1.16-.289.447-.026.547.006.707.05.08.02.175.044.333.06.079.007.174.013.288.013.061.002.11-.003.186-.003.073-.002.153-.004.238-.008-.419.06.006.198.667.333.33.068.722.133 1.098.191l.849.126c.282.042.546.075.758.117.166.38.274.648.272.722 0 .075-.112-.047-.352-.395.147.196.289.409.43.624l.213.323.029.043.017.022.034.045.068.088c.18.238.341.462.526.7.355.453.79.943 1.493 1.39-.052.019-.188-.05-.178-.001.012.046.16.227.732.677.031.066.131.19.197.267l.082.055a16.671 16.671 0 0 1-.07-.04c.04.05.043.056-.027-.016-.302-.18-.55-.33-.672-.368.2.328.77.876 1.429 1.33.326.236.669.442.971.621.304.178.536.29.712.375.41.098.333.043.212-.026-.123-.069-.272-.165-.048-.148.333.159.712.29 1.108.402.074-.096.68-.114 1.01-.173.162-.025.256-.058.173-.097a1.385 1.385 0 0 0-.265-.07c-.138-.025-.33-.06-.591-.105.62.067 1.27.1 1.924.118 1.16-.085 2.775-.159 3.782-.105.944-.077 2.408.133 1.572.006 1.056-.006 2.114-.023 3.173-.049l.025-.055c1.564-.117 3.175-.154 4.853-.246 1.67-.095 3.41-.225 5.143-.609.519-.03 1.027-.068 1.648-.146a42.471 42.471 0 0 0 2.219-.353c.111-.078.222-.156.338-.232.362-.028.825-.077 1.322-.11.498-.035 1.014-.05 1.515-.05 1.002-.003 1.951.147 2.238.308.21-.024.474-.014.758.011l.864.086c.073.005.148.014.224.017l.25.022c.092 0 .175.039.264.06l.341.1c.09.025.181.053.275.077.373.104.766.21 1.17.31 1.616.406 3.408.711 4.561.761l.067.25c1.592.117 3.125.245 5.126.286l-.117.218c.868.065 1.983-.027 3.21-.202 1.228-.175 2.568-.422 3.908-.663-.195-.036-.872.093-1.35.217.395-.121.795-.225 1.198-.325.402-.106.81-.197 1.222-.278.411-.082.829-.144 1.24-.232.412-.08.827-.155 1.235-.243a22.915 22.915 0 0 0 2.384-.613 7.127 7.127 0 0 0 1.976-1.001c.676-.282 1.136-.588 1.6-.898a1.781 1.781 0 0 1-.177.083c.07-.04.172-.099.283-.156.295-.197.607-.404.977-.6l-.82.519c.546-.279 1.46-.685 2.445-.844.121-.102.247-.205.376-.307.082-.014.147-.025.233-.03a3.2 3.2 0 0 1 .534-.074c.113.005.166.025.172.055.012.06-.162.15-.408.27.247-.015.482.007.698.022.217.013.408.045.577.081.384-.172 1.032-.073 1.66.104.63.174 1.232.395 1.724.329.122.084.43.21.824.332.394.123.88.241 1.373.328.494.09.994.152 1.402.216.407.059.73.128.845.229.028-.054.28-.082-.182-.08.956-.05 1.857-.147 2.688-.175.112-.116.22-.238.325-.357.662 0 1.342-.061 2.004-.188.262-.155.464-.304.618-.432.151-.127.266-.236.31-.304.05-.07.014-.096-.11-.078-.125.018-.322.08-.588.152.157-.055.301-.114.456-.181.153-.067.321-.143.495-.207.354-.131.675-.185.92-.21a6.327 6.327 0 0 1 1.164-.008c.324.035.63.083 1.017.203.385.123.855.32 1.442.69l-.043-.23c.229.106.477.25.72.408l.357.237.345.22c.229.14.456.264.66.358.206.088.387.154.527.166.499.1 1.327.352 2.407.567 1.077.224 2.408.403 3.856.457a31.864 31.864 0 0 0 4.531-.168c.38-.038.762-.086 1.138-.134l.56-.072.277-.037.261-.04a8.742 8.742 0 0 0 1.878-.5c-.176.202-.144.246.024.206.163-.045.453-.18.734-.36.285-.178.55-.4.74-.57.088-.089.176-.156.244-.204.07-.046.13-.069.186-.05.004-.033.011-.069.019-.106a.515.515 0 0 0 .016-.1.414.414 0 0 0-.009-.149c-.027-.073-.067-.062-.21.062a.703.703 0 0 0 .109-.173.681.681 0 0 0 .032-.097c.01-.042.023-.109.037-.182l.03-.161c.012-.058.024-.116.039-.172a2.462 2.462 0 0 1 .245-.63l.18-.27c.243-.35.563-.63.887-.834a3.86 3.86 0 0 1 .91-.412 5.993 5.993 0 0 1 1.527-.244 9.622 9.622 0 0 1 1.364.053c.304-.157-.6-.147-.328-.247.223.01.879.048 1.153-.052.27-.1-.404-.081-.842-.105 1.4-.093 2.139-.049 2.572.051.433.102.572.276.698.45.324-.098.589-.197.82-.282.224-.095.418-.173.586-.26.09-.037.163-.088.248-.125.039-.024.078-.046.118-.069a.971.971 0 0 0 .126-.074c.087-.057.18-.11.274-.168a8.28 8.28 0 0 1 .294-.189l.155-.332c.043-.104.068-.193.06-.227-.023-.076-.15.1-.692.625.143-.155.438-.473.72-.93a6.727 6.727 0 0 0 .727-1.611c.171-.579.23-1.142.237-1.554.012-.414-.02-.684.05-.724-.037-.057-.064-.156-.115-.268l-.068-.181a4.415 4.415 0 0 1-.082-.192 8.07 8.07 0 0 0-.304-.6 4.494 4.494 0 0 0-.815-.836 7.048 7.048 0 0 0-.708-.495c-.467-.276-.945-.543-1.9-.91.184.049.366.101.547.158-.304-.325-.711-.495-1.235-.632-.527-.135-1.17-.24-1.999-.412l.041.046c-.48-.055-.873-.085-1.19-.112-.315-.026-.558-.04-.755-.054-.393-.033-.598-.048-.8-.076-.204-.016-.407-.041-.796-.028-.388.012-.966.055-1.9.227l.183-.25c-.2-.229-1.055-.074-2.1.244-.524.16-1.095.358-1.668.552-.287.1-.575.192-.858.282l-.426.127c-.186.045-.363.133-.552.089.179.008.337-.099.496-.166l.375-.186a2.06 2.06 0 0 0-.376.094l-.096.033-.198.071c-.017.006-.033.016-.051.017l-.054.003-.109.005c-.075.004-.146.01-.214.016-.113.01-.228.037-.342.067-.122.035-.201.063-.395.127-.171.059-.35.141-.539.24-.377.192-.795.426-1.209.668-.021-.001-.03-.032-.042-.054l-.035-.07-.071-.144-.149-.3-.302-.624a4.983 4.983 0 0 0-.32-.583l-.047-.071-.026-.032-.048-.06-.087-.112c-.078-.075-.043.002.02.134l.05.107c.042.075.08.169.12.255.077.178.138.373.184.542-.033-.082-.063-.165-.096-.24l-.101-.218-.107-.196-.059-.097-.027-.038a6.017 6.017 0 0 0-.19-.247l-.242-.3c-.108-.133-.086-.183-.044-.225.043-.042.109-.076.082-.193a.505.505 0 0 0-.04-.106 1.25 1.25 0 0 0-.1-.135 3.552 3.552 0 0 0-.165-.182c-.067-.07-.16-.134-.262-.215-.201-.045-.158.114-.21.182-.054.073-.179.04-.772-.241-.082-.018-.187-.077-.332-.13-.141-.058-.307-.145-.507-.215-.1-.035-.202-.09-.315-.119l-.354-.11c-.248-.059-.516-.128-.798-.154a4.358 4.358 0 0 0-1.725.127c-.133.048-.27.088-.396.143l-.358.185c-.06.028-.108.074-.16.11l-.086.063c-.048.035-.098.065-.145.102a2.942 2.942 0 0 0-.527.532c.275-.401.56-.65.582-.728.012-.04-.04-.045-.18.016-.14.066-.36.193-.666.505-.333.35-.711.803-1.086 1.304-.043-.012-.085-.025-.123-.03-.02.008-.04-.034-.059-.066l-.058-.099-.243-.405-.53-.86-.285-.44c-.099-.142-.198-.294-.3-.432l-.151-.208-.075-.1-.052-.066-.207-.26c-.553-.685-1.085-1.304-1.398-1.848-.169-.126-.25-.154-.279-.137-.408-.472-1.147-1.171-1.91-1.756-.194-.142-.376-.295-.563-.421l-.522-.371a9.64 9.64 0 0 1-.744-.54c-.353.047-.955-.156-1.698-.413-.743-.255-1.634-.564-2.51-.766-1.768-.418-3.482-.4-3.434-.034a15.097 15.097 0 0 0-2.851.412l-.292.074c-.12.031-.241.07-.361.106-.24.069-.48.15-.72.231l.138.032-1.197.43c-.267-.716-.492-1.354-.699-1.869l-.151-.371-.032-.076-.022-.056-.043-.108-.154-.4c-.19-.497-.317-.875-.453-1.25-.344-.472-.18-.073-.19-.013a21.297 21.297 0 0 0-1.316-1.768 37.506 37.506 0 0 0-.994-1.155c-.303-.345-.598-.671-.954-1.047a14.504 14.504 0 0 0-1.371-1.284c-.132.01-.26.018-.392.035a3.106 3.106 0 0 0-.387-.252c-.182-.09-.403-.21-.67-.316-.529-.23-1.223-.45-2.01-.62a16.122 16.122 0 0 0-2.584-.312 20.607 20.607 0 0 0-2.685.051c.04.02.114.05.382.049-.265.01-.545.06-.832.102-.284.058-.574.118-.86.206a9.78 9.78 0 0 0-1.693.676 11.561 11.561 0 0 0-1.897 1.217l-.133.102-.147.118-.292.237-.571.497-.281.247c-.092.075-.187.183-.274.206a63.873 63.873 0 0 0-.86-.73l-.211-.163c-.07-.054-.142-.11-.201-.142-.118-.07-.272-.168-.32-.186a6.95 6.95 0 0 0-.795-.353c-.492-.185-.898-.291-1.186-.464a4.187 4.187 0 0 0-1.167.13c-.096.026-.193.05-.287.086-.095.032-.19.065-.282.108l-.14.06-.136.069-.069.034c-.022.012-.043.02-.078.045l-.187.123.167-.128c.06-.05.085-.06.125-.088.073-.046.137-.096.202-.13.127-.077.234-.14.327-.187.18-.105.297-.151.348-.196.106-.083-.02-.088-.212-.073-.19.017-.441.075-.567.09-.127.015-.14-.041.171-.234-.22.091-.445.223-.66.376-.217.16-.423.346-.603.552-.358.408-.634.884-.71 1.08-.046.062-.052.091-.008.097.018.024.154-.134.456-.481.075-.115.15-.222.224-.326.105 0 .08.109-.058.336-.135.224-.386.578-.668 1.002a.58.58 0 0 0-.09.013c-.015.003-.03.005-.044.01l-.021.006-.01.003c-.004 0-.008-.01-.011-.015l-.177-.305-.39-.665c-.269-.461-.553-.923-.83-1.317l-.104-.144a20.705 20.705 0 0 0-.079-.106c-.048-.066-.098-.126-.144-.184a4.276 4.276 0 0 0-.254-.293c-.15-.157-.254-.233-.286-.189a16.424 16.424 0 0 0-2.17-2.277 29.672 29.672 0 0 0-.486-.414 18.323 18.323 0 0 0-.992-.769 14.872 14.872 0 0 0-4.356-2.197c-.771-.227-1.554-.39-2.341-.486-.197-.02-.396-.032-.592-.049l-.295-.024-.297-.004-.59-.008c-.197.005-.392.02-.588.03-.392.007-.779.076-1.166.115l-.575.103-.286.052-.284.069c-.758.169-1.494.416-2.209.705l.269-.296.282-.283c-.349.115-.685.265-1.025.404-.332.156-.667.308-.99.485-.24.164-.37.326-.28.337.046.008.146-.026.325-.095.179-.07.427-.195.779-.354-.332.25-.918.512-1.437.723-.513.217-.957.387-.998.367-.612.467-.815.703-.825.763-.008.065.188-.034.436-.166.495-.268 1.217-.644.834-.39-.354.218-.695.455-1.026.704.066-.068.13-.138.197-.204-.446.249-.704.374-1.027.587-.318.219-.713.52-1.326 1.23-.18.236-.278.395-.335.503a.793.793 0 0 0-.055.128.776.776 0 0 0-.035.104c-.023.11.03.096-.188.413.01.008-.021.067-.125.216-.099.155-.27.404-.532.788l-.323.515-.16.256-.04.064c-.006.01-.012.023-.02.031l-.02.014-.085.059c-.43-.402-.922-.842-1.385-1.222-.118-.077-.237-.177-.356-.231l-.173-.093-.099-.044a4.386 4.386 0 0 0-.404-.155c.163.007.328.024.492.05.061-.002.22.06.343.1.063.027.127.06.19.087l.093.042.09.052a2.995 2.995 0 0 0-.566-.408 3.583 3.583 0 0 0-.36-.178c-.237-.103-.453-.165-.606-.212-.153-.044-.227-.068-.194-.096a.386.386 0 0 1 .144-.037c.083-.01.202-.013.36-.008-.102-.002-.218-.01-.355-.017-.132 0-.276-.015-.433-.016a6.345 6.345 0 0 0-1.08.08l-.304.06-.314.08-.322.104-.162.062-.107.04c-.043.016-.085.037-.128.057-.344.146-.69.362-1.054.605-.362.24-.734.498-1.082.753l-.047-.032c-.01-.027-.018-.064-.026-.095l-.05-.197-.106-.399a41.417 41.417 0 0 0-.226-.803l-.119-.394-.133-.374a112.173 112.173 0 0 0-.193-.449l-.027-.056-.054-.112a8.34 8.34 0 0 0-1.002-1.562c-.086-.112-.18-.212-.268-.313-.086-.1-.185-.202-.27-.291a8.057 8.057 0 0 0-.49-.469 4.154 4.154 0 0 0-.68-.502 5.329 5.329 0 0 0-2.153-1.212 6.284 6.284 0 0 0-2.76-.147c.243-.061.438-.176.35-.246-.046-.037-.163-.058-.383-.055-.11.004-.245.02-.408.044-.162.033-.354.072-.573.141.106.057.13.119.093.184-.01.017-.018.032-.043.052a3.236 3.236 0 0 1-.357.21l-.174.085-.198.108a51.906 51.906 0 0 0-1.592.874c-.012-.013-.03-.008-.035-.033l-.017-.072-.035-.145-.074-.299-.16-.617a9.747 9.747 0 0 0-.386-1.212c-.018-.048-.039-.095-.058-.143l-.03-.068-.027-.058a4.783 4.783 0 0 0-.27-.486 2.863 2.863 0 0 0-.38-.485c.205.246.184.09.032-.256a7.06 7.06 0 0 0-.327-.629c-.14-.245-.296-.497-.458-.738-.322-.484-.675-.91-.845-1.145-.172-.23-.137-.303.293-.01-.266-.265-.423-.379-.512-.424-.089-.045-.11-.02-.127.014-.034.072-.039.165-.502-.126l-.239-.215a88.323 88.323 0 0 1-.253-.205l-.266-.193a7.916 7.916 0 0 0-1.521-.825 7.488 7.488 0 0 0-2.807-.556 6.907 6.907 0 0 0-2.85.656 7.225 7.225 0 0 0-2.392 1.78c-.053-.002.002-.156-.002-.232-.005-.076-.095-.096-.423.222a5.971 5.971 0 0 0-.617 2.094c-.03.092-.066.17-.102.24a1.73 1.73 0 0 1-.05.1l-.027.047-.037.087c-.045.106-.08.206-.12.301l-.057.144c-.016.05-.03.103-.044.156-.028.107-.06.217-.07.361-.014.14-.023.3-.02.498.003.393.042.93.165 1.753-.052-.258-.113-.57-.157-.693-.045-.124-.08-.06-.07.381.01.09.017.18.025.27l-.03.015-.058-.032-.119-.066-.238-.132L23 9.745l-.257-.135c-.343-.184-.697-.356-1.056-.535-.35-.141-.707-.313-1.059-.388l-.172-.043c-.057-.011-.115-.02-.172-.03-.115-.017-.229-.047-.344-.054-.92-.12-1.854-.014-2.661.339-.404.178-.77.41-1.092.717a4.991 4.991 0 0 0-.85 1.058c-.235.393-.41.817-.506 1.238-.03.106-.038.21-.055.315-.013.039-.004.14-.002.216l.004.122.002.061c.004.022-.011.035.022.071l.277.377.137.188.415.356.827.71 1.675 1.322-.55-.06-.348-.02-.17-.01c-.047 0-.075.002-.113.003l-.212.007c-.195.025-.325.064-.355.116-.043.05-.04.106-.004.164a.66.66 0 0 0 .161.176c.072.059.157.118.246.176l.068.043.035.022c.009.006.036.02-.005.008-.052-.012-.104-.023-.144-.036a1.387 1.387 0 0 1-.123-.04c-.3-.111-.527-.234-.821-.356a8.748 8.748 0 0 0-1.045-.361c-.211-.062-.429-.108-.677-.177-.243-.054-.526-.188-.8-.302l-.05-.022-.046-.013-.091-.027-.183-.053-.182-.053c-.062-.02-.11-.01-.165-.016l-.323-.013a.326.326 0 0 0-.064 0l-.05.005-.1.008c-.268.02-.534.074-.795.14a4.048 4.048 0 0 0-1.402.685c-.39.316-.68.703-.837 1.129a2.438 2.438 0 0 0-.127.668 2.63 2.63 0 0 0 .006.349l.01.089c.005.072.008.12.022.184.028.12.05.238.083.36l.141.381.171.401a36.908 36.908 0 0 0 .78 1.67l.202.402c.024.083.04.168.075.288l-.208-.051c.085.018.162.035.193.038l-.064-.2c-.02-.057-.015-.079-.063-.158l-.175-.309c-.093-.157-.137-.221-.146-.209-.008.013.02.096.071.23l.044.106c.012.034.045.092.03.102a.711.711 0 0 0-.01.176 28.467 28.467 0 0 0-1.345-.37c.637.14.533.059.314-.065-.224-.126-.546-.276-.511-.331a15.287 15.287 0 0 0-.791-.11c-.26-.026-.518-.069-.736-.029-.056.007-.11.02-.164.034a1.007 1.007 0 0 0-.082.022l-.046.017a3.173 3.173 0 0 0-.357.165l-.188.105a2.87 2.87 0 0 0-1.068 1.061c-.142.062-.33.26-.493.593-.086.168-.16.364-.266.623-.029.066-.055.131-.095.212-.032.07-.086.164-.14.25-.07.099-.137.195-.26.299a1.605 1.605 0 0 1-.087.072 2 2 0 0 1-.105.065.974.974 0 0 1-.222.1 1.186 1.186 0 0 1-.948-.072c-.239-.133-.318-.222-.4-.279a1.89 1.89 0 0 0-.182-.129 1.44 1.44 0 0 0-.168-.083c-.215-.092-.435-.122-.514-.195.156.001.307.022.44.063.13.04.252.1.359.179-.088-.11-.15-.178-.167-.236-.017-.055.01-.099.078-.125a.623.623 0 0 1 .314-.009c.136.021.298.096.494.165a.51.51 0 0 0 .3.018.432.432 0 0 0 .216-.149c.088-.133.1-.301.107-.451.006-.307-.03-.548-.157-.53.203-.312.395-.71.668-1.109.067-.101.139-.201.216-.3.037-.052.076-.102.118-.151a4.694 4.694 0 0 1 1.052-.974c.12-.08.256-.16.369-.224a4.25 4.25 0 0 1 .614-.292l.112-.04.057-.02.027-.01c.303-.116.59-.143.894-.069l.072.02.036.01c.005.002.015.007.015.004L7.397 19a1.43 1.43 0 0 1-.119-.395 1.604 1.604 0 0 1 .032-.61l-.01-.038c-.003-.014-.006-.011-.01-.033a.684.684 0 0 0-.018-.074c-.012-.036-.022-.045-.032-.035-.02.011-.035.141-.053.171-.03.11-.056.217-.121.115.02-.045.035-.103.054-.152.009-.053.016-.121.023-.182l.03-.194c.04-.263.097-.549.19-.861.085-.316.233-.649.427-1.008a4.83 4.83 0 0 1 .849-1.07c-.071.033-.134.08-.202.121.44-.412.916-.701 1.384-.917.47-.215.933-.361 1.39-.449.113-.028.228-.04.341-.058.113-.018.226-.033.338-.04l.169-.014.084-.007.047-.002.178-.005c.218.002.425.025.615.078.189.054.36.13.52.215l.232.128c.077.04.153.085.24.095.021.006-.001-.008-.012-.016l-.036-.027-.071-.055-.141-.112a3.228 3.228 0 0 1-.264-.242 1.665 1.665 0 0 1-.388-.592c-.031-.075-.049-.156-.067-.24l-.016-.127c-.003-.053 0-.136-.001-.204 0-.022-.002-.03.001-.061l.01-.095.022-.192c.01-.131.042-.255.066-.386.023-.131.062-.256.097-.386.033-.13.08-.256.126-.384l.022.263c.01.087.025.175.038.26.186-.655.364-1.017.489-1.31l.187-.39c.066-.118.13-.24.213-.376.31-.25.314-.184.174.03-.074.105-.167.26-.283.432l-.169.281c-.058.098-.11.204-.165.308-.215.42-.372.882-.416 1.159-.04.28-.003.35.17.04.001-.446.224-1.24.777-2.039.274-.4.624-.803 1.06-1.164a5.55 5.55 0 0 1 1.495-.86c.136-.047.269-.104.406-.141l.41-.111c.273-.053.543-.108.81-.13l.196-.02.195-.01c.128-.003.256-.014.379-.012.247.008.485.006.708.031.111.01.22.016.325.027l.302.04c.096.014.192.02.279.038l.129.021.031.005h.016l.029.001c.143-.003.23-.016.272-.073.321.129.31.208.284.255-.028.056-.072.087.352.315a.26.26 0 0 0 .06-.047l.007-.01-.014-.044-.024-.074c.05.016.1.017.152.003-.011-.346-.021-.623-.055-.792a.58.58 0 0 0-.063-.19c-.004-.015-.015-.007-.02-.027a.413.413 0 0 0-.012-.051c-.01-.03-.022-.049-.035-.058l-.023.106-.012.048-.034.105c-.024.07-.046.134-.055.184a1.252 1.252 0 0 1-.002-.354l.032-.145a7.229 7.229 0 0 1 .698-1.78c.534-.978 1.231-1.654 1.418-1.889a7.87 7.87 0 0 0-1.126 1.637c.364-.6.816-1.171 1.343-1.677a8.903 8.903 0 0 1 1.77-1.315 8.749 8.749 0 0 1 2.068-.85c.184-.045.365-.108.553-.137l.563-.098c.379-.04.76-.082 1.138-.072 1.522-.005 2.99.4 4.253 1.033a10.347 10.347 0 0 1 1.76 1.104c.543.42 1.019.89 1.426 1.382a8.173 8.173 0 0 0-.345-.203c.643.72 1.018 1.276 1.314 1.71l.385.579c.117.178.227.346.334.518.211.345.424.706.656 1.237l.088.207.064.16a4.764 4.764 0 0 1 .227.786l.02.102.009.053c.006.013 0 .051.02.031-.013.01-.011-.015-.01-.034v-.056l.002.055.001.028.019-.005.675-.19.53-.135.392-.087.401-.075c-.27.016-.285-.013-.174-.064.11-.055.35-.12.583-.178.465-.103.91-.194.168-.213 1.105-.033 1.786.117 2.223.23.22.05.38.108.506.154.127.046.22.085.298.128.158.084.273.152.497.298l.192.119.242.162c.092.058.192.13.305.21.114.079.235.175.371.28.21.054.423.114.63.188.343.336.5.54.765.835l.489.55a22.642 22.642 0 0 1 .543.643l.22.285c-.23-.352-.297-.467-.258-.48.035-.012.171.08.294.178.125.096.249.188.275.154.013-.017.001-.066-.047-.162a3.124 3.124 0 0 0-.279-.442 7.512 7.512 0 0 1 1.65 2.288l.02.041.013.032.026.063c.018.042.032.085.048.127a4.293 4.293 0 0 1 .137.523l.024.135c.01.036.003.123.043.077.137-.077.283-.143.434-.205.075-.032.153-.06.228-.09l.114-.044.056-.022.071-.026c.586-.215 1.136-.391 1.72-.584.284.036.427.098.467.137.04.042-.024.073-.155.098-.131.026-.33.06-.563.095l-.37.07-.397.096c-.134.036-.268.078-.4.117l-.342.12c-.14.055-.265.11-.36.158-.19.098-.274.153-.124.1-.134.115-.157.178-.085.18.073.005.244-.045.493-.112l.473-.128c.197-.045.4-.097.609-.13.205-.042.415-.06.612-.087.2-.01.388-.036.56-.034l.829-.011.432.009a5.645 5.645 0 0 1 .977.12c.09.02.185.041.28.07l.14.04.09.021c.227.053.432.125.616.259.05.074.074-.046.109-.1a3.573 3.573 0 0 1 .355-.563c-.097.133-.126.11-.215.24a1.439 1.439 0 0 1 .172-.29l.086-.106c.21-.254.436-.5.677-.742.48-.488 1-.975 1.55-1.576.44-.181.847-.501 1.21-.75.361-.252.677-.428.884-.339a16.24 16.24 0 0 0-2.554 1.87c.69-.584 1.455-1.028 2.34-1.499a90.96 90.96 0 0 1 3.205-1.611c-.117.009-.39.064-.701.155-.309.095-.663.21-.941.328.178-.125.364-.228.556-.313.193-.086.383-.172.583-.238.198-.07.395-.142.595-.22.202-.071.404-.152.607-.253-.09-.068-.367-.031-.761.08-.194.062-.417.142-.66.234-.24.1-.499.215-.767.34-.532.26-1.1.565-1.632.88-.533.315-1.037.63-1.47.877.324-.36 1.128-.845 1.737-1.158.608-.313 1.004-.517.474-.459.75-.113 1.507-.503 2.423-.878.907-.375 1.992-.724 3.201-.698l-.19-.199c.096-.006.216-.014.355-.02l.463-.001c.166-.002.342-.007.519-.013.178.002.357.001.53-.007-.21-.038-.424-.087-.64-.117l-.649-.081c.249.006.493 0 .734-.012.242.002.48-.005.719-.017.118-.004.237-.016.355-.018l.355-.006.708-.022c.94.004 1.89.067 2.799.364-.968-.239-1.523-.284-1.818-.309-.298-.004-.341.034-.315.08.055.097.378.24-.444.243 1.183.17 1.92.369 2.479.453.55.116.923.136 1.31.188.39.04.8.103 1.42.31.154.053.32.116.504.19.182.076.375.171.59.276.424.214.911.5 1.467.89a6.213 6.213 0 0 0-.612-.386 9.28 9.28 0 0 0-.71-.35c-.427-.17-.65-.208-.17.104l.725.372c.243.14.5.27.733.41.237.135.465.264.664.383.203.116.38.218.52.292.692.562.973.85 1.057.956.083.108-.034.048-.199-.05-.336-.2-.875-.54-.354-.012.273.141.473.28.655.444.181.162.332.335.476.528.29.386.57.834 1.032 1.442l.182-.142c.664.726.98 1.2 1.153 1.501.014.024.012.024.016.035l.008.024.014.047c.007.03.01.058.013.084a.819.819 0 0 1-.003.144c-.008.092-.018.18.046.345.031.082.081.184.154.314.037.065.078.137.126.215l.074.122.01.016c.004-.002.008-.011.012-.017l.024-.038.053-.08c.02-.03.046-.068.075-.108l-.068.03-.049.02-.021.01c-.006-.012-.012-.041-.017-.06l-.062-.247c-.038-.157-.07-.3-.095-.428l.128.275.065.146c.005.01.01.03.017.033l.02-.024.041-.048c.049-.054.103-.107.162-.158a.654.654 0 0 1-.097-.236c.1-.059.223-.13.344-.195.033-.018.065-.036.097-.052l.211-.124c.17-.103.346-.187.516-.276.7-.321 1.437-.612 2.622-.66-.138.043-.184.091-.148.137.036.05.154.083.346.141.384.097 1.071.233 1.953.604.311.095.428.13.473.122.045-.007.014-.047.018-.064.002-.008.013-.011.047 0a.812.812 0 0 1 .14.06l.097.052.097.061a2.318 2.318 0 0 1 .293.234 3.061 3.061 0 0 0-.018-.031c-.1-.174-.183-.327-.285-.428a.947.947 0 0 0-.127-.092l-.019-.011-.037-.02a14.536 14.536 0 0 1-.078-.039l-.164-.076a4.108 4.108 0 0 0-.368-.131 4.675 4.675 0 0 0-.426-.093c-.049-.054-.192-.135-.34-.216-.15-.073-.306-.143-.366-.194a4.751 4.751 0 0 1 1.62.462l.2.1.049.025.025.014.042.024.042.024a.496.496 0 0 1 .032.02l.042.029c.055.04.107.086.156.136.007.004.013.022.02.013l.02-.014.039-.027.078-.05c.05-.032.096-.062.134-.09a1.077 1.077 0 0 0-.22.24l.268-.109c.028-.012.045-.017.085-.035l.203-.117c.136-.079.275-.15.412-.224.553-.29 1.122-.54 1.702-.753.493-.323.046-.198-.404-.057.174-.076.337-.14.5-.202l.502-.166.569-.17.706-.203c-.166-.052-.245-.121-.479-.132a1.895 1.895 0 0 0-.494.054c-.111.025-.239.057-.387.099-.146.045-.313.104-.503.173a15.04 15.04 0 0 1 1.743-.54c.59-.143 1.188-.245 1.786-.315.053-.032.205-.08.383-.13.177-.049.386-.1.572-.143.371-.086.657-.15.42-.172 1.007-.114 2.253.008 3.539.31.643.154 1.296.352 1.941.58.647.225 1.276.495 1.894.754.054.048.139.111.271.199l.236.15.31.205c.276.147.533.315.795.47.253.169.511.328.753.507.493.345.96.723 1.41 1.138a11.94 11.94 0 0 1 2.418 3.085c.395.389.778.795 1.144 1.22.26.506.29.653.23.635-.059-.018-.214-.195-.352-.327-.136-.134-.255-.22-.228-.071.02.152.199.533.567 1.38.083.23.15.393.198.468.048.079.082.08.11.048.056-.069.104-.24.16-.273a.47.47 0 0 1 .072-.069c.051.026.133.052.267.069l.052.005.027.003c.01 0 .008.005.046-.002.116-.017.234-.037.355-.05.242-.035.494-.068.755-.099.52-.06 1.073-.126 1.649-.18l1.788-.18c-.814-.067-1.452.02-2.208.081m22.328 6.83c-.14-.045-.318-.081-.512-.123l-.303-.063a9.667 9.667 0 0 0-.316-.035c-.42-.055-.832-.01-1.04.065.349.116.637.117.969.13.332-.004.707-.02 1.202.027m18.919 15.748c.383.043.968-.04 1.627-.223-.49.053-1.032.114-1.627.223m-106.144 6.28a.655.655 0 0 1 .053.01c1.106-.1.713-.058-.053-.01m-2.279.052c-.224-.046-.206-.076-.11-.103.153.068.658.1 1.242.092-.162.057-.461.097-1.132.011m7.574-35.587c.115-.213.237-.408.354-.603a9.098 9.098 0 0 0-.48.635 1.24 1.24 0 0 0-.14.225c-.01.041.124-.105.266-.257" fill="#fff" fill-rule="evenodd" data-name="Path 6189"/><path d="M165.792 43.79c.091-.14.086-.206.082-.263.178-.134.223-.106-.082.263" fill="#fff" fill-rule="evenodd" data-name="Path 6190"/><path d="m109.08 14.025-.08-.038a.215.215 0 0 1-.06-.077l.14.115Z" fill="#fff" fill-rule="evenodd" data-name="Path 6191"/><path d="M88.443 53.24c.494.025.772.009.957-.016.022.059-.206.087-.957.016" fill="#fff" fill-rule="evenodd" data-name="Path 6192"/><path d="M43.6 44.412c.183.03.368.056.546.09l.426.962c.07.16.145.31.225.468l.118.235-.092-.166-.123-.227c-.096-.177-.174-.334-.247-.474-.145-.28-.261-.49-.378-.702-.09-.012-.192-.015-.292-.024.081-.044.635-.047-.183-.162" fill="#fff" fill-rule="evenodd" data-name="Path 6193"/><path d="M30.96 41.071c-.065-.09-.15-.17-.223-.26a2.756 2.756 0 0 1-.205-.27l.122-.021.205.255.19.216c.111.136.21.232.256.298.1.124.013.107-.346-.218" fill="#fff" fill-rule="evenodd" data-name="Path 6194"/><path d="M41.637 44.891c-.074.086-.337.073-.708.007-.185-.034-.396-.08-.625-.137-.23-.054-.46-.118-.711-.19.06.016.116.031.176.043-.117-.169.092-.161.44-.087.369.078.894.227 1.428.364" fill="#fff" fill-rule="evenodd" data-name="Path 6195"/><path d="M39.363 44.508c-.305-.087-.616-.178-.917-.255-.085-.139.376.088.917.255" fill="#fff" fill-rule="evenodd" data-name="Path 6196"/><path d="M50.016 50.802c-.387-.082-.135-.312-.363-.32-.072-.103.033-.064.19.015.154.08.39.196.61.29.216.096.394.175.364.2-.015.012-.082.01-.215-.015a3.358 3.358 0 0 1-.586-.17" fill="#fff" fill-rule="evenodd" data-name="Path 6197"/><path d="m40.693 45.37.413-.167.543.293c-.319-.039-.638-.08-.956-.127" fill="#fff" fill-rule="evenodd" data-name="Path 6198"/><path d="M46.854 50.084c-.45-.32-.88-.67-1.285-1.047.045-.01-.086-.176-.248-.377.347.372.745.727 1.051.985.308.257.52.422.482.44" fill="#fff" fill-rule="evenodd" data-name="Path 6199"/><path d="M45.32 48.66c-.36-.387-.668-.789-.804-1.05.159.235.536.72.805 1.05" fill="#fff" fill-rule="evenodd" data-name="Path 6200"/><path d="m42.916 45.811.133.005.067.003h.034c.011.001.024 0 .027.012l.113.188c.173.346.364.69.574 1.027a12.566 12.566 0 0 1-.698-1.201c-.002-.012-.014-.012-.025-.012l-.032-.003-.065-.006-.128-.013Z" fill="#fff" fill-rule="evenodd" data-name="Path 6201"/><path d="m64.246 51.7 1.829-.074c.192.067-.3.157-.983.178-.441-.023-1.12-.003-.846-.104" fill="#fff" fill-rule="evenodd" data-name="Path 6202"/><path d="M58.759 52.702c.493-.073.524-.128.799-.222l.071.294-.87-.072Z" fill="#fff" fill-rule="evenodd" data-name="Path 6203"/><path d="M64.103 52.44c.188.07 2.672.03.353.191-.192-.066-2.03 0-.353-.192" fill="#fff" fill-rule="evenodd" data-name="Path 6204"/><path d="m91.368 52.67-.466-.03.096-.483.37.512Z" fill="#fff" fill-rule="evenodd" data-name="Path 6205"/><path d="M115.013 48.625c-.214.048-.377.107-.508.141-.131.03-.227.067-.302.08-.149.03-.208.008-.262-.007-.054-.016-.103-.033-.235.003-.131.034-.346.128-.732.366-.238.061.081-.15.397-.323.317-.175.636-.325.402-.285.283-.076.527-.141.73-.175a2.38 2.38 0 0 1 .477-.06c.225-.005.244.055.033.26" fill="#fff" fill-rule="evenodd" data-name="Path 6206"/><path d="M113.773 48.6c-.181.054-.376.108-.588.177.33-.128.489-.153.588-.177" fill="#fff" fill-rule="evenodd" data-name="Path 6207"/><path d="M2.816 24.48a1.658 1.658 0 0 1-.587-.169c-.083-.04-.13-.07-.189-.104l-.127-.083a1.507 1.507 0 0 0-.236-.145.574.574 0 0 0-.229-.041.665.665 0 0 1 .17-.029c.063.002.108-.004.221.048.05.05.116.12.256.225a1.608 1.608 0 0 0 .721.297" fill="#fff" fill-rule="evenodd" data-name="Path 6208"/><path d="M.696 23.55a1.925 1.925 0 0 0-.09.367 1.774 1.774 0 0 0-.606.061c.087-.066.22-.156.356-.23.135-.076.269-.141.34-.199" fill="#fff" fill-rule="evenodd" data-name="Path 6209"/><path d="m146.552 30.767.044.153c-.064-.036-.128-.084-.203-.138a4.82 4.82 0 0 1-.255-.187c-.097-.072-.201-.165-.33-.256l-.444-.305c.2.108.406.21.603.332.194.131.395.254.585.4" fill="#fff" fill-rule="evenodd" data-name="Path 6210"/><path d="m131.265 24.818.299.192c-.237-.043-.467-.092-.705-.12.135-.026.272-.053.406-.072" fill="#fff" fill-rule="evenodd" data-name="Path 6211"/><path d="M117.264 22.255c.008.003.002.02-.001.048.004.012.02.02.035.009-.016-.01-.03.014-.063.052-.027.02-.07.032-.082.019-.013-.015.012-.043.111-.128" fill="#fff" fill-rule="evenodd" data-name="Path 6212"/></g></g></g><defs><clipPath id="a"><path d="M0 0h290.837v93.11H0V0z" data-name="Rectangle 2996"/></clipPath><clipPath id="b"><path d="M0 0h167.991v53.781H0V0z" data-name="Rectangle 2996"/></clipPath></defs></svg>