<svg xmlns="http://www.w3.org/2000/svg" width="157.019" height="57.532" viewBox="305.959 502.251 157.019 57.532"><g data-name="Group 2979"><g data-name="Group 2969" transform="rotate(-3 9897.557 -5586.846)" clip-path="url(#a)"><path d="M154.549 22.426c-.056-.098-.116-.085-.154-.058-.039.028-.07.075-.088.078.093.069.165.083.209.054.045-.029.05-.091.033-.074" fill="#fff" fill-rule="evenodd" data-name="Path 6132"/><path d="M148.24 23.89c.049-.05.1-.1.16-.148-.272.14-.452.274-.641.393-.187.12-.375.235-.571.345.175-.088.346-.181.514-.278.17-.097.333-.2.538-.313" fill="#fff" fill-rule="evenodd" data-name="Path 6133"/><path d="M139.813 25.667a2.28 2.28 0 0 0 .302-.306c.129-.15.279-.312.467-.458.373-.293.922-.483 1.513-.465.294.013.56.067.807.133.242.067.464.138.671.201a6.2 6.2 0 0 0 1.087.235l.218.069c.1-.045.194-.103.285-.152.098-.055.199-.116.296-.177a6.46 6.46 0 0 1-.32.061c-.096.01-.196.033-.295.036a3.061 3.061 0 0 1-.611-.017 5.068 5.068 0 0 1-.668-.153c-.235-.068-.494-.157-.783-.23a2.592 2.592 0 0 0-.223-.05 2.028 2.028 0 0 0-.235-.037 2.503 2.503 0 0 0-1.438.231 2.138 2.138 0 0 0-.68.543 2.134 2.134 0 0 0-.126.158l-.059.08-.046.066-.162.232" fill="#fff" fill-rule="evenodd" data-name="Path 6134"/><path d="M136.4 26.605c.126.064-.097.086-.12.088l.184-.008c.08-.001.185-.008.325-.018.072-.004.15-.01.234-.022.086-.009.182-.018.28-.038-.083-.004-.104-.005-.155-.013-.152.012-.358.031-.747.011" fill="#fff" fill-rule="evenodd" data-name="Path 6135"/><path d="M137.148 26.594c.354-.046.232-.059.088-.051-.146.005-.336.014-.088.051" fill="#fff" fill-rule="evenodd" data-name="Path 6136"/><path d="m133.212 26.322.575.034.602.028a2.105 2.105 0 0 0-.3-.086l-.198-.045-.183-.044c-.23-.055-.383-.096-.194-.094-1.148-.14-.933-.038-.302.207" fill="#fff" fill-rule="evenodd" data-name="Path 6137"/><path d="M132.104 26.327c.197.027.392.06.59.083-.098-.047-.245-.096-.59-.083" fill="#fff" fill-rule="evenodd" data-name="Path 6138"/><path d="M133.966 26.523c-.434-.03-.85-.062-1.272-.113.154.08.154.187.578.07-.116.076.142.028.694.043" fill="#fff" fill-rule="evenodd" data-name="Path 6139"/><path d="M134.703 26.67c.328.076.698.143.84.19.14.043.063.08-.534.068 1.132.11 1.563.018 1.489-.032-.079-.057-.66-.102-1.795-.226" fill="#fff" fill-rule="evenodd" data-name="Path 6140"/><path d="M139.855 26.199c.192-.214.353-.46.586-.728.15-.264.37-.503.648-.661-.101.063-.276.146-.44.292a2.135 2.135 0 0 0-.243.245 3.336 3.336 0 0 0-.208.273c-.117.168-.21.314-.275.414-.063.102-.096.16-.068.165" fill="#fff" fill-rule="evenodd" data-name="Path 6141"/><path d="M124.78 25.187c-.046.05.156.035.382.018.23-.014.49-.014.574.009a4.49 4.49 0 0 1 .372-.086 6.747 6.747 0 0 1 .775-.14 95.85 95.85 0 0 0-.226-.003l-.25.01a4.888 4.888 0 0 0-.264.016l-.17.015c-.067.007-.131.016-.194.025-.248.042-.484.07-.658.103-.175.032-.3.047-.34.033" fill="#fff" fill-rule="evenodd" data-name="Path 6142"/><path d="M125.736 25.214a8.743 8.743 0 0 0-1.96.772c.827-.37 1.38-.522 1.678-.617.303-.089.355-.134.282-.155" fill="#fff" fill-rule="evenodd" data-name="Path 6143"/><path d="M131.819 26.614c.709.1 1.414.142 2.137.162a17.603 17.603 0 0 1-2.535-.266c.132.04.265.069.398.104" fill="#fff" fill-rule="evenodd" data-name="Path 6144"/><path d="m120.619 28.878-3.104-.576.163-.11-.176.11 2.93.56 1.22.235.55.108.481.1-.444-.098-.509-.104-1.111-.225Z" fill="#fff" fill-rule="evenodd" data-name="Path 6145"/><path d="M125.378 31.397c-.175-.156-.136.006-.1.154.031.15.063.288-.083.116.04.062.078.124.115.185l.054.09.026.045.013.022.038.073c.022.041.043.084.068.12l.057.086.056.075.104.15c.134.196.252.406.343.59.004.003.007 0 .013.01l.018.04.035.094a20.883 20.883 0 0 1-.025-.096l-.011-.041c-.004-.011-.005-.008-.007-.013a7.764 7.764 0 0 0-.346-.87l-.023-.049-.064-.115a27.28 27.28 0 0 1-.062-.14l-.023-.058a7.16 7.16 0 0 0-.196-.468" fill="#fff" fill-rule="evenodd" data-name="Path 6146"/><path d="M126.305 34.161a3.3 3.3 0 0 0-.17-.914c.068.278.118.594.17.914" fill="#fff" fill-rule="evenodd" data-name="Path 6147"/><path d="m120.398 27.505-.24.061-.173.048-.103.031-.056.017-.024.008c-.029.01-.057.021-.095.038l-.057.024-.071.033-.186.092-.311.158.53-.159.36-.101a.289.289 0 0 0 .042-.079c.002-.001-.002-.002.004-.005l.025-.01.05-.023.101-.044.204-.089" fill="#fff" fill-rule="evenodd" data-name="Path 6148"/><path d="m119.992 27.749-.02.006a1.024 1.024 0 0 1-.188.18c-.047.037-.12.087-.179.13l-.268.17 1.077.262-1.07-.262.275-.174.096-.068c.032-.022.068-.046.086-.063.044-.036.093-.074.118-.101.035-.032.053-.056.073-.08" fill="#fff" fill-rule="evenodd" data-name="Path 6149"/><path d="m120.603 27.415-.205.09c.115-.03.175-.05.205-.09" fill="#fff" fill-rule="evenodd" data-name="Path 6150"/><path d="M128.381 25.432c-.463-.03-1.168.01-1.498.11-.17.04-.253.082-.188.11a.845.845 0 0 0 .218.04c.116.013.276.017.493.043.309-.063.22-.119.21-.177-.003-.03.014-.061.12-.086a2.39 2.39 0 0 1 .645-.04" fill="#fff" fill-rule="evenodd" data-name="Path 6151"/><path d="m121.998 27.039.995-.434.924-.411c-.078-.019-.496.094-.028-.179-.325.168-.621.345-.937.514l-.954.51Z" fill="#fff" fill-rule="evenodd" data-name="Path 6152"/><path d="m121.147 27.497.851-.458-.77.336c-.029.042-.056.083-.08.122" fill="#fff" fill-rule="evenodd" data-name="Path 6153"/><path d="M126.178 32.339c.134.19.243.423.317.66l.008.024.01.041.02.097a4.537 4.537 0 0 1 .062.688 4.375 4.375 0 0 0-.013-.685l-.013-.104-.01-.077a3.512 3.512 0 0 0-.39-1.005c-.027-.016-.05-.021-.103-.072-.045-.037-.08-.071-.092-.058-.006.006-.006.025.003.058a.724.724 0 0 0 .042.095l.008.023c.026.065.077.163.151.315" fill="#fff" fill-rule="evenodd" data-name="Path 6154"/><path d="m124.747 30.121.088.072c-.038-.061-.074-.103-.088-.072" fill="#fff" fill-rule="evenodd" data-name="Path 6155"/><path d="m123.025 38.709.115-.023c.003-.014.003-.026.008-.041l-.123.064Z" fill="#fff" fill-rule="evenodd" data-name="Path 6156"/><path d="m126.117 31.824-.102-.233c-.023-.054-.051-.104-.076-.151a2.258 2.258 0 0 0-.49-.62c.126.154.245.32.354.497.057.088.106.18.159.274l.084.169c.021.046.045.092.072.133l.05.085c.022.011.038.017.037.002a.109.109 0 0 0-.015-.038l-.02-.034-.053-.084" fill="#fff" fill-rule="evenodd" data-name="Path 6157"/><path d="M126.012 35.826c.13-.229.261-.501.361-.804l-.223.457c-.077.158-.147.294-.138.347" fill="#fff" fill-rule="evenodd" data-name="Path 6158"/><path d="m124.917 30.355-.059-.05c.086.15.085.122.06.05" fill="#fff" fill-rule="evenodd" data-name="Path 6159"/><path d="M124.917 30.355c.2.178.37.316.532.465a4.289 4.289 0 0 0-.614-.627.939.939 0 0 1 .082.162" fill="#fff" fill-rule="evenodd" data-name="Path 6160"/><path d="M121.47 40.712c.02-.1.397-.331.926-.602.53-.272 1.207-.594 1.858-.871.559-.416.54-.639.269-.69-.274-.057-.81.02-1.383.137 0 .042.01.082-.127.195-.137.112-.414.309-1.022.626.239-.05.955-.31 1.47-.52.513-.21.854-.334.391.027-.776.49-1.142.616-1.39.692-.252.07-.405.072-.836.196.392-.043-.116.258-.686.56-.569.303-1.198.603-.955.696.516-.2 1.025-.416 1.524-.647.049.036-.488.32-.04.201" fill="#fff" fill-rule="evenodd" data-name="Path 6161"/><path d="M125.175 37.331c.058-.06.121-.118.176-.18l.162-.184c-.407.382-.774.604-1.493.926-.69.538-.85.667-.872.751.399-.203.78-.427 1.14-.668.359-.241.701-.498.996-.78l-.11.135Z" fill="#fff" fill-rule="evenodd" data-name="Path 6162"/><path d="M126.468 35.117c.054.21-.008.614-.041.886-.038.24-.028.39.223.098.067-.184.126-.34.158-.475l.048-.185.028-.155c.034-.189.028-.31.025-.408-.017-.199-.045-.32-.058-.773-.023.61-.105.865-.123.937-.023.073-.02-.038-.018-.168.006-.13-.007-.282-.032-.294-.03-.013-.065.117-.184.524.077-.455.104-.869.1-1.255a4.656 4.656 0 0 1-.221 1.173l.022-.049.002-.01c.001 0 .001.002.003.002.042-.092.062-.122.027-.014.001.007-.003.035-.005.048.024.02.034.067.045.117-.217.641-.069.09-.045-.117-.007-.01-.013-.03-.022-.034a.057.057 0 0 0-.005.008 5.643 5.643 0 0 1-.127.562 4.433 4.433 0 0 1-.18.52c-.13.309-.33.617-.575.913.09-.085.168-.183.264-.287.076-.11.178-.227.25-.368.041-.07.089-.142.12-.222.034-.082.076-.151.11-.263.038-.105.081-.213.113-.333.016-.06.034-.12.053-.182l.045-.196" fill="#fff" fill-rule="evenodd" data-name="Path 6163"/><path d="M125.912 26.293c-.093.002-.096-.011-.108-.022-.175.065-.234.09.108.022" fill="#fff" fill-rule="evenodd" data-name="Path 6164"/><path d="M124.676 26.54c.09-.05.163-.102.305-.172.142-.07.36-.155.73-.234.332-.04.332-.016.266.021-.068.038-.202.09-.173.116.194-.07.562-.166.694-.217.07-.027.088-.05.008-.063a1.05 1.05 0 0 0-.2-.008l-.077.003-.102.007a2.935 2.935 0 0 0-.247.03l-.218.072c-.326.063-.68.142-1.029.241-.345.101-.686.217-.991.322-.614.21-1.119.373-1.014.31.332-.061.614-.113.93-.183.317-.068.664-.157 1.118-.245" fill="#fff" fill-rule="evenodd" data-name="Path 6165"/><path d="M125.34 29.947a6.728 6.728 0 0 1 .995 1.256c.045.076.092.152.132.231l.077.145.085.132-.026-.064c-.013-.028-.026-.055-.037-.084l-.033-.09-.02-.066c-.026-.09-.06-.176-.09-.264a6.094 6.094 0 0 0-.221-.52l-.05.102a3.844 3.844 0 0 0-.4-.548.991.991 0 0 0-.219-.198c-.098-.056-.115-.003-.194-.032" fill="#fff" fill-rule="evenodd" data-name="Path 6166"/><path d="M122.76 38.735c.056-.103.111-.204.163-.306-.32.27-.654.534-1.005.787.287-.155.57-.313.843-.481" fill="#fff" fill-rule="evenodd" data-name="Path 6167"/><path d="m120.138 39.829.044-.2c-.226.114-.456.226-.687.333.215-.042.43-.086.643-.133" fill="#fff" fill-rule="evenodd" data-name="Path 6168"/><path d="M32.554 24.096c.172-.173.364-.322.547-.483a5.524 5.524 0 0 0-.547.483" fill="#fff" fill-rule="evenodd" data-name="Path 6169"/><path d="M29.296 27.67c.01.038.02.077.028.117.022-.125.015-.175-.028-.116" fill="#fff" fill-rule="evenodd" data-name="Path 6170"/><path d="M50.883 43.037a7.586 7.586 0 0 0-1.487-.734c-.446-.156-.749-.19-.686-.086.113.078.225.15.331.238.81.106 1.4.344 1.842.582" fill="#fff" fill-rule="evenodd" data-name="Path 6171"/><path d="M2.978 40.196c.071.064.142.143.224.203l.183.04.178.025c.113.018.225.018.327.024a3.126 3.126 0 0 1-.912-.292" fill="#fff" fill-rule="evenodd" data-name="Path 6172"/><path d="M1.883 40.299c-.33-.383-.594-.8-.819-1.229.136.3.368.713.819 1.229" fill="#fff" fill-rule="evenodd" data-name="Path 6173"/><path d="M54.358 12.804c.239-.177.476-.37.731-.535l-.222.09-.177.084a5.32 5.32 0 0 0-.247.127c-.123.068-.168.106-.175.13-.015.049.118.037.09.104" fill="#fff" fill-rule="evenodd" data-name="Path 6174"/><path d="M92.496 46.509a31.564 31.564 0 0 0-2.104-.292c1.008.198 1.822.428 2.104.292" fill="#fff" fill-rule="evenodd" data-name="Path 6175"/><path d="M32.507 26.894c.24-.305.337-.445.3-.468-.267.303-.39.498-.3.468" fill="#fff" fill-rule="evenodd" data-name="Path 6176"/><path d="M87.983 45.976c.142.036.283.063.43.095.607.036 1.227.067 1.98.146-.745-.148-1.594-.275-2.41-.241" fill="#fff" fill-rule="evenodd" data-name="Path 6177"/><path d="M134.492 6.15c-.005.033-.006.067-.014.1.023-.016.023-.052.014-.1" fill="#fff" fill-rule="evenodd" data-name="Path 6178"/><path d="m148.562 19.047-.082-.02-.045-.01-.026-.007-.05-.01a1.398 1.398 0 0 0-.452-.015c-.353.056-.803.16-1.256.272l.874-.192c.182-.035.386-.091.577-.087l.145.008c.048.008.098.013.147.024l.088.018.08.02" fill="#fff" fill-rule="evenodd" data-name="Path 6179"/><path d="M110.13 45.812c.467-.33.064-.068 0 0" fill="#fff" fill-rule="evenodd" data-name="Path 6180"/><path d="M112.8 44.526c-.069.113-.12.201-.097.244a.522.522 0 0 1 .098-.244" fill="#fff" fill-rule="evenodd" data-name="Path 6181"/><path d="m81.546 46.575-.055.003c.19.025.158.02.055-.003" fill="#fff" fill-rule="evenodd" data-name="Path 6182"/><path d="m110.886 45.386-.633.38a6.16 6.16 0 0 0 .234-.128c.102-.062.235-.142.399-.252" fill="#fff" fill-rule="evenodd" data-name="Path 6183"/><path d="M110.739 45.384c.16-.114.288-.203.404-.295.033-.072-.022-.04-.404.295" fill="#fff" fill-rule="evenodd" data-name="Path 6184"/><path d="M109.448 46.228c.284-.156.55-.313.805-.463-.1.053-.146.069-.124.047-.143.09-.34.228-.68.416" fill="#fff" fill-rule="evenodd" data-name="Path 6185"/><path d="M94.852 8.834c.036.025.08.051.118.08.315.116.4.156.355.127a4.174 4.174 0 0 0-.473-.207" fill="#fff" fill-rule="evenodd" data-name="Path 6186"/><path d="M33.96 44.02c.018.005.032.007.05.014l-.056-.035.006.02Z" fill="#fff" fill-rule="evenodd" data-name="Path 6187"/><path d="M32.29 44.036c.356-.191.668-.242.948-.237.14.009.28.023.398.06.12.033.21.076.318.14a1.699 1.699 0 0 0-.15-.35 1.968 1.968 0 0 0-.255-.338 3.557 3.557 0 0 0-1.26.725" fill="#fff" fill-rule="evenodd" data-name="Path 6188"/><path d="M44.338 20.62a17.023 17.023 0 0 0-1.719-.283c1.057-.13 1.979-.052 2.423-.022.222.017.329.015.279-.022-.05-.035-.253-.121-.661-.234-.084.14-.55.15-1.208.154-.658.001-1.512.003-2.362.086-.212.024-.425.041-.632.073-.208.032-.412.065-.61.097a9.11 9.11 0 0 0-1.081.267c-.625.198-1.028.418-1.039.576-.185.038-.37.082-.556.124-.185.045-.367.095-.552.144.307-.11.34-.17.647-.269-.546.118-.904.26-1.171.405-.27.14-.445.303-.637.466-.374.348-.812.71-1.987 1.47-.203.137-.392.26-.556.363-.165.1-.29.194-.385.245-.185.107-.215.08.023-.164l-.4.382c-.134.125-.254.266-.382.398a12.65 12.65 0 0 0-.724.825c-.434.464-.413.278.029-.183a16.04 16.04 0 0 0-1.548 1.968l-.038.058-.025.04-.05.079-.087.149-.006-.025c-.016.09-.05.222-.096.382l-.075.255c-.014.046-.028.09-.04.135-.019-.002-.039-.023-.058-.033a2.44 2.44 0 0 0-.213-.144c-.171-.214-.12-.184-.047-.138.075.05.165.132.126.043a2.658 2.658 0 0 0-.366-.232c-.034-.02-.072-.035-.11-.052l-.059-.027-.03-.014-.054-.03c-.073-.038-.146-.078-.22-.114l-.229-.093c-.327-.244-.113-.23.356-.053l.178.088.047.025.025.013.01.004.044.02c.057.022.113.05.166.084.108.068.207.156.295.263-.134-.337-.18-.453-.24-.525a.213.213 0 0 0-.1-.067l-.037-.017-.111-.059c-.076-.037-.15-.082-.238-.111l-.573-.22-.352-.105c-.126-.037-.257-.087-.404-.116l-.468-.114-.545-.097c-.195-.036-.405-.047-.63-.076-.227-.025-.468-.024-.729-.039a7.623 7.623 0 0 1 1.965.05c-.6-.29-1.339-.41-2.182-.366-.847.047-1.796.244-2.892.674.139-.034.481-.162.897-.247.204-.054.43-.085.65-.114a4.63 4.63 0 0 1 .633-.046 5.98 5.98 0 0 1 .273 0c.084.006.16.014.226.024.132.018.222.041.253.069.032.028.005.06-.097.098-.05.019-.12.04-.21.062-.09.02-.199.05-.33.087-.15.022-.317.037-.492.08-.175.045-.365.09-.566.161a5.044 5.044 0 0 0-1.326.718c-.03-.044-.113-.038-.241.01a3.243 3.243 0 0 0-.49.293c-.1.068-.2.16-.31.252a3.21 3.21 0 0 0-.333.318c-.11.122-.233.242-.344.384-.114.14-.224.291-.328.45a8.288 8.288 0 0 1-.173-.247 4.903 4.903 0 0 0-.233.415l-.023.047c-.008.014.003-.003 0 .003v.005l-.002.02-.003.038c-.002.051 0 .101.005.153l.018.159.009.09.003.049.002.026c.001.01.001.019-.003.018-.013.016-.042.026-.088.032l-.377-.141a17.682 17.682 0 0 0-.727-.146c-.02-.01-.041-.019-.058-.029a.286.286 0 0 1-.026-.032.209.209 0 0 1-.034-.075.502.502 0 0 1-.015-.079l-.001-.019v-.009l-.014-.014-.055-.054c-.598-.197-.803-.234-.813-.204-.01.03.173.129.338.232.166.101.314.201.245.226-.07.027-.354-.031-1.069-.213a13.416 13.416 0 0 0-2.807-.594c-.94-.09-1.947-.114-3.199.004-.735-.022-.676-.059-.495-.113.18-.052.483-.104.215-.132-.437.096-.868.204-1.291.33-.318.033-.225-.048-.177-.088-.536.115-.541.19-.631.273-.087.087-.254.168-1.077.377-.19.202-1.057.263-2.127.533a7.787 7.787 0 0 0-1.67.62c-.55.287-1.07.676-1.427 1.143-.117.083-.17.108-.188.097-.018-.012-.002-.064.026-.122.054-.116.147-.274.045-.252-.286.3-.505.593-.675.861a4.938 4.938 0 0 0-.388.734 4.413 4.413 0 0 0-.306 1.11c-.026.161-.025.317-.036.48-.001.164.008.335.024.525.043.378.13.836.357 1.424.053.353.15.696.258 1.038.12.336.253.672.425.992a1.88 1.88 0 0 1-.15-.414c-.02-.093-.017-.144.007-.16.049-.03.172.081.349.27.358.375.979 1.04 1.708 1.43-.358-.385-.571-.762-.717-1.008.138.154.291.292.444.427l.238.19c.083.052.156.114.244.156.337.189.714.302 1.112.369.277.102.02.164-.409.157.17.027.332.048.46.052.428.142.532.217.434.278-.097.057-.391.093-.744.083a3.634 3.634 0 0 1-.838-.502c-.329-.075-.649-.229-.869-.317-.228-.086-.372-.126-.384-.014.038.028.082.064.133.106l.178.134c.12.097.289.223.47.332-.192-.07-.318-.128-.261-.044.063.09.382.25.859.372.084.095.172.179.263.265.092.089.184.165.28.246.064-.026.127-.05.187-.081.601.172 1.181.27 1.748.357.567.086 1.123.158 1.675.233l.891-.056c.302-.02.59-.045.868-.06.55-.026 1.09-.021 1.52.22.107.061.217.136.305.237.1.093.169.217.22.35.027.071.046.13.072.225.025.088.052.184.088.284a1.9 1.9 0 0 0 .313.548c.13.16.275.312.442.442.16.14.34.256.527.37.379.216.8.393 1.257.53-.485-.05-.574-.002-.554.119.019.119.154.282.08.4-.241-.172-.546-.334-.89-.547-.34-.212-.729-.476-1.082-.867a2.5 2.5 0 0 1-.473-.742 3.125 3.125 0 0 1-.13-.433l-.02-.089-.016-.057a.907.907 0 0 0-.256-.431 1.415 1.415 0 0 0-.353-.25.86.86 0 0 1 .174.117c.037.03.062.067.082.09.035.057.042.092.032.114-.019.04-.092.027-.15.007.11.068.217.164.276.292.015.031.026.064.04.098l.008.026.013.053.03.12.036.14c.016.052.031.105.05.156.035.104.079.205.128.302.097.192.232.379.348.515.123.143.254.279.395.394.276.241.576.429.879.582-.049.036-.032.092.038.16.035.035.082.074.141.116.06.04.13.082.208.128.317.178.779.36 1.258.533-.308-.32.402-.162 1.358-.06.486.054 1.007.09 1.51.132.5.042.981.067 1.344.062.038.077-.031.148-.332.174-.3.03-.828.005-1.699-.104.945.266 1.587.2 2.223.11.637-.091 1.258-.193 2.215-.038-.434-.002-.666-.034-.84.035.509-.043 1.38-.04 2.055-.038.675.004 1.157.02.867.107-.145.012-.29.021-.436.028.726-.021 1.647-.09 2.615-.26a15.304 15.304 0 0 0 2.886-.784c.45-.179.877-.366 1.255-.569.19-.1.37-.197.534-.3.167-.098.322-.197.451-.286.52-.354.864-.57.926-.694.022.02-.02.153-.072.304-.054.149-.12.312-.172.379.585-.514 1.244-.94 2.045-1.14.399-.09.826-.152 1.266-.078.22.037.437.105.642.16.206.055.406.098.608.13-.26.059-.1.432-.118.7-.011.132-.076.24-.294.256-.11.007-.259-.01-.454-.068-.192-.053-.444-.168-.648-.248.201.127.59.404 1.077.613.49.213 1.07.399 1.83.519a1.474 1.474 0 0 1-.623-.427c-.119-.156-.098-.264.217-.188.405.206.692.323.917.406.225.083.39.13.57.178.357.087.774.19 1.874.369-.357-.043-.33-.187-.08-.313.253-.127.713-.24 1.268-.241-.172.079.105.499-.309.554a13.548 13.548 0 0 0 2.76-.773c-.332.115-.348.219-.191.305.155.084.484.137.813.125-.16-.008.46-.16 1.137-.359.341-.097.691-.19.994-.257.303-.067.561-.108.718-.138-.34.002-.682.031-1.039.084.694-.16 1.181-.244 1.614-.32.217-.04.406-.06.593-.1.184-.032.36-.048.54-.077.356-.026.73-.048 1.182.045.455.086.988.277 1.646.649-.185-.046-.457-.01-.516.132-.058.143.08.374.727.78.187.03.487.082.877.147.39.068.87.152 1.404.226.532.081 1.115.129 1.733.203.616.073 1.26.161 1.91.282.15.09.302.176.455.263.669.119 1.347.184 2.018.267a27.1 27.1 0 0 1-1.364.082c-.558.004-1.207.003-1.876-.038a23.888 23.888 0 0 1-2.011-.202 10.69 10.69 0 0 1-1.786-.417c.516.32.587.385.724.477.069.046.157.096.341.17.092.039.206.084.353.14.14.051.31.11.52.18.275.162.03.138-.348.045a7.518 7.518 0 0 1-.635-.193c-.22-.07-.409-.157-.538-.209.325.158.679.3 1.012.43a33.115 33.115 0 0 0 2.954.958c-.026-.082.157-.095.443-.072.143.011.312.032.494.056l.575.063c.784.089 1.565.183 1.51.046-.73-.097-1.464-.185-2.197-.294-.365-.064-.732-.121-1.097-.191a35.47 35.47 0 0 1-1.094-.229c-.044-.17.632-.173 1.658-.091.257.019.535.049.83.082a21.98 21.98 0 0 1 1.934.246c.342.053.691.106 1.041.167.35.111.197.222-.04.318-.236.094-.558.171-.537.224.193-.02.876.04 1.543.098.666.06 1.317.118 1.445.166-.41.013-.82.022-1.231.024.79.153 1.455.118 2.152.095.698-.025 1.429-.038 2.386.128.66.042 1.991.39 2.105.207-1.101-.32-1.288-1.372-.592-1.628.112.013.958.082 1.874.13.915.053 1.901.07 2.28.11.547.063.17.277-.239.472-.408.2-.846.382-.371.456.033-.084.623-.244.868-.309.35-.008.286.063.322.108.036.045.173.069.924-.064.206-.311 3.044-.557.666-.37.72-.174 1.106-.251 1.528-.322.21-.041.43-.078.7-.141.136-.033.285-.07.452-.114.159-.044.384-.119.492-.144-.05-.02-.075-.036-.077-.07-.002-.032.02-.078.069-.117.027-.021.051-.042.102-.066l.162-.078.408-.183c.303-.134.651-.294 1.025-.432a6.125 6.125 0 0 1 1.14-.303c-.079.084.26.15.42.187a13.637 13.637 0 0 1 2.011.032 17.81 17.81 0 0 1 1.715.26c1.1.208 2.182.432 3.574.568.248.1 1.582.309 1 .386.404-.018.78-.086 1.637-.023 1.636.397-1.914-.119-.676.298.124-.164 2.235-.057 3.463-.07-.354-.298-2.812-.275-4.044-.274.027-.37 2.184-.576 5.094-.522 2.307.078.98.313 1.384.29 2.16.182 3.092.063 3.925-.034.834-.103 1.572-.17 3.35-.02 1.414.235.065.474.378.644-1.883.084-2.882-.209-4.154-.257.52.063 1.042.124 1.563.18-.6.059-1.86.06-2.54-.05.593.138 2.425.26 4.53.29 1.052.012 2.173.004 3.241-.075a11.96 11.96 0 0 0 1.544-.204c.489-.095.947-.265 1.33-.445.512-.339 1.317-.983.86-.794-.292.195-.585.39-.894.56-.472.139-.059-.146.298-.41.354-.272.663-.518.087-.212.555-.414 1.097-.9 1.641-1.467a20.29 20.29 0 0 0 1.659-1.948c.139-.048.279-.1.419-.158-.046-.001-.24.245-.473.539-.23.292-.508.626-.659.854.173-.262.531-.616.882-1.056.176-.217.352-.456.507-.7.18-.29.338-.601.463-.89.349-.074.668-.145.901-.266-.329.017-.697.022-1.06.049-.129.216-.266.443-.41.673.104-.25.207-.52.314-.805.207-.058.438-.1.67-.155.228-.051.505-.113.667-.158l1.023-.283.525-.142c.173-.045.348-.09.523-.137a31.61 31.61 0 0 1 1.067-.265c-.41-.024-.502.005-.65.045-.073.02-.16.042-.306.055a2.87 2.87 0 0 1-.265.013c-.057.001-.1-.002-.171-.003a6.636 6.636 0 0 1-.22-.007c.386.055-.005.182-.613.307a22.65 22.65 0 0 1-1.01.176l-.783.115c-.26.039-.502.069-.698.108-.152.35-.251.597-.25.664 0 .07.104-.042.324-.364-.135.182-.266.377-.396.575l-.196.298-.026.039-.016.02-.032.042-.062.081c-.166.219-.314.425-.484.644-.327.417-.728.869-1.375 1.28.048.017.173-.047.164-.002-.01.043-.147.21-.673.624-.03.06-.121.174-.182.246l-.075.05.064-.037c-.037.047-.04.052.025-.014.278-.166.505-.305.618-.339-.184.302-.71.807-1.315 1.225-.3.217-.615.406-.894.571-.28.164-.493.266-.655.345-.378.09-.306.04-.195-.024.112-.063.25-.152.044-.136a6.623 6.623 0 0 1-1.02.37c-.068-.088-.626-.105-.93-.159-.149-.023-.236-.054-.16-.09.04-.017.116-.04.245-.064l.544-.097c-.571.062-1.17.092-1.771.109-1.069-.078-2.555-.146-3.481-.097-.87-.07-2.218.123-1.448.006-.972-.006-1.946-.022-2.92-.045l-.024-.051c-1.44-.107-2.923-.141-4.467-.227-1.538-.087-3.14-.207-4.734-.56a21.09 21.09 0 0 1-1.517-.134 39.087 39.087 0 0 1-2.042-.326c-.103-.07-.205-.143-.312-.213-.333-.026-.76-.071-1.217-.101a19.474 19.474 0 0 0-1.394-.045c-.923-.004-1.797.134-2.06.282a3.73 3.73 0 0 0-.698.01l-.796.08c-.067.004-.136.012-.206.015l-.23.02c-.085 0-.161.037-.243.056l-.314.091c-.083.024-.167.05-.253.072-.343.095-.705.193-1.078.285-1.487.374-3.136.655-4.198.7l-.061.23c-1.465.109-2.877.227-4.719.265l.108.2c-.8.06-1.825-.026-2.955-.186-1.13-.161-2.364-.389-3.597-.61.179-.034.802.086 1.241.199a20.296 20.296 0 0 0-1.102-.298c-.37-.098-.746-.182-1.124-.256-.379-.076-.763-.134-1.141-.214-.38-.073-.762-.143-1.138-.224a21.093 21.093 0 0 1-2.194-.564 6.56 6.56 0 0 1-1.82-.922c-.622-.26-1.045-.541-1.471-.827.059.032.113.058.162.077a6.272 6.272 0 0 0-.26-.144 10.114 10.114 0 0 0-.9-.552l.754.478c-.501-.257-1.343-.63-2.25-.777a15.558 15.558 0 0 0-.346-.283c-.075-.013-.136-.023-.215-.026a2.945 2.945 0 0 0-.49-.069c-.105.004-.154.023-.16.05-.01.055.15.139.376.25-.227-.015-.443.005-.642.019-.2.012-.376.042-.531.075-.354-.159-.95-.067-1.528.096-.58.16-1.135.363-1.588.302-.112.078-.396.194-.758.306-.363.113-.81.222-1.264.302-.454.082-.915.14-1.29.198-.375.055-.672.119-.778.211-.026-.05-.257-.075.167-.073-.88-.046-1.71-.136-2.474-.161-.103-.107-.203-.22-.3-.33-.609.001-1.234-.055-1.844-.172a4.353 4.353 0 0 1-.569-.397 1.724 1.724 0 0 1-.286-.28c-.046-.064-.012-.09.101-.072.116.016.298.073.543.14a5.745 5.745 0 0 1-.42-.167c-.141-.062-.296-.132-.457-.19a3.43 3.43 0 0 0-.845-.194 5.824 5.824 0 0 0-1.072-.008c-.299.033-.58.077-.937.188a5.694 5.694 0 0 0-1.328.635l.04-.211c-.21.097-.44.23-.663.375l-.328.217-.317.203c-.211.129-.42.243-.608.33-.19.081-.356.141-.485.153-.46.092-1.222.324-2.216.522-.991.206-2.217.37-3.55.42a29.331 29.331 0 0 1-4.17-.154c-.35-.035-.701-.08-1.048-.124l-.516-.066-.255-.034-.24-.037a8.047 8.047 0 0 1-1.728-.46c.162.185.132.226-.022.19a2.905 2.905 0 0 1-.676-.332 5.039 5.039 0 0 1-.68-.525 1.731 1.731 0 0 0-.226-.187c-.064-.043-.12-.064-.17-.047l-.019-.097a.474.474 0 0 1-.014-.093.382.382 0 0 1 .008-.136c.025-.068.061-.057.194.057a.647.647 0 0 1-.1-.16.629.629 0 0 1-.03-.089c-.01-.039-.022-.1-.034-.167l-.028-.149a3.181 3.181 0 0 0-.131-.459 2.27 2.27 0 0 0-.13-.278l-.166-.25a2.84 2.84 0 0 0-.817-.767 3.554 3.554 0 0 0-.837-.379 5.517 5.517 0 0 0-1.406-.225 8.861 8.861 0 0 0-1.256.049c-.28-.144.553-.136.302-.228-.205.01-.809.044-1.061-.048-.249-.091.372-.074.775-.096-1.29-.085-1.969-.045-2.368.047-.398.094-.526.254-.642.414-.299-.09-.542-.18-.755-.26-.206-.087-.385-.158-.54-.238-.082-.035-.15-.082-.228-.116a2.528 2.528 0 0 0-.109-.063.895.895 0 0 1-.115-.068c-.08-.053-.166-.101-.253-.155a7.62 7.62 0 0 0-.27-.174l-.143-.306a.506.506 0 0 1-.055-.209c.021-.07.139.092.637.575-.132-.142-.404-.435-.663-.855a6.192 6.192 0 0 1-.67-1.484 5.494 5.494 0 0 1-.217-1.43c-.011-.381.018-.63-.046-.666.033-.053.058-.144.105-.247l.063-.167a4.08 4.08 0 0 0 .075-.176 7.43 7.43 0 0 1 .28-.553c.261-.35.52-.584.75-.77a6.49 6.49 0 0 1 .652-.455c.43-.254.87-.5 1.75-.838-.17.045-.338.094-.504.146.28-.3.654-.455 1.137-.582.485-.124 1.077-.22 1.84-.38l-.038.043c.442-.05.804-.078 1.096-.103.29-.024.513-.038.694-.05.362-.03.55-.043.737-.07.188-.015.374-.037.732-.025.358.011.89.05 1.75.208l-.169-.23c.184-.21.971-.067 1.934.225.481.148 1.007.33 1.535.508.264.092.529.177.79.26l.391.117c.171.041.335.122.509.081-.165.008-.31-.09-.457-.152l-.345-.17a1.899 1.899 0 0 1 .346.085l.088.03.183.066c.015.005.03.015.047.016l.05.002.1.005c.069.004.134.01.197.015.104.01.21.034.314.062.113.031.186.057.365.117.157.053.32.13.495.22.347.177.732.392 1.113.615.02-.001.027-.03.039-.05l.032-.064.066-.132.136-.276.279-.575c.088-.195.19-.37.295-.537l.043-.065.024-.03.043-.054.081-.104c.071-.069.039.002-.019.123l-.046.1c-.038.068-.074.154-.11.234a3.783 3.783 0 0 0-.17.499c.031-.076.058-.152.089-.222l.093-.2.099-.18c.017-.032.03-.051.053-.09l.026-.035a5.55 5.55 0 0 1 .175-.228l.222-.275c.1-.123.08-.168.04-.207-.039-.04-.1-.07-.075-.178a.465.465 0 0 1 .036-.098 1.15 1.15 0 0 1 .094-.124c.04-.048.09-.104.151-.168.062-.063.148-.123.241-.197.185-.041.146.104.194.168.05.067.164.036.71-.223.075-.016.172-.07.305-.12.13-.053.283-.133.468-.197.091-.032.185-.082.29-.11l.325-.102c.228-.053.475-.117.735-.14a4.012 4.012 0 0 1 1.587.117c.123.044.25.08.365.13l.33.171c.055.026.1.068.147.101l.079.058c.045.032.09.06.134.094.176.136.336.298.485.49-.253-.37-.516-.599-.536-.67-.01-.037.038-.042.166.014.13.06.331.178.613.466.306.321.654.739 1 1.2.039-.012.078-.024.113-.028.018.008.036-.03.054-.06l.053-.091.224-.374.488-.79.262-.406c.091-.13.182-.271.276-.398l.14-.192.068-.092.048-.06.191-.239c.509-.63.999-1.2 1.286-1.702.156-.116.232-.141.257-.126.376-.434 1.057-1.078 1.759-1.616.178-.131.346-.272.518-.388l.48-.341c.304-.202.545-.382.686-.498.324.044.879-.143 1.563-.38.684-.234 1.503-.519 2.31-.704 1.627-.386 3.205-.37 3.161-.032a13.897 13.897 0 0 1 2.625.38l.268.068c.112.028.222.064.333.097.22.063.442.137.663.213l-.128.029 1.102.396c.246-.66.453-1.247.643-1.72l.14-.342.03-.07.02-.051.039-.1.142-.367c.175-.459.292-.806.417-1.153.317-.433.166-.066.174-.01.466-.7.869-1.21 1.212-1.629.346-.418.634-.749.915-1.063.28-.317.55-.617.878-.963.327-.348.716-.731 1.262-1.182.122.01.24.016.36.032.073-.06.195-.138.357-.232.168-.084.372-.193.618-.291a10.16 10.16 0 0 1 1.85-.57 14.84 14.84 0 0 1 2.378-.288 18.97 18.97 0 0 1 2.472.048c-.038.018-.106.045-.352.044.243.01.502.055.766.094.261.054.528.109.792.19a9.003 9.003 0 0 1 1.558.622 10.641 10.641 0 0 1 1.746 1.12l.123.094.135.109.269.218.526.458.258.227c.085.069.172.169.252.19.261-.227.533-.455.792-.672l.195-.15c.064-.05.13-.103.185-.131.108-.064.25-.155.294-.172a6.4 6.4 0 0 1 .731-.324c.453-.17.827-.268 1.092-.427.357-.009.72.026 1.074.12.09.023.178.045.264.079.088.029.176.06.26.099l.13.055.125.063.063.032c.02.01.04.02.072.042l.171.113-.153-.119c-.055-.045-.078-.055-.115-.08-.067-.043-.126-.088-.186-.12a4.54 4.54 0 0 0-.301-.172c-.166-.097-.273-.14-.32-.18-.098-.077.018-.082.195-.068.175.016.406.07.522.084.117.013.13-.039-.158-.216.203.084.41.205.607.346.2.147.39.318.556.508.33.375.583.814.653.993.043.058.049.085.008.09-.016.022-.142-.123-.42-.443a8.636 8.636 0 0 0-.206-.3c-.097 0-.073.1.054.31.124.206.355.532.614.922.03.001.056.007.083.012.014.003.028.005.04.01l.02.005.01.003c.003 0 .006-.01.01-.014l.162-.28.358-.613c.249-.425.51-.85.765-1.212l.096-.133a18.3 18.3 0 0 1 .073-.098c.044-.06.09-.116.132-.169.086-.105.164-.198.234-.27.138-.144.234-.214.263-.174a15.117 15.117 0 0 1 1.998-2.095c.149-.13.298-.257.447-.381.3-.247.602-.486.913-.709a13.69 13.69 0 0 1 4.01-2.022c.71-.209 1.43-.358 2.156-.447.18-.02.363-.03.545-.045l.271-.023.273-.003.543-.008c.181.005.361.02.542.027.36.008.716.07 1.073.107l.529.094.264.048.26.064a13.01 13.01 0 0 1 2.034.65l-.247-.274-.26-.26c.321.106.63.243.943.372.307.143.614.283.911.446.222.151.342.3.259.31-.043.008-.135-.023-.3-.087-.164-.064-.392-.18-.716-.326.305.23.844.472 1.322.666.472.2.88.356.919.338.563.43.75.647.76.702.006.06-.174-.031-.402-.153-.455-.247-1.12-.593-.768-.36.326.202.64.42.945.65-.06-.063-.12-.128-.182-.188.41.228.648.344.946.54.293.201.656.48 1.22 1.132.166.218.257.364.309.463a.73.73 0 0 1 .05.118.712.712 0 0 1 .033.096c.02.1-.028.088.173.38-.01.007.02.061.114.199.092.143.25.372.49.725l.298.474.146.235.037.06.018.028.02.013.077.054c.396-.37.85-.775 1.276-1.124.109-.072.218-.163.328-.214l.16-.085.09-.04c.12-.053.245-.102.372-.143-.15.006-.302.022-.453.045-.056-.001-.203.057-.315.093-.06.025-.117.055-.175.08l-.086.04-.084.047c.173-.16.35-.278.522-.376.11-.061.222-.119.331-.164.218-.094.417-.152.558-.195.141-.04.209-.062.178-.088a.355.355 0 0 0-.132-.034 2.382 2.382 0 0 0-.33-.007c.093-.002.2-.01.326-.016.121 0 .253-.014.398-.015.29-.003.626.013.994.073l.28.055.29.075.295.095.15.057.098.037c.04.015.079.034.118.053.317.134.636.333.97.556.333.222.676.46.996.693l.044-.03c.01-.024.016-.058.024-.086l.046-.181.097-.368c.066-.246.137-.494.208-.74l.11-.362.122-.344a99.37 99.37 0 0 1 .178-.413l.025-.052.05-.103a7.675 7.675 0 0 1 .922-1.437c.08-.104.166-.196.246-.289.08-.092.17-.185.249-.268.161-.167.312-.31.45-.432.277-.243.503-.392.627-.461a4.905 4.905 0 0 1 1.981-1.117 5.784 5.784 0 0 1 2.542-.135c-.224-.056-.403-.161-.322-.226.041-.034.15-.053.352-.05.1.003.225.018.376.04.149.03.325.066.527.13-.098.052-.12.109-.086.17.01.015.017.029.04.046.026.018.052.037.084.057.064.04.146.088.244.137l.16.079c.058.03.12.064.183.099.13.066.273.145.43.23.311.169.671.365 1.036.574.01-.011.027-.007.032-.03l.016-.066.032-.134.067-.275.148-.568c.103-.385.21-.768.355-1.116.016-.044.036-.087.054-.13l.028-.064.024-.053c.025-.054.053-.106.08-.158a4.4 4.4 0 0 1 .169-.29c.115-.179.234-.331.35-.446-.19.226-.17.083-.03-.236.072-.16.173-.356.301-.579.13-.225.272-.457.422-.679.296-.445.621-.837.777-1.054.159-.212.127-.28-.27-.009.245-.244.39-.349.472-.39.082-.042.102-.02.117.012.031.067.036.152.462-.116l.22-.198a82.1 82.1 0 0 0 .232-.188l.246-.178a7.286 7.286 0 0 1 1.4-.76 6.893 6.893 0 0 1 2.584-.511c.894.015 1.78.205 2.623.604.84.389 1.598.949 2.202 1.639.05-.003-.002-.144.002-.214.005-.07.087-.089.39.204.316.618.5 1.28.567 1.927.029.086.061.157.094.221.015.033.03.063.047.092l.024.044.034.08c.041.097.073.19.11.277l.053.133c.015.046.028.094.04.143.026.099.056.2.065.332.013.129.021.276.019.458-.003.362-.04.857-.152 1.614.047-.237.103-.524.144-.637.041-.115.074-.055.064.35l-.023.25.028.013.054-.03.109-.06.22-.122.222-.122.237-.124c.315-.17.642-.329.971-.493.323-.13.651-.289.975-.358l.159-.039.158-.027c.106-.016.21-.044.317-.05.846-.112 1.706-.013 2.45.311.371.165.708.379 1.004.66.299.281.566.615.783.975.216.361.377.752.466 1.14.027.097.035.193.05.29.013.035.004.127.003.198l-.004.113-.002.056c-.004.02.01.032-.02.065l-.255.347-.127.173-.382.327-.76.654-1.543 1.217.506-.056.32-.018.158-.008c.043-.001.068.001.103.002l.195.006c.18.024.3.06.327.107.04.046.038.098.004.151a.608.608 0 0 1-.149.163 2.514 2.514 0 0 1-.226.161l-.063.04-.031.02c-.008.006-.034.018.004.007.047-.01.096-.02.133-.033.041-.012.08-.024.113-.037.276-.102.485-.215.756-.327.266-.111.575-.224.961-.332.195-.058.395-.1.624-.164.223-.05.484-.173.736-.277l.047-.02.042-.013.084-.024.167-.05.168-.048c.057-.018.101-.009.152-.015l.298-.012a.3.3 0 0 1 .058 0l.046.005.093.007c.246.018.491.068.73.13.477.132.927.344 1.291.63.36.29.627.647.77 1.039a2.244 2.244 0 0 1 .113.936l-.01.082c-.004.067-.007.111-.02.17-.026.11-.046.219-.076.331l-.13.35-.157.37a33.958 33.958 0 0 1-.719 1.537l-.186.37c-.021.077-.035.154-.069.265l.192-.047a2.51 2.51 0 0 1-.178.035l.06-.183c.018-.054.013-.073.057-.146l.162-.284c.085-.146.126-.205.134-.193.007.012-.018.088-.066.21l-.04.099c-.01.031-.041.085-.028.094a.655.655 0 0 1 .009.162c.342-.105.788-.229 1.239-.341-.587.129-.49.054-.29-.06.207-.115.503-.253.471-.304.241-.04.49-.076.728-.102.239-.023.477-.063.678-.026.051.007.101.018.15.03a.929.929 0 0 1 .076.022l.042.015a2.923 2.923 0 0 1 .33.152l.172.096c.434.248.74.572.984.978.13.057.302.238.453.545.08.155.147.335.245.573.026.061.051.122.088.195.029.066.08.151.128.231.065.09.127.18.24.275.026.023.052.045.08.066.03.02.063.041.097.06a.896.896 0 0 0 .204.093 1.091 1.091 0 0 0 .872-.067c.22-.122.294-.204.368-.257a1.325 1.325 0 0 1 .322-.195c.198-.085.401-.112.474-.18a1.43 1.43 0 0 0-.404.059c-.12.037-.233.091-.331.164.08-.101.138-.163.153-.217.016-.05-.009-.09-.071-.115a.574.574 0 0 0-.29-.008c-.125.02-.274.088-.454.152a.469.469 0 0 1-.277.016.397.397 0 0 1-.198-.137c-.081-.122-.092-.277-.1-.416-.004-.282.028-.504.146-.487-.187-.287-.364-.653-.616-1.02a4.233 4.233 0 0 0-.198-.278 2.27 2.27 0 0 0-.109-.138 4.32 4.32 0 0 0-.969-.896 5.197 5.197 0 0 0-.904-.476l-.103-.037-.052-.017-.026-.01a1.328 1.328 0 0 0-.823-.063l-.065.018-.034.01c-.004 0-.013.006-.014.003l.006-.015a1.317 1.317 0 0 0 .11-.363 1.477 1.477 0 0 0-.029-.563c.003-.012.006-.024.01-.034.002-.013.005-.01.008-.03a.627.627 0 0 1 .017-.069c.01-.033.02-.04.03-.032.018.01.031.13.048.158.028.1.052.2.112.105-.02-.04-.033-.094-.05-.14-.008-.048-.015-.111-.021-.167l-.028-.179a5.677 5.677 0 0 0-.175-.792 4.396 4.396 0 0 0-.393-.928 4.446 4.446 0 0 0-.782-.985c.066.03.124.074.187.112a4.762 4.762 0 0 0-1.275-.845 5.61 5.61 0 0 0-1.28-.413c-.103-.025-.21-.036-.313-.053a3.166 3.166 0 0 0-.312-.038l-.154-.012-.078-.007-.043-.001-.164-.005c-.2.002-.39.023-.566.072-.174.05-.332.12-.479.198l-.214.118c-.07.037-.14.077-.22.087-.02.005 0-.007.01-.015l.034-.025.065-.05.13-.103c.085-.07.167-.144.243-.223.152-.158.286-.34.357-.545.029-.069.045-.144.062-.22l.015-.118c.003-.048 0-.125 0-.188 0-.02.002-.028 0-.056l-.01-.087a80.867 80.867 0 0 1-.02-.177c-.01-.12-.039-.235-.06-.355-.022-.121-.057-.236-.09-.355-.03-.121-.074-.236-.116-.354l-.02.242c-.01.08-.023.161-.035.24-.171-.603-.335-.937-.45-1.206l-.173-.359c-.06-.11-.12-.22-.196-.346-.286-.231-.289-.17-.16.027.068.096.154.24.261.397l.155.26c.054.09.101.187.153.283.198.387.341.812.382 1.066.037.259.003.323-.156.037-.001-.41-.207-1.142-.715-1.876a5.223 5.223 0 0 0-.977-1.072 5.109 5.109 0 0 0-1.375-.792c-.125-.043-.248-.095-.374-.13l-.377-.102c-.252-.049-.5-.099-.746-.119l-.181-.02-.18-.008c-.117-.003-.234-.012-.348-.01-.227.006-.447.005-.652.028-.102.009-.203.014-.299.025l-.278.036c-.089.013-.176.019-.257.035l-.118.02-.03.004h-.013l-.027.001c-.132-.003-.212-.015-.25-.067-.297.119-.286.191-.262.235.026.051.066.08-.324.29a.238.238 0 0 1-.055-.044l-.007-.009.013-.04.022-.069a.246.246 0 0 1-.14.003c.01-.318.02-.573.05-.729a.534.534 0 0 1 .058-.174c.005-.014.015-.007.018-.026a.38.38 0 0 1 .013-.047c.009-.026.02-.044.031-.053l.022.097.011.045.031.096c.022.065.042.124.05.17.012-.077.015-.15.012-.22a1.303 1.303 0 0 0-.01-.106 3.008 3.008 0 0 0-.029-.133 6.654 6.654 0 0 0-.642-1.638c-.493-.9-1.134-1.523-1.306-1.74.41.456.757.968 1.037 1.507a7.627 7.627 0 0 0-1.237-1.543 8.196 8.196 0 0 0-1.629-1.21 8.053 8.053 0 0 0-1.904-.784c-.17-.041-.336-.099-.509-.126l-.518-.09c-.349-.036-.699-.075-1.048-.067-1.401-.004-2.753.37-3.915.952a9.524 9.524 0 0 0-1.62 1.016c-.5.386-.937.82-1.312 1.272a7.51 7.51 0 0 1 .317-.187c-.592.664-.937 1.174-1.209 1.574l-.355.533c-.108.165-.209.318-.307.477-.195.317-.39.65-.604 1.139l-.081.19-.059.147a4.375 4.375 0 0 0-.208.724l-.019.094-.009.05c-.005.01.001.046-.018.028.012.008.01-.014.01-.032v-.051l-.002.05a.67.67 0 0 0-.002.026l-.017-.005-.621-.174-.488-.124-.361-.081-.37-.07c.25.016.263-.01.16-.058-.101-.05-.321-.11-.536-.164-.427-.095-.837-.178-.154-.195-1.018-.03-1.645.107-2.047.21-.203.048-.35.1-.466.143a1.91 1.91 0 0 0-.274.117c-.145.078-.251.14-.457.275l-.177.11-.223.148c-.085.054-.177.12-.28.195-.105.071-.217.16-.342.256-.194.05-.39.106-.58.174-.315.309-.461.497-.704.768l-.45.507a20.846 20.846 0 0 0-.5.591l-.203.263c.212-.324.273-.43.238-.443-.032-.01-.158.074-.271.165-.115.088-.229.173-.253.142-.012-.016-.001-.061.043-.15.045-.089.122-.223.257-.407a6.915 6.915 0 0 0-1.519 2.106l-.018.039-.012.029-.024.058a2.968 2.968 0 0 0-.115.355c-.021.08-.039.161-.055.244l-.022.124c-.01.033-.003.112-.04.07a3.65 3.65 0 0 0-.4-.188c-.069-.03-.14-.055-.21-.084l-.104-.04-.052-.02-.065-.024c-.54-.198-1.046-.36-1.583-.538-.262.034-.394.09-.43.127-.037.038.022.067.142.09.121.024.303.055.518.087l.341.065.366.088c.123.033.246.072.368.108l.314.11c.129.051.244.102.333.146.174.09.25.14.113.093.124.105.145.162.078.165-.067.004-.225-.042-.453-.104l-.436-.117c-.181-.042-.369-.09-.56-.12-.189-.039-.382-.054-.564-.08-.184-.01-.357-.034-.516-.032l-.762-.01-.399.008a5.195 5.195 0 0 0-.9.11c-.082.02-.169.04-.257.066l-.128.037-.083.019c-.209.049-.397.115-.567.238-.045.069-.068-.043-.1-.091a3.29 3.29 0 0 0-.327-.519c.089.123.116.102.198.221a1.324 1.324 0 0 0-.159-.268l-.079-.097a9.993 9.993 0 0 0-.623-.682c-.441-.45-.921-.899-1.427-1.452-.406-.166-.78-.46-1.114-.69-.332-.232-.623-.394-.814-.311a14.95 14.95 0 0 1 2.352 1.72c-.636-.537-1.34-.946-2.155-1.38a83.746 83.746 0 0 0-2.95-1.482c.108.008.36.059.646.142.284.088.61.194.866.302a3.034 3.034 0 0 0-.512-.288c-.177-.079-.352-.158-.536-.22-.183-.064-.365-.13-.548-.202a4.88 4.88 0 0 1-.559-.232c.082-.063.338-.03.7.073.179.057.384.13.608.216.22.092.46.197.706.312.49.24 1.012.52 1.502.811.49.29.955.58 1.353.807-.298-.332-1.038-.778-1.599-1.066-.56-.288-.924-.476-.435-.422-.69-.105-1.388-.463-2.23-.808-.837-.346-1.835-.667-2.948-.644l.175-.182c-.088-.006-.2-.014-.327-.019h-.426a17.91 17.91 0 0 1-.477-.013c-.164.002-.33.001-.49-.006.195-.036.392-.08.59-.108l.598-.074c-.229.005-.454 0-.675-.012-.223.002-.443-.004-.662-.015-.11-.004-.219-.015-.328-.017l-.326-.006-.652-.02c-.865.004-1.74.062-2.576.336.89-.22 1.402-.262 1.673-.284.274-.005.314.03.29.073-.05.089-.348.221.41.223-1.09.157-1.768.34-2.283.417-.507.107-.85.126-1.206.174a5.65 5.65 0 0 0-1.307.284c-.142.05-.296.108-.464.176-.167.07-.345.158-.542.253-.391.198-.84.462-1.352.82a5.72 5.72 0 0 1 .564-.355c.222-.124.462-.236.654-.322.392-.157.597-.192.156.096l-.668.342c-.224.128-.46.248-.675.376-.218.126-.427.245-.611.354-.186.106-.35.2-.48.268-.635.518-.894.783-.97.88-.078.1.03.045.182-.045.31-.184.806-.498.325-.011-.25.13-.434.257-.602.408-.167.15-.306.309-.439.487-.267.355-.524.767-.95 1.326l-.167-.13c-.61.668-.903 1.104-1.06 1.382-.014.021-.012.022-.016.031l-.008.023-.012.043a.527.527 0 0 0-.012.078c-.004.048 0 .09.003.132.007.085.016.167-.042.318-.03.075-.076.169-.143.289-.033.06-.07.126-.115.197l-.069.113-.009.014c-.003 0-.007-.01-.01-.015l-.023-.035-.049-.073a2.226 2.226 0 0 0-.069-.1l.063.027.044.02.02.007c.006-.01.011-.037.016-.054l.057-.227c.035-.145.064-.276.088-.395l-.118.254-.06.134c-.005.01-.01.027-.016.03l-.018-.022-.038-.044a1.813 1.813 0 0 0-.15-.145.602.602 0 0 0 .09-.217c-.092-.055-.205-.12-.316-.18l-.09-.048-.194-.113c-.157-.096-.319-.173-.475-.255-.645-.296-1.323-.563-2.414-.607.127.04.17.083.137.126-.033.046-.142.076-.32.13-.353.089-.985.214-1.797.555-.286.088-.393.12-.435.113-.042-.007-.013-.044-.017-.06-.002-.007-.012-.01-.043 0a.748.748 0 0 0-.128.056c-.025.014-.054.03-.09.048a2.133 2.133 0 0 0-.359.271l.017-.028c.092-.16.168-.301.262-.394a.873.873 0 0 1 .117-.085l.017-.01.035-.018.07-.036.152-.07a3.78 3.78 0 0 1 .339-.121c.122-.033.253-.062.392-.085.045-.05.177-.125.313-.2.138-.066.281-.13.337-.178a4.374 4.374 0 0 0-1.49.426l-.185.091-.046.024-.023.012-.038.022-.039.023a.458.458 0 0 0-.03.018l-.038.026c-.05.038-.099.08-.144.126-.006.003-.012.02-.018.012l-.018-.013-.036-.024a19.099 19.099 0 0 0-.072-.047c-.046-.03-.089-.057-.124-.082a.992.992 0 0 1 .203.22l-.247-.1c-.026-.01-.041-.015-.078-.033l-.187-.107c-.125-.073-.253-.138-.379-.207a13.09 13.09 0 0 0-1.567-.692c-.453-.298-.042-.182.372-.052-.16-.07-.31-.13-.46-.187l-.462-.153-.524-.157-.65-.186c.153-.048.226-.112.44-.122.108-.002.253.003.456.05.102.023.22.052.356.091.135.042.288.096.463.16-.525-.201-1.063-.363-1.605-.498a13.775 13.775 0 0 0-1.644-.29 2.008 2.008 0 0 0-.352-.12 12.996 12.996 0 0 0-.527-.13c-.341-.08-.605-.139-.385-.16-.929-.104-2.075.008-3.259.286-.592.142-1.193.325-1.787.535-.596.206-1.174.455-1.744.693-.05.044-.127.103-.249.183l-.217.139-.286.188c-.254.136-.49.29-.731.433-.233.155-.47.302-.693.466a12.54 12.54 0 0 0-1.299 1.048 10.99 10.99 0 0 0-2.225 2.84c-.364.358-.717.732-1.054 1.122-.239.466-.266.602-.212.586.055-.017.199-.18.325-.302.125-.123.235-.203.21-.065-.02.14-.183.49-.522 1.271a2.647 2.647 0 0 1-.182.43c-.045.073-.076.074-.102.044-.051-.063-.095-.22-.147-.251a.432.432 0 0 0-.066-.063.756.756 0 0 1-.246.063l-.047.005-.025.003c-.01 0-.008.004-.043-.002-.107-.016-.215-.034-.327-.047a35.606 35.606 0 0 0-.694-.09c-.48-.056-.988-.117-1.518-.167l-1.646-.164c.749-.062 1.336.017 2.032.074m-20.553 6.287c.128-.042.292-.075.471-.114l.279-.057c.096-.013.194-.023.29-.033.388-.05.766-.009.958.06-.32.107-.586.108-.892.12-.305-.004-.65-.018-1.106.024M6.369 41.404c-.352.04-.89-.036-1.498-.205.451.049.95.105 1.498.205m97.708 5.781a.6.6 0 0 0-.049.01c-1.018-.093-.656-.054.05-.01m2.097.048c.206-.042.19-.07.1-.095-.14.063-.605.092-1.142.085.15.052.425.089 1.042.01m-6.972-32.758c-.106-.197-.218-.376-.326-.556.218.27.357.456.443.585.087.125.124.188.129.207.008.038-.116-.096-.246-.236" fill="#fff" fill-rule="evenodd" data-name="Path 6189"/><path d="M2.025 40.31c-.085-.13-.08-.19-.076-.242-.164-.124-.206-.099.076.241" fill="#fff" fill-rule="evenodd" data-name="Path 6190"/><path d="m54.23 12.91.072-.035a.198.198 0 0 0 .056-.07l-.128.105Z" fill="#fff" fill-rule="evenodd" data-name="Path 6191"/><path d="M73.226 49.009c-.455.023-.71.008-.881-.015-.02.054.19.08.88.015" fill="#fff" fill-rule="evenodd" data-name="Path 6192"/><path d="M114.505 40.882c-.168.028-.339.052-.503.083l-.391.885a9.443 9.443 0 0 1-.207.431l-.11.217.085-.153.114-.21c.088-.162.16-.307.227-.435.133-.258.24-.452.347-.646.084-.012.177-.014.27-.023-.075-.04-.585-.043.168-.149" fill="#fff" fill-rule="evenodd" data-name="Path 6193"/><path d="M126.141 37.807c.06-.083.137-.157.205-.24.068-.081.135-.164.189-.248l-.113-.02-.189.235-.175.199c-.102.125-.192.214-.235.274-.092.115-.012.1.318-.2" fill="#fff" fill-rule="evenodd" data-name="Path 6194"/><path d="M116.312 41.323c.068.08.31.068.651.006.171-.03.365-.074.576-.125.211-.05.424-.11.655-.175-.055.015-.107.028-.163.04.108-.156-.084-.15-.404-.08-.34.07-.823.208-1.315.334" fill="#fff" fill-rule="evenodd" data-name="Path 6195"/><path d="M118.405 40.97c.28-.08.567-.163.844-.234.079-.128-.346.08-.844.234" fill="#fff" fill-rule="evenodd" data-name="Path 6196"/><path d="M108.599 46.764c.356-.075.124-.286.334-.295.067-.094-.03-.058-.174.015a9.65 9.65 0 0 1-.563.267c-.198.088-.362.161-.335.183.015.012.076.01.198-.013a3.09 3.09 0 0 0 .54-.157" fill="#fff" fill-rule="evenodd" data-name="Path 6197"/><path d="m117.181 41.763-.38-.152-.5.269c.293-.035.587-.074.88-.117" fill="#fff" fill-rule="evenodd" data-name="Path 6198"/><path d="M111.51 46.104c.414-.294.81-.617 1.183-.964-.042-.01.079-.162.228-.348-.32.343-.686.67-.968.907-.283.237-.478.39-.443.405" fill="#fff" fill-rule="evenodd" data-name="Path 6199"/><path d="M112.92 44.792c.334-.356.617-.725.742-.966-.147.216-.493.662-.741.966" fill="#fff" fill-rule="evenodd" data-name="Path 6200"/><path d="m115.134 42.17-.122.005-.062.002-.03.001c-.011 0-.023 0-.025.01l-.105.173c-.159.319-.335.636-.528.946.241-.367.457-.74.642-1.106.002-.011.014-.01.024-.011l.03-.003.059-.005.117-.012Z" fill="#fff" fill-rule="evenodd" data-name="Path 6201"/><path d="m95.5 47.591-1.683-.069c-.178.062.276.146.904.165.406-.021 1.03-.003.779-.096" fill="#fff" fill-rule="evenodd" data-name="Path 6202"/><path d="M100.551 48.514c-.454-.068-.482-.119-.736-.205l-.065.27.801-.065Z" fill="#fff" fill-rule="evenodd" data-name="Path 6203"/><path d="M95.632 48.271c-.173.065-2.46.028-.325.177.177-.06 1.868 0 .325-.177" fill="#fff" fill-rule="evenodd" data-name="Path 6204"/><path d="m70.533 48.483.43-.027-.09-.444-.34.471Z" fill="#fff" fill-rule="evenodd" data-name="Path 6205"/><path d="M48.768 44.76c.197.045.347.099.467.13.12.029.21.062.278.073.137.029.192.009.242-.006.05-.015.094-.03.215.003.122.031.319.118.675.337.218.056-.075-.138-.366-.297-.291-.161-.585-.3-.37-.262-.26-.07-.485-.13-.672-.161a2.191 2.191 0 0 0-.439-.056c-.207-.005-.225.05-.03.24" fill="#fff" fill-rule="evenodd" data-name="Path 6206"/><path d="M49.91 44.738c.166.049.346.098.54.162-.304-.118-.45-.14-.54-.162" fill="#fff" fill-rule="evenodd" data-name="Path 6207"/><path d="M152.048 22.534c.203-.017.412-.088.54-.155.076-.036.12-.064.174-.096l.117-.077c.124-.084.176-.115.217-.133a.529.529 0 0 1 .21-.038.612.612 0 0 0-.155-.026c-.058.001-.1-.004-.204.044-.046.046-.107.111-.235.207a1.48 1.48 0 0 1-.664.274" fill="#fff" fill-rule="evenodd" data-name="Path 6208"/><path d="M154 21.678c.039.112.066.226.081.338.178-.013.368.003.559.057a2.81 2.81 0 0 0-.328-.213c-.124-.069-.247-.13-.313-.182" fill="#fff" fill-rule="evenodd" data-name="Path 6209"/><path d="m19.736 28.322-.04.14c.058-.032.117-.076.185-.127.07-.047.148-.104.236-.171.089-.067.185-.152.303-.236l.409-.281c-.184.1-.374.193-.556.306-.178.12-.363.234-.537.369" fill="#fff" fill-rule="evenodd" data-name="Path 6210"/><path d="m33.807 22.846-.275.176c.219-.04.43-.085.649-.11-.124-.024-.25-.05-.374-.066" fill="#fff" fill-rule="evenodd" data-name="Path 6211"/><path d="M46.695 20.486c-.007.003-.001.019.001.045-.003.01-.017.018-.032.008.015-.01.028.013.058.047.025.019.065.03.076.018.012-.014-.011-.04-.103-.118" fill="#fff" fill-rule="evenodd" data-name="Path 6212"/></g></g><defs><clipPath id="a"><path d="M0 0h154.64v49.507H0V0z" data-name="Rectangle 2996"/></clipPath></defs></svg>