<svg version="1.2" xmlns="http://www.w3.org/2000/svg" viewBox="0 0 81 81" width="81" height="81">
	<title>Group 2957</title>
	<style>
		.s0 { fill: #2c2c2b } 
	</style>
	<g id="Group 2957">
		<path id="Path 6072" fill-rule="evenodd" class="s0" d="m40 80c-22.1 0-40-17.9-40-40 0-22.1 17.9-40 40-40 22.1 0 40 17.9 40 40 0 22.1-17.9 40-40 40zm0-77.6c-20.8 0-37.6 16.8-37.6 37.6 0 20.8 16.8 37.6 37.6 37.6 20.8 0 37.6-16.8 37.6-37.6 0-20.8-16.8-37.6-37.6-37.6z"/>
		<path id="Path 6073" fill-rule="evenodd" class="s0" d="m40 58.4c-4.5 0-8.8-1.6-12-4.3-3.6-3.1-5.6-7.5-5.7-12.8q0-0.3 0-0.7c0-6.8 2.9-13.8 8.5-20.2 4.2-4.7 8.4-7.4 8.6-7.5 0.4-0.2 0.8-0.2 1.2 0 0.2 0.1 4.4 2.8 8.6 7.5 5.6 6.4 8.5 13.4 8.5 20.2q0 0.4 0 0.7c-0.1 5.3-2.1 9.7-5.7 12.8-3.2 2.7-7.5 4.3-12 4.3zm0-43.1c-3 2.1-15.4 11.8-15.4 25.3q0 0.3 0 0.6c0.3 10.2 8.2 14.8 15.4 14.8 7.2 0 15.1-4.6 15.4-14.8q0-0.3 0-0.6c0-13.5-12.4-23.2-15.4-25.3z"/>
		<path id="Path 6074" class="s0" d="m40 67.3c-0.6 0-1.2-0.5-1.2-1.2v-39.5c0-0.6 0.6-1.2 1.2-1.2 0.6 0 1.2 0.6 1.2 1.2v39.5c0 0.7-0.6 1.2-1.2 1.2z"/>
		<path id="Path 6075" class="s0" d="m40 37.8c-0.3 0-0.7-0.2-0.9-0.4-0.4-0.5-0.4-1.3 0.1-1.7l6.7-5.6c0.5-0.4 1.2-0.4 1.6 0.1 0.5 0.5 0.4 1.3-0.1 1.7l-6.6 5.6q-0.4 0.3-0.8 0.3z"/>
		<path id="Path 6076" class="s0" d="m40 37.8q-0.4 0-0.8-0.3l-6.6-5.6c-0.5-0.4-0.6-1.2-0.1-1.7 0.4-0.5 1.1-0.5 1.6-0.1l6.7 5.6c0.5 0.4 0.5 1.2 0.1 1.7-0.2 0.2-0.6 0.4-0.9 0.4z"/>
		<path id="Path 6077" class="s0" d="m40 49.6c-0.3 0-0.7-0.2-0.9-0.5-0.4-0.5-0.4-1.2 0.1-1.6l6.7-5.6c0.5-0.4 1.2-0.4 1.6 0.1 0.5 0.5 0.4 1.3-0.1 1.7l-6.6 5.6q-0.4 0.3-0.8 0.3z"/>
		<path id="Path 6078" class="s0" d="m40 49.6q-0.4 0-0.8-0.3l-6.6-5.6c-0.5-0.4-0.6-1.2-0.1-1.7 0.4-0.5 1.1-0.5 1.6-0.1l6.7 5.6c0.5 0.4 0.5 1.1 0.1 1.6-0.2 0.3-0.6 0.5-0.9 0.5z"/>
	</g>
</svg>