<svg version="1.2" xmlns="http://www.w3.org/2000/svg" viewBox="0 0 80 81" width="80" height="81">
	<title>Group 2955</title>
	<style>
		.s0 { fill: #2c2c2b } 
	</style>
	<g id="Group 2955">
		<path id="Path 6079" fill-rule="evenodd" class="s0" d="m40 80c-22.1 0-40-17.9-40-40 0-22.1 17.9-40 40-40 22.1 0 40 17.9 40 40 0 22.1-17.9 40-40 40zm0-77.6c-20.8 0-37.6 16.8-37.6 37.6 0 20.8 16.8 37.6 37.6 37.6 20.8 0 37.6-16.8 37.6-37.6 0-20.8-16.8-37.6-37.6-37.6z"/>
		<path id="Rectangle 2990" fill-rule="evenodd" class="s0" d="m38.8 29.3h2.4v37.8h-2.4z"/>
		<path id="Path 6080" fill-rule="evenodd" class="s0" d="m40 31.6l-0.7-0.6c-0.2-0.1-4.9-3.8-4.9-8.5 0-4.7 4.7-8.3 4.9-8.5l0.7-0.5 0.7 0.5c0.2 0.2 4.9 3.8 4.9 8.5 0 4.7-4.7 8.4-4.9 8.5zm0-15c-1.1 1-3.3 3.4-3.3 6 0 2.6 2.2 4.9 3.3 6 1.2-1.1 3.3-3.4 3.3-6 0-2.6-2.1-5-3.3-6z"/>
		<path id="Path 6081" fill-rule="evenodd" class="s0" d="m40.8 49.7q-0.6 0-0.7 0l-0.8-0.1-0.2-0.9c-0.1-0.2-1.2-6.1 1.9-9.6 3.1-3.6 9-3.2 9.3-3.2l0.9 0.1 0.2 0.9c0 0.2 1.2 6.1-1.9 9.6-2.6 2.9-7 3.2-8.7 3.2zm8.4-11.4c-1.6 0-4.7 0.4-6.5 2.3-1.7 2-1.6 5.2-1.4 6.7 1.5 0 4.7-0.4 6.4-2.3 1.7-2 1.6-5.2 1.5-6.7z"/>
		<path id="Path 6082" fill-rule="evenodd" class="s0" d="m40.8 60.2q-0.6 0-0.7-0.1h-0.8l-0.2-0.9c-0.1-0.2-1.2-6.1 1.9-9.6 3.1-3.6 9-3.2 9.3-3.2l0.9 0.1 0.2 0.8c0 0.3 1.2 6.1-1.9 9.7-2.6 2.9-7 3.2-8.7 3.2zm8.4-11.5c-1.6 0.1-4.7 0.5-6.5 2.4-1.7 2-1.6 5.1-1.4 6.7 1.5-0.1 4.7-0.4 6.4-2.4 1.7-1.9 1.6-5.1 1.5-6.7z"/>
		<path id="Path 6083" fill-rule="evenodd" class="s0" d="m40.8 39q-0.6 0-0.7 0l-0.8-0.1-0.2-0.9c-0.1-0.2-1.2-6.1 1.9-9.6 3.1-3.6 9-3.2 9.3-3.2l0.9 0.1 0.2 0.9c0 0.2 1.2 6.1-1.9 9.6-2.6 2.9-7 3.2-8.7 3.2zm8.4-11.4c-1.6 0-4.7 0.4-6.5 2.3-1.7 2-1.6 5.1-1.4 6.7 1.5 0 4.7-0.4 6.4-2.4 1.7-1.9 1.6-5.1 1.5-6.6z"/>
		<path id="Path 6084" fill-rule="evenodd" class="s0" d="m39.2 49.7c-1.7 0-6.1-0.3-8.7-3.2-3.1-3.5-1.9-9.4-1.9-9.6l0.2-0.9 0.9-0.1c0.3 0 6.2-0.4 9.3 3.2 3.1 3.5 2 9.4 1.9 9.6l-0.2 0.9-0.8 0.1c-0.1 0-0.3 0-0.7 0zm-8.4-11.4c-0.1 1.5-0.2 4.7 1.5 6.7 1.7 1.9 4.9 2.3 6.4 2.3 0.2-1.5 0.3-4.7-1.4-6.7-1.8-1.9-4.9-2.3-6.5-2.3z"/>
		<path id="Path 6085" fill-rule="evenodd" class="s0" d="m39.2 60.2c-1.7 0-6.1-0.3-8.7-3.2-3.1-3.6-1.9-9.4-1.9-9.7l0.2-0.8 0.9-0.1c0.3 0 6.2-0.4 9.3 3.2 3.1 3.5 2 9.4 1.9 9.6l-0.2 0.9h-0.8c-0.1 0-0.3 0.1-0.7 0.1zm-8.4-11.5c-0.1 1.6-0.2 4.8 1.5 6.7 1.7 2 4.9 2.3 6.4 2.4 0.2-1.6 0.3-4.7-1.4-6.7-1.8-1.9-4.9-2.3-6.5-2.4z"/>
		<path id="Path 6086" fill-rule="evenodd" class="s0" d="m39.2 39c-1.7 0-6.1-0.3-8.7-3.2-3.1-3.5-1.9-9.4-1.9-9.6l0.2-0.9 0.9-0.1c0.3 0 6.2-0.4 9.3 3.2 3.1 3.5 2 9.4 1.9 9.6l-0.2 0.9-0.8 0.1c-0.1 0-0.3 0-0.7 0zm-8.4-11.4c-0.1 1.5-0.2 4.7 1.5 6.6 1.7 2 4.9 2.4 6.4 2.4 0.2-1.6 0.3-4.7-1.4-6.7-1.8-1.9-4.9-2.3-6.5-2.3z"/>
		<path id="Path 6087" class="s0" d="m67.1 68.2c-0.3 0-0.6-0.1-0.9-0.3l-9.4-9.4c-0.4-0.5-0.4-1.2 0-1.7 0.5-0.4 1.2-0.4 1.7 0l9.4 9.4c0.5 0.5 0.5 1.2 0 1.7-0.2 0.2-0.5 0.3-0.8 0.3z"/>
		<path id="Path 6088" class="s0" d="m22.3 23.5c-0.3 0-0.6-0.1-0.8-0.3l-9.4-9.4c-0.5-0.5-0.5-1.2 0-1.7 0.5-0.5 1.2-0.5 1.7 0l9.4 9.4c0.4 0.5 0.4 1.2 0 1.7-0.3 0.2-0.6 0.3-0.9 0.3z"/>
	</g>
</svg>