<svg version="1.2" xmlns="http://www.w3.org/2000/svg" viewBox="0 0 80 81" width="80" height="81">
	<title>Group 2956</title>
	<style>
		.s0 { fill: #2c2c2b } 
	</style>
	<g id="Group 2956">
		<path id="Path 6089" fill-rule="evenodd" class="s0" d="m40 80c-22.1 0-40-17.9-40-40 0-22.1 17.9-40 40-40 22.1 0 40 17.9 40 40 0 22.1-17.9 40-40 40zm0-77.6c-20.8 0-37.6 16.8-37.6 37.6 0 20.8 16.8 37.6 37.6 37.6 20.8 0 37.6-16.8 37.6-37.6 0-20.8-16.8-37.6-37.6-37.6z"/>
		<path id="Path 6090" class="s0" d="m48.7 64.9h-17.4c-1.9 0-3.5-1.6-3.5-3.6v-21.8q0-2.7 1.1-5.2l1.8-4.1c1-2.2 1.5-4.5 1.5-6.9v-1.6c0-0.6 0.5-1.2 1.1-1.2 0.7 0 1.2 0.6 1.2 1.2v1.6c0 2.7-0.5 5.3-1.6 7.8l-1.9 4.1q-0.9 2.1-0.9 4.3v21.8c0 0.7 0.6 1.2 1.2 1.2h17.4c0.6 0 1.2-0.5 1.2-1.2v-21.8q0-2.2-0.9-4.3l-1.9-4.1c-1.1-2.5-1.6-5.1-1.6-7.8v-1.6c0-0.6 0.5-1.2 1.2-1.2 0.6 0 1.1 0.6 1.1 1.2v1.6c0 2.4 0.5 4.7 1.5 6.9l1.8 4.1q1.1 2.5 1.1 5.2v21.8c0 2-1.6 3.6-3.5 3.6z"/>
		<path id="Path 6091" fill-rule="evenodd" class="s0" d="m46.3 22.9h-12.6c-2.2 0-3.9-1.7-3.9-3.9 0-2.1 1.7-3.9 3.9-3.9h12.6c2.2 0 3.9 1.8 3.9 3.9 0 2.2-1.7 3.9-3.9 3.9zm-12.6-5.4c-0.9 0-1.6 0.7-1.6 1.5 0 0.9 0.7 1.5 1.6 1.5h12.6c0.9 0 1.6-0.6 1.6-1.5 0-0.8-0.7-1.5-1.6-1.5z"/>
		<path id="Path 6092" class="s0" d="m45.5 47.4c-2.8 0-5.6-0.7-8.2-1.4q-1.2-0.3-2.3-0.5-3.3-0.8-6-0.7c-0.6 0-1.2-0.5-1.2-1.1 0-0.7 0.5-1.2 1.1-1.2q3-0.2 6.6 0.7 1.2 0.3 2.4 0.6c3 0.7 5.9 1.5 8.8 1.2q1.9-0.2 3.8-1.1c0.6-0.3 1.3 0 1.6 0.5 0.3 0.6 0 1.3-0.5 1.6q-2.4 1.1-4.7 1.4-0.7 0-1.4 0z"/>
		<path id="Path 6093" class="s0" d="m67.1 68.2c-0.3 0-0.6-0.1-0.9-0.3l-9.4-9.4c-0.4-0.5-0.4-1.2 0-1.7 0.5-0.4 1.2-0.4 1.7 0l9.4 9.4c0.5 0.5 0.5 1.2 0 1.7-0.2 0.2-0.5 0.3-0.8 0.3z"/>
		<path id="Path 6094" class="s0" d="m22.3 23.5c-0.3 0-0.6-0.1-0.8-0.3l-9.4-9.4c-0.5-0.5-0.5-1.2 0-1.7 0.5-0.5 1.2-0.5 1.7 0l9.4 9.4c0.4 0.5 0.4 1.2 0 1.7-0.3 0.2-0.6 0.3-0.9 0.3z"/>
	</g>
</svg>