<svg version="1.2" xmlns="http://www.w3.org/2000/svg" viewBox="0 0 81 81" width="81" height="81">
	<title>Group 2960</title>
	<style>
		.s0 { fill: #2c2c2b } 
	</style>
	<g id="Group 2960">
		<path id="Path 6126" fill-rule="evenodd" class="s0" d="m41 80c-22.1 0-40-17.9-40-40 0-22.1 17.9-40 40-40 22.1 0 40 17.9 40 40 0 22.1-17.9 40-40 40zm0-77.6c-20.8 0-37.7 16.8-37.7 37.6 0 20.8 16.9 37.6 37.7 37.6 20.8 0 37.6-16.8 37.6-37.6 0-20.8-16.8-37.6-37.6-37.6z"/>
		<path id="Path 6127" fill-rule="evenodd" class="s0" d="m41 64.1l-20.9-12.1v-24l20.9-12.1 20.9 12.1v24zm-18.6-13.4l18.6 10.7 18.5-10.7v-21.3l-18.5-10.7-18.6 10.7z"/>
		<path id="Path 6128" class="s0" d="m41 41.4l-20.3-11.8 1.2-2 19.1 11 19.1-11 1.2 2z"/>
		<path id="Rectangle 2991" fill-rule="evenodd" class="s0" d="m39.8 40h2.4v22.7h-2.4z"/>
		<path id="Path 6129" class="s0" d="m68.1 68.2c-0.3 0-0.6-0.1-0.9-0.3l-9.4-9.4c-0.4-0.5-0.4-1.2 0-1.7 0.5-0.4 1.2-0.4 1.7 0l9.4 9.4c0.5 0.5 0.5 1.2 0 1.7-0.2 0.2-0.5 0.3-0.8 0.3z"/>
		<path id="Path 6130" class="s0" d="m23.3 23.5c-0.3 0-0.6-0.1-0.8-0.3l-9.4-9.4c-0.5-0.5-0.5-1.2 0-1.7 0.5-0.5 1.2-0.5 1.7 0l9.4 9.4c0.4 0.5 0.4 1.2 0 1.7-0.3 0.2-0.6 0.3-0.9 0.3z"/>
	</g>
</svg>