<svg xmlns="http://www.w3.org/2000/svg" width="177.966" height="95.683"><g data-name="Group"><path d="m64.726 86.102-12.134-14.17-21.328 9.588 7.803-21.498-19.233-17.885 23.164-1.604L19.834 0l47.379 26.834L82.258 4.263 91.87 22.82l28.34-16.736-3.56 22.12 33.292-17.26-6.569 17.26 16.576 4.082-21.25 14.501 14.165 36.85-27.39-17.501-5.265 29.547-15.765-23.751L88.78 83.637 76.613 71.932l-11.887 14.17Z" fill="#7622bd" fill-rule="evenodd" data-name="Path 5412"/><path d="M24.153 20.603c-.174-.036-.352-.017-.524.002l-.097.01c-.368.036-.74.095-1.1.152l-.083.013c-.436.067-.873.136-1.31.206-.344.056-.693.12-1.03.183l-.27.05c-.166.03-.331.062-.496.094l-.116.021-.219.042c-.159.029-.323.059-.483.096l-.593.135-.295.068a6.154 6.154 0 0 0-.794.234c-.094.036-.177.07-.253.106a1.835 1.835 0 0 0-.49.314c-.126-.133-.244-.28-.358-.424l-.04-.05a44.646 44.646 0 0 1-.406-.518c-.2-.259-.398-.52-.596-.78l-.178-.235c-.08-.105-.158-.213-.235-.321l-.111-.156-.058-.08-.369-.509c-.176-.243-.349-.496-.516-.74l-.256-.374-.134-.192c-.374-.552-.868-1.278-1.369-1.997l-.467-.67-.398-.572c-.17-.244-.344-.486-.519-.727l-.249-.346-.04-.056-.115-.16-.078-.116c-.139-.208-.283-.424-.412-.644a.394.394 0 0 0-.505-.173.383.383 0 0 0-.16.139.4.4 0 0 0-.054.294c.018.133.05.266.082.395l.024.098.042.174.042.174.107.45.053.226c.061.258.12.517.18.776l.105.447c.05.22.102.44.154.66.117.496.238 1.009.35 1.516a2365.396 2365.396 0 0 0 1.647 7.448l-.736.268-.248.09c-.286.103-.572.206-.856.315-.13.05-.261.1-.392.148-.266.1-.54.203-.806.312l-.401.165-.678.278-.076.031a35.397 35.397 0 0 1-1.114.447c-.119.056-.188.206-.192.32a.39.39 0 0 0 .042.192.407.407 0 0 0 .225.19c.137.058.28.106.42.151l.166.056.595.204c.436.148.873.299 1.31.449l.99.34.042.014.421.146c.31.107.63.219.948.32.118.038.236.073.354.108.262.077.532.156.788.267l.008.048c.008.161-.003.335-.032.533-.06.296-.14.593-.217.88l-.052.197-.145.551-.189.713a58.312 58.312 0 0 0-.584 2.356l-.054.246-.054.246a9.878 9.878 0 0 0-.12.683c-.12.815-.131 1.533-.036 2.195l.007.05c.02.15.042.305.109.444.063.134.206.36.454.37a.448.448 0 0 0 .207-.045.606.606 0 0 0 .11-.067.783.783 0 0 0 .185-.216c.051-.081.096-.167.14-.251l.007-.014c.112-.212.216-.432.317-.645l.02-.042.156-.327.077-.162.017-.036.004-.008.36-.757-.003.005c.04-.082.08-.164.118-.246.12-.253.24-.506.364-.756l.326-.653.326-.654c.04-.08.084-.159.128-.237l.035-.062.16-.285.276-.486.082-.149a5.07 5.07 0 0 1 .167-.293l.204-.32.126-.196.069-.108c.199-.312.404-.635.618-.946l.036-.053c.244-.357.497-.727.779-1.065l.04-.042c.058.019.116.043.17.066.64.321 1.294.64 1.927.949l.322.157c.292.142.585.282.877.422l.223.106c.261.125.523.259.777.388l.365.186c.087.044.172.09.257.137l.135.074.426.229.246.132c.182.098.363.205.538.308l.322.188c.073.042.148.082.222.122l.083.044c.051.028.102.057.152.087.055.032.11.064.166.094.145.076.272.12.414.145.128.022.244-.009.367-.041l.026-.007a.414.414 0 0 0 .07-.025c.15-.07.274-.242.223-.435a2.53 2.53 0 0 0-.14-.417c-.033-.068-.075-.134-.116-.197-.022-.034-.045-.069-.065-.104a44.936 44.936 0 0 0-.506-.836c-.214-.347-.439-.695-.655-1.032l-.077-.12a50.384 50.384 0 0 0-.507-.767l-.203-.304c-.195-.292-.405-.58-.607-.86l-.161-.222c-.387-.535-.787-1.075-1.175-1.596-.295-.399-.591-.797-.884-1.198a3.095 3.095 0 0 1-.295-.485 1.33 1.33 0 0 1 .066-.095c.151-.161.328-.302.498-.438l.094-.074.293-.236.22-.178.433-.35c.16-.131.323-.262.484-.392l.514-.412.513-.412c.381-.307.753-.617 1.066-.88.127-.107.252-.214.376-.323.065-.058.127-.119.189-.18l.093-.09c.049-.048.094-.097.14-.153a.647.647 0 0 0 .129-.22c.046-.159.04-.29-.019-.404-.079-.154-.241-.216-.364-.241" fill="#e6061a" fill-rule="evenodd" data-name="Path 5414"/><path d="M170.21 60.45c-.024-.178-.102-.34-.177-.496l-.042-.09c-.158-.338-.337-.67-.51-.993l-.04-.074c-.21-.392-.42-.783-.633-1.174-.168-.31-.346-.619-.517-.918l-.138-.24a53.16 53.16 0 0 0-.254-.44l-.06-.101-.111-.194a10.97 10.97 0 0 0-.252-.426l-.327-.519-.163-.258a6.238 6.238 0 0 0-.487-.675 3.71 3.71 0 0 0-.185-.205 1.852 1.852 0 0 0-.46-.36c.082-.166.184-.326.282-.482l.035-.053c.116-.188.235-.374.355-.56l.543-.826.162-.248c.074-.11.15-.22.227-.329.038-.053.075-.105.111-.158l.057-.08.36-.52c.172-.249.354-.498.53-.737.09-.123.181-.245.27-.369l.137-.19c.4-.54.924-1.252 1.44-1.966l.481-.667.41-.568c.175-.242.345-.489.516-.735l.245-.353.04-.056.114-.162.084-.112c.152-.202.308-.411.474-.608a.396.396 0 0 0-.004-.536.39.39 0 0 0-.185-.106.404.404 0 0 0-.297.048c-.12.062-.236.136-.347.209l-.086.056-.151.097-.15.098-.392.25-.197.127c-.225.145-.452.287-.677.43l-.39.248-.574.367c-.433.276-.88.563-1.323.836a2306.096 2306.096 0 0 0-6.522 4.048l-.498-.608-.168-.206a52.772 52.772 0 0 0-.857-1.031c-.183-.218-.372-.444-.565-.66l-.29-.327-.49-.55-.056-.062a36.01 36.01 0 0 1-.795-.908c-.093-.095-.258-.11-.368-.076a.385.385 0 0 0-.168.104.41.41 0 0 0-.106.277c-.009.149-.006.302-.003.45l.003.175.005.633.01 1.393.008 1.054v.044c.002.15.002.299.002.448.001.33.002.672.012 1.007.003.125.01.248.016.372.014.274.029.557.01.837l-.044.024c-.15.062-.32.109-.516.148-.302.04-.61.064-.908.087l-.205.016-.572.045-.74.06c-.77.06-1.597.13-2.43.23l-.252.03-.251.031c-.241.03-.482.075-.689.115-.813.16-1.498.386-2.095.697l-.045.023c-.135.07-.276.142-.385.252-.106.104-.273.316-.2.555.02.065.058.125.112.181a.681.681 0 0 0 .1.082c.07.046.154.078.267.104.094.022.19.035.284.05l.015.001c.24.036.483.061.72.086l.045.004.363.04.18.02.04.003.008.001.84.09-.007-.002c.091.011.183.022.274.03.28.03.559.059.838.095l.729.09.73.092c.089.011.178.027.267.043l.07.012.324.058.554.1.169.027c.11.018.223.036.333.06l.37.088.23.054.125.028c.363.086.738.173 1.105.273l.062.017c.42.112.856.228 1.271.383.023.01.039.018.053.026.002.06-.002.123-.006.182-.091.715-.176 1.442-.258 2.145l-.042.36c-.038.323-.073.648-.108.973l-.027.247c-.031.289-.07.582-.109.866-.018.136-.037.272-.054.409a7.794 7.794 0 0 1-.045.29l-.025.152-.075.48-.044.278a16.83 16.83 0 0 1-.113.614c-.024.123-.048.245-.07.367a7.09 7.09 0 0 0-.042.253l-.015.093-.031.173a4.65 4.65 0 0 0-.035.19 1.35 1.35 0 0 0 0 .44c.023.13.09.228.162.335l.016.023c.013.02.03.04.047.058.116.118.32.18.486.066a2.51 2.51 0 0 0 .35-.272 1.81 1.81 0 0 0 .148-.175c.025-.033.05-.065.077-.097.08-.098.162-.194.243-.291a59.906 59.906 0 0 0 1.143-1.435l.088-.112c.19-.243.375-.49.56-.737l.22-.294c.213-.283.417-.577.614-.862l.158-.228c.379-.545.757-1.106 1.123-1.647.28-.414.56-.827.843-1.239a3.04 3.04 0 0 1 .362-.44 1.1 1.1 0 0 1 .112.03c.203.09.395.21.581.326l.103.064.322.2.242.15c.158.099.317.196.476.294l.534.329.562.35.562.35c.418.26.837.51 1.191.72.143.084.288.167.432.247.076.043.155.081.233.12l.118.058c.06.03.123.058.191.082a.643.643 0 0 0 .252.05c.166-.01.29-.06.377-.154.12-.125.125-.301.108-.425" fill="#7bb1e2" fill-rule="evenodd" data-name="Path 5413"/></g></svg>