<svg width="2052" height="106" viewBox="0 0 2052 106" fill="none" xmlns="http://www.w3.org/2000/svg">
<g clip-path="url(#clip0_12_28)">
<path fill-rule="evenodd" clip-rule="evenodd" d="M1442.03 102.286L1449.2 95.7123C1441.03 96.9818 1434.11 97.0085 1434.27 100.047C1425.85 95.2706 1440.71 87.9245 1424 81.3951C1419.69 82.8632 1413.59 82.543 1407.56 82.2256C1398.37 81.7404 1389.34 81.2538 1387.07 87.0912C1417.89 84.141 1390.22 94.3533 1405.44 97.5774C1401.36 97.4222 1396.78 97.7397 1391.67 98.5366C1390.44 99.6202 1392.83 100.54 1395.07 101.097C1393.4 101.539 1391.73 101.935 1390.05 102.285H1375.73C1372.82 101.078 1371.18 98.9604 1368.85 96.8422C1365.26 93.5649 1360.04 90.2902 1346.03 90.3825C1350.34 95.8339 1338.15 100.721 1332.61 99.5573C1346.3 99.4454 1339.16 90.4664 1326.6 86.2887C1313.62 88.8193 1307.7 87.2142 1302.62 85.6063C1299.18 84.5199 1296.13 83.4293 1291.52 83.6278L1304.54 81.6286C1300.12 76.1841 1289.23 76.8971 1274.05 75.1801C1273.67 76.4371 1274.72 77.2047 1276.26 77.7123C1268.93 76.2889 1260.91 78.6589 1252.33 81.0288C1242.48 83.7538 1231.9 86.4788 1220.81 83.4336C1209.92 87.1234 1219.76 93.6724 1210.2 96.1765C1196.64 92.5413 1189.48 94.6244 1181.95 96.7077C1174.84 98.6749 1167.41 100.641 1153.97 97.8041C1161.95 90.4805 1163.34 92.2701 1143.84 85.1352L1189.37 90.2845L1160.15 79.6334C1166.3 79.5872 1172.74 80.5015 1178.73 81.4159C1186.13 82.5484 1192.83 83.6798 1197.38 82.9933C1183.46 77.0161 1184.89 78.8378 1191.46 72.7586C1181.43 78.6225 1171.5 76.4063 1161.11 74.1902C1152.02 72.2538 1142.59 70.3174 1132.46 73.7779L1133.12 91.9121C1115.57 96.2548 1100.13 93.2489 1083.02 90.2429C1068.27 87.652 1052.28 85.0612 1032.64 87.1738L1046.28 84.0153C1042.89 79.7299 1034.26 80.1872 1024.93 80.6485C1018.58 80.9617 1011.91 81.2733 1006.34 80.0891C1007.62 86.1529 999.032 88.3537 993.171 92.1302C993.881 87.6337 962.115 92.5412 958.261 80.4359L939.32 88.418C921.745 90.0958 911.913 85.507 902.059 80.9168C892.705 76.5602 883.329 72.205 867.292 73.2075C877.212 79.7984 862.244 84.0936 884.307 88.8068C873.31 88.8683 863.424 89.9757 863.25 85.7742C860.227 87.5611 853.293 85.8582 845.747 84.1552C837.263 82.2397 828.003 80.3212 822.653 83.3664C818.017 80.7015 816.501 74.3552 804.158 74.8586C803.367 75.58 803.523 76.4862 803.788 77.1098C801.043 74.628 785.813 73.1962 795.668 67.0666C778.138 76.858 753.398 76.1462 729.516 75.4303C707.257 74.7662 685.745 74.1024 671.517 81.9419L676.697 82.4004L668.501 83.6726C669.366 83.0154 670.51 82.5194 671.517 81.9419C647.52 79.9034 618.61 77.9513 596.828 77.5095C598.226 79.3257 596.898 80.5312 601.017 79.9034C586.166 82.6885 581.483 78.4686 576.415 74.2476C571.231 69.9272 565.642 65.6098 548.348 68.7949C530.881 78.5918 566.509 74.0938 555.616 77.8017C552.993 88.8528 540.611 86.8284 526.177 84.8011C514.554 83.168 501.602 81.5362 491.338 86.7304L496.908 87.9022C486.84 91.7835 474.234 88.7411 459.899 85.7029C449.203 83.4323 437.542 81.163 425.259 81.7712C425.259 81.7712 426.654 83.54 425.425 84.7816C405.771 74.6071 368.568 71.2444 340.92 68.4187C349.523 76.2219 353.481 72.5488 348.231 80.4792C335.838 79.3579 351.862 67.7419 327.125 65.5244C319.084 69.7986 301.239 73.5303 298.872 81.9948L322.203 82.4505C314.705 89.3239 304.729 87.4241 295.297 85.5268C289.697 84.3998 284.289 83.273 279.709 83.9805L281.28 88.7621C245.519 87.2101 245.023 75.1496 206.59 76.0137L210.564 72.3838C199.511 66.099 195.215 68.2943 190.571 70.4866C186.391 72.458 181.928 74.4322 172.004 70.2237L165.666 82.3485C151.806 79.4235 117.121 70.6294 92.2689 68.3531C106.348 77.3392 135.428 81.9419 153.425 87.2731C139.686 87.3612 106.74 86.378 99.5841 80.3966C105.121 81.5669 112.095 84.5355 117.563 82.6717C100.71 73.1418 78.5347 68.4565 51.1614 68.6621C52.7483 76.3506 45.6666 79.6375 34.7274 81.2258C29.2563 82.0227 22.8206 82.3907 16.0199 82.6717L-15.1285 83.5736C-15.3214 57.7592 -15.6304 32.7878 -16.219 10.248L-16.247 9.24954L-16.2764 8.57162L-16.3323 7.2267L-16.4553 4.57544C-16.5434 2.82773 -16.6315 1.12069 -16.7182 -0.541727C-16.9027 -3.87216 -17.1083 -7.02912 -17.3362 -9.98345C-17.792 -15.8977 -18.3401 -21.0124 -19 -25.1216C-17.8787 -60.8783 -17.5976 -96.4616 -17.7277 -132.534H4.4892C4.88069 -156.565 4.91145 -182.034 4.00404 -209.772C5.06525 -211.073 6.39071 -205.602 7.77629 -200.131C9.30169 -194.109 10.8984 -188.086 12.2882 -191.097V-230.094C11.2675 -228.903 10.3475 -225.269 9.91409 -216.755C10.2818 -224.374 11.2032 -238.971 10.5251 -250.699L7.53441 -220.342C6.22293 -253.07 10.0329 -237.456 9.7547 -263.625C8.58024 -263.386 8.10486 -267.526 7.73435 -271.665C7.30511 -276.46 7.01289 -281.256 5.93491 -279.241C5.69023 -272.558 6.98353 -256.409 5.98524 -246.39C5.53223 -275.895 4.0334 -311.564 2.10952 -323.357C3.55243 -320.785 5.52384 -323.358 5.85241 -344.966C6.03697 -400.826 2.80441 -364.085 1.50132 -396.665C3.26301 -410.19 1.437 -445.827 5.22743 -446.764C5.20786 -463.11 3.43778 -466.134 2.41572 -472.445C4.08653 -501.351 2.8911 -607.473 6.92061 -574.893L7.18766 -567.483C7.26596 -568.866 7.27155 -570.503 7.35544 -572.203C11.1221 -666.957 5.20786 -769.037 6.83113 -863.05L5.56299 -862.902C6.28445 -890.949 6.49977 -922.156 6.87168 -951.364C6.98213 -958.666 7.08979 -965.843 7.19186 -972.811L7.63508 -996.362C7.98462 -1011.97 8.45999 -1025.43 9.1409 -1035.34L9.18005 -1035.33C13.1494 -1035.34 17.3859 -1036.72 20.508 -1038.55C23.5784 -1040.39 25.5036 -1042.67 23.2722 -1044.48L31.3843 -1043.59L33.1237 -1043.36C33.5585 -1043.29 33.9835 -1043.22 34.4016 -1043.14C35.2349 -1042.99 36.0388 -1042.85 36.8176 -1042.71C39.9327 -1042.15 42.6759 -1041.66 45.668 -1041.41C51.6522 -1040.9 58.629 -1041.3 71.5844 -1043.79C53.5509 -1049.09 77.8035 -1048.49 53.1035 -1047.67C76.4081 -1050.29 81.6862 -1055.15 106.709 -1046.85C98.1901 -1054.62 124.253 -1056.64 135.334 -1054.31L119.003 -1048.76C131.46 -1047.63 142.35 -1048.32 153.416 -1048.98L147.432 -1059.19C169.286 -1064.89 189.174 -1060.92 207.801 -1056.96C229.816 -1052.27 250.073 -1047.58 269.74 -1058.85C282.355 -1051.7 243.839 -1053.82 255.12 -1045.46C277.058 -1046.84 299.915 -1061.5 306.783 -1061.53C322.336 -1064.46 329.303 -1060.36 336.764 -1056.26C343.715 -1052.43 351.099 -1048.61 366.265 -1050.47C362.247 -1046.84 358.446 -1037.11 381.947 -1033.68C403.902 -1035.02 408.93 -1048.96 395.073 -1051.88C389.807 -1052.19 387.267 -1051.04 387.49 -1049.8C380.398 -1051.12 371.091 -1052.69 379.784 -1056.64L382.63 -1052.99C393.522 -1056.71 423.723 -1056.32 416.631 -1062.3C430.771 -1059.34 425.957 -1057.08 416.621 -1055.31C429.501 -1057.26 439.888 -1057.07 450.641 -1056.88C460.774 -1056.7 471.234 -1056.52 484.407 -1058.13C479.8 -1056.13 475.555 -1051.85 480.141 -1051.88C522.653 -1056.4 498.861 -1044.97 527.665 -1043.38C544.029 -1048.93 521.8 -1056.64 550.795 -1051.98C568.5 -1055.75 554.545 -1061.65 547.506 -1064.62C573.925 -1057.6 596.866 -1069.24 611.954 -1070.53L609.374 -1071.07H619.336L612.169 -1064.5C620.338 -1065.77 627.255 -1065.8 627.103 -1068.83C635.522 -1064.06 620.657 -1056.71 637.365 -1050.18C641.681 -1051.65 647.782 -1051.33 653.813 -1051.01C663.001 -1050.53 672.027 -1050.04 674.296 -1055.88C643.485 -1052.93 671.152 -1063.14 655.933 -1066.37C660.008 -1066.21 664.585 -1066.53 669.698 -1067.33C670.927 -1068.41 668.537 -1069.33 666.303 -1069.89C667.965 -1070.33 669.639 -1070.72 671.322 -1071.07H685.637C688.545 -1069.87 690.189 -1067.75 692.516 -1065.63C696.111 -1062.35 701.333 -1059.08 715.342 -1059.17C711.029 -1064.62 723.217 -1069.51 728.761 -1068.34C715.07 -1068.23 722.212 -1059.25 734.773 -1055.08C747.752 -1057.61 753.67 -1056 758.747 -1054.4C762.188 -1053.31 765.244 -1052.22 769.854 -1052.42L756.83 -1050.42C761.244 -1044.97 772.135 -1045.69 787.321 -1043.97C787.706 -1045.23 786.646 -1045.99 785.112 -1046.5C792.441 -1045.08 800.463 -1047.45 809.034 -1049.82C818.888 -1052.54 829.469 -1055.27 840.555 -1052.22C851.446 -1055.91 841.609 -1062.46 851.174 -1064.96C864.731 -1061.33 871.892 -1063.41 879.424 -1065.5C886.527 -1067.46 893.96 -1069.43 907.402 -1066.59C899.424 -1059.27 898.025 -1061.06 917.526 -1053.92L872 -1059.07L901.217 -1048.42C895.073 -1048.38 888.626 -1049.29 882.637 -1050.21C875.24 -1051.34 868.541 -1052.47 863.993 -1051.78C877.911 -1045.8 876.483 -1047.63 869.907 -1041.55C879.936 -1047.41 889.873 -1045.2 900.263 -1042.98C909.348 -1041.04 918.774 -1039.1 928.911 -1042.56L928.25 -1060.7C945.798 -1065.05 961.244 -1062.04 978.356 -1059.03C993.102 -1056.44 1009.09 -1053.85 1028.73 -1055.96L1015.09 -1052.81C1018.48 -1048.52 1027.11 -1048.98 1036.44 -1049.44C1042.79 -1049.75 1049.46 -1050.06 1055.03 -1048.88C1053.75 -1054.94 1062.34 -1057.14 1068.2 -1060.92C1067.49 -1056.42 1099.25 -1061.33 1103.11 -1049.22L1122.05 -1057.21C1139.62 -1058.88 1149.46 -1054.3 1159.31 -1049.71C1168.66 -1045.35 1178.04 -1040.99 1194.08 -1042C1184.16 -1048.59 1199.12 -1052.88 1177.06 -1057.6C1188.06 -1057.66 1197.94 -1058.76 1198.12 -1054.56C1201.14 -1056.35 1208.08 -1054.65 1215.62 -1052.94C1224.11 -1051.03 1233.37 -1049.11 1238.72 -1052.15C1243.35 -1049.49 1244.87 -1043.14 1257.21 -1043.65C1258 -1044.37 1257.85 -1045.28 1257.58 -1045.9C1260.33 -1043.42 1275.56 -1041.99 1265.7 -1035.85C1283.23 -1045.64 1307.97 -1044.93 1331.85 -1044.22C1354.11 -1043.56 1375.63 -1042.89 1389.85 -1050.73L1384.67 -1051.19L1392.87 -1052.46C1392 -1051.8 1390.86 -1051.31 1389.85 -1050.73C1413.85 -1048.69 1442.76 -1046.74 1464.54 -1046.3C1463.14 -1048.12 1464.47 -1049.32 1460.35 -1048.69C1475.21 -1051.48 1479.89 -1047.26 1484.96 -1043.04C1490.14 -1038.72 1495.73 -1034.4 1513.02 -1037.58C1530.49 -1047.38 1494.86 -1042.88 1505.75 -1046.59C1508.38 -1057.64 1520.76 -1055.62 1535.19 -1053.59C1546.82 -1051.96 1559.77 -1050.33 1570.03 -1055.52L1564.46 -1056.69C1574.53 -1060.57 1587.14 -1057.53 1601.47 -1054.49C1612.17 -1052.22 1623.83 -1049.95 1636.11 -1050.56C1636.11 -1050.56 1634.71 -1052.33 1635.94 -1053.57C1655.6 -1043.4 1692.8 -1040.03 1720.45 -1037.21C1711.85 -1045.01 1707.89 -1041.34 1713.14 -1049.27C1725.53 -1048.15 1709.51 -1036.53 1734.24 -1034.31C1742.29 -1038.59 1760.13 -1042.32 1762.5 -1050.78L1739.17 -1051.24C1746.67 -1058.11 1756.64 -1056.21 1766.07 -1054.31C1771.67 -1053.19 1777.08 -1052.06 1781.66 -1052.77L1780.09 -1057.55C1815.85 -1056 1816.35 -1043.94 1854.78 -1044.8L1850.81 -1041.17C1861.86 -1034.89 1866.15 -1037.08 1870.8 -1039.27C1874.98 -1041.25 1879.44 -1043.22 1889.37 -1039.01L1895.71 -1051.14C1909.56 -1048.21 1944.25 -1039.42 1969.1 -1037.14C1955.02 -1046.13 1925.94 -1050.73 1907.94 -1056.06C1921.68 -1056.15 1954.63 -1055.17 1961.79 -1049.18C1956.25 -1050.36 1949.27 -1053.32 1943.81 -1051.46C1960.66 -1041.93 1982.83 -1037.25 2010.21 -1037.45C2008.62 -1045.14 2015.7 -1048.43 2026.64 -1050.02C2032.11 -1050.81 2038.55 -1051.18 2045.35 -1051.46C2055.49 -1051.75 2066.17 -1052.06 2076.5 -1052.36C2076.69 -1026.55 2077 -1001.58 2077.59 -979.036L2077.62 -978.039L2077.64 -977.36L2077.7 -976.015C2077.74 -975.12 2077.78 -974.239 2077.82 -973.364C2077.91 -971.616 2078 -969.91 2078.09 -968.247C2078.27 -964.919 2078.48 -961.759 2078.7 -958.805C2079.16 -952.89 2079.71 -947.777 2080.37 -943.667C2076.74 -827.843 2081.92 -713.889 2081.34 -578.944C2076.86 -606.982 2077.56 -588.653 2077.32 -570.323C2077.15 -557.363 2076.52 -544.403 2073.27 -547.834C2072.77 -516.627 2072.9 -504.596 2073.4 -501.681L2073.07 -508.29C2073.22 -505.467 2073.31 -503.882 2073.44 -501.477H2073.42L2078.1 -406.36C2079.41 -393.371 2079.79 -405.23 2080.2 -417.091C2080.51 -425.84 2080.84 -434.59 2081.59 -433.365C2082.19 -364.557 2084.91 -404.478 2087 -358.979V-358.955C2084.2 -368.278 2082.98 -335.017 2084.05 -295.797L2080.43 -351.037C2076.26 -254.865 2087.02 -267.908 2082.89 -170.973L2085.35 -201.633C2084.81 -183.004 2084.68 -152.597 2084.4 -119.284H2054.72C2054.68 -114.768 2054.62 -110.252 2054.54 -105.737L2055.81 -105.887C2055.09 -77.8393 2054.87 -46.6308 2054.5 -17.4245C2054.39 -10.1219 2054.28 -2.94505 2054.18 4.02621L2053.73 27.5725C2053.38 43.1788 2052.91 56.6461 2052.23 66.5536L2052.19 66.5423C2048.22 66.5465 2043.98 67.932 2040.86 69.765C2037.79 71.5994 2035.86 73.884 2038.1 75.6918C2035.09 75.3604 2032.43 75.0697 2029.98 74.8012C2029.39 74.7257 2028.81 74.6476 2028.25 74.5749C2027.81 74.5008 2027.38 74.4251 2026.97 74.351C2026.13 74.2 2025.33 74.0576 2024.55 73.9206C2021.43 73.3585 2018.69 72.8748 2015.7 72.6204C2009.72 72.11 2002.74 72.5082 1989.79 75.0081C2007.82 80.2988 1983.56 79.6992 2008.27 78.8841C1984.96 81.4987 1979.69 86.3573 1954.66 78.0676C1963.18 85.8316 1937.12 87.8506 1926.04 85.5254L1942.37 79.9717C1929.91 78.8377 1919.02 79.5285 1907.95 80.187L1913.94 90.4019C1892.08 96.0995 1872.19 92.1358 1853.57 88.1678C1831.55 83.4811 1811.29 78.7931 1791.63 90.0595C1779.01 82.9135 1817.53 85.029 1806.25 76.6735C1784.31 78.0535 1761.45 92.7132 1754.59 92.7426C1739.03 95.6731 1732.07 91.5696 1724.61 87.4673C1717.65 83.6434 1710.27 79.8194 1695.1 81.6859C1699.12 78.0535 1702.92 68.3224 1679.42 64.8871C1657.47 66.2377 1652.44 80.1732 1666.3 83.0953C1671.56 83.4029 1674.1 82.2494 1673.88 81.0135C1680.97 82.3319 1690.28 83.8977 1681.59 87.8503L1678.74 84.204C1667.85 87.9232 1637.64 87.5346 1644.74 93.5062C1630.6 90.5518 1635.41 88.295 1644.75 86.5249C1631.87 88.4753 1621.48 88.2838 1610.73 88.0951C1600.59 87.9133 1590.14 87.7372 1576.96 89.3465C1581.57 87.3415 1585.81 83.059 1581.23 83.0953C1538.72 87.6086 1562.51 76.1842 1533.7 74.5889C1517.34 80.1424 1539.57 87.8503 1510.57 83.193C1492.87 86.9554 1506.83 92.8627 1513.86 95.8324C1487.44 88.8067 1464.51 100.452 1449.42 101.74L1451.99 102.285L1442.03 102.286ZM1395.07 101.097C1395.41 100.999 1395.53 100.999 1395.85 100.929C1398.16 101.42 1398.67 101.624 1398.24 101.624C1397.82 101.624 1396.46 101.42 1395.07 101.097ZM1405.44 97.5774C1407.9 97.6697 1410.18 97.9311 1412.28 98.3673C1409.37 98.2093 1407.14 97.9396 1405.44 97.5774ZM993.168 92.1302C993.031 93.0166 992.093 94.1015 989.029 95.9065C989.86 94.3867 991.479 93.2333 993.168 92.1302ZM1809.52 92.3695L1824.8 94.1032L1830.22 95.2187L1809.52 92.3695ZM697.58 91.3038L701.327 81.6286C708.725 83.1624 710.963 91.8018 701.85 91.8032C700.634 91.8032 699.216 91.6491 697.58 91.3038ZM1571.29 90.0415C1573.35 89.7185 1575.09 89.5743 1576.96 89.3492C1575.52 89.97 1574.08 90.4077 1572.88 90.4077C1572.28 90.4077 1571.73 90.2973 1571.29 90.0415ZM183.53 84.6471C192.943 84.0753 202.33 81.2049 208.32 81.2049C209.293 81.2049 210.175 81.2818 210.954 81.4565C207.509 84.5982 200.521 87.0116 193.734 87.0116C190.079 87.0116 186.483 86.3109 183.53 84.6471ZM2028.54 86.3781L2027.64 86.2593L2026.94 86.1364C2026.09 85.9672 2025.54 85.7811 2025.23 85.5756C2024.62 85.1589 2024.95 84.6669 2025.61 84.0559C2026.28 83.4449 2027.28 82.7192 2028.03 81.844C2028.13 81.7307 2028.21 81.6174 2028.3 81.5111C2028.42 81.3853 2028.53 81.2678 2028.63 81.1643C2028.84 80.9252 2029.01 80.6778 2029.13 80.4219C2029.3 80.0507 2029.35 79.6339 2029.27 79.2323C2030.02 81.71 2030.84 84.1663 2031.73 86.5989C2030.52 86.5137 2029.47 86.4424 2028.54 86.3781ZM820.963 84.4222C821.48 83.9803 821.99 83.6726 822.653 83.3664C824.125 84.229 825.963 84.7491 828.657 84.4304C827.507 84.696 826.427 84.9059 825.047 84.9059C823.941 84.9059 822.642 84.7717 820.963 84.4222ZM1291.52 83.6278L1284.03 84.7816C1286.48 84.1254 1288.99 83.7383 1291.52 83.6278ZM831.972 83.7258C830.733 84.0935 829.641 84.3157 828.657 84.4304C829.637 84.2067 830.667 83.9383 831.972 83.7258ZM1667.57 78.8377C1671.87 79.0768 1673.66 80.0907 1673.88 81.0135C1669.9 80.3451 1666.62 79.7213 1667.57 78.8377ZM1278.26 78.213C1281.74 78.8758 1285.59 78.8755 1282.42 79.9717C1281.1 79.23 1279.71 78.6402 1278.26 78.213ZM2029.12 78.7483C2029.19 78.9118 2029.24 79.0727 2029.27 79.2279C2029.22 79.0671 2029.17 78.909 2029.12 78.7483ZM1276.26 77.7123C1276.93 77.8437 1277.6 78.0145 1278.26 78.213C1277.58 78.0896 1276.91 77.9212 1276.26 77.7123ZM803.789 77.1139C804.046 77.3488 804.202 77.5894 804.208 77.8508C804.208 77.8508 803.972 77.5501 803.789 77.1139ZM9.82601 -214.865L9.80783 -214.347C9.81342 -214.521 9.81901 -214.691 9.8274 -214.864L9.82601 -214.865ZM0.935061 -326.875V-327.481C1.34472 -327.236 1.73621 -325.67 2.10952 -323.357C1.63974 -324.031 1.22169 -325.372 0.935061 -326.875ZM2073.44 -501.481C2073.96 -499.18 2074.89 -507.011 2075.94 -514.839C2077.71 -527.922 2079.85 -541.005 2081.16 -506.822C2079.66 -527.312 2078.65 -513.058 2077.64 -498.811C2077 -489.68 2076.35 -480.553 2075.57 -480.553C2074.96 -480.553 2074.27 -486.09 2073.44 -501.481ZM7.1569 -573.61C7.21703 -573.299 7.27994 -572.902 7.35404 -572.206C7.27854 -572.606 7.21423 -573.091 7.1569 -573.61ZM6.92061 -574.896L6.83952 -577.35C6.93739 -575.974 7.03526 -574.689 7.1569 -573.61C7.07581 -574.029 7.00311 -574.291 6.92061 -574.896ZM6.33478 -591.378L6.84092 -577.35C6.56129 -581.174 6.40749 -585.982 6.33478 -591.378ZM4.99953 -627.414C6.38372 -629.935 6.02718 -608.946 6.33478 -591.378L4.99953 -627.414ZM1257.16 -1046.64C1257.16 -1046.64 1257.4 -1046.34 1257.58 -1045.9C1257.32 -1046.14 1257.17 -1046.38 1257.16 -1046.64ZM783.11 -1047C783.815 -1046.87 784.5 -1046.7 785.114 -1046.5C784.438 -1046.63 783.77 -1046.8 783.11 -1047ZM778.951 -1048.76C780.307 -1047.99 781.695 -1047.42 783.11 -1047C779.629 -1047.66 775.78 -1047.67 778.951 -1048.76ZM32.1016 -1048.02C32.1505 -1047.86 32.2051 -1047.7 32.2526 -1047.54C32.184 -1047.69 32.1334 -1047.85 32.1016 -1048.02ZM387.492 -1049.8C391.477 -1049.13 394.751 -1048.51 393.793 -1047.63C389.501 -1047.87 387.706 -1048.88 387.492 -1049.8ZM29.6436 -1055.39L32.8272 -1055.17C33.1488 -1055.12 33.4522 -1055.09 33.7305 -1055.05C33.9835 -1055 34.217 -1054.96 34.4295 -1054.92C35.2838 -1054.76 35.8277 -1054.57 36.1367 -1054.37C36.7519 -1053.95 36.4247 -1053.46 35.7606 -1052.84C35.0937 -1052.23 34.0856 -1051.51 33.339 -1050.63C33.2453 -1050.52 33.1572 -1050.41 33.0705 -1050.3C32.9531 -1050.17 32.8426 -1050.06 32.7392 -1049.95C32.5308 -1049.71 32.3617 -1049.47 32.2442 -1049.21C32.0705 -1048.84 32.02 -1048.42 32.1002 -1048.02C31.3503 -1050.5 30.5311 -1052.95 29.6436 -1055.39ZM1850.42 -1050.24C1855.72 -1055.08 1869.4 -1058.19 1877.84 -1053.44C1868.43 -1052.86 1859.04 -1050 1853.05 -1050C1852.08 -1050 1851.19 -1050.07 1850.42 -1050.24ZM1363.79 -1060.09L1360.04 -1050.42C1351.66 -1052.15 1349.9 -1063.03 1363.79 -1060.09ZM1232.71 -1053.22C1234.78 -1053.7 1236.63 -1053.99 1240.41 -1053.21C1239.89 -1052.77 1239.38 -1052.46 1238.72 -1052.15C1237.24 -1053.02 1235.41 -1053.54 1232.71 -1053.22ZM777.338 -1053.57C774.893 -1052.91 772.384 -1052.53 769.854 -1052.42L777.338 -1053.57ZM1232.71 -1053.22C1231.73 -1053 1230.7 -1052.73 1229.4 -1052.52C1230.48 -1052.84 1231.59 -1053.08 1232.71 -1053.22V-1053.22ZM490.082 -1058.83C488.017 -1058.51 486.279 -1058.36 484.406 -1058.14C486.572 -1059.08 488.751 -1059.59 490.082 -1058.83ZM1072.34 -1064.7C1071.51 -1063.18 1069.89 -1062.02 1068.2 -1060.92C1068.34 -1061.8 1069.28 -1062.89 1072.34 -1064.7ZM236.572 -1062.89L231.154 -1064.01L251.847 -1061.16L236.571 -1062.89H236.572ZM649.085 -1067.15C652.003 -1067 654.23 -1066.73 655.933 -1066.36C653.472 -1066.46 651.192 -1066.72 649.085 -1067.15ZM666.303 -1069.89C665.962 -1069.79 665.842 -1069.79 665.523 -1069.72C660.888 -1070.7 663.51 -1070.53 666.303 -1069.89Z" fill="#FAF3D5"/>
<path d="M1442.03 102.286L1449.2 95.7123C1441.03 96.9818 1434.11 97.0085 1434.27 100.047C1425.85 95.2706 1440.71 87.9245 1424 81.3951C1419.69 82.8632 1413.59 82.543 1407.56 82.2256C1398.37 81.7404 1389.34 81.2538 1387.07 87.0912C1417.89 84.141 1390.22 94.3533 1405.44 97.5774C1401.36 97.4222 1396.78 97.7397 1391.67 98.5366C1390.44 99.6202 1392.83 100.54 1395.07 101.097C1393.4 101.539 1391.73 101.935 1390.05 102.285H1375.73C1372.82 101.078 1371.18 98.9604 1368.85 96.8422C1365.26 93.5649 1360.04 90.2902 1346.03 90.3825C1350.34 95.8339 1338.15 100.721 1332.61 99.5573C1346.3 99.4454 1339.16 90.4664 1326.6 86.2887C1313.62 88.8193 1307.7 87.2142 1302.62 85.6063C1299.18 84.5199 1296.13 83.4293 1291.52 83.6278L1304.54 81.6286C1300.12 76.1841 1289.23 76.8971 1274.05 75.1801C1273.67 76.4371 1274.72 77.2047 1276.26 77.7123C1268.93 76.2889 1260.91 78.6589 1252.33 81.0288C1242.48 83.7538 1231.9 86.4788 1220.81 83.4336C1209.92 87.1234 1219.76 93.6724 1210.2 96.1765C1196.64 92.5413 1189.48 94.6244 1181.95 96.7077C1174.84 98.6749 1167.41 100.641 1153.97 97.8041C1161.95 90.4805 1163.34 92.2701 1143.84 85.1352L1189.37 90.2845L1160.15 79.6334C1166.3 79.5872 1172.74 80.5015 1178.73 81.4159C1186.13 82.5484 1192.83 83.6798 1197.38 82.9933C1183.46 77.0161 1184.89 78.8378 1191.46 72.7586C1181.43 78.6225 1171.5 76.4063 1161.11 74.1902C1152.02 72.2538 1142.59 70.3174 1132.46 73.7779L1133.12 91.9121C1115.57 96.2548 1100.13 93.2489 1083.02 90.2429C1068.27 87.652 1052.28 85.0612 1032.64 87.1738L1046.28 84.0153C1042.89 79.7299 1034.26 80.1872 1024.93 80.6485C1018.58 80.9617 1011.91 81.2733 1006.34 80.0891C1007.62 86.1529 999.032 88.3537 993.171 92.1302C993.881 87.6337 962.115 92.5412 958.261 80.4359L939.32 88.418C921.745 90.0958 911.913 85.507 902.059 80.9168C892.705 76.5602 883.329 72.205 867.292 73.2075C877.212 79.7984 862.244 84.0936 884.307 88.8068C873.31 88.8683 863.424 89.9757 863.25 85.7742C860.227 87.5611 853.293 85.8582 845.747 84.1552C837.263 82.2397 828.003 80.3212 822.653 83.3664C818.017 80.7015 816.501 74.3552 804.158 74.8586C803.367 75.58 803.523 76.4862 803.788 77.1098C801.043 74.628 785.813 73.1962 795.668 67.0666C778.138 76.858 753.398 76.1462 729.516 75.4303C707.257 74.7662 685.745 74.1024 671.517 81.9419L676.697 82.4004L668.501 83.6726C669.366 83.0154 670.51 82.5194 671.517 81.9419C647.52 79.9034 618.61 77.9513 596.828 77.5095C598.226 79.3257 596.898 80.5312 601.017 79.9034C586.166 82.6885 581.483 78.4686 576.415 74.2476C571.231 69.9272 565.642 65.6098 548.348 68.7949C530.881 78.5918 566.509 74.0938 555.616 77.8017C552.993 88.8528 540.611 86.8284 526.177 84.8011C514.554 83.168 501.602 81.5362 491.338 86.7304L496.908 87.9022C486.84 91.7835 474.234 88.7411 459.899 85.7029C449.203 83.4323 437.542 81.163 425.259 81.7712C425.259 81.7712 426.654 83.54 425.425 84.7816C405.771 74.6071 368.568 71.2444 340.92 68.4187C349.523 76.2219 353.481 72.5488 348.231 80.4792C335.838 79.3579 351.862 67.7419 327.125 65.5244C319.084 69.7986 301.239 73.5303 298.872 81.9948L322.203 82.4505C314.705 89.3239 304.729 87.4241 295.297 85.5268C289.697 84.3998 284.289 83.273 279.709 83.9805L281.28 88.7621C245.519 87.2101 245.023 75.1496 206.59 76.0137L210.564 72.3838C199.511 66.099 195.215 68.2943 190.571 70.4866C186.391 72.458 181.928 74.4322 172.004 70.2237L165.666 82.3485C151.806 79.4235 117.121 70.6294 92.2689 68.3531C106.348 77.3392 135.428 81.9419 153.425 87.2731C139.686 87.3612 106.74 86.378 99.5841 80.3966C105.121 81.5669 112.095 84.5355 117.563 82.6717C100.71 73.1418 78.5347 68.4565 51.1614 68.6621C52.7483 76.3506 45.6666 79.6375 34.7274 81.2258C29.2563 82.0227 22.8206 82.3907 16.0199 82.6717L-15.1285 83.5736C-15.3214 57.7592 -15.6304 32.7878 -16.219 10.248L-16.247 9.24954L-16.2764 8.57162L-16.3323 7.2267L-16.4553 4.57544C-16.5434 2.82773 -16.6315 1.12069 -16.7182 -0.541727C-16.9027 -3.87216 -17.1083 -7.02912 -17.3362 -9.98345C-17.792 -15.8977 -18.3401 -21.0124 -19 -25.1216C-17.8787 -60.8783 -17.5976 -96.4616 -17.7277 -132.534H4.4892C4.88069 -156.565 4.91145 -182.034 4.00404 -209.772C5.06525 -211.073 6.39071 -205.602 7.77629 -200.131C9.30169 -194.109 10.8984 -188.086 12.2882 -191.097V-230.094C11.2675 -228.903 10.3475 -225.269 9.91409 -216.755C10.2818 -224.374 11.2032 -238.971 10.5251 -250.699L7.53441 -220.342C6.22293 -253.07 10.0329 -237.456 9.7547 -263.625C8.58024 -263.386 8.10486 -267.526 7.73435 -271.665C7.30511 -276.46 7.01289 -281.256 5.93491 -279.241C5.69023 -272.558 6.98353 -256.409 5.98524 -246.39C5.53223 -275.895 4.0334 -311.564 2.10952 -323.357C3.55243 -320.785 5.52384 -323.358 5.85241 -344.966C6.03697 -400.826 2.80441 -364.085 1.50132 -396.665C3.26301 -410.19 1.437 -445.827 5.22743 -446.764C5.20786 -463.11 3.43778 -466.134 2.41572 -472.445C4.08653 -501.351 2.8911 -607.473 6.92061 -574.893L7.18766 -567.483C7.26596 -568.866 7.27155 -570.503 7.35544 -572.203C11.1221 -666.957 5.20786 -769.037 6.83113 -863.05L5.56299 -862.902C6.28445 -890.949 6.49977 -922.156 6.87168 -951.364C6.98213 -958.666 7.08979 -965.843 7.19186 -972.811L7.63508 -996.362C7.98462 -1011.97 8.45999 -1025.43 9.1409 -1035.34L9.18005 -1035.33C13.1494 -1035.34 17.3859 -1036.72 20.508 -1038.55C23.5784 -1040.39 25.5036 -1042.67 23.2722 -1044.48L31.3843 -1043.59L33.1237 -1043.36C33.5585 -1043.29 33.9835 -1043.22 34.4016 -1043.14C35.2349 -1042.99 36.0388 -1042.85 36.8176 -1042.71C39.9327 -1042.15 42.6759 -1041.66 45.668 -1041.41C51.6522 -1040.9 58.629 -1041.3 71.5844 -1043.79C53.5509 -1049.09 77.8035 -1048.49 53.1035 -1047.67C76.4081 -1050.29 81.6862 -1055.15 106.709 -1046.85C98.1901 -1054.62 124.253 -1056.64 135.334 -1054.31L119.003 -1048.76C131.46 -1047.63 142.35 -1048.32 153.416 -1048.98L147.432 -1059.19C169.286 -1064.89 189.174 -1060.92 207.801 -1056.96C229.816 -1052.27 250.073 -1047.58 269.74 -1058.85C282.355 -1051.7 243.839 -1053.82 255.12 -1045.46C277.058 -1046.84 299.915 -1061.5 306.783 -1061.53C322.336 -1064.46 329.303 -1060.36 336.764 -1056.26C343.715 -1052.43 351.099 -1048.61 366.265 -1050.47C362.247 -1046.84 358.446 -1037.11 381.947 -1033.68C403.902 -1035.02 408.93 -1048.96 395.073 -1051.88C389.807 -1052.19 387.267 -1051.04 387.49 -1049.8C380.398 -1051.12 371.091 -1052.69 379.784 -1056.64L382.63 -1052.99C393.522 -1056.71 423.723 -1056.32 416.631 -1062.3C430.771 -1059.34 425.957 -1057.08 416.621 -1055.31C429.501 -1057.26 439.888 -1057.07 450.641 -1056.88C460.774 -1056.7 471.234 -1056.52 484.407 -1058.13C479.8 -1056.13 475.555 -1051.85 480.141 -1051.88C522.653 -1056.4 498.861 -1044.97 527.665 -1043.38C544.029 -1048.93 521.8 -1056.64 550.795 -1051.98C568.5 -1055.75 554.545 -1061.65 547.506 -1064.62C573.925 -1057.6 596.866 -1069.24 611.954 -1070.53L609.374 -1071.07H619.336L612.169 -1064.5C620.338 -1065.77 627.255 -1065.8 627.103 -1068.83C635.522 -1064.06 620.657 -1056.71 637.365 -1050.18C641.681 -1051.65 647.782 -1051.33 653.813 -1051.01C663.001 -1050.53 672.027 -1050.04 674.296 -1055.88C643.485 -1052.93 671.152 -1063.14 655.933 -1066.37C660.008 -1066.21 664.585 -1066.53 669.698 -1067.33C670.927 -1068.41 668.537 -1069.33 666.303 -1069.89C667.965 -1070.33 669.639 -1070.72 671.322 -1071.07H685.637C688.545 -1069.87 690.189 -1067.75 692.516 -1065.63C696.111 -1062.35 701.333 -1059.08 715.342 -1059.17C711.029 -1064.62 723.217 -1069.51 728.761 -1068.34C715.07 -1068.23 722.212 -1059.25 734.773 -1055.08C747.752 -1057.61 753.67 -1056 758.747 -1054.4C762.188 -1053.31 765.244 -1052.22 769.854 -1052.42L756.83 -1050.42C761.244 -1044.97 772.135 -1045.69 787.321 -1043.97C787.706 -1045.23 786.646 -1045.99 785.112 -1046.5C792.441 -1045.08 800.463 -1047.45 809.034 -1049.82C818.888 -1052.54 829.469 -1055.27 840.555 -1052.22C851.446 -1055.91 841.609 -1062.46 851.174 -1064.96C864.731 -1061.33 871.892 -1063.41 879.424 -1065.5C886.527 -1067.46 893.96 -1069.43 907.402 -1066.59C899.424 -1059.27 898.025 -1061.06 917.526 -1053.92L872 -1059.07L901.217 -1048.42C895.073 -1048.38 888.626 -1049.29 882.637 -1050.21C875.24 -1051.34 868.541 -1052.47 863.993 -1051.78C877.911 -1045.8 876.483 -1047.63 869.907 -1041.55C879.936 -1047.41 889.873 -1045.2 900.263 -1042.98C909.348 -1041.04 918.774 -1039.1 928.911 -1042.56L928.25 -1060.7C945.798 -1065.05 961.244 -1062.04 978.356 -1059.03C993.102 -1056.44 1009.09 -1053.85 1028.73 -1055.96L1015.09 -1052.81C1018.48 -1048.52 1027.11 -1048.98 1036.44 -1049.44C1042.79 -1049.75 1049.46 -1050.06 1055.03 -1048.88C1053.75 -1054.94 1062.34 -1057.14 1068.2 -1060.92C1067.49 -1056.42 1099.25 -1061.33 1103.11 -1049.22L1122.05 -1057.21C1139.62 -1058.88 1149.46 -1054.3 1159.31 -1049.71C1168.66 -1045.35 1178.04 -1040.99 1194.08 -1042C1184.16 -1048.59 1199.12 -1052.88 1177.06 -1057.6C1188.06 -1057.66 1197.94 -1058.76 1198.12 -1054.56C1201.14 -1056.35 1208.08 -1054.65 1215.62 -1052.94C1224.11 -1051.03 1233.37 -1049.11 1238.72 -1052.15C1243.35 -1049.49 1244.87 -1043.14 1257.21 -1043.65C1258 -1044.37 1257.85 -1045.28 1257.58 -1045.9C1260.33 -1043.42 1275.56 -1041.99 1265.7 -1035.85C1283.23 -1045.64 1307.97 -1044.93 1331.85 -1044.22C1354.11 -1043.56 1375.63 -1042.89 1389.85 -1050.73L1384.67 -1051.19L1392.87 -1052.46C1392 -1051.8 1390.86 -1051.31 1389.85 -1050.73C1413.85 -1048.69 1442.76 -1046.74 1464.54 -1046.3C1463.14 -1048.12 1464.47 -1049.32 1460.35 -1048.69C1475.21 -1051.48 1479.89 -1047.26 1484.96 -1043.04C1490.14 -1038.72 1495.73 -1034.4 1513.02 -1037.58C1530.49 -1047.38 1494.86 -1042.88 1505.75 -1046.59C1508.38 -1057.64 1520.76 -1055.62 1535.19 -1053.59C1546.82 -1051.96 1559.77 -1050.33 1570.03 -1055.52L1564.46 -1056.69C1574.53 -1060.57 1587.14 -1057.53 1601.47 -1054.49C1612.17 -1052.22 1623.83 -1049.95 1636.11 -1050.56C1636.11 -1050.56 1634.71 -1052.33 1635.94 -1053.57C1655.6 -1043.4 1692.8 -1040.03 1720.45 -1037.21C1711.85 -1045.01 1707.89 -1041.34 1713.14 -1049.27C1725.53 -1048.15 1709.51 -1036.53 1734.24 -1034.31C1742.29 -1038.59 1760.13 -1042.32 1762.5 -1050.78L1739.17 -1051.24C1746.67 -1058.11 1756.64 -1056.21 1766.07 -1054.31C1771.67 -1053.19 1777.08 -1052.06 1781.66 -1052.77L1780.09 -1057.55C1815.85 -1056 1816.35 -1043.94 1854.78 -1044.8L1850.81 -1041.17C1861.86 -1034.89 1866.15 -1037.08 1870.8 -1039.27C1874.98 -1041.25 1879.44 -1043.22 1889.37 -1039.01L1895.71 -1051.14C1909.56 -1048.21 1944.25 -1039.42 1969.1 -1037.14C1955.02 -1046.13 1925.94 -1050.73 1907.94 -1056.06C1921.68 -1056.15 1954.63 -1055.17 1961.79 -1049.18C1956.25 -1050.36 1949.27 -1053.32 1943.81 -1051.46C1960.66 -1041.93 1982.83 -1037.25 2010.21 -1037.45C2008.62 -1045.14 2015.7 -1048.43 2026.64 -1050.02C2032.11 -1050.81 2038.55 -1051.18 2045.35 -1051.46C2055.49 -1051.75 2066.17 -1052.06 2076.5 -1052.36C2076.69 -1026.55 2077 -1001.58 2077.59 -979.036L2077.62 -978.039L2077.64 -977.36L2077.7 -976.015C2077.74 -975.12 2077.78 -974.239 2077.82 -973.364C2077.91 -971.616 2078 -969.91 2078.09 -968.247C2078.27 -964.919 2078.48 -961.759 2078.7 -958.805C2079.16 -952.89 2079.71 -947.777 2080.37 -943.667C2076.74 -827.843 2081.92 -713.889 2081.34 -578.944C2076.86 -606.982 2077.56 -588.653 2077.32 -570.323C2077.15 -557.363 2076.52 -544.403 2073.27 -547.834C2072.77 -516.627 2072.9 -504.596 2073.4 -501.681L2073.07 -508.29C2073.22 -505.467 2073.31 -503.882 2073.44 -501.477H2073.42L2078.1 -406.36C2079.41 -393.371 2079.79 -405.23 2080.2 -417.091C2080.51 -425.84 2080.84 -434.59 2081.59 -433.365C2082.19 -364.557 2084.91 -404.478 2087 -358.979V-358.955C2084.2 -368.278 2082.98 -335.017 2084.05 -295.797L2080.43 -351.037C2076.26 -254.865 2087.02 -267.908 2082.89 -170.973L2085.35 -201.633C2084.81 -183.004 2084.68 -152.597 2084.4 -119.284H2054.72C2054.68 -114.768 2054.62 -110.252 2054.54 -105.737L2055.81 -105.887C2055.09 -77.8393 2054.87 -46.6308 2054.5 -17.4245C2054.39 -10.1219 2054.28 -2.94505 2054.18 4.02621L2053.73 27.5725C2053.38 43.1788 2052.91 56.6461 2052.23 66.5536L2052.19 66.5423C2048.22 66.5465 2043.98 67.932 2040.86 69.765C2037.79 71.5994 2035.86 73.884 2038.1 75.6918C2035.09 75.3604 2032.43 75.0697 2029.98 74.8012C2029.39 74.7257 2028.81 74.6476 2028.25 74.5749C2027.81 74.5008 2027.38 74.4251 2026.97 74.351C2026.13 74.2 2025.33 74.0576 2024.55 73.9206C2021.43 73.3585 2018.69 72.8748 2015.7 72.6204C2009.72 72.11 2002.74 72.5082 1989.79 75.0081C2007.82 80.2988 1983.56 79.6992 2008.27 78.8841C1984.96 81.4987 1979.69 86.3573 1954.66 78.0676C1963.18 85.8316 1937.12 87.8506 1926.04 85.5254L1942.37 79.9717C1929.91 78.8377 1919.02 79.5285 1907.95 80.187L1913.94 90.4019C1892.08 96.0995 1872.19 92.1358 1853.57 88.1678C1831.55 83.4811 1811.29 78.7931 1791.63 90.0595C1779.01 82.9135 1817.53 85.029 1806.25 76.6735C1784.31 78.0535 1761.45 92.7132 1754.59 92.7426C1739.03 95.6731 1732.07 91.5696 1724.61 87.4673C1717.65 83.6434 1710.27 79.8194 1695.1 81.6859C1699.12 78.0535 1702.92 68.3224 1679.42 64.8871C1657.47 66.2377 1652.44 80.1732 1666.3 83.0953C1671.56 83.4029 1674.1 82.2494 1673.88 81.0135C1680.97 82.3319 1690.28 83.8977 1681.59 87.8503L1678.74 84.204C1667.85 87.9232 1637.64 87.5346 1644.74 93.5062C1630.6 90.5518 1635.41 88.295 1644.75 86.5249C1631.87 88.4753 1621.48 88.2838 1610.73 88.0951C1600.59 87.9133 1590.14 87.7372 1576.96 89.3465C1581.57 87.3415 1585.81 83.059 1581.23 83.0953C1538.72 87.6086 1562.51 76.1842 1533.7 74.5889C1517.34 80.1424 1539.57 87.8503 1510.57 83.193C1492.87 86.9554 1506.83 92.8627 1513.86 95.8324C1487.44 88.8067 1464.51 100.452 1449.42 101.74L1451.99 102.285L1442.03 102.286ZM1395.07 101.097C1395.41 100.999 1395.53 100.999 1395.85 100.929C1398.16 101.42 1398.67 101.624 1398.24 101.624C1397.82 101.624 1396.46 101.42 1395.07 101.097ZM1405.44 97.5774C1407.9 97.6697 1410.18 97.9311 1412.28 98.3673C1409.37 98.2093 1407.14 97.9396 1405.44 97.5774ZM993.168 92.1302C993.031 93.0166 992.093 94.1015 989.029 95.9065C989.86 94.3867 991.479 93.2333 993.168 92.1302ZM1809.52 92.3695L1824.8 94.1032L1830.22 95.2187L1809.52 92.3695ZM697.58 91.3038L701.327 81.6286C708.725 83.1624 710.963 91.8018 701.85 91.8032C700.634 91.8032 699.216 91.6491 697.58 91.3038ZM1571.29 90.0415C1573.35 89.7185 1575.09 89.5743 1576.96 89.3492C1575.52 89.97 1574.08 90.4077 1572.88 90.4077C1572.28 90.4077 1571.73 90.2973 1571.29 90.0415ZM183.53 84.6471C192.943 84.0753 202.33 81.2049 208.32 81.2049C209.293 81.2049 210.175 81.2818 210.954 81.4565C207.509 84.5982 200.521 87.0116 193.734 87.0116C190.079 87.0116 186.483 86.3109 183.53 84.6471ZM2028.54 86.3781L2027.64 86.2593L2026.94 86.1364C2026.09 85.9672 2025.54 85.7811 2025.23 85.5756C2024.62 85.1589 2024.95 84.6669 2025.61 84.0559C2026.28 83.4449 2027.28 82.7192 2028.03 81.844C2028.13 81.7307 2028.21 81.6174 2028.3 81.5111C2028.42 81.3853 2028.53 81.2678 2028.63 81.1643C2028.84 80.9252 2029.01 80.6778 2029.13 80.4219C2029.3 80.0507 2029.35 79.6339 2029.27 79.2323C2030.02 81.71 2030.84 84.1663 2031.73 86.5989C2030.52 86.5137 2029.47 86.4424 2028.54 86.3781ZM820.963 84.4222C821.48 83.9803 821.99 83.6726 822.653 83.3664C824.125 84.229 825.963 84.7491 828.657 84.4304C827.507 84.696 826.427 84.9059 825.047 84.9059C823.941 84.9059 822.642 84.7717 820.963 84.4222ZM1291.52 83.6278L1284.03 84.7816C1286.48 84.1254 1288.99 83.7383 1291.52 83.6278ZM831.972 83.7258C830.733 84.0935 829.641 84.3157 828.657 84.4304C829.637 84.2067 830.667 83.9383 831.972 83.7258ZM1667.57 78.8377C1671.87 79.0768 1673.66 80.0907 1673.88 81.0135C1669.9 80.3451 1666.62 79.7213 1667.57 78.8377ZM1278.26 78.213C1281.74 78.8758 1285.59 78.8755 1282.42 79.9717C1281.1 79.23 1279.71 78.6402 1278.26 78.213ZM2029.12 78.7483C2029.19 78.9118 2029.24 79.0727 2029.27 79.2279C2029.22 79.0671 2029.17 78.909 2029.12 78.7483ZM1276.26 77.7123C1276.93 77.8437 1277.6 78.0145 1278.26 78.213C1277.58 78.0896 1276.91 77.9212 1276.26 77.7123ZM803.789 77.1139C804.046 77.3488 804.202 77.5894 804.208 77.8508C804.208 77.8508 803.972 77.5501 803.789 77.1139ZM9.82601 -214.865L9.80783 -214.347C9.81342 -214.521 9.81901 -214.691 9.8274 -214.864L9.82601 -214.865ZM0.935061 -326.875V-327.481C1.34472 -327.236 1.73621 -325.67 2.10952 -323.357C1.63974 -324.031 1.22169 -325.372 0.935061 -326.875ZM2073.44 -501.481C2073.96 -499.18 2074.89 -507.011 2075.94 -514.839C2077.71 -527.922 2079.85 -541.005 2081.16 -506.822C2079.66 -527.312 2078.65 -513.058 2077.64 -498.811C2077 -489.68 2076.35 -480.553 2075.57 -480.553C2074.96 -480.553 2074.27 -486.09 2073.44 -501.481ZM7.1569 -573.61C7.21703 -573.299 7.27994 -572.902 7.35404 -572.206C7.27854 -572.606 7.21423 -573.091 7.1569 -573.61ZM6.92061 -574.896L6.83952 -577.35C6.93739 -575.974 7.03526 -574.689 7.1569 -573.61C7.07581 -574.029 7.00311 -574.291 6.92061 -574.896ZM6.33478 -591.378L6.84092 -577.35C6.56129 -581.174 6.40749 -585.982 6.33478 -591.378ZM4.99953 -627.414C6.38372 -629.935 6.02718 -608.946 6.33478 -591.378L4.99953 -627.414ZM1257.16 -1046.64C1257.16 -1046.64 1257.4 -1046.34 1257.58 -1045.9C1257.32 -1046.14 1257.17 -1046.38 1257.16 -1046.64ZM783.11 -1047C783.815 -1046.87 784.5 -1046.7 785.114 -1046.5C784.438 -1046.63 783.77 -1046.8 783.11 -1047ZM778.951 -1048.76C780.307 -1047.99 781.695 -1047.42 783.11 -1047C779.629 -1047.66 775.78 -1047.67 778.951 -1048.76ZM32.1016 -1048.02C32.1505 -1047.86 32.2051 -1047.7 32.2526 -1047.54C32.184 -1047.69 32.1334 -1047.85 32.1016 -1048.02ZM387.492 -1049.8C391.477 -1049.13 394.751 -1048.51 393.793 -1047.63C389.501 -1047.87 387.706 -1048.88 387.492 -1049.8ZM29.6436 -1055.39L32.8272 -1055.17C33.1488 -1055.12 33.4522 -1055.09 33.7305 -1055.05C33.9835 -1055 34.217 -1054.96 34.4295 -1054.92C35.2838 -1054.76 35.8277 -1054.57 36.1367 -1054.37C36.7519 -1053.95 36.4247 -1053.46 35.7606 -1052.84C35.0937 -1052.23 34.0856 -1051.51 33.339 -1050.63C33.2453 -1050.52 33.1572 -1050.41 33.0705 -1050.3C32.9531 -1050.17 32.8426 -1050.06 32.7392 -1049.95C32.5308 -1049.71 32.3617 -1049.47 32.2442 -1049.21C32.0705 -1048.84 32.02 -1048.42 32.1002 -1048.02C31.3503 -1050.5 30.5311 -1052.95 29.6436 -1055.39ZM1850.42 -1050.24C1855.72 -1055.08 1869.4 -1058.19 1877.84 -1053.44C1868.43 -1052.86 1859.04 -1050 1853.05 -1050C1852.08 -1050 1851.19 -1050.07 1850.42 -1050.24ZM1363.79 -1060.09L1360.04 -1050.42C1351.66 -1052.15 1349.9 -1063.03 1363.79 -1060.09ZM1232.71 -1053.22C1234.78 -1053.7 1236.63 -1053.99 1240.41 -1053.21C1239.89 -1052.77 1239.38 -1052.46 1238.72 -1052.15C1237.24 -1053.02 1235.41 -1053.54 1232.71 -1053.22ZM777.338 -1053.57C774.893 -1052.91 772.384 -1052.53 769.854 -1052.42L777.338 -1053.57ZM1232.71 -1053.22C1231.73 -1053 1230.7 -1052.73 1229.4 -1052.52C1230.48 -1052.84 1231.59 -1053.08 1232.71 -1053.22V-1053.22ZM490.082 -1058.83C488.017 -1058.51 486.279 -1058.36 484.406 -1058.14C486.572 -1059.08 488.751 -1059.59 490.082 -1058.83ZM1072.34 -1064.7C1071.51 -1063.18 1069.89 -1062.02 1068.2 -1060.92C1068.34 -1061.8 1069.28 -1062.89 1072.34 -1064.7ZM236.572 -1062.89L231.154 -1064.01L251.847 -1061.16L236.571 -1062.89H236.572ZM649.085 -1067.15C652.003 -1067 654.23 -1066.73 655.933 -1066.36C653.472 -1066.46 651.192 -1066.72 649.085 -1067.15ZM666.303 -1069.89C665.962 -1069.79 665.842 -1069.79 665.523 -1069.72C660.888 -1070.7 663.51 -1070.53 666.303 -1069.89Z" fill="#FAF3D5"/>
</g>
<defs>
<clipPath id="clip0_12_28">
<rect width="2052" height="106" fill="white"/>
</clipPath>
</defs>
</svg>
